v 228.715 -258.208 -273.051
v 228.715 -125 -273.051
v 248.564 -125 -251.404
v 248.564 -239.342 -251.404
v 228.715 -258.208 -273.051
v 248.564 -239.342 -251.404
v 248.564 -345 -251.404
v 228.715 -345 -273.051
v 248.564 -239.342 -251.404
v 248.564 -125 -251.404
v 259.582 -125 -235.324
v 259.582 -227.871 -235.324
v 248.564 -239.342 -251.404
v 259.582 -227.871 -235.324
v 259.582 -345 -235.324
v 248.564 -345 -251.404
v 259.582 -227.871 -235.324
v 259.582 -125 -235.324
v 268.263 -125 -217.87
v 268.263 -217.393 -217.87
v 259.582 -227.871 -235.324
v 268.263 -217.393 -217.87
v 268.263 -345 -217.87
v 259.582 -345 -235.324
v 268.263 -217.393 -217.87
v 268.263 -125 -217.87
v 274.478 -125 -199.394
v 274.478 -208.042 -199.394
v 268.263 -217.393 -217.87
v 274.478 -208.042 -199.394
v 274.478 -345 -199.394
v 268.263 -345 -217.87
v 274.478 -208.042 -199.394
v 274.478 -125 -199.394
v 278.154 -125 -180.251
v 278.154 -199.947 -180.251
v 274.478 -208.042 -199.394
v 278.154 -199.947 -180.251
v 278.154 -345 -180.251
v 274.478 -345 -199.394
v 278.154 -199.947 -180.251
v 278.154 -125 -180.251
v 279.266 -125 -160.79
v 279.266 -193.219 -160.79
v 278.154 -199.947 -180.251
v 279.266 -193.219 -160.79
v 279.266 -345 -160.79
v 278.154 -345 -180.251
v 279.266 -193.219 -160.79
v 279.266 -125 -160.79
v 277.837 -125 -141.349
v 277.837 -187.946 -141.349
v 279.266 -193.219 -160.79
v 277.837 -187.946 -141.349
v 277.837 -345 -141.349
v 279.266 -345 -160.79
v 277.837 -187.946 -141.349
v 277.837 -125 -141.349
v 273.932 -125 -122.251
v 273.932 -184.181 -122.251
v 277.837 -187.946 -141.349
v 273.932 -184.181 -122.251
v 273.932 -345 -122.251
v 277.837 -345 -141.349
v 273.932 -184.181 -122.251
v 273.932 -125 -122.251
v 267.657 -125 -103.795
v 267.657 -181.942 -103.795
v 273.932 -184.181 -122.251
v 267.657 -181.942 -103.795
v 267.657 -345 -103.795
v 273.932 -345 -122.251
v 267.657 -181.942 -103.795
v 267.657 -125 -103.795
v 259.203 -125 -86.3677
v 259.203 -181.205 -86.3677
v 267.657 -181.942 -103.795
v 259.203 -181.205 -86.3677
v 259.203 -345 -86.3677
v 267.657 -345 -103.795
v 259.203 -181.205 -86.3677
v 259.203 -125 -86.3677
v 248.628 -125 -69.9922
v 248.628 -181.905 -69.9922
v 259.203 -181.205 -86.3677
v 248.628 -181.905 -69.9922
v 248.628 -345 -69.9922
v 259.203 -345 -86.3677
v 248.628 -181.905 -69.9922
v 248.628 -125 -69.9922
v 236.176 -125 -54.9949
v 236.176 -183.962 -54.9949
v 248.628 -181.905 -69.9922
v 236.176 -183.962 -54.9949
v 236.176 -345 -54.9949
v 248.628 -345 -69.9922
v 236.176 -183.962 -54.9949
v 236.176 -125 -54.9949
v 222.053 -125 -41.5589
v 222.053 -187.27 -41.5589
v 236.176 -183.962 -54.9949
v 222.053 -187.27 -41.5589
v 222.053 -345 -41.5589
v 236.176 -345 -54.9949
v 222.053 -187.27 -41.5589
v 222.053 -125 -41.5589
v 206.479 -125 -29.8351
v 206.479 -191.708 -29.8351
v 222.053 -187.27 -41.5589
v 206.479 -191.708 -29.8351
v 206.479 -345 -29.8351
v 222.053 -345 -41.5589
v 206.479 -191.708 -29.8351
v 206.479 -125 -29.8351
v 189.683 -125 -19.9422
v 189.683 -197.153 -19.9422
v 206.479 -191.708 -29.8351
v 189.683 -197.153 -19.9422
v 189.683 -345 -19.9422
v 206.479 -345 -29.8351
v 189.683 -197.153 -19.9422
v 189.683 -125 -19.9422
v 171.896 -125 -11.9676
v 171.896 -203.484 -11.9676
v 189.683 -197.153 -19.9422
v 171.896 -203.484 -11.9676
v 171.896 -345 -11.9676
v 189.683 -345 -19.9422
v 171.896 -203.484 -11.9676
v 171.896 -125 -11.9676
v 153.348 -125 -5.96862
v 153.348 -210.585 -5.96862
v 171.896 -203.484 -11.9676
v 153.348 -210.585 -5.96862
v 153.348 -345 -5.96862
v 171.896 -345 -11.9676
v 153.348 -210.585 -5.96862
v 153.348 -125 -5.96862
v 134.269 -125 -1.97426
v 134.269 -218.35 -1.97426
v 153.348 -210.585 -5.96862
v 134.269 -218.35 -1.97426
v 134.269 -345 -1.97426
v 153.348 -345 -5.96862
v 134.269 -218.35 -1.97426
v 134.269 -125 -1.97426
v 115 -125 0
v 115 -226.63 0
v 134.269 -218.35 -1.97426
v 115 -226.63 0
v 115 -345 0
v 134.269 -345 -1.97426
v 115 -226.63 0
v 115 -125 0
v 85 -125 0
v 85 -240.37 0
v 115 -226.63 0
v 85 -240.37 0
v 85 -345 0
v 115 -345 0
vn 0.737057 1.57261e-16 -0.67583
vn 0.737057 0 -0.67583
vn 0.824929 -6.45511e-17 -0.565236
vn 0.824929 0 -0.565236
vn 0.895372 0 -0.445319
vn 0.895372 1.02834e-16 -0.445319
vn 0.947802 0 -0.318859
vn 0.947802 -6.38753e-17 -0.318859
vn 0.98206 0 -0.188567
vn 0.98206 -3.51811e-17 -0.188567
vn 0.998372 0 -0.0570334
vn 0.998372 -1.0807e-17 -0.0570334
vn 0.997308 0 0.0733255
vn 0.997308 1.2765e-17 0.0733255
vn 0.979735 0 0.2003
vn 0.979735 1.81326e-17 0.2003
vn 0.946768 0 0.321917
vn 0.946768 2.68254e-17 0.321917
vn 0.899724 0 0.436459
vn 0.899724 3.58332e-17 0.436459
vn 0.840064 0 0.542488
vn 0.840064 5.36386e-17 0.542488
vn 0.769365 0 0.638809
vn 0.769365 2.71619e-17 0.638809
vn 0.689267 8.73094e-17 0.724508
vn 0.689267 2.77315e-17 0.724508
vn 0.60143 9.11633e-17 0.798926
vn 0.60143 5.7069e-17 0.798926
vn 0.507504 1.24449e-16 0.861649
vn 0.507504 3.94472e-17 0.861649
vn 0.409097 4.49295e-17 0.912491
vn 0.409097 8.24238e-17 0.912491
vn 0.30775 0 0.951467
vn 0.30775 2.71182e-17 0.951467
vn 0.204911 2.74183e-17 0.978781
vn 0.204911 5.75616e-18 0.978781
vn 0.101924 -9.1937e-18 0.994792
vn 0.101924 -1.2396e-17 0.994792
vn 0 0 1
vn 0 0 1
f 1//1 2//1 3//1 4//1 
f 5//2 6//2 7//2 8//2 
f 9//3 10//3 11//3 12//3 
f 13//4 14//4 15//4 16//4 
f 17//5 18//5 19//5 20//5 
f 21//6 22//6 23//6 24//6 
f 25//7 26//7 27//7 28//7 
f 29//8 30//8 31//8 32//8 
f 33//9 34//9 35//9 36//9 
f 37//10 38//10 39//10 40//10 
f 41//11 42//11 43//11 44//11 
f 45//12 46//12 47//12 48//12 
f 49//13 50//13 51//13 52//13 
f 53//14 54//14 55//14 56//14 
f 57//15 58//15 59//15 60//15 
f 61//16 62//16 63//16 64//16 
f 65//17 66//17 67//17 68//17 
f 69//18 70//18 71//18 72//18 
f 73//19 74//19 75//19 76//19 
f 77//20 78//20 79//20 80//20 
f 81//21 82//21 83//21 84//21 
f 85//22 86//22 87//22 88//22 
f 89//23 90//23 91//23 92//23 
f 93//24 94//24 95//24 96//24 
f 97//25 98//25 99//25 100//25 
f 101//26 102//26 103//26 104//26 
f 105//27 106//27 107//27 108//27 
f 109//28 110//28 111//28 112//28 
f 113//29 114//29 115//29 116//29 
f 117//30 118//30 119//30 120//30 
f 121//31 122//31 123//31 124//31 
f 125//32 126//32 127//32 128//32 
f 129//33 130//33 131//33 132//33 
f 133//34 134//34 135//34 136//34 
f 137//35 138//35 139//35 140//35 
f 141//36 142//36 143//36 144//36 
f 145//37 146//37 147//37 148//37 
f 149//38 150//38 151//38 152//38 
f 153//39 154//39 155//39 156//39 
f 157//40 158//40 159//40 160//40 
