v 228.715 -258.208 -273.051
v 228.715 -125 -273.051
v 247.268 -125 -250.375
v 247.268 -239.974 -250.375
v 228.715 -258.208 -273.051
v 247.268 -239.974 -250.375
v 247.268 -345 -250.375
v 228.715 -345 -273.051
v 247.268 -239.974 -250.375
v 247.268 -125 -250.375
v 259.582 -125 -235.324
v 259.582 -227.871 -235.324
v 247.268 -239.974 -250.375
v 259.582 -227.871 -235.324
v 259.582 -345 -235.324
v 247.268 -345 -250.375
v 259.582 -227.871 -235.324
v 259.582 -125 -235.324
v 267.03 -125 -217.359
v 267.03 -217.957 -217.359
v 259.582 -227.871 -235.324
v 267.03 -217.957 -217.359
v 267.03 -345 -217.359
v 259.582 -345 -235.324
v 267.03 -217.957 -217.359
v 267.03 -125 -217.359
v 274.478 -125 -199.394
v 274.478 -208.042 -199.394
v 267.03 -217.957 -217.359
v 274.478 -208.042 -199.394
v 274.478 -345 -199.394
v 267.03 -345 -217.359
v 274.478 -208.042 -199.394
v 274.478 -125 -199.394
v 275.598 -125 -180.046
v 275.598 -201.343 -180.046
v 274.478 -208.042 -199.394
v 275.598 -201.343 -180.046
v 275.598 -345 -180.046
v 274.478 -345 -199.394
v 275.598 -201.343 -180.046
v 275.598 -125 -180.046
v 276.717 -125 -160.697
v 276.717 -194.645 -160.697
v 275.598 -201.343 -180.046
v 276.717 -194.645 -160.697
v 276.717 -345 -160.697
v 275.598 -345 -180.046
v 276.717 -194.645 -160.697
v 276.717 -125 -160.697
v 277.837 -125 -141.349
v 277.837 -187.946 -141.349
v 276.717 -194.645 -160.697
v 277.837 -187.946 -141.349
v 277.837 -345 -141.349
v 276.717 -345 -160.697
v 277.837 -187.946 -141.349
v 277.837 -125 -141.349
v 273.932 -125 -122.251
v 273.932 -184.181 -122.251
v 277.837 -187.946 -141.349
v 273.932 -184.181 -122.251
v 273.932 -345 -122.251
v 277.837 -345 -141.349
v 273.932 -184.181 -122.251
v 273.932 -125 -122.251
v 267.657 -125 -103.795
v 267.657 -181.942 -103.795
v 273.932 -184.181 -122.251
v 267.657 -181.942 -103.795
v 267.657 -345 -103.795
v 273.932 -345 -122.251
v 267.657 -181.942 -103.795
v 267.657 -125 -103.795
v 258.173 -125 -86.9474
v 258.173 -181.923 -86.9474
v 267.657 -181.942 -103.795
v 258.173 -181.923 -86.9474
v 258.173 -345 -86.9473
v 267.657 -345 -103.795
v 258.173 -181.923 -86.9474
v 258.173 -125 -86.9474
v 248.628 -125 -69.9922
v 248.628 -181.905 -69.9922
v 258.173 -181.923 -86.9474
v 248.628 -181.905 -69.9922
v 248.628 -345 -69.9922
v 258.173 -345 -86.9473
v 248.628 -181.905 -69.9922
v 248.628 -125 -69.9922
v 234.578 -125 -56.6065
v 234.578 -185.172 -56.6065
v 248.628 -181.905 -69.9922
v 234.578 -185.172 -56.6065
v 234.578 -345 -56.6064
v 248.628 -345 -69.9922
v 234.578 -185.172 -56.6065
v 234.578 -125 -56.6065
v 220.529 -125 -43.2208
v 220.529 -188.44 -43.2208
v 234.578 -185.172 -56.6065
v 220.529 -188.44 -43.2208
v 220.529 -345 -43.2207
v 234.578 -345 -56.6064
v 220.529 -188.44 -43.2208
v 220.529 -125 -43.2208
v 206.479 -125 -29.8351
v 206.479 -191.708 -29.8351
v 220.529 -188.44 -43.2208
v 206.479 -191.708 -29.8351
v 206.479 -345 -29.8351
v 220.529 -345 -43.2207
v 206.479 -191.708 -29.8351
v 206.479 -125 -29.8351
v 189.187 -125 -20.9014
v 189.187 -197.596 -20.9014
v 206.479 -191.708 -29.8351
v 189.187 -197.596 -20.9014
v 189.187 -345 -20.9013
v 206.479 -345 -29.8351
v 189.187 -197.596 -20.9014
v 189.187 -125 -20.9014
v 171.896 -125 -11.9676
v 171.896 -203.484 -11.9676
v 189.187 -197.596 -20.9014
v 171.896 -203.484 -11.9676
v 171.896 -345 -11.9676
v 189.187 -345 -20.9013
v 171.896 -203.484 -11.9676
v 171.896 -125 -11.9676
v 152.725 -125 -9.32733
v 152.725 -211.622 -9.32733
v 171.896 -203.484 -11.9676
v 152.725 -211.622 -9.32733
v 152.725 -345 -9.32733
v 171.896 -345 -11.9676
v 152.725 -211.622 -9.32733
v 152.725 -125 -9.32733
v 133.554 -125 -6.68703
v 133.554 -219.76 -6.68703
v 152.725 -211.622 -9.32733
v 133.554 -219.76 -6.68703
v 133.554 -345 -6.68703
v 152.725 -345 -9.32733
v 133.554 -219.76 -6.68703
v 133.554 -125 -6.68703
v 114.504 -125 -4.06343
v 114.504 -227.846 -4.06343
v 133.554 -219.76 -6.68703
v 114.504 -227.846 -4.06343
v 114.504 -345 -4.06343
v 133.554 -345 -6.68703
v 114.504 -227.846 -4.06343
v 114.504 -125 -4.06343
v 85 -125 0
v 85 -240.37 0
v 114.504 -227.846 -4.06343
v 85 -240.37 0
v 85 -345 0
v 114.504 -345 -4.06343
vn 0.773966 1.65136e-16 -0.633227
vn 0.773966 0 -0.633227
vn 0.773966 -1.42803e-16 -0.633227
vn 0.773966 0 -0.633227
vn 0.923754 0 -0.382987
vn 0.923754 8.05256e-17 -0.382987
vn 0.923754 1.21787e-16 -0.382987
vn 0.923754 -8.53673e-17 -0.382987
vn 0.998331 0 -0.0577578
vn 0.998331 -1.65884e-17 -0.0577578
vn 0.998331 1.87886e-17 -0.0577578
vn 0.998331 -2.19452e-17 -0.0577578
vn 0.998331 5.74394e-17 -0.0577578
vn 0.998331 -9.33742e-18 -0.0577578
vn 0.979735 0 0.2003
vn 0.979735 1.81326e-17 0.2003
vn 0.946768 0 0.321917
vn 0.946768 2.68254e-17 0.321917
vn 0.871413 0 0.49055
vn 0.871413 1.53245e-16 0.49055
vn 0.871413 -5.64759e-16 0.49055
vn 0.871413 3.58254e-17 0.49055
vn 0.689793 0 0.724007
vn 0.689793 2.10767e-16 0.724007
vn 0.689793 1.56871e-16 0.724007
vn 0.689793 2.71297e-16 0.724007
vn 0.689793 3.98755e-16 0.724007
vn 0.689793 8.59906e-17 0.724007
vn 0.459005 1.00932e-16 0.888434
vn 0.459005 -7.9253e-17 0.888434
vn 0.459005 6.94793e-17 0.888434
vn 0.459005 9.28694e-17 0.888434
vn 0.136437 0 0.990649
vn 0.136437 3.85399e-17 0.990649
vn 0.136437 -2.7872e-17 0.990649
vn 0.136437 3.51807e-17 0.990649
vn 0.136437 2.47968e-17 0.990649
vn 0.136437 1.57702e-17 0.990649
vn 0.136437 -4.60478e-18 0.990649
vn 0.136437 0 0.990649
f 1//1 2//1 3//1 4//1 
f 5//2 6//2 7//2 8//2 
f 9//3 10//3 11//3 12//3 
f 13//4 14//4 15//4 16//4 
f 17//5 18//5 19//5 20//5 
f 21//6 22//6 23//6 24//6 
f 25//7 26//7 27//7 28//7 
f 29//8 30//8 31//8 32//8 
f 33//9 34//9 35//9 36//9 
f 37//10 38//10 39//10 40//10 
f 41//11 42//11 43//11 44//11 
f 45//12 46//12 47//12 48//12 
f 49//13 50//13 51//13 52//13 
f 53//14 54//14 55//14 56//14 
f 57//15 58//15 59//15 60//15 
f 61//16 62//16 63//16 64//16 
f 65//17 66//17 67//17 68//17 
f 69//18 70//18 71//18 72//18 
f 73//19 74//19 75//19 76//19 
f 77//20 78//20 79//20 80//20 
f 81//21 82//21 83//21 84//21 
f 85//22 86//22 87//22 88//22 
f 89//23 90//23 91//23 92//23 
f 93//24 94//24 95//24 96//24 
f 97//25 98//25 99//25 100//25 
f 101//26 102//26 103//26 104//26 
f 105//27 106//27 107//27 108//27 
f 109//28 110//28 111//28 112//28 
f 113//29 114//29 115//29 116//29 
f 117//30 118//30 119//30 120//30 
f 121//31 122//31 123//31 124//31 
f 125//32 126//32 127//32 128//32 
f 129//33 130//33 131//33 132//33 
f 133//34 134//34 135//34 136//34 
f 137//35 138//35 139//35 140//35 
f 141//36 142//36 143//36 144//36 
f 145//37 146//37 147//37 148//37 
f 149//38 150//38 151//38 152//38 
f 153//39 154//39 155//39 156//39 
f 157//40 158//40 159//40 160//40 
