v -37.6515 -220.81 -250.162
v -99.4975 -261.569 -234.009
v -101.073 -257.643 -230.79
v -54.8995 -208.772 -232.416
v -37.6515 -220.81 -250.162
v -54.8995 -208.772 -232.416
v -54.8995 -255 -232.416
v -37.6515 -255 -250.162
v -54.8995 -208.772 -232.416
v -101.073 -257.643 -230.79
v -106.439 -244.268 -219.82
v -65.7486 -201.2 -221.253
v -54.8995 -208.772 -232.416
v -65.7486 -201.2 -221.253
v -65.7486 -255 -221.253
v -54.8995 -255 -232.416
v -65.7486 -201.2 -221.253
v -106.439 -244.268 -219.82
v -111.806 -230.893 -208.85
v -76.5977 -193.628 -210.091
v -65.7486 -201.2 -221.253
v -76.5977 -193.628 -210.091
v -76.5977 -255 -210.091
v -65.7486 -255 -221.253
v -76.5977 -193.628 -210.091
v -111.806 -230.893 -208.85
v -117.173 -217.518 -197.881
v -87.4469 -186.056 -198.928
v -76.5977 -193.628 -210.091
v -87.4469 -186.056 -198.928
v -87.4469 -255 -198.928
v -76.5977 -255 -210.091
v -87.4469 -186.056 -198.928
v -117.173 -217.518 -197.881
v -122.127 -204.432 -187.336
v -98.296 -178.484 -187.765
v -87.4469 -186.056 -198.928
v -98.296 -178.484 -187.765
v -98.296 -255 -187.765
v -87.4469 -255 -198.928
v -98.296 -178.484 -187.765
v -122.127 -204.432 -187.336
v -115.766 -201.161 -169.352
v -93.8842 -176.874 -172.032
v -98.296 -178.484 -187.765
v -93.8842 -176.874 -172.032
v -93.8842 -255 -172.032
v -98.296 -255 -187.765
v -93.8842 -176.874 -172.032
v -115.766 -201.161 -169.352
v -109.497 -197.939 -151.628
v -89.4724 -175.264 -156.299
v -93.8842 -176.874 -172.032
v -89.4724 -175.264 -156.299
v -89.4724 -255 -156.299
v -93.8842 -255 -172.032
v -89.4724 -175.264 -156.299
v -109.497 -197.939 -151.628
v -103.2 -194.803 -133.323
v -85.0605 -173.655 -140.566
v -89.4724 -175.264 -156.299
v -85.0605 -173.655 -140.566
v -85.0605 -255 -140.566
v -89.4724 -255 -156.299
v -85.0605 -173.655 -140.566
v -103.2 -194.803 -133.323
v -90.6593 -202.473 -130.184
v -70.111 -177.957 -138.594
v -85.0605 -173.655 -140.566
v -70.111 -177.957 -138.594
v -70.111 -255 -138.594
v -85.0605 -255 -140.566
v -70.111 -177.957 -138.594
v -90.6593 -202.473 -130.184
v -78.0336 -210.195 -127.024
v -55.1616 -182.259 -136.622
v -70.111 -177.957 -138.594
v -55.1616 -182.259 -136.622
v -55.1616 -255 -136.622
v -70.111 -255 -138.594
v -55.1616 -182.259 -136.622
v -78.0336 -210.195 -127.024
v -65.3223 -217.97 -123.843
v -40.2121 -186.561 -134.65
v -55.1616 -182.259 -136.622
v -40.2121 -186.561 -134.65
v -40.2121 -255 -134.65
v -55.1616 -255 -136.622
v -40.2121 -186.561 -134.65
v -65.3223 -217.97 -123.843
v -52.5247 -225.797 -120.64
v -25.2626 -190.864 -132.678
v -40.2121 -186.561 -134.65
v -25.2626 -190.864 -132.678
v -25.2626 -255 -132.678
v -40.2121 -255 -134.65
v -25.2626 -190.864 -132.678
v -52.5247 -225.797 -120.64
v -39.6397 -233.677 -117.416
v -10.3131 -195.166 -130.706
v -25.2626 -190.864 -132.678
v -10.3131 -195.166 -130.706
v -10.3131 -255 -130.706
v -25.2626 -255 -132.678
v -10.3131 -195.166 -130.706
v -39.6397 -233.677 -117.416
v -26.6666 -241.612 -114.169
v 4.63638 -199.468 -128.734
v -10.3131 -195.166 -130.706
v 4.63638 -199.468 -128.734
v 4.63638 -255 -128.734
v -10.3131 -255 -130.706
v 4.63638 -199.468 -128.734
v -26.6666 -241.612 -114.169
v -13.6044 -249.601 -110.9
v 19.5859 -203.77 -126.762
v 4.63638 -199.468 -128.734
v 19.5859 -203.77 -126.762
v 19.5859 -255 -126.762
v 4.63638 -255 -128.734
v 19.5859 -203.77 -126.762
v -13.6044 -249.601 -110.9
v -0.452166 -257.645 -107.609
v 34.5354 -208.073 -124.79
v 19.5859 -203.77 -126.762
v 34.5354 -208.073 -124.79
v 34.5354 -255 -124.79
v 19.5859 -255 -126.762
v 34.5354 -208.073 -124.79
v -0.452166 -257.645 -107.609
v 12.791 -265.744 -104.294
v 49.4848 -212.375 -122.818
v 34.5354 -208.073 -124.79
v 49.4848 -212.375 -122.818
v 49.4848 -255 -122.818
v 34.5354 -255 -124.79
v 49.4848 -212.375 -122.818
v 12.791 -265.744 -104.294
v 26.1261 -273.9 -100.957
v 64.4343 -216.677 -120.845
v 49.4848 -212.375 -122.818
v 64.4343 -216.677 -120.845
v 64.4343 -255 -120.845
v 49.4848 -255 -122.818
v 64.4343 -216.677 -120.845
v 26.1261 -273.9 -100.957
v 39.554 -282.113 -97.5967
v 79.3838 -220.979 -118.873
v 64.4343 -216.677 -120.845
v 79.3838 -220.979 -118.873
v 79.3838 -255 -118.873
v 64.4343 -255 -120.845
v 79.3838 -220.979 -118.873
v 39.554 -282.113 -97.5967
v 53.0757 -290.383 -94.2127
v 94.3333 -225.282 -116.901
v 79.3838 -220.979 -118.873
v 94.3333 -225.282 -116.901
v 94.3333 -255 -116.901
v 79.3838 -255 -118.873
v 94.3333 -225.282 -116.901
v 53.0757 -290.383 -94.2127
v 69.9114 -300.486 -90.0702
v 109.283 -229.584 -114.929
v 94.3333 -225.282 -116.901
v 109.283 -229.584 -114.929
v 109.283 -255 -114.929
v 94.3333 -255 -116.901
v 109.283 -229.584 -114.929
v 69.9114 -300.486 -90.0702
v 70.4512 -300.457 -88.5941
v 114.821 -229.421 -99.5281
v 109.283 -229.584 -114.929
v 114.821 -229.421 -99.5281
v 114.821 -255 -99.5281
v 109.283 -255 -114.929
v 114.821 -229.421 -99.5281
v 70.4512 -300.457 -88.5941
v 70.9928 -300.428 -87.1128
v 120.359 -229.258 -84.127
v 114.821 -229.421 -99.5281
v 120.359 -229.258 -84.127
v 120.359 -255 -84.127
v 114.821 -255 -99.5281
v 120.359 -229.258 -84.127
v 70.9928 -300.428 -87.1128
v 70.4191 -300.607 -88.3957
v 125.898 -229.096 -68.726
v 120.359 -229.258 -84.127
v 125.898 -229.096 -68.726
v 125.898 -255 -68.726
v 120.359 -255 -84.127
v 125.898 -229.096 -68.726
v 70.4191 -300.607 -88.3957
v 63.7981 -289.047 -76.5212
v 115.155 -222.849 -58.3126
v 125.898 -229.096 -68.726
v 115.155 -222.849 -58.3126
v 115.155 -255 -58.3126
v 125.898 -255 -68.726
v 115.155 -222.849 -58.3126
v 63.7981 -289.047 -76.5212
v 57.1771 -277.488 -64.6466
v 104.413 -216.601 -47.8993
v 115.155 -222.849 -58.3126
v 104.413 -216.601 -47.8993
v 104.413 -255 -47.8993
v 115.155 -255 -58.3126
v 104.413 -216.601 -47.8993
v 57.1771 -277.488 -64.6466
v 50.556 -265.928 -52.7721
v 93.6704 -210.354 -37.486
v 104.413 -216.601 -47.8993
v 93.6704 -210.354 -37.486
v 93.6704 -255 -37.486
v 104.413 -255 -47.8993
v 93.6704 -210.354 -37.486
v 50.556 -265.928 -52.7721
v 43.935 -254.369 -40.8975
v 82.9281 -204.107 -27.0726
v 93.6704 -210.354 -37.486
v 82.9281 -204.107 -27.0726
v 82.9281 -255 -27.0726
v 93.6704 -255 -37.486
v 82.9281 -204.107 -27.0726
v 43.935 -254.369 -40.8975
v 37.3139 -242.809 -29.0229
v 72.1857 -197.86 -16.6593
v 82.9281 -204.107 -27.0726
v 72.1857 -197.86 -16.6593
v 72.1857 -255 -16.6593
v 82.9281 -255 -27.0726
v 72.1857 -197.86 -16.6593
v 37.3139 -242.809 -29.0229
v 30.6929 -231.249 -17.1484
v 61.4433 -191.612 -6.24592
v 72.1857 -197.86 -16.6593
v 61.4433 -191.612 -6.24592
v 61.4433 -255 -6.24592
v 72.1857 -255 -16.6593
v 61.4433 -191.612 -6.24592
v 30.6929 -231.249 -17.1484
v 19.9893 -212.509 2.08542
v 55 -187.865 0
v 61.4433 -191.612 -6.24592
v 55 -187.865 0
v 55 -255 0
v 61.4433 -255 -6.24592
vn -0.483154 -0.431124 -0.762033
vn 0.717104 7.45312e-16 0.696966
vn -0.483154 -0.431124 -0.762033
vn 0.717104 3.05439e-16 0.696966
vn -0.483154 -0.431124 -0.762033
vn 0.717104 7.58638e-16 0.696966
vn -0.483154 -0.431124 -0.762033
vn 0.717104 6.88559e-16 0.696966
vn -0.483154 -0.431124 -0.762033
vn 0.717104 1.19312e-16 0.696966
vn -0.728589 -0.67139 0.13562
vn 0.962859 1.33585e-16 -0.270004
vn -0.728589 -0.67139 0.13562
vn 0.962859 2.39961e-16 -0.270004
vn -0.728589 -0.67139 0.13562
vn 0.962859 -2.1383e-17 -0.270004
vn -0.0251103 -0.343147 0.938946
vn 0.130784 -3.82265e-16 -0.991411
vn -0.0251103 -0.343147 0.938946
vn 0.130784 -3.33616e-16 -0.991411
vn -0.0251103 -0.343147 0.938946
vn 0.130784 -4.88849e-16 -0.991411
vn -0.0251103 -0.343147 0.938946
vn 0.130784 -3.82047e-16 -0.991411
vn -0.0251103 -0.343147 0.938946
vn 0.130784 -1.53569e-16 -0.991411
vn -0.0251103 -0.343147 0.938946
vn 0.130784 -4.32759e-16 -0.991411
vn -0.0251103 -0.343147 0.938946
vn 0.130784 -2.3915e-16 -0.991411
vn -0.0251103 -0.343147 0.938946
vn 0.130784 -2.30951e-16 -0.991411
vn -0.0251103 -0.343147 0.938946
vn 0.130784 -2.26624e-16 -0.991411
vn -0.0251103 -0.343147 0.938946
vn 0.130784 -7.31604e-16 -0.991411
vn -0.0251103 -0.343147 0.938946
vn 0.130784 -5.33256e-16 -0.991411
vn -0.0251103 -0.343147 0.938946
vn 0.130784 -6.26309e-16 -0.991411
vn -0.0251103 -0.343147 0.938946
vn 0.130784 0 -0.991411
vn -0.794286 -0.53921 0.279933
vn 0.941006 0 -0.338389
vn -0.794286 -0.53921 0.279933
vn 0.941006 -2.69847e-16 -0.338389
vn 0.794286 0.53921 -0.279933
vn 0.941006 0 -0.338389
vn -0.414349 -0.525786 -0.742875
vn 0.696025 -1.18172e-16 0.718018
vn -0.414349 -0.525786 -0.742875
vn 0.696025 -1.48419e-16 0.718018
vn -0.414349 -0.525786 -0.742875
vn 0.696025 -6.38254e-17 0.718018
vn -0.414349 -0.525786 -0.742875
vn 0.696025 2.79954e-16 0.718018
vn -0.414349 -0.525786 -0.742875
vn 0.696025 -3.32461e-17 0.718018
vn -0.414349 -0.525786 -0.742875
vn 0.696025 -1.64832e-16 0.718018
vn -0.414349 -0.525786 -0.742875
vn 0.696025 0 0.718018
f 1//1 2//1 3//1 4//1 
f 5//2 6//2 7//2 8//2 
f 9//3 10//3 11//3 12//3 
f 13//4 14//4 15//4 16//4 
f 17//5 18//5 19//5 20//5 
f 21//6 22//6 23//6 24//6 
f 25//7 26//7 27//7 28//7 
f 29//8 30//8 31//8 32//8 
f 33//9 34//9 35//9 36//9 
f 37//10 38//10 39//10 40//10 
f 41//11 42//11 43//11 44//11 
f 45//12 46//12 47//12 48//12 
f 49//13 50//13 51//13 52//13 
f 53//14 54//14 55//14 56//14 
f 57//15 58//15 59//15 60//15 
f 61//16 62//16 63//16 64//16 
f 65//17 66//17 67//17 68//17 
f 69//18 70//18 71//18 72//18 
f 73//19 74//19 75//19 76//19 
f 77//20 78//20 79//20 80//20 
f 81//21 82//21 83//21 84//21 
f 85//22 86//22 87//22 88//22 
f 89//23 90//23 91//23 92//23 
f 93//24 94//24 95//24 96//24 
f 97//25 98//25 99//25 100//25 
f 101//26 102//26 103//26 104//26 
f 105//27 106//27 107//27 108//27 
f 109//28 110//28 111//28 112//28 
f 113//29 114//29 115//29 116//29 
f 117//30 118//30 119//30 120//30 
f 121//31 122//31 123//31 124//31 
f 125//32 126//32 127//32 128//32 
f 129//33 130//33 131//33 132//33 
f 133//34 134//34 135//34 136//34 
f 137//35 138//35 139//35 140//35 
f 141//36 142//36 143//36 144//36 
f 145//37 146//37 147//37 148//37 
f 149//38 150//38 151//38 152//38 
f 153//39 154//39 155//39 156//39 
f 157//40 158//40 159//40 160//40 
f 161//41 162//41 163//41 164//41 
f 165//42 166//42 167//42 168//42 
f 169//43 170//43 171//43 172//43 
f 173//44 174//44 175//44 176//44 
f 177//45 178//45 179//45 180//45 
f 181//46 182//46 183//46 184//46 
f 185//47 186//47 187//47 188//47 
f 189//48 190//48 191//48 192//48 
f 193//49 194//49 195//49 196//49 
f 197//50 198//50 199//50 200//50 
f 201//51 202//51 203//51 204//51 
f 205//52 206//52 207//52 208//52 
f 209//53 210//53 211//53 212//53 
f 213//54 214//54 215//54 216//54 
f 217//55 218//55 219//55 220//55 
f 221//56 222//56 223//56 224//56 
f 225//57 226//57 227//57 228//57 
f 229//58 230//58 231//58 232//58 
f 233//59 234//59 235//59 236//59 
f 237//60 238//60 239//60 240//60 
f 241//61 242//61 243//61 244//61 
f 245//62 246//62 247//62 248//62 
