v -25.234 -262.501 -52.8112
v 65 -218.453 0
v 85 -229.911 0
v 53.63 -377.731 -91.4487
v 41.0619 -364.082 -94.3977
v 139.178 -252.316 -117.521
v 128.004 -247.204 -130.604
v 36.9501 -359.324 -101.746
v 54.5256 -378.868 -92.0678
v 101.761 -238.414 -3.88508
v 117.213 -245.505 -11.4546
v 48.6243 -372.23 -86.4783
v 44.9309 -368.668 -83.1971
v 147.109 -256.005 -102.252
v 139.178 -252.316 -117.521
v 41.0619 -364.082 -94.3977
v 48.6554 -372.261 -86.5191
v 130.556 -251.131 -22.3175
v 141.101 -255.243 -35.9127
v 45.2763 -369.178 -80.2038
v 45.0343 -369.139 -77.1628
v 151.794 -258.783 -68.3862
v 151.388 -258.178 -85.5871
v 45.0389 -368.813 -82.5461
v 45.7908 -369.593 -81.7164
v 148.304 -257.802 -51.5379
v 151.794 -258.783 -68.3862
v 45.0343 -369.139 -77.1628
v -120.603 -211.284 -229.587
v -108.171 -198.134 -185.05
v -16.042 -179.951 -164.606
v -27.2162 -177.139 -177.69
v -66.4923 -217.006 -118.534
v -24.6901 -261.328 -91.0884
v -2.20208 -184.772 -154.384
v -16.042 -179.951 -164.606
v -108.171 -198.134 -185.05
v -96.0571 -198.625 -162.125
v -39.4265 -178.59 -209.623
v -39.8318 -183.176 -226.824
v -64.5802 -203.075 -250.057
v -79.1259 -205.578 -245.319
v -36.3427 -190.428 -243.673
v -29.1994 -200.408 -259.168
v -64.5802 -203.075 -250.057
v -39.8318 -183.176 -226.824
v -36.3427 -190.428 -243.673
v -79.1259 -205.578 -245.319
v -114.415 -207.057 -232.384
v -35.1476 -176.618 -192.958
v -39.4265 -178.59 -209.623
v -96.0571 -198.625 -162.125
v -89.1246 -202.794 -146.315
v 13.5886 -191.246 -147.551
v -2.20208 -184.772 -154.384
v -24.6901 -261.328 -91.0884
v -18.1814 -289.775 -132.207
v 64.2607 -216.312 -149.94
v 47.701 -207.465 -145.27
v -65.7628 -219.953 -116.703
v -66.4923 -217.006 -118.534
v -27.2162 -177.139 -177.69
v -35.1476 -176.618 -192.958
v -114.415 -207.057 -232.384
v -29.1994 -355 -259.168
v -29.1994 -200.408 -259.168
v -36.3427 -190.428 -243.673
v -36.3427 -355 -243.673
v 65 -355 0
v 85 -355 0
v 85 -229.911 0
v 65 -218.453 0
v 85 -355 0
v 101.761 -355 -3.88508
v 101.761 -238.414 -3.88508
v 85 -229.911 0
v 53.63 -377.731 -91.4487
v 85 -229.911 0
v 101.761 -238.414 -3.88508
v 54.5256 -378.868 -92.0678
v 101.761 -355 -3.88508
v 117.213 -355 -11.4546
v 117.213 -245.505 -11.4546
v 101.761 -238.414 -3.88508
v 117.213 -355 -11.4546
v 130.556 -355 -22.3174
v 130.556 -251.131 -22.3175
v 117.213 -245.505 -11.4546
v 48.6243 -372.23 -86.4783
v 117.213 -245.505 -11.4546
v 130.556 -251.131 -22.3175
v 48.6554 -372.261 -86.5191
v 130.556 -355 -22.3174
v 141.101 -355 -35.9126
v 141.101 -255.243 -35.9127
v 130.556 -251.131 -22.3175
v 141.101 -355 -35.9126
v 148.304 -355 -51.5379
v 148.304 -257.802 -51.5379
v 141.101 -255.243 -35.9127
v 45.2763 -369.178 -80.2038
v 141.101 -255.243 -35.9127
v 148.304 -257.802 -51.5379
v 45.7908 -369.593 -81.7164
v 148.304 -355 -51.5379
v 151.794 -355 -68.3862
v 151.794 -258.783 -68.3862
v 148.304 -257.802 -51.5379
v 151.794 -355 -68.3862
v 151.388 -355 -85.5871
v 151.388 -258.178 -85.5871
v 151.794 -258.783 -68.3862
v 151.388 -355 -85.5871
v 147.109 -355 -102.252
v 147.109 -256.005 -102.252
v 151.388 -258.178 -85.5871
v 45.0389 -368.813 -82.5461
v 151.388 -258.178 -85.5871
v 147.109 -256.005 -102.252
v 44.9309 -368.668 -83.1971
v 147.109 -355 -102.252
v 139.178 -355 -117.521
v 139.178 -252.316 -117.521
v 147.109 -256.005 -102.252
v 139.178 -355 -117.521
v 128.004 -355 -130.604
v 128.004 -247.204 -130.604
v 139.178 -252.316 -117.521
v 128.004 -355 -130.604
v 114.164 -355 -140.827
v 114.164 -240.812 -140.827
v 128.004 -247.204 -130.604
v 36.9501 -359.324 -101.746
v 128.004 -247.204 -130.604
v 114.164 -240.812 -140.827
v 25.1197 -345.451 -115.727
v 114.164 -355 -140.827
v 98.3731 -355 -147.66
v 98.3731 -233.345 -147.66
v 114.164 -240.812 -140.827
v 25.1197 -345.451 -115.727
v 114.164 -240.812 -140.827
v 98.3731 -233.345 -147.66
v 13.7694 -331.677 -124.284
v 28.0237 -335.178 -97.854
v 30.5143 -198.959 -144.46
v 13.5886 -191.246 -147.551
v -89.1246 -202.794 -146.315
v -65.7628 -219.953 -116.703
v 47.701 -207.465 -145.27
v 30.5143 -198.959 -144.46
v 28.0237 -335.178 -97.854
v 98.3731 -355 -147.66
v 81.4474 -355 -150.751
v 81.4474 -225.068 -150.751
v 98.3731 -233.345 -147.66
v 13.7694 -331.677 -124.284
v 98.3731 -233.345 -147.66
v 81.4474 -225.068 -150.751
v -4.06884 -308.942 -131.436
v 81.4474 -355 -150.751
v 64.2607 -355 -149.94
v 64.2607 -216.312 -149.94
v 81.4474 -225.068 -150.751
v -4.06884 -308.942 -131.436
v 81.4474 -225.068 -150.751
v 64.2607 -216.312 -149.94
v -18.1814 -289.775 -132.207
v 64.2607 -355 -149.94
v 47.701 -355 -145.27
v 47.701 -207.465 -145.27
v 64.2607 -216.312 -149.94
v 47.701 -355 -145.27
v 30.5143 -355 -144.46
v 30.5143 -198.959 -144.46
v 47.701 -207.465 -145.27
v 30.5143 -355 -144.46
v 13.5886 -355 -147.551
v 13.5886 -191.246 -147.551
v 30.5143 -198.959 -144.46
v 13.5886 -355 -147.551
v -2.20208 -355 -154.384
v -2.20208 -184.772 -154.384
v 13.5886 -191.246 -147.551
v -2.20208 -355 -154.384
v -16.042 -355 -164.606
v -16.042 -179.951 -164.606
v -2.20208 -184.772 -154.384
v -16.042 -355 -164.606
v -27.2162 -355 -177.69
v -27.2162 -177.139 -177.69
v -16.042 -179.951 -164.606
v -27.2162 -355 -177.69
v -35.1476 -355 -192.958
v -35.1476 -176.618 -192.958
v -27.2162 -177.139 -177.69
v -35.1476 -355 -192.958
v -39.4265 -355 -209.623
v -39.4265 -178.59 -209.623
v -35.1476 -176.618 -192.958
v -39.4265 -355 -209.623
v -39.8318 -355 -226.824
v -39.8318 -183.176 -226.824
v -39.4265 -178.59 -209.623
v -39.8318 -355 -226.824
v -36.3427 -355 -243.673
v -36.3427 -190.428 -243.673
v -39.8318 -183.176 -226.824
vn 0.266685 0.465492 -0.843917
vn -0.134923 0.959898 -0.245748
vn 0.908143 -3.14258e-08 0.41866
vn 0 0 1
vn 0.225801 -9.92168e-11 0.974173
vn 0.0633249 0.515299 -0.854668
vn 0.439939 -1.31699e-09 0.898028
vn 0.631353 -8.81018e-09 0.775496
vn -0.331871 0.607078 -0.722024
vn 0.790155 -3.91698e-08 0.612907
vn 0.908143 -1.31046e-07 0.41866
vn -0.620622 0.676255 -0.396873
vn 0.979223 -1.23594e-07 0.202787
vn 0.999722 -1.06479e-07 -0.0235598
vn 0.968583 -8.20711e-08 -0.24869
vn -0.691478 0.671976 0.265152
vn 0.887413 -5.38335e-08 -0.460974
vn 0.760406 -2.54678e-08 -0.649448
vn 0.594121 -1.07399e-10 -0.804376
vn -0.357242 0.494121 0.792605
vn 0.397148 2.01817e-08 -0.917755
vn -0.204475 0.38942 0.898077
vn 0.179661 3.45253e-08 -0.983729
vn -0.0449716 0.267503 0.962507
vn -0.0471065 4.3071e-08 -0.99889
vn 0.106865 0.11838 0.987201
vn -0.27144 3.66446e-09 -0.962455
vn -0.0471065 3.11153e-09 -0.99889
vn 0.179661 -3.64101e-09 -0.983729
vn 0.397148 -9.51767e-09 -0.917755
vn 0.594121 -1.3676e-08 -0.804376
vn 0.760406 -1.60664e-08 -0.649448
vn 0.887413 -1.75611e-08 -0.460974
vn 0.968583 -1.99578e-08 -0.24869
vn 0.999722 -2.32469e-08 -0.0235598
vn 0.979223 -2.71506e-08 0.202787
f 1//1 2//1 3//1 4//1 5//1 6//1 7//1 8//1 9//1 10//1 11//1 12//1 13//1 14//1 15//1 16//1 17//1 18//1 19//1 20//1 21//1 22//1 23//1 24//1 25//1 26//1 27//1 28//1 
f 29//2 30//2 31//2 32//2 33//2 34//2 35//2 36//2 37//2 38//2 39//2 40//2 41//2 42//2 43//2 44//2 45//2 46//2 47//2 48//2 49//2 50//2 51//2 52//2 53//2 54//2 55//2 56//2 57//2 58//2 59//2 60//2 61//2 62//2 63//2 64//2 
f 65//3 66//3 67//3 68//3 
f 69//4 70//4 71//4 72//4 
f 73//5 74//5 75//5 76//5 
f 77//6 78//6 79//6 80//6 
f 81//7 82//7 83//7 84//7 
f 85//8 86//8 87//8 88//8 
f 89//9 90//9 91//9 92//9 
f 93//10 94//10 95//10 96//10 
f 97//11 98//11 99//11 100//11 
f 101//12 102//12 103//12 104//12 
f 105//13 106//13 107//13 108//13 
f 109//14 110//14 111//14 112//14 
f 113//15 114//15 115//15 116//15 
f 117//16 118//16 119//16 120//16 
f 121//17 122//17 123//17 124//17 
f 125//18 126//18 127//18 128//18 
f 129//19 130//19 131//19 132//19 
f 133//20 134//20 135//20 136//20 
f 137//21 138//21 139//21 140//21 
f 141//22 142//22 143//22 144//22 145//22 146//22 147//22 148//22 149//22 150//22 151//22 152//22 
f 153//23 154//23 155//23 156//23 
f 157//24 158//24 159//24 160//24 
f 161//25 162//25 163//25 164//25 
f 165//26 166//26 167//26 168//26 
f 169//27 170//27 171//27 172//27 
f 173//28 174//28 175//28 176//28 
f 177//29 178//29 179//29 180//29 
f 181//30 182//30 183//30 184//30 
f 185//31 186//31 187//31 188//31 
f 189//32 190//32 191//32 192//32 
f 193//33 194//33 195//33 196//33 
f 197//34 198//34 199//34 200//34 
f 201//35 202//35 203//35 204//35 
f 205//36 206//36 207//36 208//36 
