v 42.2717 -229.564 -12.2868
v 75 -194.508 0
v 93.5198 -200.923 -5.85374
v 62.6392 -245.189 -22.9052
v 105.032 -220.596 -330.35
v 99.4916 -215.916 -325.144
v 107.649 -182.659 -287.319
v 122.826 -188.864 -294.084
v 116.53 -214.533 -323.278
v 146.698 -245 -304.724
v 146.698 -198.624 -304.724
v 122.826 -188.864 -294.084
v 122.826 -245 -294.084
v 75 -245 0
v 93.5198 -245 -5.85374
v 93.5198 -200.923 -5.85374
v 75 -194.508 0
v 93.5198 -245 -5.85374
v 109.452 -245 -10.8896
v 109.452 -206.442 -10.8896
v 93.5198 -200.923 -5.85374
v 62.6392 -245.189 -22.9052
v 93.5198 -200.923 -5.85374
v 109.452 -206.442 -10.8896
v 75.5241 -255.077 -29.6239
v 109.452 -245 -10.8896
v 125.384 -245 -15.9255
v 125.385 -211.961 -15.9255
v 109.452 -206.442 -10.8896
v 75.5241 -255.077 -29.6239
v 109.452 -206.442 -10.8896
v 125.385 -211.961 -15.9255
v 88.4089 -264.964 -36.3426
v 125.384 -245 -15.9255
v 141.317 -245 -20.9614
v 141.317 -217.48 -20.9614
v 125.385 -211.961 -15.9255
v 88.4089 -264.964 -36.3426
v 125.385 -211.961 -15.9255
v 141.317 -217.48 -20.9614
v 101.294 -274.852 -43.0612
v 141.317 -245 -20.9614
v 151.135 -245 -34.9702
v 151.135 -219.622 -34.9701
v 141.317 -217.48 -20.9614
v 101.294 -274.852 -43.0612
v 141.317 -217.48 -20.9614
v 151.135 -219.622 -34.9701
v 111.102 -279.233 -59.7422
v 151.135 -245 -34.9702
v 160.953 -245 -48.9789
v 160.953 -221.764 -48.9789
v 151.135 -219.622 -34.9701
v 111.102 -279.233 -59.7422
v 151.135 -219.622 -34.9701
v 160.953 -221.764 -48.9789
v 121.047 -283.654 -76.6286
v 160.953 -245 -48.9789
v 162.179 -245 -65.8729
v 162.179 -220.837 -65.8729
v 160.953 -221.764 -48.9789
v 121.047 -283.654 -76.6286
v 160.953 -221.764 -48.9789
v 162.179 -220.837 -65.8729
v 121.32 -283.253 -76.8506
v 162.179 -245 -65.8729
v 163.405 -245 -82.7669
v 163.405 -219.91 -82.7669
v 162.179 -220.837 -65.8729
v 121.32 -283.253 -76.8506
v 162.179 -220.837 -65.8729
v 163.405 -219.91 -82.7669
v 121.533 -283.044 -78.9209
v 163.405 -245 -82.7669
v 164.631 -245 -99.6609
v 164.631 -218.983 -99.6609
v 163.405 -219.91 -82.7669
v 121.533 -283.044 -78.9209
v 163.405 -219.91 -82.7669
v 164.631 -218.983 -99.6609
v 121.751 -282.831 -81.0367
v 164.631 -245 -99.6609
v 154.312 -245 -112.252
v 154.312 -214.01 -112.252
v 164.631 -218.983 -99.6609
v 121.751 -282.831 -81.0367
v 164.631 -218.983 -99.6609
v 154.312 -214.01 -112.252
v 113.541 -273.257 -95.7705
v 154.312 -245 -112.252
v 143.993 -245 -124.844
v 143.993 -209.037 -124.844
v 154.312 -214.01 -112.252
v 113.541 -273.257 -95.7705
v 154.312 -214.01 -112.252
v 143.993 -209.037 -124.844
v 106.139 -263.988 -109.589
v 143.993 -245 -124.844
v 133.675 -245 -137.435
v 133.675 -204.064 -137.435
v 143.993 -209.037 -124.844
v 106.139 -263.988 -109.589
v 143.993 -209.037 -124.844
v 133.675 -204.064 -137.435
v 98.7404 -254.724 -123.402
v 133.675 -245 -137.435
v 123.356 -245 -150.026
v 123.356 -199.092 -150.026
v 133.675 -204.064 -137.435
v 98.7404 -254.724 -123.402
v 133.675 -204.064 -137.435
v 123.356 -199.092 -150.026
v 91.3451 -245.463 -137.208
v 123.356 -245 -150.026
v 113.037 -245 -162.618
v 113.037 -194.119 -162.618
v 123.356 -199.092 -150.026
v 91.3451 -245.463 -137.208
v 123.356 -199.092 -150.026
v 113.037 -194.119 -162.618
v 83.953 -236.207 -151.008
v 113.037 -245 -162.618
v 102.719 -245 -175.209
v 102.719 -189.146 -175.209
v 113.037 -194.119 -162.618
v 83.953 -236.207 -151.008
v 113.037 -194.119 -162.618
v 102.719 -189.146 -175.209
v 76.5643 -226.954 -164.802
v 102.719 -245 -175.209
v 92.4 -245 -187.8
v 92.4 -184.173 -187.8
v 102.719 -189.146 -175.209
v 76.5643 -226.954 -164.802
v 102.719 -189.146 -175.209
v 92.4 -184.173 -187.8
v 69.1789 -217.706 -178.59
v 92.4 -245 -187.8
v 82.0813 -245 -200.392
v 82.0813 -179.2 -200.392
v 92.4 -184.173 -187.8
v 69.1789 -217.706 -178.59
v 92.4 -184.173 -187.8
v 82.0813 -179.2 -200.392
v 61.7968 -208.462 -192.372
v 82.0813 -245 -200.392
v 71.7627 -245 -212.983
v 71.7627 -174.227 -212.983
v 82.0813 -179.2 -200.392
v 61.7968 -208.462 -192.372
v 82.0813 -179.2 -200.392
v 71.7627 -174.227 -212.983
v 54.418 -199.222 -206.147
v 71.7627 -245 -212.983
v 61.444 -245 -225.574
v 61.444 -169.254 -225.574
v 71.7627 -174.227 -212.983
v 54.418 -199.222 -206.147
v 71.7627 -174.227 -212.983
v 61.444 -169.254 -225.574
v 47.0424 -189.986 -219.916
v 61.444 -245 -225.574
v 66.7273 -245 -241.646
v 66.7273 -169.586 -241.646
v 61.444 -169.254 -225.574
v 47.0424 -189.986 -219.916
v 61.444 -169.254 -225.574
v 66.7273 -169.586 -241.646
v 55.6183 -190.784 -246.461
v 66.7273 -245 -241.646
v 72.0107 -245 -257.717
v 72.0107 -169.917 -257.717
v 66.7273 -169.586 -241.646
v 55.6183 -190.784 -246.461
v 66.7273 -169.586 -241.646
v 72.0107 -169.917 -257.717
v 63.9746 -191.789 -272.728
v 72.0107 -245 -257.717
v 77.294 -245 -273.789
v 77.294 -170.249 -273.789
v 72.0107 -169.917 -257.717
v 63.9746 -191.789 -272.728
v 72.0107 -169.917 -257.717
v 77.294 -170.249 -273.789
v 72.4717 -192.811 -299.438
v 77.294 -245 -273.789
v 92.4713 -245 -280.554
v 92.4713 -176.454 -280.554
v 77.294 -170.249 -273.789
v 72.4717 -192.811 -299.438
v 77.294 -170.249 -273.789
v 92.4713 -176.454 -280.554
v 85.6584 -204.232 -312.147
v 92.4713 -245 -280.554
v 107.649 -245 -287.319
v 107.649 -182.659 -287.319
v 92.4713 -176.454 -280.554
v 85.6584 -204.232 -312.147
v 92.4713 -176.454 -280.554
v 107.649 -182.659 -287.319
v 99.4916 -215.916 -325.144
v 107.649 -245 -287.319
v 122.826 -245 -294.084
v 122.826 -188.864 -294.084
v 107.649 -182.659 -287.319
v 116.53 -214.533 -323.278
v 122.826 -188.864 -294.084
v 146.698 -198.624 -304.724
vn -0.131067 0.434654 -0.891009
vn 0.0115858 0.749706 -0.66167
vn 0.407114 -6.03714e-08 0.913377
vn 0.301383 -1.191e-07 0.953503
vn 0.301383 -1.191e-07 0.953503
vn -0.131068 0.434654 -0.891009
vn 0.301383 -1.191e-07 0.953503
vn -0.131068 0.434654 -0.891009
vn 0.301383 -1.191e-07 0.953503
vn -0.131068 0.434654 -0.891009
vn 0.818902 -1.35819e-07 0.573934
vn -0.598327 0.615163 -0.5134
vn 0.818902 -1.35819e-07 0.573934
vn -0.598327 0.615163 -0.5134
vn 0.997378 -7.0151e-08 0.0723696
vn -0.83384 0.551175 -0.030264
vn 0.997378 -7.0151e-08 0.0723696
vn -0.83384 0.551175 -0.0302638
vn 0.997378 -7.0151e-08 0.0723696
vn -0.83384 0.551175 -0.0302638
vn 0.773456 2.70059e-08 -0.63385
vn -0.529827 0.545303 0.64956
vn 0.773456 2.70059e-08 -0.63385
vn -0.529827 0.545303 0.64956
vn 0.773456 2.70059e-08 -0.63385
vn -0.529827 0.545303 0.64956
vn 0.773456 2.70059e-08 -0.63385
vn -0.529827 0.545303 0.64956
vn 0.773456 2.70059e-08 -0.63385
vn -0.529827 0.545303 0.64956
vn 0.773456 2.70059e-08 -0.63385
vn -0.529827 0.545303 0.64956
vn 0.773456 2.70059e-08 -0.63385
vn -0.529827 0.545303 0.64956
vn 0.773456 2.70059e-08 -0.63385
vn -0.529827 0.545303 0.64956
vn 0.773456 2.70059e-08 -0.63385
vn -0.529827 0.545303 0.64956
vn 0.773456 2.70059e-08 -0.63385
vn -0.529827 0.545303 0.64956
vn 0.949985 7.22476e-10 0.312295
vn -0.822484 0.494764 -0.280588
vn 0.949985 7.22475e-10 0.312295
vn -0.822484 0.494764 -0.280587
vn 0.949985 7.22475e-10 0.312295
vn -0.822484 0.494764 -0.280587
vn 0.407114 -6.03714e-08 0.913377
vn 0.011587 0.749706 -0.66167
vn 0.407114 -6.03714e-08 0.913377
vn 0.0115853 0.749706 -0.661669
vn 0.407114 -6.03714e-08 0.913377
vn 0.0115851 0.749706 -0.66167
f 1//1 2//1 3//1 4//1 
f 5//2 6//2 7//2 8//2 9//2 
f 10//3 11//3 12//3 13//3 
f 14//4 15//4 16//4 17//4 
f 18//5 19//5 20//5 21//5 
f 22//6 23//6 24//6 25//6 
f 26//7 27//7 28//7 29//7 
f 30//8 31//8 32//8 33//8 
f 34//9 35//9 36//9 37//9 
f 38//10 39//10 40//10 41//10 
f 42//11 43//11 44//11 45//11 
f 46//12 47//12 48//12 49//12 
f 50//13 51//13 52//13 53//13 
f 54//14 55//14 56//14 57//14 
f 58//15 59//15 60//15 61//15 
f 62//16 63//16 64//16 65//16 
f 66//17 67//17 68//17 69//17 
f 70//18 71//18 72//18 73//18 
f 74//19 75//19 76//19 77//19 
f 78//20 79//20 80//20 81//20 
f 82//21 83//21 84//21 85//21 
f 86//22 87//22 88//22 89//22 
f 90//23 91//23 92//23 93//23 
f 94//24 95//24 96//24 97//24 
f 98//25 99//25 100//25 101//25 
f 102//26 103//26 104//26 105//26 
f 106//27 107//27 108//27 109//27 
f 110//28 111//28 112//28 113//28 
f 114//29 115//29 116//29 117//29 
f 118//30 119//30 120//30 121//30 
f 122//31 123//31 124//31 125//31 
f 126//32 127//32 128//32 129//32 
f 130//33 131//33 132//33 133//33 
f 134//34 135//34 136//34 137//34 
f 138//35 139//35 140//35 141//35 
f 142//36 143//36 144//36 145//36 
f 146//37 147//37 148//37 149//37 
f 150//38 151//38 152//38 153//38 
f 154//39 155//39 156//39 157//39 
f 158//40 159//40 160//40 161//40 
f 162//41 163//41 164//41 165//41 
f 166//42 167//42 168//42 169//42 
f 170//43 171//43 172//43 173//43 
f 174//44 175//44 176//44 177//44 
f 178//45 179//45 180//45 181//45 
f 182//46 183//46 184//46 185//46 
f 186//47 187//47 188//47 189//47 
f 190//48 191//48 192//48 193//48 
f 194//49 195//49 196//49 197//49 
f 198//50 199//50 200//50 201//50 
f 202//51 203//51 204//51 205//51 
f 206//52 207//52 208//52 
