v 174.802 -287.407 29.7095
v 147.447 -259.826 26.6718
v 166.126 -185.669 -6.09309
v 179.881 -180.068 -11.8604
v 195.289 -268.471 17.151
v 215.974 -237.253 -280.537
v 223.781 -228.561 -271.453
v 170.208 -165.998 -238.253
v 150.544 -174.236 -250.458
v 210.921 -233.904 -279.4
v 127.744 -289.786 -263.516
v 130.938 -183.055 -258.962
v 150.544 -174.236 -250.458
v 169.815 -291.797 -245.897
v 95 -315 0
v 95.0801 -315 0
v 133.52 -199.448 0
v 95 -217.409 0
v 111.255 -228.723 12.7406
v 95 -217.409 0
v 133.52 -199.448 0
v 95.0801 -315 0
v 121.676 -314.911 -3.7899
v 150.902 -191.945 -2.12351
v 133.52 -199.448 0
v 111.255 -228.723 12.7406
v 133.52 -199.448 0
v 150.902 -191.945 -2.12351
v 126.974 -241.347 20.7111
v 121.676 -314.911 -3.7899
v 145.429 -314.6 -10.777
v 166.126 -185.669 -6.09309
v 150.902 -191.945 -2.12351
v 126.974 -241.347 20.7111
v 150.902 -191.945 -2.12351
v 166.126 -185.669 -6.09309
v 147.447 -259.826 26.6718
v 145.429 -314.6 -10.777
v 166.388 -314.005 -20.4452
v 179.881 -180.068 -11.8604
v 166.126 -185.669 -6.09309
v 166.388 -314.005 -20.4452
v 184.669 -313.105 -32.3956
v 192.501 -174.834 -19.5079
v 179.881 -180.068 -11.8604
v 195.289 -268.471 17.151
v 179.881 -180.068 -11.8604
v 192.501 -174.834 -19.5079
v 212.473 -252.77 3.26901
v 184.669 -313.105 -32.3956
v 200.304 -311.91 -46.2724
v 204.025 -169.833 -29.1423
v 192.501 -174.834 -19.5079
v 212.473 -252.77 3.26901
v 192.501 -174.834 -19.5079
v 204.025 -169.833 -29.1423
v 239.141 -228.127 -24.9837
v 200.304 -311.91 -46.2724
v 213.271 -310.452 -61.7298
v 214.298 -165.041 -40.8345
v 204.025 -169.833 -29.1423
v 239.141 -228.127 -24.9837
v 204.025 -169.833 -29.1423
v 214.298 -165.041 -40.8345
v 247.44 -220.17 -36.8436
v 213.271 -310.452 -61.7298
v 223.529 -308.78 -78.4134
v 223.048 -160.516 -54.5831
v 214.298 -165.041 -40.8345
v 247.44 -220.17 -36.8436
v 214.298 -165.041 -40.8345
v 223.048 -160.516 -54.5831
v 261.746 -205.557 -64.9201
v 223.529 -308.78 -78.4134
v 231.043 -306.954 -95.9546
v 229.938 -156.379 -70.2917
v 223.048 -160.516 -54.5831
v 261.746 -205.557 -64.9201
v 223.048 -160.516 -54.5831
v 229.938 -156.379 -70.2917
v 266.176 -200.526 -77.7261
v 231.043 -306.954 -95.9546
v 235.804 -305.038 -113.976
v 234.617 -152.799 -87.7589
v 229.938 -156.379 -70.2917
v 266.176 -200.526 -77.7261
v 229.938 -156.379 -70.2917
v 234.617 -152.799 -87.7589
v 272.34 -192.146 -107.253
v 235.804 -305.038 -113.976
v 237.846 -303.1 -132.102
v 236.757 -149.974 -106.677
v 234.617 -152.799 -87.7589
v 272.34 -192.146 -107.253
v 234.617 -152.799 -87.7589
v 236.757 -149.974 -106.677
v 273.505 -189.684 -120.805
v 237.846 -303.1 -132.102
v 237.245 -301.201 -149.975
v 236.088 -148.116 -126.639
v 236.757 -149.974 -106.677
v 273.505 -189.684 -120.805
v 236.757 -149.974 -106.677
v 236.088 -148.116 -126.639
v 272.752 -187.142 -151.297
v 237.245 -301.201 -149.975
v 234.115 -299.395 -167.268
v 232.425 -147.429 -147.155
v 236.088 -148.116 -126.639
v 272.752 -187.142 -151.297
v 236.088 -148.116 -126.639
v 232.425 -147.429 -147.155
v 271.104 -187.346 -164.195
v 234.115 -299.395 -167.268
v 228.598 -297.723 -183.697
v 225.687 -148.091 -167.671
v 232.425 -147.429 -147.155
v 271.104 -187.346 -164.195
v 232.425 -147.429 -147.155
v 225.687 -148.091 -167.671
v 264.192 -191.013 -194.458
v 228.598 -297.723 -183.697
v 220.847 -296.214 -199.023
v 215.906 -150.233 -187.604
v 225.687 -148.091 -167.671
v 264.192 -191.013 -194.458
v 225.687 -148.091 -167.671
v 215.906 -150.233 -187.604
v 260.54 -193.619 -205.601
v 220.847 -296.214 -199.023
v 211.004 -294.878 -213.056
v 203.226 -153.932 -206.369
v 215.906 -150.233 -187.604
v 260.54 -193.619 -205.601
v 215.906 -150.233 -187.604
v 203.226 -153.932 -206.369
v 247.848 -204.274 -234.745
v 211.004 -294.878 -213.056
v 199.182 -293.712 -225.638
v 187.888 -159.201 -223.417
v 203.226 -153.932 -206.369
v 247.848 -204.274 -234.745
v 203.226 -153.932 -206.369
v 187.888 -159.201 -223.417
v 242.641 -209.153 -244.202
v 199.182 -293.712 -225.638
v 185.448 -292.697 -236.632
v 170.208 -165.998 -238.253
v 187.888 -159.201 -223.417
v 242.641 -209.153 -244.202
v 187.888 -159.201 -223.417
v 170.208 -165.998 -238.253
v 223.781 -228.561 -271.453
v 185.448 -292.697 -236.632
v 169.815 -291.797 -245.897
v 150.544 -174.236 -250.458
v 170.208 -165.998 -238.253
v 210.921 -233.904 -279.4
v 150.544 -174.236 -250.458
v 130.938 -183.055 -258.962
vn -0.242313 -0.340384 -0.908528
vn -0.22505 -0.600074 0.767636
vn 0.387278 0.0277297 -0.921546
vn 0 0 1
vn 0.252258 -0.541021 -0.802285
vn 0.141071 -0.0469297 0.988886
vn 0.0868036 -0.452322 -0.88762
vn 0.28226 -0.0800404 0.955993
vn -0.0806054 -0.385772 -0.919066
vn 0.419112 -0.100062 0.902404
vn 0.547677 -0.10835 0.829644
vn -0.37636 -0.347447 -0.858856
vn 0.664579 -0.106577 0.739579
vn -0.502203 -0.358655 -0.786866
vn 0.767005 -0.0965702 0.634332
vn -0.596163 -0.408432 -0.691211
vn 0.852679 -0.0802062 0.516242
vn -0.678847 -0.4501 -0.580152
vn 0.919821 -0.0593477 0.387824
vn -0.724577 -0.518276 -0.454288
vn 0.967134 -0.0358062 0.251734
vn -0.758093 -0.568472 -0.319586
vn 0.993785 -0.0113179 0.11074
vn -0.753053 -0.632943 -0.179705
vn 0.9994 0.0124751 -0.0323158
vn -0.740083 -0.671457 -0.0377107
vn 0.984058 0.0340424 -0.17456
vn -0.692938 -0.714055 0.0998088
vn 0.948287 0.0519851 -0.313128
vn -0.645781 -0.726292 0.235514
vn 0.893055 0.0650574 -0.44522
vn -0.571688 -0.737379 0.359784
vn 0.819756 0.0721921 -0.568144
vn -0.503304 -0.71752 0.481508
vn 0.730193 0.0725265 -0.679381
vn -0.412825 -0.696639 0.586746
vn 0.62654 0.0654301 -0.776638
vn -0.328818 -0.646762 0.68817
vn 0.511308 0.0505297 -0.857911
vn -0.124103 -0.531896 0.837667
f 1//1 2//1 3//1 4//1 5//1 
f 6//2 7//2 8//2 9//2 10//2 
f 11//3 12//3 13//3 14//3 
f 15//4 16//4 17//4 18//4 
f 19//5 20//5 21//5 
f 22//6 23//6 24//6 25//6 
f 26//7 27//7 28//7 29//7 
f 30//8 31//8 32//8 33//8 
f 34//9 35//9 36//9 37//9 
f 38//10 39//10 40//10 41//10 
f 42//11 43//11 44//11 45//11 
f 46//12 47//12 48//12 49//12 
f 50//13 51//13 52//13 53//13 
f 54//14 55//14 56//14 57//14 
f 58//15 59//15 60//15 61//15 
f 62//16 63//16 64//16 65//16 
f 66//17 67//17 68//17 69//17 
f 70//18 71//18 72//18 73//18 
f 74//19 75//19 76//19 77//19 
f 78//20 79//20 80//20 81//20 
f 82//21 83//21 84//21 85//21 
f 86//22 87//22 88//22 89//22 
f 90//23 91//23 92//23 93//23 
f 94//24 95//24 96//24 97//24 
f 98//25 99//25 100//25 101//25 
f 102//26 103//26 104//26 105//26 
f 106//27 107//27 108//27 109//27 
f 110//28 111//28 112//28 113//28 
f 114//29 115//29 116//29 117//29 
f 118//30 119//30 120//30 121//30 
f 122//31 123//31 124//31 125//31 
f 126//32 127//32 128//32 129//32 
f 130//33 131//33 132//33 133//33 
f 134//34 135//34 136//34 137//34 
f 138//35 139//35 140//35 141//35 
f 142//36 143//36 144//36 145//36 
f 146//37 147//37 148//37 149//37 
f 150//38 151//38 152//38 153//38 
f 154//39 155//39 156//39 157//39 
f 158//40 159//40 160//40 
