v 95 -95 0
v 95 -129.869 0
v 135 -155.964 0
v 135 -95 0
v 204.729 -95 -273.166
v 232.665 -95 -246.932
v 232.665 -156.298 -246.932
v 204.729 -132.905 -273.166
v 204.729 -355 -273.166
v 204.729 -132.905 -273.166
v 232.665 -156.298 -246.932
v 232.665 -355 -246.932
v 95 -355 0
v 135 -355 0
v 135 -155.964 0
v 95 -129.869 0
v 135 -355 0
v 153.178 -355 -2.29645
v 153.178 -166.837 -2.29645
v 135 -155.964 0
v 135 -95 0
v 135 -155.964 0
v 153.178 -166.837 -2.29645
v 153.178 -95 -2.29645
v 153.178 -355 -2.29645
v 171.038 -355 -6.88216
v 171.038 -176.62 -6.88216
v 153.178 -166.837 -2.29645
v 153.178 -95 -2.29645
v 153.178 -166.837 -2.29645
v 171.038 -176.62 -6.88216
v 171.038 -95 -6.88216
v 171.038 -355 -6.88216
v 188.183 -355 -13.6702
v 188.183 -185.185 -13.6702
v 171.038 -176.62 -6.88216
v 171.038 -95 -6.88216
v 171.038 -176.62 -6.88216
v 188.183 -185.185 -13.6702
v 188.183 -95 -13.6702
v 188.183 -355 -13.6702
v 204.342 -355 -22.5535
v 204.342 -192.479 -22.5535
v 188.183 -185.185 -13.6702
v 188.183 -95 -13.6702
v 188.183 -185.185 -13.6702
v 204.342 -192.479 -22.5535
v 204.342 -95 -22.5535
v 204.342 -355 -22.5535
v 219.26 -355 -33.3919
v 219.26 -198.462 -33.3919
v 204.342 -192.479 -22.5535
v 204.342 -95 -22.5535
v 204.342 -192.479 -22.5535
v 219.26 -198.462 -33.3919
v 219.26 -95 -33.3919
v 219.26 -355 -33.3919
v 232.701 -355 -46.0146
v 232.701 -203.099 -46.0146
v 219.26 -198.462 -33.3919
v 219.26 -95 -33.3919
v 219.26 -198.462 -33.3919
v 232.701 -203.099 -46.0146
v 232.701 -95 -46.0146
v 232.701 -355 -46.0146
v 244.455 -355 -60.2225
v 244.455 -206.368 -60.2225
v 232.701 -203.099 -46.0146
v 232.701 -95 -46.0146
v 232.701 -203.099 -46.0146
v 244.455 -206.368 -60.2225
v 244.455 -95 -60.2225
v 244.455 -355 -60.2225
v 254.335 -355 -75.7915
v 254.335 -208.259 -75.7915
v 244.455 -206.368 -60.2225
v 244.455 -95 -60.2225
v 244.455 -206.368 -60.2225
v 254.335 -208.259 -75.7915
v 254.335 -95 -75.7915
v 254.335 -355 -75.7915
v 262.187 -355 -92.476
v 262.187 -208.771 -92.476
v 254.335 -208.259 -75.7915
v 254.335 -95 -75.7915
v 254.335 -208.259 -75.7915
v 262.187 -208.771 -92.476
v 262.187 -95 -92.476
v 262.187 -355 -92.476
v 267.849 -355 -109.902
v 267.849 -207.926 -109.902
v 262.187 -208.771 -92.476
v 262.187 -95 -92.476
v 262.187 -208.771 -92.476
v 267.849 -207.926 -109.902
v 267.849 -95 -109.902
v 267.849 -355 -109.902
v 271.304 -355 -128.015
v 271.304 -205.734 -128.015
v 267.849 -207.926 -109.902
v 267.849 -95 -109.902
v 267.849 -207.926 -109.902
v 271.304 -205.734 -128.015
v 271.304 -95 -128.015
v 271.304 -355 -128.015
v 272.462 -355 -146.418
v 272.462 -202.229 -146.418
v 271.304 -205.734 -128.015
v 271.304 -95 -128.015
v 271.304 -205.734 -128.015
v 272.462 -202.229 -146.418
v 272.462 -95 -146.418
v 272.462 -355 -146.418
v 271.304 -355 -164.821
v 271.304 -197.45 -164.821
v 272.462 -202.229 -146.418
v 272.462 -95 -146.418
v 272.462 -202.229 -146.418
v 271.304 -197.45 -164.821
v 271.304 -95 -164.821
v 271.304 -355 -164.821
v 267.849 -355 -182.934
v 267.849 -191.446 -182.934
v 271.304 -197.45 -164.821
v 271.304 -95 -164.821
v 271.304 -197.45 -164.821
v 267.849 -191.446 -182.934
v 267.849 -95 -182.934
v 267.849 -355 -182.934
v 262.151 -355 -200.471
v 262.151 -184.269 -200.471
v 267.849 -191.446 -182.934
v 267.849 -95 -182.934
v 267.849 -191.446 -182.934
v 262.151 -184.269 -200.471
v 262.151 -95 -200.471
v 262.151 -355 -200.471
v 254.299 -355 -217.155
v 254.299 -175.978 -217.155
v 262.151 -184.269 -200.471
v 262.151 -95 -200.471
v 262.151 -184.269 -200.471
v 254.299 -175.978 -217.155
v 254.299 -95 -217.155
v 254.299 -355 -217.155
v 244.419 -355 -232.724
v 244.419 -166.633 -232.724
v 254.299 -175.978 -217.155
v 254.299 -95 -217.155
v 254.299 -175.978 -217.155
v 244.419 -166.633 -232.724
v 244.419 -95 -232.724
v 244.419 -355 -232.724
v 232.665 -355 -246.932
v 232.665 -156.298 -246.932
v 244.419 -166.633 -232.724
v 244.419 -95 -232.724
v 244.419 -166.633 -232.724
v 232.665 -156.298 -246.932
v 232.665 -95 -246.932
vn 0 0 1
vn 0.684547 0 -0.728969
vn 0.684547 0 -0.728969
vn 0 0 1
vn 0.125333 0 0.992115
vn 0.125333 0 0.992115
vn 0.24869 2.16021e-17 0.968583
vn 0.24869 0 0.968583
vn 0.368125 2.72299e-17 0.929776
vn 0.368125 -3.03529e-17 0.929776
vn 0.481754 -1.89681e-17 0.876307
vn 0.481754 -6.5522e-17 0.876307
vn 0.587785 -2.95394e-17 0.809017
vn 0.587785 0 0.809017
vn 0.684547 -3.04412e-17 0.728969
vn 0.684547 -8.79237e-17 0.728969
vn 0.770513 -3.11108e-17 0.637424
vn 0.770513 0 0.637424
vn 0.844328 -5.25195e-17 0.535827
vn 0.844328 0 0.535827
vn 0.904827 -4.21627e-17 0.425779
vn 0.904827 0 0.425779
vn 0.951057 -6.32811e-17 0.309017
vn 0.951057 0 0.309017
vn 0.982287 -3.35602e-17 0.187381
vn 0.982287 -4.7161e-17 0.187381
vn 0.998027 1.13504e-17 0.0627905
vn 0.998027 -1.61162e-17 0.0627905
vn 0.998027 1.10062e-17 -0.0627905
vn 0.998027 -1.66431e-17 -0.0627905
vn 0.982287 0 -0.187381
vn 0.982287 5.19834e-17 -0.187381
vn 0.951057 0 -0.309017
vn 0.951057 0 -0.309017
vn 0.904827 0 -0.425779
vn 0.904827 0 -0.425779
vn 0.844328 0 -0.535827
vn 0.844328 0 -0.535827
vn 0.770513 0 -0.637424
vn 0.770513 0 -0.637424
f 1//1 2//1 3//1 4//1 
f 5//2 6//2 7//2 8//2 
f 9//3 10//3 11//3 12//3 
f 13//4 14//4 15//4 16//4 
f 17//5 18//5 19//5 20//5 
f 21//6 22//6 23//6 24//6 
f 25//7 26//7 27//7 28//7 
f 29//8 30//8 31//8 32//8 
f 33//9 34//9 35//9 36//9 
f 37//10 38//10 39//10 40//10 
f 41//11 42//11 43//11 44//11 
f 45//12 46//12 47//12 48//12 
f 49//13 50//13 51//13 52//13 
f 53//14 54//14 55//14 56//14 
f 57//15 58//15 59//15 60//15 
f 61//16 62//16 63//16 64//16 
f 65//17 66//17 67//17 68//17 
f 69//18 70//18 71//18 72//18 
f 73//19 74//19 75//19 76//19 
f 77//20 78//20 79//20 80//20 
f 81//21 82//21 83//21 84//21 
f 85//22 86//22 87//22 88//22 
f 89//23 90//23 91//23 92//23 
f 93//24 94//24 95//24 96//24 
f 97//25 98//25 99//25 100//25 
f 101//26 102//26 103//26 104//26 
f 105//27 106//27 107//27 108//27 
f 109//28 110//28 111//28 112//28 
f 113//29 114//29 115//29 116//29 
f 117//30 118//30 119//30 120//30 
f 121//31 122//31 123//31 124//31 
f 125//32 126//32 127//32 128//32 
f 129//33 130//33 131//33 132//33 
f 133//34 134//34 135//34 136//34 
f 137//35 138//35 139//35 140//35 
f 141//36 142//36 143//36 144//36 
f 145//37 146//37 147//37 148//37 
f 149//38 150//38 151//38 152//38 
f 153//39 154//39 155//39 156//39 
f 157//40 158//40 159//40 160//40 
