v 65 -105 0
v 65 -218.453 0
v 85 -229.911 0
v 85 -105 0
v -29.1994 -105 -259.168
v -36.3427 -105 -243.673
v -36.3427 -190.428 -243.673
v -29.1994 -200.408 -259.168
v -29.1994 -355 -259.168
v -29.1994 -200.408 -259.168
v -36.3427 -190.428 -243.673
v -36.3427 -355 -243.673
v 65 -355 0
v 85 -355 0
v 85 -229.911 0
v 65 -218.453 0
v 85 -355 0
v 101.761 -355 -3.88508
v 101.761 -238.414 -3.88508
v 85 -229.911 0
v 85 -105 0
v 85 -229.911 0
v 101.761 -238.414 -3.88508
v 101.761 -105 -3.88508
v 101.761 -355 -3.88508
v 117.213 -355 -11.4546
v 117.213 -245.505 -11.4546
v 101.761 -238.414 -3.88508
v 101.761 -105 -3.88508
v 101.761 -238.414 -3.88508
v 117.213 -245.505 -11.4546
v 117.213 -105 -11.4546
v 117.213 -355 -11.4546
v 130.556 -355 -22.3174
v 130.556 -251.131 -22.3175
v 117.213 -245.505 -11.4546
v 117.213 -105 -11.4546
v 117.213 -245.505 -11.4546
v 130.556 -251.131 -22.3175
v 130.556 -105 -22.3174
v 130.556 -355 -22.3174
v 141.101 -355 -35.9126
v 141.101 -255.243 -35.9127
v 130.556 -251.131 -22.3175
v 130.556 -105 -22.3174
v 130.556 -251.131 -22.3175
v 141.101 -255.243 -35.9127
v 141.101 -105 -35.9126
v 141.101 -355 -35.9126
v 148.304 -355 -51.5379
v 148.304 -257.802 -51.5379
v 141.101 -255.243 -35.9127
v 141.101 -105 -35.9126
v 141.101 -255.243 -35.9127
v 148.304 -257.802 -51.5379
v 148.304 -105 -51.5379
v 148.304 -355 -51.5379
v 151.794 -355 -68.3862
v 151.794 -258.783 -68.3862
v 148.304 -257.802 -51.5379
v 148.304 -105 -51.5379
v 148.304 -257.802 -51.5379
v 151.794 -258.783 -68.3862
v 151.794 -105 -68.3862
v 151.794 -355 -68.3862
v 151.388 -355 -85.5871
v 151.388 -258.178 -85.5871
v 151.794 -258.783 -68.3862
v 151.794 -105 -68.3862
v 151.794 -258.783 -68.3862
v 151.388 -258.178 -85.5871
v 151.388 -105 -85.5871
v 151.388 -355 -85.5871
v 147.109 -355 -102.252
v 147.109 -256.005 -102.252
v 151.388 -258.178 -85.5871
v 151.388 -105 -85.5871
v 151.388 -258.178 -85.5871
v 147.109 -256.005 -102.252
v 147.109 -105 -102.252
v 147.109 -355 -102.252
v 139.178 -355 -117.521
v 139.178 -252.316 -117.521
v 147.109 -256.005 -102.252
v 147.109 -105 -102.252
v 147.109 -256.005 -102.252
v 139.178 -252.316 -117.521
v 139.178 -105 -117.521
v 139.178 -355 -117.521
v 128.004 -355 -130.604
v 128.004 -247.204 -130.604
v 139.178 -252.316 -117.521
v 139.178 -105 -117.521
v 139.178 -252.316 -117.521
v 128.004 -247.204 -130.604
v 128.004 -105 -130.604
v 128.004 -355 -130.604
v 114.164 -355 -140.827
v 114.164 -240.812 -140.827
v 128.004 -247.204 -130.604
v 128.004 -105 -130.604
v 128.004 -247.204 -130.604
v 114.164 -240.812 -140.827
v 114.164 -105 -140.827
v 114.164 -355 -140.827
v 98.3731 -355 -147.66
v 98.3731 -233.345 -147.66
v 114.164 -240.812 -140.827
v 114.164 -105 -140.827
v 114.164 -240.812 -140.827
v 98.3731 -233.345 -147.66
v 98.3731 -105 -147.66
v 98.3731 -355 -147.66
v 81.4474 -355 -150.751
v 81.4474 -225.068 -150.751
v 98.3731 -233.345 -147.66
v 98.3731 -105 -147.66
v 98.3731 -233.345 -147.66
v 81.4474 -225.068 -150.751
v 81.4474 -105 -150.751
v 81.4474 -355 -150.751
v 64.2607 -355 -149.94
v 64.2607 -216.312 -149.94
v 81.4474 -225.068 -150.751
v 81.4474 -105 -150.751
v 81.4474 -225.068 -150.751
v 64.2607 -216.312 -149.94
v 64.2607 -105 -149.94
v 64.2607 -355 -149.94
v 47.701 -355 -145.27
v 47.701 -207.465 -145.27
v 64.2607 -216.312 -149.94
v 64.2607 -105 -149.94
v 64.2607 -216.312 -149.94
v 47.701 -207.465 -145.27
v 47.701 -105 -145.27
v 47.701 -355 -145.27
v 30.5143 -355 -144.46
v 30.5143 -198.959 -144.46
v 47.701 -207.465 -145.27
v 47.701 -105 -145.27
v 47.701 -207.465 -145.27
v 30.5143 -198.959 -144.46
v 30.5143 -105 -144.46
v 30.5143 -355 -144.46
v 13.5886 -355 -147.551
v 13.5886 -191.246 -147.551
v 30.5143 -198.959 -144.46
v 30.5143 -105 -144.46
v 30.5143 -198.959 -144.46
v 13.5886 -191.246 -147.551
v 13.5886 -105 -147.551
v 13.5886 -355 -147.551
v -2.20208 -355 -154.384
v -2.20208 -184.772 -154.384
v 13.5886 -191.246 -147.551
v 13.5886 -105 -147.551
v 13.5886 -191.246 -147.551
v -2.20208 -184.772 -154.384
v -2.20208 -105 -154.384
v -2.20208 -355 -154.384
v -16.042 -355 -164.606
v -16.042 -179.951 -164.606
v -2.20208 -184.772 -154.384
v -2.20208 -105 -154.384
v -2.20208 -184.772 -154.384
v -16.042 -179.951 -164.606
v -16.042 -105 -164.606
v -16.042 -355 -164.606
v -27.2162 -355 -177.69
v -27.2162 -177.139 -177.69
v -16.042 -179.951 -164.606
v -16.042 -105 -164.606
v -16.042 -179.951 -164.606
v -27.2162 -177.139 -177.69
v -27.2162 -105 -177.69
v -27.2162 -355 -177.69
v -35.1476 -355 -192.958
v -35.1476 -176.618 -192.958
v -27.2162 -177.139 -177.69
v -27.2162 -105 -177.69
v -27.2162 -177.139 -177.69
v -35.1476 -176.618 -192.958
v -35.1476 -105 -192.958
v -35.1476 -355 -192.958
v -39.4265 -355 -209.623
v -39.4265 -178.59 -209.623
v -35.1476 -176.618 -192.958
v -35.1476 -105 -192.958
v -35.1476 -176.618 -192.958
v -39.4265 -178.59 -209.623
v -39.4265 -105 -209.623
v -39.4265 -355 -209.623
v -39.8318 -355 -226.824
v -39.8318 -183.176 -226.824
v -39.4265 -178.59 -209.623
v -39.4265 -105 -209.623
v -39.4265 -178.59 -209.623
v -39.8318 -183.176 -226.824
v -39.8318 -105 -226.824
v -39.8318 -355 -226.824
v -36.3427 -355 -243.673
v -36.3427 -190.428 -243.673
v -39.8318 -183.176 -226.824
v -39.8318 -105 -226.824
v -39.8318 -183.176 -226.824
v -36.3427 -190.428 -243.673
v -36.3427 -105 -243.673
vn 0 0 1
vn 0.908143 5.09202e-08 0.41866
vn 0.908143 -3.14258e-08 0.41866
vn 0 0 1
vn 0.225801 -9.92168e-11 0.974173
vn 0.225801 8.67019e-11 0.974173
vn 0.439939 -1.31699e-09 0.898028
vn 0.439939 1.02632e-09 0.898028
vn 0.631353 -8.81018e-09 0.775496
vn 0.631353 6.26222e-09 0.775496
vn 0.790155 -3.91698e-08 0.612907
vn 0.790155 2.60077e-08 0.612907
vn 0.908143 -1.31046e-07 0.41866
vn 0.908143 8.3359e-08 0.41866
vn 0.979223 -1.23594e-07 0.202787
vn 0.979223 7.73289e-08 0.202787
vn 0.999722 -1.06479e-07 -0.0235598
vn 0.999722 6.73045e-08 -0.0235598
vn 0.968583 -8.20711e-08 -0.24869
vn 0.968583 5.38037e-08 -0.24869
vn 0.887413 -5.38335e-08 -0.460974
vn 0.887413 3.75238e-08 -0.460974
vn 0.760406 -2.54678e-08 -0.649448
vn 0.760406 1.93057e-08 -0.649448
vn 0.594121 -1.07399e-10 -0.804376
vn 0.594121 9.03045e-11 -0.804376
vn 0.397148 2.01817e-08 -0.917755
vn 0.397148 -1.91297e-08 -0.917755
vn 0.179661 3.45253e-08 -0.983729
vn 0.179661 -3.73617e-08 -0.983729
vn -0.0471065 4.3071e-08 -0.99889
vn -0.0471065 -5.36638e-08 -0.99889
vn -0.27144 3.66446e-09 -0.962455
vn -0.27144 -5.27627e-09 -0.962455
vn -0.0471065 3.11153e-09 -0.99889
vn -0.0471065 -5.1674e-09 -0.99889
vn 0.179661 -3.64101e-09 -0.983729
vn 0.179661 6.91316e-09 -0.983729
vn 0.397148 -9.51767e-09 -0.917755
vn 0.397148 2.03101e-08 -0.917755
vn 0.594121 -1.3676e-08 -0.804376
vn 0.594121 3.19407e-08 -0.804376
vn 0.760406 -1.60664e-08 -0.649448
vn 0.760406 3.96125e-08 -0.649448
vn 0.887413 -1.75611e-08 -0.460974
vn 0.887413 4.37404e-08 -0.460974
vn 0.968583 -1.99578e-08 -0.24869
vn 0.968583 4.78433e-08 -0.24869
vn 0.999722 -2.32469e-08 -0.0235598
vn 0.999722 5.10944e-08 -0.0235598
vn 0.979223 -2.71506e-08 0.202787
vn 0.979223 5.23037e-08 0.202787
f 1//1 2//1 3//1 4//1 
f 5//2 6//2 7//2 8//2 
f 9//3 10//3 11//3 12//3 
f 13//4 14//4 15//4 16//4 
f 17//5 18//5 19//5 20//5 
f 21//6 22//6 23//6 24//6 
f 25//7 26//7 27//7 28//7 
f 29//8 30//8 31//8 32//8 
f 33//9 34//9 35//9 36//9 
f 37//10 38//10 39//10 40//10 
f 41//11 42//11 43//11 44//11 
f 45//12 46//12 47//12 48//12 
f 49//13 50//13 51//13 52//13 
f 53//14 54//14 55//14 56//14 
f 57//15 58//15 59//15 60//15 
f 61//16 62//16 63//16 64//16 
f 65//17 66//17 67//17 68//17 
f 69//18 70//18 71//18 72//18 
f 73//19 74//19 75//19 76//19 
f 77//20 78//20 79//20 80//20 
f 81//21 82//21 83//21 84//21 
f 85//22 86//22 87//22 88//22 
f 89//23 90//23 91//23 92//23 
f 93//24 94//24 95//24 96//24 
f 97//25 98//25 99//25 100//25 
f 101//26 102//26 103//26 104//26 
f 105//27 106//27 107//27 108//27 
f 109//28 110//28 111//28 112//28 
f 113//29 114//29 115//29 116//29 
f 117//30 118//30 119//30 120//30 
f 121//31 122//31 123//31 124//31 
f 125//32 126//32 127//32 128//32 
f 129//33 130//33 131//33 132//33 
f 133//34 134//34 135//34 136//34 
f 137//35 138//35 139//35 140//35 
f 141//36 142//36 143//36 144//36 
f 145//37 146//37 147//37 148//37 
f 149//38 150//38 151//38 152//38 
f 153//39 154//39 155//39 156//39 
f 157//40 158//40 159//40 160//40 
f 161//41 162//41 163//41 164//41 
f 165//42 166//42 167//42 168//42 
f 169//43 170//43 171//43 172//43 
f 173//44 174//44 175//44 176//44 
f 177//45 178//45 179//45 180//45 
f 181//46 182//46 183//46 184//46 
f 185//47 186//47 187//47 188//47 
f 189//48 190//48 191//48 192//48 
f 193//49 194//49 195//49 196//49 
f 197//50 198//50 199//50 200//50 
f 201//51 202//51 203//51 204//51 
f 205//52 206//52 207//52 208//52 
