v 211.352 -101.873 -296.482
v 211.352 -95 -296.482
v 226.685 -95 -282.084
v 226.685 -114.968 -282.084
v 211.352 -101.873 -296.482
v 226.685 -114.968 -282.084
v 226.685 -365 -282.084
v 211.352 -365 -296.482
v 226.685 -114.968 -282.084
v 226.685 -95 -282.084
v 240.105 -95 -265.862
v 240.105 -127.224 -265.862
v 226.685 -114.968 -282.084
v 240.105 -127.224 -265.862
v 240.105 -365 -265.862
v 226.685 -365 -282.084
v 240.105 -127.224 -265.862
v 240.105 -95 -265.862
v 251.386 -95 -248.085
v 251.386 -138.514 -248.085
v 240.105 -127.224 -265.862
v 251.386 -138.514 -248.085
v 251.386 -365 -248.085
v 240.105 -365 -265.862
v 251.386 -138.514 -248.085
v 251.386 -95 -248.085
v 260.35 -95 -229.036
v 260.35 -148.714 -229.036
v 251.386 -138.514 -248.085
v 260.35 -148.714 -229.036
v 260.35 -365 -229.036
v 251.386 -365 -248.085
v 260.35 -148.714 -229.036
v 260.35 -95 -229.036
v 266.856 -95 -209.012
v 266.856 -157.696 -209.012
v 260.35 -148.714 -229.036
v 266.856 -157.696 -209.012
v 266.856 -365 -209.012
v 260.35 -365 -229.036
v 266.856 -157.696 -209.012
v 266.856 -95 -209.012
v 270.801 -95 -188.332
v 270.801 -165.329 -188.332
v 266.856 -157.696 -209.012
v 270.801 -165.329 -188.332
v 270.801 -365 -188.332
v 266.856 -365 -209.012
v 270.801 -165.329 -188.332
v 270.801 -95 -188.332
v 272.123 -95 -167.319
v 272.123 -171.485 -167.319
v 270.801 -165.329 -188.332
v 272.123 -171.485 -167.319
v 272.123 -365 -167.319
v 270.801 -365 -188.332
v 272.123 -171.485 -167.319
v 272.123 -95 -167.319
v 270.801 -95 -146.307
v 270.801 -176.046 -146.307
v 272.123 -171.485 -167.319
v 270.801 -176.046 -146.307
v 270.801 -365 -146.307
v 272.123 -365 -167.319
v 270.801 -176.046 -146.307
v 270.801 -95 -146.307
v 266.856 -95 -125.626
v 266.856 -178.909 -125.626
v 270.801 -176.046 -146.307
v 266.856 -178.909 -125.626
v 266.856 -365 -125.626
v 270.801 -365 -146.307
v 266.856 -178.909 -125.626
v 266.856 -95 -125.626
v 260.35 -95 -105.603
v 260.35 -179.992 -105.603
v 266.856 -178.909 -125.626
v 260.35 -179.992 -105.603
v 260.35 -365 -105.603
v 266.856 -365 -125.626
v 260.35 -179.992 -105.603
v 260.35 -95 -105.603
v 251.386 -95 -86.5533
v 251.386 -179.242 -86.5533
v 260.35 -179.992 -105.603
v 251.386 -179.242 -86.5533
v 251.386 -365 -86.5533
v 260.35 -365 -105.603
v 251.386 -179.242 -86.5533
v 251.386 -95 -86.5533
v 240.105 -95 -68.7771
v 240.105 -176.64 -68.7771
v 251.386 -179.242 -86.5533
v 240.105 -176.64 -68.7771
v 240.105 -365 -68.7771
v 251.386 -365 -86.5533
v 240.105 -176.64 -68.7771
v 240.105 -95 -68.7771
v 226.685 -95 -52.5549
v 226.685 -172.199 -52.5549
v 240.105 -176.64 -68.7771
v 226.685 -172.199 -52.5549
v 226.685 -365 -52.5549
v 240.105 -365 -68.7771
v 226.685 -172.199 -52.5549
v 226.685 -95 -52.5549
v 211.337 -95 -38.1427
v 211.337 -165.966 -38.1427
v 226.685 -172.199 -52.5549
v 211.337 -165.966 -38.1427
v 211.337 -365 -38.1427
v 226.685 -365 -52.5549
v 211.337 -165.966 -38.1427
v 211.337 -95 -38.1427
v 194.305 -95 -25.7676
v 194.305 -158.022 -25.7676
v 211.337 -165.966 -38.1427
v 194.305 -158.022 -25.7676
v 194.305 -365 -25.7676
v 211.337 -365 -38.1427
v 194.305 -158.022 -25.7676
v 194.305 -95 -25.7676
v 175.855 -95 -15.6249
v 175.855 -148.468 -15.6249
v 194.305 -158.022 -25.7676
v 175.855 -148.468 -15.6249
v 175.855 -365 -15.6249
v 194.305 -365 -25.7676
v 175.855 -148.468 -15.6249
v 175.855 -95 -15.6249
v 156.28 -95 -7.87456
v 156.28 -137.427 -7.87456
v 175.855 -148.468 -15.6249
v 156.28 -137.427 -7.87456
v 156.28 -365 -7.87456
v 175.855 -365 -15.6249
v 156.28 -137.427 -7.87456
v 156.28 -95 -7.87456
v 135.888 -95 -2.63873
v 135.888 -125.031 -2.63873
v 156.28 -137.427 -7.87456
v 135.888 -125.031 -2.63873
v 135.888 -365 -2.63873
v 156.28 -365 -7.87456
v 135.888 -125.031 -2.63873
v 135.888 -95 -2.63873
v 115 -95 0
v 115 -111.418 0
v 135.888 -125.031 -2.63873
v 115 -111.418 0
v 115 -365 0
v 135.888 -365 -2.63873
v 115 -111.418 0
v 115 -95 0
v 95 -95 0
v 95 -97.4839 0
v 115 -111.418 0
v 95 -97.4839 0
v 95 -365 0
v 115 -365 0
vn 0.684547 0 -0.728969
vn 0.684547 -8.10645e-17 -0.728969
vn 0.770513 0 -0.637424
vn 0.770513 -9.08395e-17 -0.637424
vn 0.844328 0 -0.535827
vn 0.844328 -1.07289e-16 -0.535827
vn 0.904827 0 -0.425779
vn 0.904827 0 -0.425779
vn 0.951057 0 -0.309017
vn 0.951057 -8.4656e-17 -0.309017
vn 0.982287 0 -0.187381
vn 0.982287 0 -0.187381
vn 0.998027 0 -0.0627905
vn 0.998027 -9.59202e-18 -0.0627905
vn 0.998027 2.33329e-17 0.0627905
vn 0.998027 0 0.0627905
vn 0.982287 0 0.187381
vn 0.982287 0 0.187381
vn 0.951057 0 0.309017
vn 0.951057 0 0.309017
vn 0.904827 0 0.425779
vn 0.904827 0 0.425779
vn 0.844328 0 0.535827
vn 0.844328 0 0.535827
vn 0.770513 0 0.637424
vn 0.770513 0 0.637424
vn 0.684547 0 0.728969
vn 0.684547 -4.74782e-17 0.728969
vn 0.587785 8.10018e-17 0.809017
vn 0.587785 1.30445e-17 0.809017
vn 0.481754 0 0.876307
vn 0.481754 -6.23448e-18 0.876307
vn 0.368125 6.17794e-17 0.929776
vn 0.368125 2.3728e-17 0.929776
vn 0.24869 2.02766e-17 0.968583
vn 0.24869 2.81279e-17 0.968583
vn 0.125333 0 0.992115
vn 0.125333 1.46399e-17 0.992115
vn 0 0 1
vn 0 0 1
f 1//1 2//1 3//1 4//1 
f 5//2 6//2 7//2 8//2 
f 9//3 10//3 11//3 12//3 
f 13//4 14//4 15//4 16//4 
f 17//5 18//5 19//5 20//5 
f 21//6 22//6 23//6 24//6 
f 25//7 26//7 27//7 28//7 
f 29//8 30//8 31//8 32//8 
f 33//9 34//9 35//9 36//9 
f 37//10 38//10 39//10 40//10 
f 41//11 42//11 43//11 44//11 
f 45//12 46//12 47//12 48//12 
f 49//13 50//13 51//13 52//13 
f 53//14 54//14 55//14 56//14 
f 57//15 58//15 59//15 60//15 
f 61//16 62//16 63//16 64//16 
f 65//17 66//17 67//17 68//17 
f 69//18 70//18 71//18 72//18 
f 73//19 74//19 75//19 76//19 
f 77//20 78//20 79//20 80//20 
f 81//21 82//21 83//21 84//21 
f 85//22 86//22 87//22 88//22 
f 89//23 90//23 91//23 92//23 
f 93//24 94//24 95//24 96//24 
f 97//25 98//25 99//25 100//25 
f 101//26 102//26 103//26 104//26 
f 105//27 106//27 107//27 108//27 
f 109//28 110//28 111//28 112//28 
f 113//29 114//29 115//29 116//29 
f 117//30 118//30 119//30 120//30 
f 121//31 122//31 123//31 124//31 
f 125//32 126//32 127//32 128//32 
f 129//33 130//33 131//33 132//33 
f 133//34 134//34 135//34 136//34 
f 137//35 138//35 139//35 140//35 
f 141//36 142//36 143//36 144//36 
f 145//37 146//37 147//37 148//37 
f 149//38 150//38 151//38 152//38 
f 153//39 154//39 155//39 156//39 
f 157//40 158//40 159//40 160//40 
