v 135.916 -215.764 304.066
v 135.916 -145 304.066
v 113.072 -145 285.606
v 113.072 -229.232 285.606
v 135.916 -215.764 304.066
v 113.072 -229.232 285.606
v 113.072 -295 285.606
v 135.916 -295 304.066
v 113.072 -229.232 285.606
v 113.072 -145 285.606
v 100.949 -145 270.342
v 100.949 -234.606 270.342
v 113.072 -229.232 285.606
v 100.949 -234.606 270.342
v 100.949 -295 270.342
v 113.072 -295 285.606
v 100.949 -234.606 270.342
v 100.949 -145 270.342
v 92.4014 -145 252.823
v 92.4014 -237.342 252.823
v 100.949 -234.606 270.342
v 92.4014 -237.342 252.823
v 92.4014 -295 252.823
v 100.949 -295 270.342
v 92.4014 -237.342 252.823
v 92.4014 -145 252.823
v 87.7821 -145 233.885
v 87.7821 -237.684 233.885
v 92.4014 -237.342 252.823
v 87.7821 -237.684 233.885
v 87.7821 -295 233.885
v 92.4014 -295 252.823
v 87.7821 -237.684 233.885
v 87.7821 -145 233.885
v 87.2521 -145 214.399
v 87.2521 -235.935 214.399
v 87.7821 -237.684 233.885
v 87.2521 -235.935 214.399
v 87.2521 -295 214.399
v 87.7821 -295 233.885
v 87.2521 -235.935 214.399
v 87.2521 -145 214.399
v 90.7848 -145 195.228
v 90.7848 -232.447 195.228
v 87.2521 -235.935 214.399
v 90.7848 -232.447 195.228
v 90.7848 -295 195.228
v 87.2521 -295 214.399
v 90.7848 -232.447 195.228
v 90.7848 -145 195.228
v 98.1788 -145 177.192
v 98.1788 -227.622 177.192
v 90.7848 -232.447 195.228
v 98.1788 -227.622 177.192
v 98.1788 -295 177.192
v 90.7848 -295 195.228
v 98.1788 -227.622 177.192
v 98.1788 -145 177.192
v 109.076 -145 161.029
v 109.076 -221.891 161.029
v 98.1788 -227.622 177.192
v 109.076 -221.891 161.029
v 109.076 -295 161.029
v 98.1788 -295 177.192
v 109.076 -221.891 161.029
v 109.076 -145 161.029
v 122.989 -145 147.376
v 122.989 -215.702 147.376
v 109.076 -221.891 161.029
v 122.989 -215.702 147.376
v 122.989 -295 147.376
v 109.076 -295 161.029
v 122.989 -215.702 147.376
v 122.989 -145 147.376
v 139.223 -145 136.809
v 139.223 -209.542 136.809
v 122.989 -215.702 147.376
v 139.223 -209.542 136.809
v 139.223 -295 136.809
v 122.989 -295 147.376
v 139.223 -209.542 136.809
v 139.223 -145 136.809
v 153.171 -145 123.192
v 153.171 -203.763 123.192
v 139.223 -209.542 136.809
v 153.171 -203.763 123.192
v 153.171 -295 123.192
v 139.223 -295 136.809
v 153.171 -203.763 123.192
v 153.171 -145 123.192
v 163.813 -145 106.86
v 163.813 -198.805 106.86
v 153.171 -203.763 123.192
v 163.813 -198.805 106.86
v 163.813 -295 106.86
v 153.171 -295 123.192
v 163.813 -198.805 106.86
v 163.813 -145 106.86
v 170.439 -145 88.5275
v 170.439 -195.031 88.5275
v 163.813 -198.805 106.86
v 170.439 -195.031 88.5275
v 170.439 -295 88.5275
v 163.813 -295 106.86
v 170.439 -195.031 88.5275
v 170.439 -145 88.5275
v 172.487 -145 69.1422
v 172.487 -192.752 69.1422
v 170.439 -195.031 88.5275
v 172.487 -192.752 69.1422
v 172.487 -295 69.1422
v 170.439 -295 88.5275
v 172.487 -192.752 69.1422
v 172.487 -145 69.1422
v 169.63 -145 49.8595
v 169.63 -192.228 49.8595
v 172.487 -192.752 69.1422
v 169.63 -192.228 49.8595
v 169.63 -295 49.8595
v 172.487 -295 69.1422
v 169.63 -192.228 49.8595
v 169.63 -145 49.8595
v 161.856 -145 31.9836
v 161.856 -193.667 31.9836
v 169.63 -192.228 49.8595
v 161.856 -193.667 31.9836
v 161.856 -295 31.9836
v 169.63 -295 49.8595
v 161.856 -193.667 31.9836
v 161.856 -145 31.9836
v 149.536 -145 16.8775
v 149.536 -197.226 16.8775
v 161.856 -193.667 31.9836
v 149.536 -197.226 16.8775
v 149.536 -295 16.8775
v 161.856 -295 31.9836
v 149.536 -197.226 16.8775
v 149.536 -145 16.8775
v 133.468 -145 5.84073
v 133.468 -203.02 5.84073
v 149.536 -197.226 16.8775
v 133.468 -203.02 5.84073
v 133.468 -295 5.84073
v 149.536 -295 16.8775
v 133.468 -203.02 5.84073
v 133.468 -145 5.84073
v 115 -145 -1.57772e-30
v 115 -211.06 -8.82889e-31
v 133.468 -203.02 5.84073
v 115 -211.06 -8.82889e-31
v 115 -295 0
v 133.468 -295 5.84073
v 115 -211.06 -8.82889e-31
v 115 -145 -1.57772e-30
v 95 -145 0
v 95 -221.791 0
v 115 -211.06 -8.82889e-31
v 95 -221.791 0
v 95 -295 0
v 115 -295 0
vn -0.62854 0 0.777777
vn -0.62854 -1.47141e-16 0.777777
vn -0.78307 -2.64225e-16 0.621934
vn -0.78307 0 0.621934
vn -0.898736 -1.42534e-16 0.43849
vn -0.898736 0 0.43849
vn -0.971517 -2.22447e-16 0.23697
vn -0.971517 0 0.23697
vn -0.99963 -1.61607e-16 0.0271909
vn -0.99963 0 0.0271909
vn -0.983441 -2.10332e-16 -0.181231
vn -0.983441 -1.39853e-16 -0.181231
vn -0.92527 9.61995e-17 -0.37931
vn -0.92527 0 -0.37931
vn -0.829132 4.97027e-17 -0.559053
vn -0.829132 0 -0.559053
vn -0.700417 1.34372e-16 -0.713734
vn -0.700417 0 -0.713734
vn -0.545536 1.17603e-16 -0.838088
vn -0.545536 2.74723e-16 -0.838088
vn -0.698556 0 -0.715555
vn -0.698556 1.11865e-16 -0.715555
vn -0.837826 1.32026e-16 -0.545937
vn -0.837826 7.57856e-17 -0.545937
vn -0.940469 1.79535e-16 -0.339879
vn -0.940469 5.10469e-17 -0.339879
vn -0.994465 2.98433e-17 -0.105066
vn -0.994465 0 -0.105066
vn -0.989204 0 0.146544
vn -0.989204 -4.96546e-17 0.146544
vn -0.917034 -1.80003e-16 0.398808
vn -0.917034 -7.19424e-17 0.398808
vn -0.774946 -1.38416e-16 0.632028
vn -0.774946 -2.5351e-16 0.632028
vn -0.566186 -5.60716e-17 0.824278
vn -0.566186 -1.10961e-16 0.824278
vn -0.301538 -8.93294e-17 0.953454
vn -0.301538 -5.2442e-17 0.953454
vn 7.88861e-32 -1.05181e-32 1
vn 4.41445e-32 0 1
f 1//1 2//1 3//1 4//1 
f 5//2 6//2 7//2 8//2 
f 9//3 10//3 11//3 12//3 
f 13//4 14//4 15//4 16//4 
f 17//5 18//5 19//5 20//5 
f 21//6 22//6 23//6 24//6 
f 25//7 26//7 27//7 28//7 
f 29//8 30//8 31//8 32//8 
f 33//9 34//9 35//9 36//9 
f 37//10 38//10 39//10 40//10 
f 41//11 42//11 43//11 44//11 
f 45//12 46//12 47//12 48//12 
f 49//13 50//13 51//13 52//13 
f 53//14 54//14 55//14 56//14 
f 57//15 58//15 59//15 60//15 
f 61//16 62//16 63//16 64//16 
f 65//17 66//17 67//17 68//17 
f 69//18 70//18 71//18 72//18 
f 73//19 74//19 75//19 76//19 
f 77//20 78//20 79//20 80//20 
f 81//21 82//21 83//21 84//21 
f 85//22 86//22 87//22 88//22 
f 89//23 90//23 91//23 92//23 
f 93//24 94//24 95//24 96//24 
f 97//25 98//25 99//25 100//25 
f 101//26 102//26 103//26 104//26 
f 105//27 106//27 107//27 108//27 
f 109//28 110//28 111//28 112//28 
f 113//29 114//29 115//29 116//29 
f 117//30 118//30 119//30 120//30 
f 121//31 122//31 123//31 124//31 
f 125//32 126//32 127//32 128//32 
f 129//33 130//33 131//33 132//33 
f 133//34 134//34 135//34 136//34 
f 137//35 138//35 139//35 140//35 
f 141//36 142//36 143//36 144//36 
f 145//37 146//37 147//37 148//37 
f 149//38 150//38 151//38 152//38 
f 153//39 154//39 155//39 156//39 
f 157//40 158//40 159//40 160//40 
