v 135.916 -215.764 304.066
v 201.951 -227.891 281.709
v 113.194 -323.593 285.52
v 113.194 -229.3 285.52
v 135.916 -215.764 304.066
v 113.194 -229.3 285.52
v 114.898 -295 283.796
v 135.916 -295 304.066
v 113.194 -229.3 285.52
v 113.194 -323.593 285.52
v 153.98 -288.567 172.628
v 100.949 -234.606 270.342
v 113.194 -229.3 285.52
v 100.949 -234.606 270.342
v 100.949 -295 270.342
v 114.898 -295 283.796
v 100.949 -234.606 270.342
v 153.98 -288.567 172.628
v 92.399 -354.006 252.712
v 92.399 -236.693 252.712
v 100.949 -234.606 270.342
v 92.399 -236.693 252.712
v 94.3655 -295 252.113
v 100.949 -295 270.342
v 92.399 -236.693 252.712
v 92.399 -354.006 252.712
v 150.99 -289.989 161.687
v 87.7821 -237.684 233.885
v 92.399 -236.693 252.712
v 87.7821 -237.684 233.885
v 87.7821 -295 233.885
v 94.3655 -295 252.113
v 87.7821 -237.684 233.885
v 150.99 -289.989 161.687
v 87.1872 -342.946 214.403
v 87.1872 -235.853 214.403
v 87.7821 -237.684 233.885
v 87.1872 -235.853 214.403
v 96.2579 -295 217.4
v 87.7821 -295 233.885
v 87.1872 -235.853 214.403
v 87.1872 -342.946 214.403
v 90.8035 -335.35 195.232
v 90.8035 -232.439 195.232
v 87.1872 -235.853 214.403
v 90.8035 -232.439 195.232
v 104.734 -295 200.915
v 96.2579 -295 217.4
v 90.8035 -232.439 195.232
v 90.8035 -335.35 195.232
v 98.1967 -325.406 177.202
v 98.1967 -227.619 177.202
v 90.8035 -232.439 195.232
v 98.1967 -227.619 177.202
v 113.21 -295 184.431
v 104.734 -295 200.915
v 98.1967 -227.619 177.202
v 98.1967 -325.406 177.202
v 109.091 -314.19 161.044
v 109.091 -221.893 161.044
v 98.1967 -227.619 177.202
v 109.091 -221.893 161.044
v 121.685 -295 167.946
v 113.21 -295 184.431
v 109.091 -221.893 161.044
v 109.091 -314.19 161.044
v 122.998 -302.8 147.392
v 122.998 -215.707 147.392
v 109.091 -221.893 161.044
v 122.998 -215.707 147.392
v 130.161 -295 151.461
v 121.685 -295 167.946
v 122.998 -215.707 147.392
v 122.998 -302.8 147.392
v 139.216 -292.307 136.794
v 139.216 -209.539 136.794
v 122.998 -215.707 147.392
v 139.216 -209.539 136.794
v 138.583 -295 135.081
v 130.161 -295 151.461
v 139.216 -209.539 136.794
v 139.216 -292.307 136.794
v 153.156 -280.988 123.177
v 153.156 -203.763 123.177
v 139.216 -209.539 136.794
v 153.156 -203.763 123.177
v 147.059 -295 118.596
v 138.583 -295 135.081
v 153.156 -203.763 123.177
v 153.156 -280.988 123.177
v 163.844 -269.935 106.85
v 163.844 -198.903 106.85
v 153.156 -203.763 123.177
v 163.844 -198.903 106.85
v 155.535 -295 102.112
v 147.059 -295 118.596
v 163.844 -198.903 106.85
v 163.844 -269.935 106.85
v 170.633 -260.555 88.7906
v 170.633 -195.425 88.7906
v 163.844 -198.903 106.85
v 170.633 -195.425 88.7906
v 164.011 -295 85.6269
v 155.535 -295 102.112
v 170.633 -195.425 88.7906
v 170.633 -260.555 88.7906
v 203.837 -221.727 35.1259
v 172.487 -192.752 69.1422
v 170.633 -195.425 88.7906
v 172.487 -192.752 69.1422
v 172.487 -295 69.1422
v 164.011 -295 85.6269
v 172.487 -192.752 69.1422
v 203.837 -221.727 35.1259
v 169.778 -240.407 49.8165
v 169.778 -192.36 49.8165
v 172.487 -192.752 69.1422
v 169.778 -192.36 49.8165
v 167.172 -295 50.5629
v 172.487 -295 69.1422
v 169.778 -192.36 49.8165
v 169.778 -240.407 49.8165
v 201.513 -221.861 27.2984
v 161.856 -193.667 31.9836
v 169.778 -192.36 49.8165
v 161.856 -193.667 31.9836
v 161.856 -295 31.9836
v 167.172 -295 50.5629
v 161.856 -193.667 31.9836
v 201.513 -221.861 27.2984
v 149.478 -250.758 16.9145
v 149.478 -197.151 16.9145
v 161.856 -193.667 31.9836
v 149.478 -197.151 16.9145
v 145.224 -295 24.0269
v 161.856 -295 31.9836
v 149.478 -197.151 16.9145
v 149.478 -250.758 16.9145
v 133.436 -263.352 5.85173
v 133.436 -202.953 5.85173
v 149.478 -197.151 16.9145
v 133.436 -202.953 5.85173
v 128.592 -295 16.0701
v 145.224 -295 24.0269
v 133.436 -202.953 5.85173
v 133.436 -263.352 5.85173
v 115.146 -279.435 0.00760851
v 115.146 -211.332 0.00760851
v 133.436 -202.953 5.85173
v 115.146 -211.332 0.00760851
v 112.065 -295 8.16366
v 128.592 -295 16.0701
v 115.146 -211.332 0.00760851
v 115.146 -279.435 0.00760851
v 152.263 -271.629 -11.5759
v 95 -221.791 0
v 115.146 -211.332 0.00760851
v 95 -221.791 0
v 95 -295 0
v 112.065 -295 8.16366
vn -0.276529 -0.219205 -0.935671
vn -0.618734 0.0366408 0.784745
vn 0.940504 0 0.339783
vn -0.778286 0 0.627909
vn -0.83648 -0.138194 -0.530286
vn -0.897598 0.0347894 0.43944
vn 0.840864 0 0.541247
vn -0.971226 0 0.238162
vn -0.695165 -0.134618 -0.706133
vn -0.988439 0.150774 0.0160047
vn 0.98267 0 0.185364
vn -0.94777 0.231013 -0.219921
vn 0.925235 0 0.379394
vn -0.873972 0.240055 -0.422548
vn 0.829158 0 0.559015
vn -0.781288 0.190711 -0.594322
vn 0.700514 0 0.713639
vn -0.674458 0.0984806 -0.731716
vn 0.547039 0 0.837107
vn -0.55245 -0.0207907 -0.833287
vn 0.698763 0 0.715353
vn -0.71368 -0.0826141 -0.695583
vn 0.836666 0 0.547714
vn -0.845802 -0.0989848 -0.524233
vn 0.936059 0 0.351844
vn -0.938109 -0.073139 -0.33853
vn 0.850381 0 0.526168
vn -0.995577 0 -0.0939544
vn -0.524936 -0.345321 -0.777943
vn -0.989904 -0.0261466 0.139306
vn 0.578685 0 0.815551
vn -0.913895 -7.18692e-17 0.405951
vn 0.0583204 -0.242934 -0.968288
vn -0.779201 -0.0790718 0.621766
vn 0.567715 1.63675e-16 -0.823225
vn -0.592593 -0.119618 0.796571
vn 0.304358 1.68091e-16 -0.952558
vn -0.345489 -0.103642 0.932682
vn 0.297909 -1.67339e-16 0.954594
vn -0.000377671 0 1
f 1//1 2//1 3//1 4//1 
f 5//2 6//2 7//2 8//2 
f 9//3 10//3 11//3 12//3 
f 13//4 14//4 15//4 16//4 
f 17//5 18//5 19//5 20//5 
f 21//6 22//6 23//6 24//6 
f 25//7 26//7 27//7 28//7 
f 29//8 30//8 31//8 32//8 
f 33//9 34//9 35//9 36//9 
f 37//10 38//10 39//10 40//10 
f 41//11 42//11 43//11 44//11 
f 45//12 46//12 47//12 48//12 
f 49//13 50//13 51//13 52//13 
f 53//14 54//14 55//14 56//14 
f 57//15 58//15 59//15 60//15 
f 61//16 62//16 63//16 64//16 
f 65//17 66//17 67//17 68//17 
f 69//18 70//18 71//18 72//18 
f 73//19 74//19 75//19 76//19 
f 77//20 78//20 79//20 80//20 
f 81//21 82//21 83//21 84//21 
f 85//22 86//22 87//22 88//22 
f 89//23 90//23 91//23 92//23 
f 93//24 94//24 95//24 96//24 
f 97//25 98//25 99//25 100//25 
f 101//26 102//26 103//26 104//26 
f 105//27 106//27 107//27 108//27 
f 109//28 110//28 111//28 112//28 
f 113//29 114//29 115//29 116//29 
f 117//30 118//30 119//30 120//30 
f 121//31 122//31 123//31 124//31 
f 125//32 126//32 127//32 128//32 
f 129//33 130//33 131//33 132//33 
f 133//34 134//34 135//34 136//34 
f 137//35 138//35 139//35 140//35 
f 141//36 142//36 143//36 144//36 
f 145//37 146//37 147//37 148//37 
f 149//38 150//38 151//38 152//38 
f 153//39 154//39 155//39 156//39 
f 157//40 158//40 159//40 160//40 
