v 187.797 -274.082 242.359
v 187.797 -115 242.359
v 211.92 -115 228.124
v 211.92 -256.974 228.124
v 187.797 -274.082 242.359
v 211.92 -256.974 228.124
v 211.92 -355 228.124
v 187.797 -355 242.359
v 211.92 -256.974 228.124
v 211.92 -115 228.124
v 227.624 -115 218.857
v 227.624 -245.835 218.857
v 211.92 -256.974 228.124
v 227.624 -245.835 218.857
v 227.624 -355 218.857
v 211.92 -355 228.124
v 227.624 -245.835 218.857
v 227.624 -115 218.857
v 243.329 -115 209.589
v 243.329 -234.697 209.589
v 227.624 -245.835 218.857
v 243.329 -234.697 209.589
v 243.329 -355 209.589
v 227.624 -355 218.857
v 243.329 -234.697 209.589
v 243.329 -115 209.589
v 249.141 -115 192.602
v 249.141 -227.347 192.602
v 243.329 -234.697 209.589
v 249.141 -227.347 192.602
v 249.141 -355 192.602
v 243.329 -355 209.589
v 249.141 -227.347 192.602
v 249.141 -115 192.602
v 254.952 -115 175.615
v 254.952 -219.997 175.615
v 249.141 -227.347 192.602
v 254.952 -219.997 175.615
v 254.952 -355 175.615
v 249.141 -355 192.602
v 254.952 -219.997 175.615
v 254.952 -115 175.615
v 260.763 -115 158.628
v 260.763 -212.647 158.628
v 254.952 -219.997 175.615
v 260.763 -212.647 158.628
v 260.763 -355 158.628
v 254.952 -355 175.615
v 260.763 -212.647 158.628
v 260.763 -115 158.628
v 266.575 -115 141.642
v 266.575 -205.296 141.642
v 260.763 -212.647 158.628
v 266.575 -205.296 141.642
v 266.575 -355 141.642
v 260.763 -355 158.628
v 266.575 -205.296 141.642
v 266.575 -115 141.642
v 272.386 -115 124.655
v 272.386 -197.946 124.655
v 266.575 -205.296 141.642
v 272.386 -197.946 124.655
v 272.386 -355 124.655
v 266.575 -355 141.642
v 272.386 -197.946 124.655
v 272.386 -115 124.655
v 265.883 -115 107.66
v 265.883 -195.825 107.66
v 272.386 -197.946 124.655
v 265.883 -195.825 107.66
v 265.883 -355 107.66
v 272.386 -355 124.655
v 265.883 -195.825 107.66
v 265.883 -115 107.66
v 259.421 -115 90.7722
v 259.421 -193.717 90.7722
v 265.883 -195.825 107.66
v 259.421 -193.717 90.7722
v 259.421 -355 90.7722
v 265.883 -355 107.66
v 259.421 -193.717 90.7722
v 259.421 -115 90.7722
v 252.918 -115 73.7771
v 252.918 -191.596 73.7771
v 259.421 -193.717 90.7722
v 252.918 -191.596 73.7771
v 252.918 -355 73.7771
v 259.421 -355 90.7722
v 252.918 -191.596 73.7771
v 252.918 -115 73.7771
v 246.415 -115 56.782
v 246.415 -189.475 56.782
v 252.918 -191.596 73.7771
v 246.415 -189.475 56.782
v 246.415 -355 56.782
v 252.918 -355 73.7771
v 246.415 -189.475 56.782
v 246.415 -115 56.782
v 232.631 -115 44.6952
v 232.631 -192.073 44.6952
v 246.415 -189.475 56.782
v 232.631 -192.073 44.6952
v 232.631 -355 44.6952
v 246.415 -355 56.782
v 232.631 -192.073 44.6952
v 232.631 -115 44.6952
v 218.846 -115 32.6085
v 218.846 -194.67 32.6085
v 232.631 -192.073 44.6952
v 218.846 -194.67 32.6085
v 218.846 -355 32.6085
v 232.631 -355 44.6952
v 218.846 -194.67 32.6085
v 218.846 -115 32.6085
v 205.061 -115 20.5217
v 205.061 -197.268 20.5217
v 218.846 -194.67 32.6085
v 205.061 -197.268 20.5217
v 205.061 -355 20.5217
v 218.846 -355 32.6085
v 205.061 -197.268 20.5217
v 205.061 -115 20.5217
v 188.126 -115 13.3125
v 188.126 -203.312 13.3125
v 205.061 -197.268 20.5217
v 188.126 -203.312 13.3125
v 188.126 -355 13.3125
v 205.061 -355 20.5217
v 188.126 -203.312 13.3125
v 188.126 -115 13.3125
v 171.192 -115 6.10332
v 171.192 -209.357 6.10332
v 188.126 -203.312 13.3125
v 171.192 -209.357 6.10332
v 171.192 -355 6.10332
v 188.126 -355 13.3125
v 171.192 -209.357 6.10332
v 171.192 -115 6.10332
v 152.91 -115 4.41761
v 152.91 -219.025 4.41761
v 171.192 -209.357 6.10332
v 152.91 -219.025 4.41761
v 152.91 -355 4.41761
v 171.192 -355 6.10332
v 152.91 -219.025 4.41761
v 152.91 -115 4.41761
v 134.744 -115 2.74256
v 134.744 -228.631 2.74256
v 152.91 -219.025 4.41761
v 134.744 -228.631 2.74256
v 134.744 -355 2.74256
v 152.91 -355 4.41761
v 134.744 -228.631 2.74256
v 134.744 -115 2.74256
v 105 -115 0
v 105 -244.361 0
v 134.744 -228.631 2.74256
v 105 -244.361 0
v 105 -355 0
v 134.744 -355 2.74256
vn -0.508215 1.53868e-16 -0.86123
vn -0.508215 2.0703e-17 -0.86123
vn -0.508215 3.75573e-17 -0.86123
vn -0.508215 1.1422e-16 -0.86123
vn -0.508215 -2.55625e-16 -0.86123
vn -0.508215 0 -0.86123
vn -0.946164 0 -0.323688
vn -0.946164 -6.20073e-17 -0.323688
vn -0.946164 -1.51176e-16 -0.323688
vn -0.946164 -1.28989e-16 -0.323688
vn -0.946164 9.43593e-17 -0.323688
vn -0.946164 1.94614e-16 -0.323688
vn -0.946164 -3.62365e-16 -0.323688
vn -0.946164 -4.75865e-17 -0.323688
vn -0.946164 2.03768e-16 -0.323688
vn -0.946164 0 -0.323688
vn -0.933963 0 0.357368
vn -0.933963 -1.17751e-16 0.357368
vn -0.933963 1.37148e-16 0.357368
vn -0.933963 8.28409e-17 0.357368
vn -0.933963 -3.8738e-16 0.357368
vn -0.933963 3.34551e-17 0.357368
vn -0.933963 1.14351e-16 0.357368
vn -0.933963 -1.88722e-17 0.357368
vn -0.659281 0 0.751896
vn -0.659281 -9.51516e-18 0.751896
vn -0.659281 -1.20911e-16 0.751896
vn -0.659281 -2.9008e-17 0.751896
vn -0.659281 -5.84841e-17 0.751896
vn -0.659281 -1.96572e-17 0.751896
vn -0.391689 0 0.920098
vn -0.391689 -3.56307e-17 0.920098
vn -0.391689 4.51304e-17 0.920098
vn -0.391689 5.30134e-17 0.920098
vn -0.0918173 -2.81197e-17 0.995776
vn -0.0918173 9.96181e-18 0.995776
vn -0.0918173 1.66881e-17 0.995776
vn -0.0918173 7.70528e-18 0.995776
vn -0.0918173 2.68984e-18 0.995776
vn -0.0918173 0 0.995776
f 1//1 2//1 3//1 4//1 
f 5//2 6//2 7//2 8//2 
f 9//3 10//3 11//3 12//3 
f 13//4 14//4 15//4 16//4 
f 17//5 18//5 19//5 20//5 
f 21//6 22//6 23//6 24//6 
f 25//7 26//7 27//7 28//7 
f 29//8 30//8 31//8 32//8 
f 33//9 34//9 35//9 36//9 
f 37//10 38//10 39//10 40//10 
f 41//11 42//11 43//11 44//11 
f 45//12 46//12 47//12 48//12 
f 49//13 50//13 51//13 52//13 
f 53//14 54//14 55//14 56//14 
f 57//15 58//15 59//15 60//15 
f 61//16 62//16 63//16 64//16 
f 65//17 66//17 67//17 68//17 
f 69//18 70//18 71//18 72//18 
f 73//19 74//19 75//19 76//19 
f 77//20 78//20 79//20 80//20 
f 81//21 82//21 83//21 84//21 
f 85//22 86//22 87//22 88//22 
f 89//23 90//23 91//23 92//23 
f 93//24 94//24 95//24 96//24 
f 97//25 98//25 99//25 100//25 
f 101//26 102//26 103//26 104//26 
f 105//27 106//27 107//27 108//27 
f 109//28 110//28 111//28 112//28 
f 113//29 114//29 115//29 116//29 
f 117//30 118//30 119//30 120//30 
f 121//31 122//31 123//31 124//31 
f 125//32 126//32 127//32 128//32 
f 129//33 130//33 131//33 132//33 
f 133//34 134//34 135//34 136//34 
f 137//35 138//35 139//35 140//35 
f 141//36 142//36 143//36 144//36 
f 145//37 146//37 147//37 148//37 
f 149//38 150//38 151//38 152//38 
f 153//39 154//39 155//39 156//39 
f 157//40 158//40 159//40 160//40 
