v 170.071 -220.688 271.039
v 169.879 -105 271.252
v 184.257 -105 258.158
v 184.309 -210.433 258.077
v 170.071 -220.688 271.039
v 184.309 -210.433 258.077
v 184.309 -355 258.077
v 170.071 -355 271.039
v 184.309 -210.433 258.077
v 184.257 -105 258.158
v 198.591 -105 245.104
v 198.637 -200.112 245.031
v 184.309 -210.433 258.077
v 198.637 -200.112 245.031
v 198.637 -355 245.031
v 184.309 -355 258.077
v 198.637 -200.112 245.031
v 198.591 -105 245.104
v 212.925 -105 232.05
v 212.966 -189.792 231.986
v 198.637 -200.112 245.031
v 212.966 -189.792 231.986
v 212.966 -355 231.986
v 198.637 -355 245.031
v 212.966 -189.792 231.986
v 212.925 -105 232.05
v 218.578 -105 213.678
v 218.596 -183.433 213.685
v 212.966 -189.792 231.986
v 218.596 -183.433 213.685
v 218.596 -355 213.685
v 212.966 -355 231.986
v 218.596 -183.433 213.685
v 218.578 -105 213.678
v 224.229 -105 195.317
v 224.226 -177.075 195.384
v 218.596 -183.433 213.685
v 224.226 -177.075 195.384
v 224.226 -355 195.384
v 218.596 -355 213.685
v 224.226 -177.075 195.384
v 224.229 -105 195.317
v 229.876 -105 176.966
v 229.856 -170.717 177.083
v 224.226 -177.075 195.384
v 229.856 -170.717 177.083
v 229.856 -355 177.083
v 224.226 -355 195.384
v 229.856 -170.717 177.083
v 229.876 -105 176.966
v 235.519 -105 158.627
v 235.486 -164.359 158.782
v 229.856 -170.717 177.083
v 235.486 -164.359 158.782
v 235.486 -355 158.782
v 229.856 -355 177.083
v 235.486 -164.359 158.782
v 235.519 -105 158.627
v 241.116 -104.999 140.438
v 241.116 -158 140.481
v 235.486 -164.359 158.782
v 241.116 -158 140.481
v 241.116 -355 140.481
v 235.486 -355 158.782
v 241.116 -158 140.481
v 241.116 -104.999 140.438
v 235.403 -104.999 122.129
v 235.374 -158.092 122.08
v 241.116 -158 140.481
v 235.374 -158.092 122.08
v 235.374 -355 122.08
v 241.116 -355 140.481
v 235.374 -158.092 122.08
v 235.403 -104.999 122.129
v 229.725 -104.999 103.935
v 229.668 -158.183 103.795
v 235.374 -158.092 122.08
v 229.668 -158.183 103.795
v 229.668 -355 103.795
v 235.374 -355 122.08
v 229.668 -158.183 103.795
v 229.725 -104.999 103.935
v 224.012 -104.999 85.6264
v 223.926 -158.275 85.3937
v 229.668 -158.183 103.795
v 223.926 -158.275 85.3937
v 223.926 -355 85.3937
v 229.668 -355 103.795
v 223.926 -158.275 85.3937
v 224.012 -104.999 85.6264
v 218.214 -105 67.0486
v 218.184 -158.366 66.9925
v 223.926 -158.275 85.3937
v 218.184 -158.366 66.9925
v 218.184 -355 66.9925
v 223.926 -355 85.3937
v 218.184 -158.366 66.9925
v 218.214 -105 67.0486
v 205.55 -105 52.1042
v 205.61 -163.145 52.1533
v 218.184 -158.366 66.9925
v 205.61 -163.145 52.1533
v 205.61 -355 52.1533
v 218.184 -355 66.9925
v 205.61 -163.145 52.1533
v 205.55 -105 52.1042
v 192.953 -105 37.2384
v 193.037 -167.923 37.3141
v 205.61 -163.145 52.1533
v 193.037 -167.923 37.3141
v 193.037 -355 37.3141
v 205.61 -355 52.1533
v 193.037 -167.923 37.3141
v 192.953 -105 37.2384
v 177.084 -105 26.3605
v 176.993 -175.439 26.3186
v 193.037 -167.923 37.3141
v 176.993 -175.439 26.3186
v 176.993 -355 26.3186
v 193.037 -355 37.3141
v 176.993 -175.439 26.3186
v 177.084 -105 26.3605
v 161.036 -105 15.3595
v 160.95 -182.955 15.3232
v 176.993 -175.439 26.3186
v 160.95 -182.955 15.3232
v 160.95 -355 15.3232
v 176.993 -355 26.3186
v 160.95 -182.955 15.3232
v 161.036 -105 15.3595
v 142.153 -105 11.5524
v 142.055 -193.566 11.5111
v 160.95 -182.955 15.3232
v 142.055 -193.566 11.5111
v 142.055 -355 11.5111
v 160.95 -355 15.3232
v 142.055 -193.566 11.5111
v 142.153 -105 11.5524
v 123.27 -105 7.74527
v 123.161 -204.178 7.69908
v 142.055 -193.566 11.5111
v 123.161 -204.178 7.69908
v 123.161 -355 7.69908
v 142.055 -355 11.5111
v 123.161 -204.178 7.69908
v 123.27 -105 7.74527
v 104.507 -105 3.96226
v 104.386 -214.723 3.91116
v 123.161 -204.178 7.69908
v 104.386 -214.723 3.91116
v 104.386 -355 3.91116
v 123.161 -355 7.69908
v 104.386 -214.723 3.91116
v 104.507 -105 3.96226
v 84.4345 -105.001 -0.0846416
v 85 -225.611 0
v 104.386 -214.723 3.91116
v 85 -225.611 0
v 85 -355 0
v 104.386 -355 3.91116
vn -0.673316 -0.000238777 -0.739355
vn -0.673222 2.04205e-17 -0.739441
vn -0.673316 -0.000238777 -0.739355
vn -0.673222 2.84088e-17 -0.739441
vn -0.673316 -0.000238777 -0.739355
vn -0.673222 -8.87805e-18 -0.739441
vn -0.95577 0.000238798 -0.294116
vn -0.955793 -1.6871e-16 -0.29404
vn -0.95577 0.000238798 -0.294116
vn -0.955793 1.87709e-16 -0.29404
vn -0.95577 0.000238798 -0.294116
vn -0.955793 -1.57069e-16 -0.29404
vn -0.95577 0.000238798 -0.294116
vn -0.955793 8.56477e-17 -0.29404
vn -0.95577 0.000238798 -0.294116
vn -0.955793 4.52091e-17 -0.29404
vn -0.954599 -0.000238767 0.297892
vn -0.954599 -1.27295e-16 0.297893
vn -0.954599 -0.000238767 0.297892
vn -0.954599 -1.99787e-16 0.297893
vn -0.954599 -0.000238767 0.297892
vn -0.954599 -2.24847e-17 0.297893
vn -0.954599 -0.000238767 0.297892
vn -0.954599 -4.12411e-17 0.297893
vn -0.762913 0.0002388 0.646502
vn -0.76295 -3.42748e-16 0.646457
vn -0.762913 0.0002388 0.646502
vn -0.76295 -6.24893e-17 0.646457
vn -0.565403 -0.000238771 0.824815
vn -0.565327 5.69668e-17 0.824867
vn -0.565403 -0.000238771 0.824815
vn -0.565327 -2.54809e-17 0.824867
vn -0.19764 0.000238794 0.980275
vn -0.197769 0 0.980249
vn -0.19764 0.000238794 0.980275
vn -0.197769 2.44414e-17 0.980249
vn -0.19764 0.000238794 0.980275
vn -0.197769 1.58676e-17 0.980249
vn -0.19764 0.000238794 0.980275
vn -0.197769 0 0.980249
f 1//1 2//1 3//1 4//1 
f 5//2 6//2 7//2 8//2 
f 9//3 10//3 11//3 12//3 
f 13//4 14//4 15//4 16//4 
f 17//5 18//5 19//5 20//5 
f 21//6 22//6 23//6 24//6 
f 25//7 26//7 27//7 28//7 
f 29//8 30//8 31//8 32//8 
f 33//9 34//9 35//9 36//9 
f 37//10 38//10 39//10 40//10 
f 41//11 42//11 43//11 44//11 
f 45//12 46//12 47//12 48//12 
f 49//13 50//13 51//13 52//13 
f 53//14 54//14 55//14 56//14 
f 57//15 58//15 59//15 60//15 
f 61//16 62//16 63//16 64//16 
f 65//17 66//17 67//17 68//17 
f 69//18 70//18 71//18 72//18 
f 73//19 74//19 75//19 76//19 
f 77//20 78//20 79//20 80//20 
f 81//21 82//21 83//21 84//21 
f 85//22 86//22 87//22 88//22 
f 89//23 90//23 91//23 92//23 
f 93//24 94//24 95//24 96//24 
f 97//25 98//25 99//25 100//25 
f 101//26 102//26 103//26 104//26 
f 105//27 106//27 107//27 108//27 
f 109//28 110//28 111//28 112//28 
f 113//29 114//29 115//29 116//29 
f 117//30 118//30 119//30 120//30 
f 121//31 122//31 123//31 124//31 
f 125//32 126//32 127//32 128//32 
f 129//33 130//33 131//33 132//33 
f 133//34 134//34 135//34 136//34 
f 137//35 138//35 139//35 140//35 
f 141//36 142//36 143//36 144//36 
f 145//37 146//37 147//37 148//37 
f 149//38 150//38 151//38 152//38 
f 153//39 154//39 155//39 156//39 
f 157//40 158//40 159//40 160//40 
