v 183.5 -93.1826 205.982
v 181.879 -78.0805 201.117
v 264.443 -89.371 138.565
v 254.878 -176.647 182.079
v 183.5 -93.1826 205.982
v 254.878 -176.647 182.079
v 241.271 -300.797 243.978
v 205.247 -295.87 271.271
v 254.878 -176.647 182.079
v 264.443 -89.371 138.565
v 270.766 -108.218 53.4583
v 259.65 -238.437 82.8265
v 254.878 -176.647 182.079
v 259.65 -238.437 82.8265
v 251.679 -331.819 103.887
v 241.271 -300.797 243.978
v 259.65 -238.437 82.8265
v 270.766 -108.218 53.4583
v 217.955 -115 6.63991e-05
v 186.808 -218.964 -3.89366e-15
v 259.65 -238.437 82.8265
v 186.808 -218.964 -3.89366e-15
v 149.05 -345 0
v 251.679 -331.819 103.887
v 186.808 -218.964 -3.89366e-15
v 217.955 -115 6.63991e-05
v 105 -115 2.44847e-05
v 105 -161.416 0
v 186.808 -218.964 -3.89366e-15
v 105 -161.416 0
v 105 -345 0
v 149.05 -345 0
vn -0.601507 0.302681 -0.739306
vn -0.601507 0.302682 -0.739306
vn -0.99398 -0.0649501 -0.0882295
vn -0.99398 -0.0649506 -0.0882298
vn -0.708518 -0.212263 0.673013
vn -0.708519 -0.212263 0.673013
vn -3.71072e-07 5.27506e-07 1
vn 4.75948e-17 0 1
f 1//1 2//1 3//1 4//1 
f 5//2 6//2 7//2 8//2 
f 9//3 10//3 11//3 12//3 
f 13//4 14//4 15//4 16//4 
f 17//5 18//5 19//5 20//5 
f 21//6 22//6 23//6 24//6 
f 25//7 26//7 27//7 28//7 
f 29//8 30//8 31//8 32//8 
