v 200.36 -329.3 102.699
v 105 -260.932 0
v 281.106 -186.061 -4.80153e-15
v 336.539 -216.759 51.1707
v 442.621 -293.416 -80.9542
v 336.539 -216.759 51.1707
v 281.106 -186.061 -4.80153e-15
v 359.614 -248.691 -173.549
v 366.817 -365.818 -162.715
v 359.614 -248.691 -173.549
v 281.106 -186.061 -4.80153e-15
v 298 -355 0
v 105 -355 0
v 298 -355 0
v 281.106 -186.061 -4.80153e-15
v 105 -260.932 0
vn 0.280008 -0.658614 -0.698443
vn -0.529244 -0.84591 0.0658573
vn 0.919294 0.0919294 0.382683
vn 0 2.84217e-17 1
f 1//1 2//1 3//1 4//1 
f 5//2 6//2 7//2 8//2 
f 9//3 10//3 11//3 12//3 
f 13//4 14//4 15//4 16//4 
