v 130.509 -105 3.55271e-15
v 75 -105 0
v 75 -230.059 0
v 152.488 -104.365 8.03232
v 130.509 -105 3.55271e-15
v 75 -230.059 0
v 72.4585 -322.636 14.2717
v 168.252 -102.139 21.8099
v 152.488 -104.365 8.03232
v 72.4585 -322.636 14.2717
v 70.4259 -343.014 19.8902
v 94.5775 -339.603 40.9976
v 176.873 -97.9053 38.7083
v 168.252 -102.139 21.8099
v 94.5775 -339.603 40.9976
v 111.044 -331.517 73.276
v 178.033 -91.7159 56.0482
v 176.873 -97.9053 38.7083
v 111.044 -331.517 73.276
v 113.238 -319.814 106.061
v 172.02 -84.001 71.283
v 178.033 -91.7159 56.0482
v 113.238 -319.814 106.061
v 102.182 -305.628 134.075
v 159.991 -75.7588 81.7351
v 172.02 -84.001 71.283
v 102.182 -305.628 134.075
v 81.0042 -291.118 152.475
v 151.961 -67.7276 95.9915
v 159.991 -75.7588 81.7351
v 81.0042 -291.118 152.475
v 67.6342 -277.746 176.212
v 149.025 -60.6667 113.11
v 151.961 -67.7276 95.9915
v 67.6342 -277.746 176.212
v 63.0521 -266.727 202.928
v 152.011 -55.5352 131.605
v 149.025 -60.6667 113.11
v 63.0521 -266.727 202.928
v 67.3931 -259.267 229.814
v 161.228 -53.3573 149.585
v 152.011 -55.5352 131.605
v 67.3931 -259.267 229.814
v 79.8166 -256.331 254.05
v 175.912 -55.0845 164.446
v 161.228 -53.3573 149.585
v 79.8166 -256.331 254.05
v 98.1072 -258.483 272.56
v 194.419 -61.2535 173.969
v 175.912 -55.0845 164.446
v 98.1072 -258.483 272.56
v 119.341 -265.561 283.486
v 209.964 -62.9953 189.981
v 194.419 -61.2535 173.969
v 119.341 -265.561 283.486
v 135.7 -267.394 300.336
v 219.54 -60.1674 210.67
v 209.964 -62.9953 189.981
v 135.7 -267.394 300.336
v 144.888 -264.68 320.188
v 220.852 -53.4312 233.277
v 219.54 -60.1674 210.67
v 144.888 -264.68 320.188
v 146.026 -258.836 339.803
v 212.891 -44.3962 253.896
v 220.852 -53.4312 233.277
v 146.026 -258.836 339.803
v 139.848 -251.824 355.805
v 196.395 -35.109 269.03
v 212.891 -44.3962 253.896
v 139.848 -251.824 355.805
v 128.549 -245.463 366.171
v 173.877 -27.8246 275.718
v 196.395 -35.109 269.03
v 128.549 -245.463 366.171
v 115.165 -241.133 370.146
v 115.165 -241.133 370.146
v 106.568 -239.957 368.964
v 149.322 -24.4669 272.341
v 173.877 -27.8246 275.718
vn -6.40022e-17 0 1
vn -0.343133 -0.152304 0.926857
vn -0.655909 -0.260738 0.708378
vn -0.877624 -0.302344 0.371973
vn -0.96324 -0.266869 -0.030818
vn -0.888564 -0.157978 -0.430694
vn -0.658173 0.00589382 -0.752843
vn -0.831726 -0.127564 -0.540333
vn -0.924863 -0.268462 -0.269365
vn -0.916359 -0.39861 0.0373609
vn -0.794921 -0.497537 0.347215
vn -0.563667 -0.545366 0.620367
vn -0.24376 -0.526256 0.814639
vn -0.573422 -0.540665 0.615523
vn -0.823617 -0.470345 0.316908
vn -0.945502 -0.322978 -0.0413643
vn -0.906996 -0.121241 -0.403309
vn -0.702393 0.0989673 -0.704876
vn -0.358219 0.293724 -0.886231
vn 0.0671732 0.419282 -0.905368
f 1//1 2//1 3//1 
f 4//2 5//2 6//2 7//2 
f 8//3 9//3 10//3 11//3 12//3 
f 13//4 14//4 15//4 16//4 
f 17//5 18//5 19//5 20//5 
f 21//6 22//6 23//6 24//6 
f 25//7 26//7 27//7 28//7 
f 29//8 30//8 31//8 32//8 
f 33//9 34//9 35//9 36//9 
f 37//10 38//10 39//10 40//10 
f 41//11 42//11 43//11 44//11 
f 45//12 46//12 47//12 48//12 
f 49//13 50//13 51//13 52//13 
f 53//14 54//14 55//14 56//14 
f 57//15 58//15 59//15 60//15 
f 61//16 62//16 63//16 64//16 
f 65//17 66//17 67//17 68//17 
f 69//18 70//18 71//18 72//18 
f 73//19 74//19 75//19 76//19 
f 77//20 78//20 79//20 80//20 
