v 125.023 -125 1.77636e-15
v 125 -125 0
v 125 -375 0
v 187.475 -375 0
v 148.421 -125.055 3.22884
v 125.023 -125 1.77636e-15
v 187.475 -375 0
v 203.349 -375.038 2.19059
v 171.168 -125.277 9.74995
v 148.421 -125.055 3.22884
v 203.349 -375.038 2.19059
v 218.778 -375.188 6.61373
v 192.632 -125.767 19.4916
v 171.168 -125.277 9.74995
v 218.778 -375.188 6.61373
v 233.282 -375.519 13.1967
v 212.314 -126.614 32.3186
v 192.632 -125.767 19.4916
v 233.282 -375.519 13.1967
v 246.487 -376.088 21.8026
v 229.711 -127.889 48.0051
v 212.314 -126.614 32.3186
v 246.487 -376.088 21.8026
v 258.035 -376.934 32.2156
v 244.335 -129.637 66.2314
v 229.711 -127.889 48.0051
v 258.035 -376.934 32.2156
v 267.607 -378.078 44.1443
v 255.736 -131.877 86.586
v 244.335 -129.637 66.2314
v 267.607 -378.078 44.1443
v 274.936 -379.518 57.2299
v 263.513 -134.592 108.571
v 255.736 -131.877 86.586
v 274.936 -379.518 57.2299
v 279.828 -381.226 71.0591
v 267.34 -137.728 131.611
v 263.513 -134.592 108.571
v 279.828 -381.226 71.0591
v 282.174 -383.148 85.1818
v 266.975 -141.191 155.071
v 267.34 -137.728 131.611
v 282.174 -383.148 85.1818
v 281.957 -385.207 99.1321
v 262.273 -144.841 178.267
v 266.975 -141.191 155.071
v 281.957 -385.207 99.1321
v 279.257 -387.303 112.451
v 253.191 -148.492 200.488
v 262.273 -144.841 178.267
v 279.257 -387.303 112.451
v 274.246 -389.317 124.712
v 239.796 -151.907 221.014
v 253.191 -148.492 200.488
v 274.246 -389.317 124.712
v 267.179 -391.119 135.541
v 222.257 -154.795 239.131
v 239.796 -151.907 221.014
v 267.179 -391.119 135.541
v 258.376 -392.569 144.634
v 200.845 -156.807 254.145
v 222.257 -154.795 239.131
v 258.376 -392.569 144.634
v 248.199 -393.525 151.771
v 175.923 -157.517 265.396
v 200.845 -156.807 254.145
v 248.199 -393.525 151.771
v 237.025 -393.843 156.815
v 166.241 -212.519 245.613
v 173.419 -157.418 266.011
v 175.923 -157.517 265.396
v 237.025 -393.843 156.815
v 225.222 -393.377 159.711
v 159.591 -258.174 224.037
v 166.241 -212.519 245.613
v 225.222 -393.377 159.711
v 213.124 -391.961 160.443
v 213.124 -391.961 160.443
v 142.722 -377.076 152.325
v 159.591 -258.174 224.037
vn -7.5809e-14 0 1
vn -0.136701 0.0341485 0.990024
vn -0.275591 0.0645381 0.959106
vn -0.413304 0.0901083 0.906124
vn -0.546011 0.109803 0.830551
vn -0.669547 0.122595 0.732582
vn -0.779529 0.127538 0.613245
vn -0.871508 0.123818 0.474493
vn -0.941162 0.110818 0.31927
vn -0.984512 0.0881737 0.151533
vn -0.998157 0.0558332 -0.0237748
vn -0.97953 0.0141071 -0.200803
vn -0.927143 -0.0362898 -0.372945
vn -0.840824 -0.0942121 -0.533046
vn -0.721915 -0.158075 -0.673685
vn -0.573424 -0.225868 -0.787508
vn -0.400106 -0.295189 -0.867628
vn -0.208464 -0.363308 -0.908047
vn -0.00458561 -0.427807 -0.903859
vn 0.20068 -0.48492 -0.851223
f 1//1 2//1 3//1 4//1 
f 5//2 6//2 7//2 8//2 
f 9//3 10//3 11//3 12//3 
f 13//4 14//4 15//4 16//4 
f 17//5 18//5 19//5 20//5 
f 21//6 22//6 23//6 24//6 
f 25//7 26//7 27//7 28//7 
f 29//8 30//8 31//8 32//8 
f 33//9 34//9 35//9 36//9 
f 37//10 38//10 39//10 40//10 
f 41//11 42//11 43//11 44//11 
f 45//12 46//12 47//12 48//12 
f 49//13 50//13 51//13 52//13 
f 53//14 54//14 55//14 56//14 
f 57//15 58//15 59//15 60//15 
f 61//16 62//16 63//16 64//16 
f 65//17 66//17 67//17 68//17 
f 69//18 70//18 71//18 72//18 73//18 
f 74//19 75//19 76//19 77//19 
f 78//20 79//20 80//20 
