v 209.61 -252.991 258.907
v 209.61 -115 258.907
v 229.875 -115 239.877
v 229.875 -234.472 239.877
v 209.61 -252.991 258.907
v 229.875 -234.472 239.877
v 229.875 -365 239.877
v 209.61 -365 258.907
v 229.875 -234.472 239.877
v 229.875 -115 239.877
v 241.293 -115 226.075
v 241.293 -223.645 226.075
v 229.875 -234.472 239.877
v 241.293 -223.645 226.075
v 241.293 -365 226.075
v 229.875 -365 239.877
v 241.293 -223.645 226.075
v 241.293 -115 226.075
v 250.891 -115 210.951
v 250.891 -213.786 210.951
v 241.293 -223.645 226.075
v 250.891 -213.786 210.951
v 250.891 -365 210.951
v 241.293 -365 226.075
v 250.891 -213.786 210.951
v 250.891 -115 210.951
v 258.518 -115 194.743
v 258.518 -204.985 194.743
v 250.891 -213.786 210.951
v 258.518 -204.985 194.743
v 258.518 -365 194.743
v 250.891 -365 210.951
v 258.518 -204.985 194.743
v 258.518 -115 194.743
v 264.053 -115 177.707
v 264.053 -197.327 177.707
v 258.518 -204.985 194.743
v 264.053 -197.327 177.707
v 264.053 -365 177.707
v 258.518 -365 194.743
v 264.053 -197.327 177.707
v 264.053 -115 177.707
v 267.41 -115 160.112
v 267.41 -190.893 160.112
v 264.053 -197.327 177.707
v 267.41 -190.893 160.112
v 267.41 -365 160.112
v 264.053 -365 177.707
v 267.41 -190.893 160.112
v 267.41 -115 160.112
v 268.534 -115 142.235
v 268.534 -185.758 142.235
v 267.41 -190.893 160.112
v 268.534 -185.758 142.235
v 268.534 -365 142.235
v 267.41 -365 160.112
v 268.534 -185.758 142.235
v 268.534 -115 142.235
v 267.41 -115 124.357
v 267.41 -181.987 124.357
v 268.534 -185.758 142.235
v 267.41 -181.987 124.357
v 267.41 -365 124.357
v 268.534 -365 142.235
v 267.41 -181.987 124.357
v 267.41 -115 124.357
v 264.053 -115 106.762
v 264.053 -179.631 106.762
v 267.41 -181.987 124.357
v 264.053 -179.631 106.762
v 264.053 -365 106.762
v 267.41 -365 124.357
v 264.053 -179.631 106.762
v 264.053 -115 106.762
v 258.553 -115 89.8338
v 258.553 -178.726 89.8338
v 264.053 -179.631 106.762
v 258.553 -178.726 89.8338
v 258.553 -365 89.8338
v 264.053 -365 106.762
v 258.553 -178.726 89.8338
v 258.553 -115 89.8338
v 250.926 -115 73.626
v 250.926 -179.281 73.626
v 258.553 -178.726 89.8338
v 250.926 -179.281 73.626
v 250.926 -365 73.626
v 258.553 -365 89.8338
v 250.926 -179.281 73.626
v 250.926 -115 73.626
v 241.328 -115 58.5018
v 241.328 -181.306 58.5018
v 250.926 -179.281 73.626
v 241.328 -181.306 58.5018
v 241.328 -365 58.5018
v 250.926 -365 73.626
v 241.328 -181.306 58.5018
v 241.328 -115 58.5018
v 229.91 -115 44.6999
v 229.91 -184.784 44.6999
v 241.328 -181.306 58.5018
v 229.91 -184.784 44.6999
v 229.91 -365 44.6999
v 241.328 -365 58.5018
v 229.91 -184.784 44.6999
v 229.91 -115 44.6999
v 216.852 -115 32.4379
v 216.852 -189.681 32.4379
v 229.91 -184.784 44.6999
v 216.852 -189.681 32.4379
v 216.852 -365 32.4379
v 229.91 -365 44.6999
v 216.852 -189.681 32.4379
v 216.852 -115 32.4379
v 202.361 -115 21.9091
v 202.361 -195.946 21.9091
v 216.852 -189.681 32.4379
v 202.361 -195.946 21.9091
v 202.361 -365 21.9091
v 216.852 -365 32.4379
v 202.361 -195.946 21.9091
v 202.361 -115 21.9091
v 186.664 -115 13.2796
v 186.664 -203.518 13.2796
v 202.361 -195.946 21.9091
v 186.664 -203.518 13.2796
v 186.664 -365 13.2796
v 202.361 -365 21.9091
v 186.664 -203.518 13.2796
v 186.664 -115 13.2796
v 170.009 -115 6.68553
v 170.009 -212.324 6.68553
v 186.664 -203.518 13.2796
v 170.009 -212.324 6.68553
v 170.009 -365 6.68553
v 186.664 -365 13.2796
v 170.009 -212.324 6.68553
v 170.009 -115 6.68553
v 152.659 -115 2.23084
v 152.659 -222.284 2.23084
v 170.009 -212.324 6.68553
v 152.659 -222.284 2.23084
v 152.659 -365 2.23084
v 170.009 -365 6.68553
v 152.659 -222.284 2.23084
v 152.659 -115 2.23084
v 135 -115 0
v 135 -233.242 0
v 152.659 -222.284 2.23084
v 135 -233.242 0
v 135 -365 0
v 152.659 -365 2.23084
v 135 -233.242 0
v 135 -115 0
v 95 -115 0
v 95 -261.293 0
v 135 -233.242 0
v 95 -261.293 0
v 95 -365 0
v 135 -365 0
vn -0.684547 0 -0.728969
vn -0.684547 1.56654e-17 -0.728969
vn -0.770513 -1.83301e-16 -0.637424
vn -0.770513 0 -0.637424
vn -0.844328 0 -0.535827
vn -0.844328 0 -0.535827
vn -0.904827 0 -0.425779
vn -0.904827 -7.43689e-17 -0.425779
vn -0.951057 -9.76027e-17 -0.309017
vn -0.951057 0 -0.309017
vn -0.982287 0 -0.187381
vn -0.982287 -2.96181e-17 -0.187381
vn -0.998027 -2.35149e-17 -0.0627905
vn -0.998027 0 -0.0627905
vn -0.998027 0 0.0627905
vn -0.998027 0 0.0627905
vn -0.982287 0 0.187381
vn -0.982287 0 0.187381
vn -0.951057 0 0.309017
vn -0.951057 0 0.309017
vn -0.904827 0 0.425779
vn -0.904827 0 0.425779
vn -0.844328 0 0.535827
vn -0.844328 2.5913e-17 0.535827
vn -0.770513 0 0.637424
vn -0.770513 2.64131e-17 0.637424
vn -0.684547 0 0.728969
vn -0.684547 2.71508e-17 0.728969
vn -0.587785 0 0.809017
vn -0.587785 6.56998e-17 0.809017
vn -0.481754 -3.84609e-17 0.876307
vn -0.481754 3.93031e-17 0.876307
vn -0.368125 -3.73171e-17 0.929776
vn -0.368125 0 0.929776
vn -0.24869 0 0.968583
vn -0.24869 0 0.968583
vn -0.125333 0 0.992115
vn -0.125333 0 0.992115
vn 0 0 1
vn 0 0 1
f 1//1 2//1 3//1 4//1 
f 5//2 6//2 7//2 8//2 
f 9//3 10//3 11//3 12//3 
f 13//4 14//4 15//4 16//4 
f 17//5 18//5 19//5 20//5 
f 21//6 22//6 23//6 24//6 
f 25//7 26//7 27//7 28//7 
f 29//8 30//8 31//8 32//8 
f 33//9 34//9 35//9 36//9 
f 37//10 38//10 39//10 40//10 
f 41//11 42//11 43//11 44//11 
f 45//12 46//12 47//12 48//12 
f 49//13 50//13 51//13 52//13 
f 53//14 54//14 55//14 56//14 
f 57//15 58//15 59//15 60//15 
f 61//16 62//16 63//16 64//16 
f 65//17 66//17 67//17 68//17 
f 69//18 70//18 71//18 72//18 
f 73//19 74//19 75//19 76//19 
f 77//20 78//20 79//20 80//20 
f 81//21 82//21 83//21 84//21 
f 85//22 86//22 87//22 88//22 
f 89//23 90//23 91//23 92//23 
f 93//24 94//24 95//24 96//24 
f 97//25 98//25 99//25 100//25 
f 101//26 102//26 103//26 104//26 
f 105//27 106//27 107//27 108//27 
f 109//28 110//28 111//28 112//28 
f 113//29 114//29 115//29 116//29 
f 117//30 118//30 119//30 120//30 
f 121//31 122//31 123//31 124//31 
f 125//32 126//32 127//32 128//32 
f 129//33 130//33 131//33 132//33 
f 133//34 134//34 135//34 136//34 
f 137//35 138//35 139//35 140//35 
f 141//36 142//36 143//36 144//36 
f 145//37 146//37 147//37 148//37 
f 149//38 150//38 151//38 152//38 
f 153//39 154//39 155//39 156//39 
f 157//40 158//40 159//40 160//40 
