v 209.61 -252.991 258.907
v 209.61 -115 258.907
v 228.878 -115 238.941
v 228.878 -235.144 238.941
v 209.61 -252.991 258.907
v 228.878 -235.144 238.941
v 228.878 -365 238.941
v 209.61 -365 258.907
v 228.878 -235.144 238.941
v 228.878 -115 238.941
v 241.293 -115 226.075
v 241.293 -223.645 226.075
v 228.878 -235.144 238.941
v 241.293 -223.645 226.075
v 241.293 -365 226.075
v 228.878 -365 238.941
v 241.293 -223.645 226.075
v 241.293 -115 226.075
v 246.741 -115 209.307
v 246.741 -216.067 209.307
v 241.293 -223.645 226.075
v 246.741 -216.067 209.307
v 246.741 -365 209.307
v 241.293 -365 226.075
v 246.741 -216.067 209.307
v 246.741 -115 209.307
v 252.189 -115 192.539
v 252.189 -208.49 192.539
v 246.741 -216.067 209.307
v 252.189 -208.49 192.539
v 252.189 -365 192.539
v 246.741 -365 209.307
v 252.189 -208.49 192.539
v 252.189 -115 192.539
v 257.638 -115 175.771
v 257.638 -200.913 175.771
v 252.189 -208.49 192.539
v 257.638 -200.913 175.771
v 257.638 -365 175.771
v 252.189 -365 192.539
v 257.638 -200.913 175.771
v 257.638 -115 175.771
v 263.086 -115 159.003
v 263.086 -193.335 159.003
v 257.638 -200.913 175.771
v 263.086 -193.335 159.003
v 263.086 -365 159.003
v 257.638 -365 175.771
v 263.086 -193.335 159.003
v 263.086 -115 159.003
v 268.534 -115 142.235
v 268.534 -185.758 142.235
v 263.086 -193.335 159.003
v 268.534 -185.758 142.235
v 268.534 -365 142.235
v 263.086 -365 159.003
v 268.534 -185.758 142.235
v 268.534 -115 142.235
v 264.125 -115 125.055
v 264.125 -184.136 125.055
v 268.534 -185.758 142.235
v 264.125 -184.136 125.055
v 264.125 -365 125.055
v 268.534 -365 142.235
v 264.125 -184.136 125.055
v 264.125 -115 125.055
v 259.716 -115 107.876
v 259.716 -182.515 107.876
v 264.125 -184.136 125.055
v 259.716 -182.515 107.876
v 259.716 -365 107.876
v 264.125 -365 125.055
v 259.716 -182.515 107.876
v 259.716 -115 107.876
v 255.335 -115 90.8053
v 255.335 -180.903 90.8053
v 259.716 -182.515 107.876
v 255.335 -180.903 90.8053
v 255.335 -365 90.8053
v 259.716 -365 107.876
v 255.335 -180.903 90.8053
v 255.335 -115 90.8053
v 250.926 -115 73.626
v 250.926 -179.281 73.626
v 255.335 -180.903 90.8053
v 250.926 -179.281 73.626
v 250.926 -365 73.626
v 255.335 -365 90.8053
v 250.926 -179.281 73.626
v 250.926 -115 73.626
v 239.568 -115 59.8966
v 239.568 -182.748 59.8966
v 250.926 -179.281 73.626
v 239.568 -182.748 59.8966
v 239.568 -365 59.8966
v 250.926 -365 73.626
v 239.568 -182.748 59.8966
v 239.568 -115 59.8966
v 228.21 -115 46.1672
v 228.21 -186.214 46.1672
v 239.568 -182.748 59.8966
v 228.21 -186.214 46.1672
v 228.21 -365 46.1672
v 239.568 -365 59.8966
v 228.21 -186.214 46.1672
v 228.21 -115 46.1672
v 216.852 -115 32.4379
v 216.852 -189.681 32.4379
v 228.21 -186.214 46.1672
v 216.852 -189.681 32.4379
v 216.852 -365 32.4379
v 228.21 -365 46.1672
v 216.852 -189.681 32.4379
v 216.852 -115 32.4379
v 201.758 -115 22.8587
v 201.758 -196.599 22.8587
v 216.852 -189.681 32.4379
v 201.758 -196.599 22.8587
v 201.758 -365 22.8587
v 216.852 -365 32.4379
v 201.758 -196.599 22.8587
v 201.758 -115 22.8587
v 186.664 -115 13.2796
v 186.664 -203.518 13.2796
v 201.758 -196.599 22.8587
v 186.664 -203.518 13.2796
v 186.664 -365 13.2796
v 201.758 -365 22.8587
v 186.664 -203.518 13.2796
v 186.664 -115 13.2796
v 169.126 -115 10.7389
v 169.126 -214.572 10.7389
v 186.664 -203.518 13.2796
v 169.126 -214.572 10.7389
v 169.126 -365 10.7389
v 186.664 -365 13.2796
v 169.126 -214.572 10.7389
v 169.126 -115 10.7389
v 151.589 -115 8.19819
v 151.589 -225.626 8.19819
v 169.126 -214.572 10.7389
v 151.589 -225.626 8.19819
v 151.589 -365 8.19819
v 169.126 -365 10.7389
v 151.589 -225.626 8.19819
v 151.589 -115 8.19819
v 134.162 -115 5.67356
v 134.162 -236.609 5.67356
v 151.589 -225.626 8.19819
v 134.162 -236.609 5.67356
v 134.162 -365 5.67356
v 151.589 -365 8.19819
v 134.162 -236.609 5.67356
v 134.162 -115 5.67356
v 95 -115 0
v 95 -261.293 0
v 134.162 -236.609 5.67356
v 95 -261.293 0
v 95 -365 0
v 134.162 -365 5.67356
vn -0.719587 0 -0.694402
vn -0.719587 1.57762e-17 -0.694402
vn -0.719587 2.74604e-17 -0.694402
vn -0.719587 0 -0.694402
vn -0.951057 0 -0.309017
vn -0.951057 1.13651e-16 -0.309017
vn -0.951057 -9.36512e-17 -0.309017
vn -0.951057 -5.14992e-18 -0.309017
vn -0.951057 -7.29787e-18 -0.309017
vn -0.951057 4.9121e-17 -0.309017
vn -0.951057 1.02229e-16 -0.309017
vn -0.951057 -6.10387e-17 -0.309017
vn -0.951057 1.12118e-16 -0.309017
vn -0.951057 0 -0.309017
vn -0.968608 0 0.248593
vn -0.968608 -7.53112e-17 0.248593
vn -0.968608 -3.71429e-16 0.248593
vn -0.968608 1.00986e-16 0.248593
vn -0.968608 -6.37656e-16 0.248593
vn -0.968608 2.62799e-17 0.248593
vn -0.968608 -2.07735e-16 0.248593
vn -0.968608 0 0.248593
vn -0.770513 0 0.637424
vn -0.770513 3.5008e-17 0.637424
vn -0.770513 -1.33707e-16 0.637424
vn -0.770513 -5.35301e-17 0.637424
vn -0.770513 0 0.637424
vn -0.770513 2.72943e-17 0.637424
vn -0.535827 0 0.844328
vn -0.535827 -5.66443e-17 0.844328
vn -0.535827 0 0.844328
vn -0.535827 5.90712e-17 0.844328
vn -0.143377 -3.97209e-17 0.989668
vn -0.143377 1.33277e-17 0.989668
vn -0.143377 1.22479e-17 0.989668
vn -0.143377 -1.15077e-17 0.989668
vn -0.143377 7.58283e-19 0.989668
vn -0.143377 4.08583e-17 0.989668
vn -0.143377 -3.55629e-17 0.989668
vn -0.143377 0 0.989668
f 1//1 2//1 3//1 4//1 
f 5//2 6//2 7//2 8//2 
f 9//3 10//3 11//3 12//3 
f 13//4 14//4 15//4 16//4 
f 17//5 18//5 19//5 20//5 
f 21//6 22//6 23//6 24//6 
f 25//7 26//7 27//7 28//7 
f 29//8 30//8 31//8 32//8 
f 33//9 34//9 35//9 36//9 
f 37//10 38//10 39//10 40//10 
f 41//11 42//11 43//11 44//11 
f 45//12 46//12 47//12 48//12 
f 49//13 50//13 51//13 52//13 
f 53//14 54//14 55//14 56//14 
f 57//15 58//15 59//15 60//15 
f 61//16 62//16 63//16 64//16 
f 65//17 66//17 67//17 68//17 
f 69//18 70//18 71//18 72//18 
f 73//19 74//19 75//19 76//19 
f 77//20 78//20 79//20 80//20 
f 81//21 82//21 83//21 84//21 
f 85//22 86//22 87//22 88//22 
f 89//23 90//23 91//23 92//23 
f 93//24 94//24 95//24 96//24 
f 97//25 98//25 99//25 100//25 
f 101//26 102//26 103//26 104//26 
f 105//27 106//27 107//27 108//27 
f 109//28 110//28 111//28 112//28 
f 113//29 114//29 115//29 116//29 
f 117//30 118//30 119//30 120//30 
f 121//31 122//31 123//31 124//31 
f 125//32 126//32 127//32 128//32 
f 129//33 130//33 131//33 132//33 
f 133//34 134//34 135//34 136//34 
f 137//35 138//35 139//35 140//35 
f 141//36 142//36 143//36 144//36 
f 145//37 146//37 147//37 148//37 
f 149//38 150//38 151//38 152//38 
f 153//39 154//39 155//39 156//39 
f 157//40 158//40 159//40 160//40 
