v 147.992 -229.328 -260.097
v 147.992 -125 -260.097
v 123.856 -125 -268.464
v 123.856 -211.914 -268.464
v 147.992 -229.328 -260.097
v 123.856 -211.914 -268.464
v 123.856 -305 -268.464
v 147.992 -305 -260.097
v 123.856 -211.914 -268.464
v 123.856 -125 -268.464
v 108.385 -125 -269.986
v 108.385 -202.841 -269.986
v 123.856 -211.914 -268.464
v 108.385 -202.841 -269.986
v 108.385 -305 -269.986
v 123.856 -305 -268.464
v 108.385 -202.841 -269.986
v 108.385 -125 -269.986
v 92.9855 -125 -267.864
v 92.9855 -194.987 -267.864
v 108.385 -202.841 -269.986
v 92.9855 -194.987 -267.864
v 92.9855 -305 -267.864
v 108.385 -305 -269.986
v 92.9855 -194.987 -267.864
v 92.9855 -125 -267.864
v 78.4999 -125 -262.223
v 78.4999 -188.403 -262.223
v 92.9855 -194.987 -267.864
v 78.4999 -188.403 -262.223
v 78.4999 -305 -262.223
v 92.9855 -305 -267.864
v 78.4999 -188.403 -262.223
v 78.4999 -125 -262.223
v 65.7154 -125 -253.379
v 65.7154 -183.131 -253.379
v 78.4999 -188.403 -262.223
v 65.7154 -183.131 -253.379
v 65.7154 -305 -253.379
v 78.4999 -305 -262.223
v 65.7154 -183.131 -253.379
v 65.7154 -125 -253.379
v 55.3206 -125 -241.821
v 55.3206 -179.202 -241.821
v 65.7154 -183.131 -253.379
v 55.3206 -179.202 -241.821
v 55.3206 -305 -241.821
v 65.7154 -305 -253.379
v 55.3206 -179.202 -241.821
v 55.3206 -125 -241.821
v 47.8702 -125 -228.177
v 47.8702 -176.634 -228.177
v 55.3206 -179.202 -241.821
v 47.8702 -176.634 -228.177
v 47.8702 -305 -228.177
v 55.3206 -305 -241.821
v 47.8702 -176.634 -228.177
v 47.8702 -125 -228.177
v 43.7562 -125 -213.186
v 43.7562 -175.421 -213.186
v 47.8702 -176.634 -228.177
v 43.7562 -175.421 -213.186
v 43.7562 -305 -213.186
v 47.8702 -305 -228.177
v 43.7562 -175.421 -213.186
v 43.7562 -125 -213.186
v 43.1847 -125 -197.512
v 43.1847 -175.535 -197.512
v 43.7562 -175.421 -213.186
v 43.1847 -175.535 -197.512
v 43.1847 -305 -197.512
v 43.7562 -305 -213.186
v 43.1847 -175.535 -197.512
v 43.1847 -125 -197.512
v 46.1868 -125 -182.259
v 46.1868 -176.903 -182.259
v 43.1847 -175.535 -197.512
v 46.1868 -176.903 -182.259
v 46.1868 -305 -182.259
v 43.1847 -305 -197.512
v 46.1868 -176.903 -182.259
v 46.1868 -125 -182.259
v 52.5897 -125 -168.094
v 52.5897 -179.407 -168.094
v 46.1868 -176.903 -182.259
v 52.5897 -179.407 -168.094
v 52.5897 -305 -168.094
v 46.1868 -305 -182.259
v 52.5897 -179.407 -168.094
v 52.5897 -125 -168.094
v 62.0481 -125 -155.757
v 62.0481 -182.887 -155.757
v 52.5897 -179.407 -168.094
v 62.0481 -182.887 -155.757
v 62.0481 -305 -155.757
v 52.5897 -305 -168.094
v 62.0481 -182.887 -155.757
v 62.0481 -125 -155.757
v 74.0597 -125 -145.889
v 74.0597 -187.134 -145.889
v 62.0481 -182.887 -155.757
v 74.0597 -187.134 -145.889
v 74.0597 -305 -145.889
v 62.0481 -305 -155.757
v 74.0597 -187.134 -145.889
v 74.0597 -125 -145.889
v 87.9935 -125 -138.997
v 87.9935 -191.891 -138.997
v 74.0597 -187.134 -145.889
v 87.9935 -191.891 -138.997
v 87.9935 -305 -138.997
v 74.0597 -305 -145.889
v 87.9935 -191.891 -138.997
v 87.9935 -125 -138.997
v 103.124 -125 -135.429
v 103.124 -196.869 -135.429
v 87.9935 -191.891 -138.997
v 103.124 -196.869 -135.429
v 103.124 -305 -135.429
v 87.9935 -305 -138.997
v 103.124 -196.869 -135.429
v 103.124 -125 -135.429
v 117.216 -125 -128.867
v 117.216 -201.754 -128.867
v 103.124 -196.869 -135.429
v 117.216 -201.754 -128.867
v 117.216 -305 -128.867
v 103.124 -305 -135.429
v 117.216 -201.754 -128.867
v 117.216 -125 -128.867
v 129.654 -125 -119.543
v 129.654 -206.229 -119.543
v 117.216 -201.754 -128.867
v 129.654 -206.229 -119.543
v 129.654 -305 -119.543
v 117.216 -305 -128.867
v 129.654 -206.229 -119.543
v 129.654 -125 -119.543
v 139.959 -125 -107.717
v 139.959 -210.026 -107.717
v 129.654 -206.229 -119.543
v 139.959 -210.026 -107.717
v 139.959 -305 -107.717
v 129.654 -305 -119.543
v 139.959 -210.026 -107.717
v 139.959 -125 -107.717
v 147.449 -125 -94.0957
v 147.449 -212.807 -94.0957
v 139.959 -210.026 -107.717
v 147.449 -212.807 -94.0957
v 147.449 -305 -94.0957
v 139.959 -305 -107.717
v 147.449 -212.807 -94.0957
v 147.449 -125 -94.0957
v 151.826 -125 -79.1795
v 151.826 -214.389 -79.1795
v 147.449 -212.807 -94.0957
v 151.826 -214.389 -79.1795
v 151.826 -305 -79.1795
v 147.449 -305 -94.0957
v 151.826 -214.389 -79.1795
v 151.826 -125 -79.1795
v 152.833 -125 -63.667
v 152.833 -214.603 -63.667
v 151.826 -214.389 -79.1795
v 152.833 -214.603 -63.667
v 152.833 -305 -63.667
v 151.826 -305 -79.1795
v 152.833 -214.603 -63.667
v 152.833 -125 -63.667
v 150.372 -125 -48.3179
v 150.372 -213.332 -48.3179
v 152.833 -214.603 -63.667
v 150.372 -213.332 -48.3179
v 150.372 -305 -48.3179
v 152.833 -305 -63.667
v 150.372 -213.332 -48.3179
v 150.372 -125 -48.3179
v 144.518 -125 -33.9172
v 144.518 -210.506 -33.9172
v 150.372 -213.332 -48.3179
v 144.518 -210.506 -33.9172
v 144.518 -305 -33.9172
v 150.372 -305 -48.3179
v 144.518 -210.506 -33.9172
v 144.518 -125 -33.9172
v 135.529 -125 -21.234
v 135.529 -206.096 -21.234
v 144.518 -210.506 -33.9172
v 135.529 -206.096 -21.234
v 135.529 -305 -21.234
v 144.518 -305 -33.9172
v 135.529 -206.096 -21.234
v 135.529 -125 -21.234
v 123.849 -125 -10.9766
v 123.849 -200.108 -10.9766
v 135.529 -206.096 -21.234
v 123.849 -200.108 -10.9766
v 123.849 -305 -10.9766
v 135.529 -305 -21.234
v 123.849 -200.108 -10.9766
v 123.849 -125 -10.9766
v 110.087 -125 -3.74756
v 110.087 -192.57 -3.74756
v 123.849 -200.108 -10.9766
v 110.087 -192.57 -3.74756
v 110.087 -305 -3.74756
v 123.849 -305 -10.9766
v 110.087 -192.57 -3.74756
v 110.087 -125 -3.74756
v 95 -125 0
v 95 -183.529 0
v 110.087 -192.57 -3.74756
v 95 -183.529 0
v 95 -305 0
v 110.087 -305 -3.74756
v 95 -183.529 0
v 95 -125 0
v 75 -125 0
v 75 -169.784 0
v 95 -183.529 0
v 75 -169.784 0
v 75 -305 0
v 95 -305 0
vn -0.327538 -6.04026e-16 0.944838
vn -0.327538 -6.21524e-16 0.944838
vn -0.0979199 -1.60105e-17 0.995194
vn -0.0979199 -5.65988e-16 0.995194
vn 0.136511 2.49219e-17 0.990639
vn 0.136511 -4.44565e-16 0.990639
vn 0.362874 1.47362e-16 0.931838
vn 0.362874 -4.077e-16 0.931838
vn 0.568893 1.27509e-16 0.822412
vn 0.568893 -7.50119e-18 0.822412
vn 0.74355 -1.81771e-16 0.668681
vn 0.74355 -7.99365e-17 0.668681
vn 0.877663 -1.15053e-16 0.479278
vn 0.877663 -5.69726e-17 0.479278
vn 0.964346 -1.45671e-16 0.264644
vn 0.964346 -3.52744e-18 0.264644
vn 0.999336 -2.05373e-17 0.0364338
vn 0.999336 0 0.0364338
vn 0.981175 0 -0.193121
vn 0.981175 -1.4273e-17 -0.193121
vn 0.911235 2.25547e-16 -0.411886
vn 0.911235 4.36727e-17 -0.411886
vn 0.793596 3.17846e-16 -0.608445
vn 0.793596 9.7321e-17 -0.608445
vn 0.63478 3.7938e-16 -0.772693
vn 0.63478 1.08583e-16 -0.772693
vn 0.44337 4.10011e-16 -0.896339
vn 0.44337 3.31369e-16 -0.896339
vn 0.229525 4.87618e-17 -0.973303
vn 0.229525 2.28264e-16 -0.973303
vn 0.422129 3.58503e-16 -0.906536
vn 0.422129 1.85939e-16 -0.906536
vn 0.599812 2.9629e-16 -0.800141
vn 0.599812 6.4788e-17 -0.800141
vn 0.753921 2.29869e-16 -0.656965
vn 0.753921 -2.86183e-17 -0.656965
vn 0.876264 1.61063e-16 -0.481831
vn 0.876264 -1.18989e-16 -0.481831
vn 0.959541 4.55701e-17 -0.28157
vn 0.959541 -2.11866e-16 -0.28157
vn 0.997898 1.0302e-17 -0.0648015
vn 0.997898 -2.98326e-16 -0.0648015
vn 0.987385 -2.5112e-17 0.158337
vn 0.987385 -3.44052e-16 0.158337
vn 0.926374 -6.05887e-17 0.376606
vn 0.926374 -2.99902e-16 0.376606
vn 0.815894 0 0.578202
vn 0.815894 -3.4199e-16 0.578202
vn 0.659843 -1.31672e-16 0.751403
vn 0.659843 -2.00452e-16 0.751403
vn 0.465037 -1.13162e-16 0.885291
vn 0.465037 -8.13097e-17 0.885291
vn 0.241075 -6.31318e-17 0.970506
vn 0.241075 -2.63403e-17 0.970506
vn 0 0 1
vn 0 0 1
f 1//1 2//1 3//1 4//1 
f 5//2 6//2 7//2 8//2 
f 9//3 10//3 11//3 12//3 
f 13//4 14//4 15//4 16//4 
f 17//5 18//5 19//5 20//5 
f 21//6 22//6 23//6 24//6 
f 25//7 26//7 27//7 28//7 
f 29//8 30//8 31//8 32//8 
f 33//9 34//9 35//9 36//9 
f 37//10 38//10 39//10 40//10 
f 41//11 42//11 43//11 44//11 
f 45//12 46//12 47//12 48//12 
f 49//13 50//13 51//13 52//13 
f 53//14 54//14 55//14 56//14 
f 57//15 58//15 59//15 60//15 
f 61//16 62//16 63//16 64//16 
f 65//17 66//17 67//17 68//17 
f 69//18 70//18 71//18 72//18 
f 73//19 74//19 75//19 76//19 
f 77//20 78//20 79//20 80//20 
f 81//21 82//21 83//21 84//21 
f 85//22 86//22 87//22 88//22 
f 89//23 90//23 91//23 92//23 
f 93//24 94//24 95//24 96//24 
f 97//25 98//25 99//25 100//25 
f 101//26 102//26 103//26 104//26 
f 105//27 106//27 107//27 108//27 
f 109//28 110//28 111//28 112//28 
f 113//29 114//29 115//29 116//29 
f 117//30 118//30 119//30 120//30 
f 121//31 122//31 123//31 124//31 
f 125//32 126//32 127//32 128//32 
f 129//33 130//33 131//33 132//33 
f 133//34 134//34 135//34 136//34 
f 137//35 138//35 139//35 140//35 
f 141//36 142//36 143//36 144//36 
f 145//37 146//37 147//37 148//37 
f 149//38 150//38 151//38 152//38 
f 153//39 154//39 155//39 156//39 
f 157//40 158//40 159//40 160//40 
f 161//41 162//41 163//41 164//41 
f 165//42 166//42 167//42 168//42 
f 169//43 170//43 171//43 172//43 
f 173//44 174//44 175//44 176//44 
f 177//45 178//45 179//45 180//45 
f 181//46 182//46 183//46 184//46 
f 185//47 186//47 187//47 188//47 
f 189//48 190//48 191//48 192//48 
f 193//49 194//49 195//49 196//49 
f 197//50 198//50 199//50 200//50 
f 201//51 202//51 203//51 204//51 
f 205//52 206//52 207//52 208//52 
f 209//53 210//53 211//53 212//53 
f 213//54 214//54 215//54 216//54 
f 217//55 218//55 219//55 220//55 
f 221//56 222//56 223//56 224//56 
