v 147.992 -229.328 -260.097
v 62.798 -275.976 -298.181
v 123.902 -301.798 -268.438
v 123.902 -211.851 -268.438
v 147.992 -229.328 -260.097
v 123.902 -211.851 -268.438
v 124.033 -305 -258.141
v 147.992 -305 -260.097
v 123.902 -211.851 -268.438
v 123.902 -301.798 -268.438
v 108.396 -284.263 -269.984
v 108.396 -202.849 -269.984
v 123.902 -211.851 -268.438
v 108.396 -202.849 -269.984
v 109.454 -305 -256.95
v 124.033 -305 -258.141
v 108.396 -202.849 -269.984
v 108.396 -284.263 -269.984
v 92.9535 -268.831 -267.908
v 92.9535 -195.062 -267.908
v 108.396 -202.849 -269.984
v 92.9535 -195.062 -267.908
v 94.8744 -305 -255.76
v 109.454 -305 -256.95
v 92.9535 -195.062 -267.908
v 92.9535 -268.831 -267.908
v 78.4701 -255.987 -262.156
v 78.4701 -188.346 -262.156
v 92.9535 -195.062 -267.908
v 78.4701 -188.346 -262.156
v 80.2949 -305 -254.57
v 94.8744 -305 -255.76
v 78.4701 -188.346 -262.156
v 78.4701 -255.987 -262.156
v 31.1042 -227.432 -280.936
v 65.7154 -183.131 -253.379
v 78.4701 -188.346 -262.156
v 65.7154 -183.131 -253.379
v 65.7154 -305 -253.379
v 80.2949 -305 -254.57
v 65.7154 -183.131 -253.379
v 31.1042 -227.432 -280.936
v 55.3238 -238.251 -241.825
v 55.3238 -179.202 -241.825
v 65.7154 -183.131 -253.379
v 55.3238 -179.202 -241.825
v 58.3957 -305 -239.982
v 65.7154 -305 -253.379
v 55.3238 -179.202 -241.825
v 55.3238 -238.251 -241.825
v 47.9033 -233.902 -228.135
v 47.9033 -176.564 -228.135
v 55.3238 -179.202 -241.825
v 47.9033 -176.564 -228.135
v 51.0759 -305 -226.584
v 58.3957 -305 -239.982
v 47.9033 -176.564 -228.135
v 47.9033 -233.902 -228.135
v 14.6786 -215.159 -240.394
v 43.7562 -175.421 -213.186
v 47.9033 -176.564 -228.135
v 43.7562 -175.421 -213.186
v 43.7562 -305 -213.186
v 51.0759 -305 -226.584
v 43.7562 -175.421 -213.186
v 14.6786 -215.159 -240.394
v 43.3036 -227.16 -197.644
v 43.3036 -176.287 -197.644
v 43.7562 -175.421 -213.186
v 43.3036 -176.287 -197.644
v 44.977 -305 -197.653
v 43.7562 -305 -213.186
v 43.3036 -176.287 -197.644
v 43.3036 -227.16 -197.644
v 17.9936 -220.864 -176.236
v 46.1868 -176.903 -182.259
v 43.3036 -176.287 -197.644
v 46.1868 -176.903 -182.259
v 46.1868 -305 -182.259
v 44.977 -305 -197.653
v 46.1868 -176.903 -182.259
v 17.9936 -220.864 -176.236
v 52.5426 -233.988 -168.074
v 52.5426 -179.489 -168.074
v 46.1868 -176.903 -182.259
v 52.5426 -179.489 -168.074
v 56.7413 -305 -171.96
v 46.1868 -305 -182.259
v 52.5426 -179.489 -168.074
v 52.5426 -233.988 -168.074
v 62.0569 -240.577 -155.751
v 62.0569 -182.89 -155.751
v 52.5426 -179.489 -168.074
v 62.0569 -182.89 -155.751
v 67.2957 -305 -161.662
v 56.7413 -305 -171.96
v 62.0569 -182.89 -155.751
v 62.0569 -240.577 -155.751
v 74.0691 -248.92 -145.887
v 74.0691 -187.138 -145.887
v 62.0569 -182.89 -155.751
v 74.0691 -187.138 -145.887
v 77.8501 -305 -151.363
v 67.2957 -305 -161.662
v 74.0691 -187.138 -145.887
v 74.0691 -248.92 -145.887
v 88.0019 -258.651 -138.998
v 88.0019 -191.896 -138.998
v 74.0691 -187.138 -145.887
v 88.0019 -191.896 -138.998
v 88.4045 -305 -141.064
v 77.8501 -305 -151.363
v 88.0019 -191.896 -138.998
v 88.0019 -258.651 -138.998
v 103.121 -269.293 -135.421
v 103.121 -196.869 -135.421
v 88.0019 -191.896 -138.998
v 103.121 -196.869 -135.421
v 98.9589 -305 -130.766
v 88.4045 -305 -141.064
v 103.121 -196.869 -135.421
v 103.121 -269.293 -135.421
v 117.212 -279.241 -128.86
v 117.212 -201.753 -128.86
v 103.121 -196.869 -135.421
v 117.212 -201.753 -128.86
v 109.513 -305 -120.467
v 98.9589 -305 -130.766
v 117.212 -201.753 -128.86
v 117.212 -279.241 -128.86
v 129.649 -288.042 -119.537
v 129.649 -206.227 -119.537
v 117.212 -201.753 -128.86
v 129.649 -206.227 -119.537
v 120.068 -305 -110.168
v 109.513 -305 -120.467
v 129.649 -206.227 -119.537
v 129.649 -288.042 -119.537
v 140.01 -295.344 -107.731
v 140.01 -209.948 -107.731
v 129.649 -206.227 -119.537
v 140.01 -209.948 -107.731
v 130.717 -305 -99.7768
v 120.068 -305 -110.168
v 140.01 -209.948 -107.731
v 140.01 -295.344 -107.731
v 147.609 -300.672 -94.3836
v 147.609 -212.803 -94.3836
v 140.01 -209.948 -107.731
v 147.609 -212.803 -94.3836
v 141.272 -305 -89.4782
v 130.717 -305 -99.7768
v 147.609 -212.803 -94.3836
v 147.609 -300.672 -94.3836
v 89.9241 -279.429 -85.5183
v 151.826 -214.389 -79.1795
v 147.609 -212.803 -94.3836
v 151.826 -214.389 -79.1795
v 151.826 -305 -79.1795
v 141.272 -305 -89.4782
v 151.826 -214.389 -79.1795
v 89.9241 -279.429 -85.5183
v 152.977 -307.321 -63.6834
v 152.977 -214.473 -63.6834
v 151.826 -214.389 -79.1795
v 152.977 -214.473 -63.6834
v 149.39 -305 -64.0921
v 151.826 -305 -79.1795
v 152.977 -214.473 -63.6834
v 152.977 -307.321 -63.6834
v 150.149 -309.38 -48.3216
v 150.149 -213.514 -48.3216
v 152.977 -214.473 -63.6834
v 150.149 -213.514 -48.3216
v 146.954 -305 -49.0047
v 149.39 -305 -64.0921
v 150.149 -213.514 -48.3216
v 150.149 -309.38 -48.3216
v 89.952 -279.123 -84.4163
v 144.518 -210.506 -33.9172
v 150.149 -213.514 -48.3216
v 144.518 -210.506 -33.9172
v 144.518 -305 -33.9172
v 146.954 -305 -49.0047
v 144.518 -210.506 -33.9172
v 89.952 -279.123 -84.4163
v 135.482 -296.476 -21.2767
v 135.482 -206.165 -21.2767
v 144.518 -210.506 -33.9172
v 135.482 -206.165 -21.2767
v 131.368 -305 -27.5015
v 144.518 -305 -33.9172
v 135.482 -206.165 -21.2767
v 135.482 -296.476 -21.2767
v 123.872 -279.627 -10.9843
v 123.872 -200.123 -10.9843
v 135.482 -206.165 -21.2767
v 123.872 -200.123 -10.9843
v 118.218 -305 -21.0858
v 131.368 -305 -27.5015
v 123.872 -200.123 -10.9843
v 123.872 -279.627 -10.9843
v 110.153 -261.289 -3.71386
v 110.153 -192.523 -3.71386
v 123.872 -200.123 -10.9843
v 110.153 -192.523 -3.71386
v 105.068 -305 -14.67
v 118.218 -305 -21.0858
v 110.153 -192.523 -3.71386
v 110.153 -261.289 -3.71386
v 95.016 -241.582 -0.0542859
v 95.016 -183.558 -0.0542859
v 110.153 -192.523 -3.71386
v 95.016 -183.558 -0.0542859
v 91.9182 -305 -8.25431
v 105.068 -305 -14.67
v 95.016 -183.558 -0.0542859
v 95.016 -241.582 -0.0542859
v 34.8904 -186.312 -11.1192
v 75 -169.784 0
v 95.016 -183.558 -0.0542859
v 75 -169.784 0
v 75 -305 0
v 91.9182 -305 -8.25431
vn -0.424663 -0.0370495 0.904593
vn -0.255896 -0.105857 0.960891
vn 0.0992435 0 -0.995063
vn -0.0256085 -0.126264 0.991666
vn -0.133228 0 -0.991085
vn 0.187234 -0.11112 0.97601
vn -0.369099 0 -0.92939
vn 0.394497 -0.0657772 0.91654
vn 0.368564 0 -0.929603
vn 0.566876 0 0.823803
vn -0.785141 -0.265321 0.559606
vn 0.74794 -0.0279832 0.663176
vn -0.879167 3.17371e-16 -0.476514
vn 0.881042 -0.0274647 0.47224
vn 0.346171 -1.28694e-16 -0.938171
vn 0.963604 -7.06966e-18 0.267332
vn -0.792748 -0.181715 0.581834
vn 0.99947 -0.0129921 0.0298323
vn -0.6458 0 -0.763506
vn 0.982889 -1.41746e-17 -0.1842
vn -0.142817 -0.223682 0.964142
vn 0.914645 -0.0430444 -0.401961
vn -0.791536 0 0.611123
vn 0.798318 -0.0632409 -0.598906
vn -0.634619 0 0.772825
vn 0.645392 -0.0560996 -0.761789
vn -0.443194 0 0.896426
vn 0.448034 -0.0179222 -0.893837
vn -0.23028 -4.1432e-16 0.973124
vn 0.214311 0.0502414 -0.975472
vn -0.422103 -3.55761e-16 0.906548
vn 0.39014 0.103462 -0.914924
vn -0.599756 -2.93497e-16 0.800183
vn 0.563658 0.132022 -0.815389
vn -0.751617 -1.1457e-16 0.6596
vn 0.72521 0.127523 -0.676615
vn -0.869046 -8.23291e-17 0.494731
vn 0.857821 0.0859215 -0.506716
vn -0.151901 1.59851e-16 -0.988396
vn 0.963616 -2.08737e-16 -0.267289
vn -0.261069 -0.155624 0.952693
vn 0.996473 0.0391495 -0.0742234
vn -0.983472 3.56472e-16 -0.181058
vn 0.982447 0.0356786 0.183096
vn 0.51425 1.01806e-16 -0.85764
vn 0.931358 -3.11162e-16 0.364106
vn -0.776322 -0.170802 0.606754
vn 0.799833 0.0708373 0.596028
vn -0.66337 2.67643e-16 -0.748292
vn 0.62739 0.108103 0.771165
vn -0.468239 2.26617e-16 -0.883602
vn 0.418738 0.106772 0.901808
vn -0.234999 1.23889e-16 -0.971995
vn 0.19447 0.0710199 0.978334
vn 0.18099 2.96511e-17 -0.983485
vn 0.00271212 0 0.999996
f 1//1 2//1 3//1 4//1 
f 5//2 6//2 7//2 8//2 
f 9//3 10//3 11//3 12//3 
f 13//4 14//4 15//4 16//4 
f 17//5 18//5 19//5 20//5 
f 21//6 22//6 23//6 24//6 
f 25//7 26//7 27//7 28//7 
f 29//8 30//8 31//8 32//8 
f 33//9 34//9 35//9 36//9 
f 37//10 38//10 39//10 40//10 
f 41//11 42//11 43//11 44//11 
f 45//12 46//12 47//12 48//12 
f 49//13 50//13 51//13 52//13 
f 53//14 54//14 55//14 56//14 
f 57//15 58//15 59//15 60//15 
f 61//16 62//16 63//16 64//16 
f 65//17 66//17 67//17 68//17 
f 69//18 70//18 71//18 72//18 
f 73//19 74//19 75//19 76//19 
f 77//20 78//20 79//20 80//20 
f 81//21 82//21 83//21 84//21 
f 85//22 86//22 87//22 88//22 
f 89//23 90//23 91//23 92//23 
f 93//24 94//24 95//24 96//24 
f 97//25 98//25 99//25 100//25 
f 101//26 102//26 103//26 104//26 
f 105//27 106//27 107//27 108//27 
f 109//28 110//28 111//28 112//28 
f 113//29 114//29 115//29 116//29 
f 117//30 118//30 119//30 120//30 
f 121//31 122//31 123//31 124//31 
f 125//32 126//32 127//32 128//32 
f 129//33 130//33 131//33 132//33 
f 133//34 134//34 135//34 136//34 
f 137//35 138//35 139//35 140//35 
f 141//36 142//36 143//36 144//36 
f 145//37 146//37 147//37 148//37 
f 149//38 150//38 151//38 152//38 
f 153//39 154//39 155//39 156//39 
f 157//40 158//40 159//40 160//40 
f 161//41 162//41 163//41 164//41 
f 165//42 166//42 167//42 168//42 
f 169//43 170//43 171//43 172//43 
f 173//44 174//44 175//44 176//44 
f 177//45 178//45 179//45 180//45 
f 181//46 182//46 183//46 184//46 
f 185//47 186//47 187//47 188//47 
f 189//48 190//48 191//48 192//48 
f 193//49 194//49 195//49 196//49 
f 197//50 198//50 199//50 200//50 
f 201//51 202//51 203//51 204//51 
f 205//52 206//52 207//52 208//52 
f 209//53 210//53 211//53 212//53 
f 213//54 214//54 215//54 216//54 
f 217//55 218//55 219//55 220//55 
f 221//56 222//56 223//56 224//56 
