v 147.992 -229.328 -260.097
v 147.992 -125 -260.097
v 124.033 -125 -258.141
v 124.033 -215.876 -258.141
v 147.992 -229.328 -260.097
v 124.033 -215.876 -258.141
v 124.033 -305 -258.141
v 147.992 -305 -260.097
v 124.033 -215.876 -258.141
v 124.033 -125 -258.141
v 109.454 -125 -256.95
v 109.454 -207.69 -256.95
v 124.033 -215.876 -258.141
v 109.454 -207.69 -256.95
v 109.454 -305 -256.95
v 124.033 -305 -258.141
v 109.454 -207.69 -256.95
v 109.454 -125 -256.95
v 94.8744 -125 -255.76
v 94.8744 -199.503 -255.76
v 109.454 -207.69 -256.95
v 94.8744 -199.503 -255.76
v 94.8744 -305 -255.76
v 109.454 -305 -256.95
v 94.8744 -199.503 -255.76
v 94.8744 -125 -255.76
v 80.2949 -125 -254.57
v 80.2949 -191.317 -254.57
v 94.8744 -199.503 -255.76
v 80.2949 -191.317 -254.57
v 80.2949 -305 -254.57
v 94.8744 -305 -255.76
v 80.2949 -191.317 -254.57
v 80.2949 -125 -254.57
v 65.7154 -125 -253.379
v 65.7154 -183.131 -253.379
v 80.2949 -191.317 -254.57
v 65.7154 -183.131 -253.379
v 65.7154 -305 -253.379
v 80.2949 -305 -254.57
v 65.7154 -183.131 -253.379
v 65.7154 -125 -253.379
v 58.3957 -125 -239.982
v 58.3957 -180.561 -239.982
v 65.7154 -183.131 -253.379
v 58.3957 -180.561 -239.982
v 58.3957 -305 -239.982
v 65.7154 -305 -253.379
v 58.3957 -180.561 -239.982
v 58.3957 -125 -239.982
v 51.0759 -125 -226.584
v 51.0759 -177.991 -226.584
v 58.3957 -180.561 -239.982
v 51.0759 -177.991 -226.584
v 51.0759 -305 -226.584
v 58.3957 -305 -239.982
v 51.0759 -177.991 -226.584
v 51.0759 -125 -226.584
v 43.7562 -125 -213.186
v 43.7562 -175.421 -213.186
v 51.0759 -177.991 -226.584
v 43.7562 -175.421 -213.186
v 43.7562 -305 -213.186
v 51.0759 -305 -226.584
v 43.7562 -175.421 -213.186
v 43.7562 -125 -213.186
v 44.977 -125 -197.653
v 44.977 -176.165 -197.653
v 43.7562 -175.421 -213.186
v 44.977 -176.165 -197.653
v 44.977 -305 -197.653
v 43.7562 -305 -213.186
v 44.977 -176.165 -197.653
v 44.977 -125 -197.653
v 46.1868 -125 -182.259
v 46.1868 -176.903 -182.259
v 44.977 -176.165 -197.653
v 46.1868 -176.903 -182.259
v 46.1868 -305 -182.259
v 44.977 -305 -197.653
v 46.1868 -176.903 -182.259
v 46.1868 -125 -182.259
v 56.7413 -125 -171.96
v 56.7413 -180.648 -171.96
v 46.1868 -176.903 -182.259
v 56.7413 -180.648 -171.96
v 56.7413 -305 -171.96
v 46.1868 -305 -182.259
v 56.7413 -180.648 -171.96
v 56.7413 -125 -171.96
v 67.2957 -125 -161.662
v 67.2957 -184.393 -161.662
v 56.7413 -180.648 -171.96
v 67.2957 -184.393 -161.662
v 67.2957 -305 -161.662
v 56.7413 -305 -171.96
v 67.2957 -184.393 -161.662
v 67.2957 -125 -161.662
v 77.8501 -125 -151.363
v 77.8501 -188.138 -151.363
v 67.2957 -184.393 -161.662
v 77.8501 -188.138 -151.363
v 77.8501 -305 -151.363
v 67.2957 -305 -161.662
v 77.8501 -188.138 -151.363
v 77.8501 -125 -151.363
v 88.4045 -125 -141.064
v 88.4045 -191.884 -141.064
v 77.8501 -188.138 -151.363
v 88.4045 -191.884 -141.064
v 88.4045 -305 -141.064
v 77.8501 -305 -151.363
v 88.4045 -191.884 -141.064
v 88.4045 -125 -141.064
v 98.9589 -125 -130.766
v 98.9589 -195.629 -130.766
v 88.4045 -191.884 -141.064
v 98.9589 -195.629 -130.766
v 98.9589 -305 -130.766
v 88.4045 -305 -141.064
v 98.9589 -195.629 -130.766
v 98.9589 -125 -130.766
v 109.513 -125 -120.467
v 109.513 -199.374 -120.467
v 98.9589 -195.629 -130.766
v 109.513 -199.374 -120.467
v 109.513 -305 -120.467
v 98.9589 -305 -130.766
v 109.513 -199.374 -120.467
v 109.513 -125 -120.467
v 120.068 -125 -110.168
v 120.068 -203.119 -110.168
v 109.513 -199.374 -120.467
v 120.068 -203.119 -110.168
v 120.068 -305 -110.168
v 109.513 -305 -120.467
v 120.068 -203.119 -110.168
v 120.068 -125 -110.168
v 130.717 -125 -99.7768
v 130.717 -206.898 -99.7768
v 120.068 -203.119 -110.168
v 130.717 -206.898 -99.7768
v 130.717 -305 -99.7768
v 120.068 -305 -110.168
v 130.717 -206.898 -99.7768
v 130.717 -125 -99.7768
v 141.272 -125 -89.4782
v 141.272 -210.643 -89.4782
v 130.717 -206.898 -99.7768
v 141.272 -210.643 -89.4782
v 141.272 -305 -89.4782
v 130.717 -305 -99.7768
v 141.272 -210.643 -89.4782
v 141.272 -125 -89.4782
v 151.826 -125 -79.1795
v 151.826 -214.389 -79.1795
v 141.272 -210.643 -89.4782
v 151.826 -214.389 -79.1795
v 151.826 -305 -79.1795
v 141.272 -305 -89.4782
v 151.826 -214.389 -79.1795
v 151.826 -125 -79.1795
v 149.39 -125 -64.0921
v 149.39 -213.094 -64.0921
v 151.826 -214.389 -79.1795
v 149.39 -213.094 -64.0921
v 149.39 -305 -64.0921
v 151.826 -305 -79.1795
v 149.39 -213.094 -64.0921
v 149.39 -125 -64.0921
v 146.954 -125 -49.0047
v 146.954 -211.8 -49.0047
v 149.39 -213.094 -64.0921
v 146.954 -211.8 -49.0047
v 146.954 -305 -49.0047
v 149.39 -305 -64.0921
v 146.954 -211.8 -49.0047
v 146.954 -125 -49.0047
v 144.518 -125 -33.9172
v 144.518 -210.506 -33.9172
v 146.954 -211.8 -49.0047
v 144.518 -210.506 -33.9172
v 144.518 -305 -33.9172
v 146.954 -305 -49.0047
v 144.518 -210.506 -33.9172
v 144.518 -125 -33.9172
v 131.368 -125 -27.5015
v 131.368 -202.803 -27.5015
v 144.518 -210.506 -33.9172
v 131.368 -202.803 -27.5015
v 131.368 -305 -27.5015
v 144.518 -305 -33.9172
v 131.368 -202.803 -27.5015
v 131.368 -125 -27.5015
v 118.218 -125 -21.0858
v 118.218 -195.1 -21.0858
v 131.368 -202.803 -27.5015
v 118.218 -195.1 -21.0858
v 118.218 -305 -21.0858
v 131.368 -305 -27.5015
v 118.218 -195.1 -21.0858
v 118.218 -125 -21.0858
v 105.068 -125 -14.67
v 105.068 -187.397 -14.67
v 118.218 -195.1 -21.0858
v 105.068 -187.397 -14.67
v 105.068 -305 -14.67
v 118.218 -305 -21.0858
v 105.068 -187.397 -14.67
v 105.068 -125 -14.67
v 91.9182 -125 -8.25431
v 91.9182 -179.694 -8.25431
v 105.068 -187.397 -14.67
v 91.9182 -179.694 -8.25431
v 91.9182 -305 -8.25431
v 105.068 -305 -14.67
v 91.9182 -179.694 -8.25431
v 91.9182 -125 -8.25431
v 75 -125 0
v 75 -169.784 0
v 91.9182 -179.694 -8.25431
v 75 -169.784 0
v 75 -305 0
v 91.9182 -305 -8.25431
vn 0.0813734 -5.20877e-16 0.996684
vn 0.0813734 -2.71963e-16 0.996684
vn 0.0813734 7.64369e-17 0.996684
vn 0.0813734 -1.07321e-16 0.996684
vn 0.0813734 -1.11781e-16 0.996684
vn 0.0813734 1.10504e-16 0.996684
vn 0.0813734 5.43778e-17 0.996684
vn 0.0813734 -3.63185e-17 0.996684
vn 0.0813734 2.44121e-16 0.996684
vn 0.0813734 2.03273e-16 0.996684
vn 0.877567 -2.14533e-16 0.479453
vn 0.877567 -2.91729e-16 0.479453
vn 0.877567 -2.00018e-16 0.479453
vn 0.877567 -3.15141e-16 0.479453
vn 0.877567 -1.63695e-16 0.479453
vn 0.877567 -5.74681e-17 0.479453
vn 0.996926 4.4165e-17 -0.0783501
vn 0.996926 4.24761e-17 -0.0783501
vn 0.996926 -5.10332e-17 -0.0783501
vn 0.996926 -3.77174e-17 -0.0783501
vn 0.698382 3.91928e-16 -0.715725
vn 0.698382 1.16244e-16 -0.715725
vn 0.698382 3.45912e-16 -0.715725
vn 0.698382 1.99756e-16 -0.715725
vn 0.698382 -8.97868e-18 -0.715725
vn 0.698382 1.15448e-16 -0.715725
vn 0.698382 -4.94569e-16 -0.715725
vn 0.698382 -1.53348e-16 -0.715725
vn 0.698382 -5.97985e-18 -0.715725
vn 0.698382 -6.16775e-17 -0.715725
vn 0.698382 1.35799e-16 -0.715725
vn 0.698382 -6.38645e-17 -0.715725
vn 0.698382 2.63299e-16 -0.715725
vn 0.698382 3.78355e-17 -0.715725
vn 0.698382 1.30794e-16 -0.715725
vn 0.698382 3.50479e-16 -0.715725
vn 0.698382 -1.25819e-16 -0.715725
vn 0.698382 3.47247e-16 -0.715725
vn 0.698382 -1.10906e-16 -0.715725
vn 0.698382 0 -0.715725
vn 0.987213 -2.53418e-17 0.159404
vn 0.987213 3.03525e-16 0.159404
vn 0.987213 -1.32093e-16 0.159404
vn 0.987213 2.64391e-16 0.159404
vn 0.987213 -8.00801e-17 0.159404
vn 0.987213 -3.05051e-16 0.159404
vn 0.438488 0 0.898737
vn 0.438488 2.85111e-17 0.898737
vn 0.438488 6.71626e-17 0.898737
vn 0.438488 -4.41879e-17 0.898737
vn 0.438488 1.02692e-16 0.898737
vn 0.438488 -1.07364e-16 0.898737
vn 0.438488 -6.76041e-17 0.898737
vn 0.438488 -3.10042e-17 0.898737
vn 0.438488 6.02381e-18 0.898737
vn 0.438488 0 0.898737
f 1//1 2//1 3//1 4//1 
f 5//2 6//2 7//2 8//2 
f 9//3 10//3 11//3 12//3 
f 13//4 14//4 15//4 16//4 
f 17//5 18//5 19//5 20//5 
f 21//6 22//6 23//6 24//6 
f 25//7 26//7 27//7 28//7 
f 29//8 30//8 31//8 32//8 
f 33//9 34//9 35//9 36//9 
f 37//10 38//10 39//10 40//10 
f 41//11 42//11 43//11 44//11 
f 45//12 46//12 47//12 48//12 
f 49//13 50//13 51//13 52//13 
f 53//14 54//14 55//14 56//14 
f 57//15 58//15 59//15 60//15 
f 61//16 62//16 63//16 64//16 
f 65//17 66//17 67//17 68//17 
f 69//18 70//18 71//18 72//18 
f 73//19 74//19 75//19 76//19 
f 77//20 78//20 79//20 80//20 
f 81//21 82//21 83//21 84//21 
f 85//22 86//22 87//22 88//22 
f 89//23 90//23 91//23 92//23 
f 93//24 94//24 95//24 96//24 
f 97//25 98//25 99//25 100//25 
f 101//26 102//26 103//26 104//26 
f 105//27 106//27 107//27 108//27 
f 109//28 110//28 111//28 112//28 
f 113//29 114//29 115//29 116//29 
f 117//30 118//30 119//30 120//30 
f 121//31 122//31 123//31 124//31 
f 125//32 126//32 127//32 128//32 
f 129//33 130//33 131//33 132//33 
f 133//34 134//34 135//34 136//34 
f 137//35 138//35 139//35 140//35 
f 141//36 142//36 143//36 144//36 
f 145//37 146//37 147//37 148//37 
f 149//38 150//38 151//38 152//38 
f 153//39 154//39 155//39 156//39 
f 157//40 158//40 159//40 160//40 
f 161//41 162//41 163//41 164//41 
f 165//42 166//42 167//42 168//42 
f 169//43 170//43 171//43 172//43 
f 173//44 174//44 175//44 176//44 
f 177//45 178//45 179//45 180//45 
f 181//46 182//46 183//46 184//46 
f 185//47 186//47 187//47 188//47 
f 189//48 190//48 191//48 192//48 
f 193//49 194//49 195//49 196//49 
f 197//50 198//50 199//50 200//50 
f 201//51 202//51 203//51 204//51 
f 205//52 206//52 207//52 208//52 
f 209//53 210//53 211//53 212//53 
f 213//54 214//54 215//54 216//54 
f 217//55 218//55 219//55 220//55 
f 221//56 222//56 223//56 224//56 
