v 70.3381 -264.097 -241.115
v 70.3381 -105 -241.115
v 100.687 -105 -243.143
v 100.687 -244.161 -243.143
v 70.3381 -264.097 -241.115
v 100.687 -244.161 -243.143
v 100.687 -365 -243.143
v 70.3381 -365 -241.115
v 100.687 -244.161 -243.143
v 100.687 -105 -243.143
v 121.119 -105 -240.969
v 121.119 -231.568 -240.969
v 100.687 -244.161 -243.143
v 121.119 -231.568 -240.969
v 121.119 -365 -240.969
v 100.687 -365 -243.143
v 121.119 -231.568 -240.969
v 121.119 -105 -240.969
v 140.874 -105 -235.322
v 140.874 -219.81 -235.322
v 121.119 -231.568 -240.969
v 140.874 -219.81 -235.322
v 140.874 -365 -235.322
v 121.119 -365 -240.969
v 140.874 -219.81 -235.322
v 140.874 -105 -235.322
v 159.373 -105 -226.379
v 159.373 -209.015 -226.379
v 140.874 -219.81 -235.322
v 159.373 -209.015 -226.379
v 159.373 -365 -226.379
v 140.874 -365 -235.322
v 159.373 -209.015 -226.379
v 159.373 -105 -226.379
v 176.074 -105 -214.41
v 176.074 -199.322 -214.41
v 159.373 -209.015 -226.379
v 176.074 -199.322 -214.41
v 176.074 -365 -214.41
v 159.373 -365 -226.379
v 176.074 -199.322 -214.41
v 176.074 -105 -214.41
v 190.494 -105 -199.774
v 190.494 -190.88 -199.774
v 176.074 -199.322 -214.41
v 190.494 -190.88 -199.774
v 190.494 -365 -199.774
v 176.074 -365 -214.41
v 190.494 -190.88 -199.774
v 190.494 -105 -199.774
v 202.221 -105 -182.902
v 202.221 -183.845 -182.902
v 190.494 -190.88 -199.774
v 202.221 -183.845 -182.902
v 202.221 -365 -182.902
v 190.494 -365 -199.774
v 202.221 -183.845 -182.902
v 202.221 -105 -182.902
v 210.92 -105 -164.287
v 210.92 -178.375 -164.287
v 202.221 -183.845 -182.902
v 210.92 -178.375 -164.287
v 210.92 -365 -164.287
v 202.221 -365 -182.902
v 210.92 -178.375 -164.287
v 210.92 -105 -164.287
v 216.35 -105 -144.471
v 216.35 -174.621 -144.471
v 210.92 -178.375 -164.287
v 216.35 -174.621 -144.471
v 216.35 -365 -144.471
v 210.92 -365 -164.287
v 216.35 -174.621 -144.471
v 216.35 -105 -144.471
v 218.351 -105 -124.153
v 218.351 -172.727 -124.153
v 216.35 -174.621 -144.471
v 218.351 -172.727 -124.153
v 218.351 -365 -124.153
v 216.35 -365 -144.471
v 218.351 -172.727 -124.153
v 218.351 -105 -124.153
v 216.9 -105 -103.657
v 216.9 -172.777 -103.657
v 218.351 -172.727 -124.153
v 216.9 -172.777 -103.657
v 216.9 -365 -103.657
v 218.351 -365 -124.153
v 216.9 -172.777 -103.657
v 216.9 -105 -103.657
v 212.033 -105 -83.6949
v 212.033 -174.867 -83.6949
v 216.9 -172.777 -103.657
v 212.033 -174.867 -83.6949
v 212.033 -365 -83.6949
v 216.9 -365 -103.657
v 212.033 -174.867 -83.6949
v 212.033 -105 -83.6949
v 203.898 -105 -64.8273
v 203.898 -179.031 -64.8273
v 212.033 -174.867 -83.6949
v 203.898 -179.031 -64.8273
v 203.898 -365 -64.8273
v 212.033 -365 -83.6949
v 203.898 -179.031 -64.8273
v 203.898 -105 -64.8273
v 192.729 -105 -47.5807
v 192.729 -185.256 -47.5807
v 203.898 -179.031 -64.8273
v 192.729 -185.256 -47.5807
v 192.729 -365 -47.5807
v 203.898 -365 -64.8273
v 192.729 -185.256 -47.5807
v 192.729 -105 -47.5807
v 178.848 -105 -32.4321
v 178.848 -193.481 -32.4321
v 192.729 -185.256 -47.5807
v 178.848 -193.481 -32.4321
v 178.848 -365 -32.4321
v 192.729 -365 -47.5807
v 178.848 -193.481 -32.4321
v 178.848 -105 -32.4321
v 162.646 -105 -19.7965
v 162.646 -203.605 -19.7965
v 178.848 -193.481 -32.4321
v 162.646 -203.605 -19.7965
v 162.646 -365 -19.7965
v 178.848 -365 -32.4321
v 162.646 -203.605 -19.7965
v 162.646 -105 -19.7965
v 144.576 -105 -10.0161
v 144.576 -215.491 -10.0161
v 162.646 -203.605 -19.7965
v 144.576 -215.491 -10.0161
v 144.576 -365 -10.0161
v 162.646 -365 -19.7965
v 144.576 -215.491 -10.0161
v 144.576 -105 -10.0161
v 125.14 -105 -3.35217
v 125.14 -228.98 -3.35217
v 144.576 -215.491 -10.0161
v 125.14 -228.98 -3.35217
v 125.14 -365 -3.35217
v 144.576 -365 -10.0161
v 125.14 -228.98 -3.35217
v 125.14 -105 -3.35217
v 105 -105 0
v 105 -243.802 0
v 125.14 -228.98 -3.35217
v 105 -243.802 0
v 105 -365 0
v 125.14 -365 -3.35217
v 105 -243.802 0
v 105 -105 0
v 75 -105 0
v 75 -267.783 0
v 105 -243.802 0
v 75 -267.783 0
v 75 -365 0
v 105 -365 0
vn -0.0666872 -5.95662e-18 -0.997774
vn -0.0666872 -7.73266e-18 -0.997774
vn 0.105852 2.13898e-16 -0.994382
vn 0.105852 2.22886e-16 -0.994382
vn 0.274819 3.08564e-17 -0.961496
vn 0.274819 1.09564e-16 -0.961496
vn 0.43525 1.07748e-16 -0.90031
vn 0.43525 2.39434e-16 -0.90031
vn 0.582494 0 -0.812835
vn 0.582494 4.17455e-17 -0.812835
vn 0.712346 2.1148e-16 -0.701829
vn 0.712346 0 -0.701829
vn 0.821159 1.88872e-16 -0.570699
vn 0.821159 -3.8179e-17 -0.570699
vn 0.905945 1.52624e-16 -0.423395
vn 0.905945 0 -0.423395
vn 0.964446 0 -0.264281
vn 0.964446 0 -0.264281
vn 0.995186 0 -0.0980061
vn 0.995186 7.24007e-18 -0.0980061
vn 0.997502 0 0.070638
vn 0.997502 -5.3971e-18 0.070638
vn 0.971547 0 0.236849
vn 0.971547 7.63901e-17 0.236849
vn 0.91827 -8.05368e-17 0.395956
vn 0.91827 -2.97526e-17 0.395956
vn 0.839378 0 0.543548
vn 0.839378 -6.92615e-17 0.543548
vn 0.737272 -1.19628e-16 0.675596
vn 0.737272 -2.41943e-17 0.675596
vn 0.614968 -6.33244e-17 0.788552
vn 0.614968 -5.99946e-17 0.788552
vn 0.476004 -7.38304e-17 0.879443
vn 0.476004 -7.40163e-17 0.879443
vn 0.324328 1.52079e-17 0.945945
vn 0.324328 -1.01696e-17 0.945945
vn 0.164187 -1.15279e-18 0.986429
vn 0.164187 0 0.986429
vn 0 0 1
vn 0 0 1
f 1//1 2//1 3//1 4//1 
f 5//2 6//2 7//2 8//2 
f 9//3 10//3 11//3 12//3 
f 13//4 14//4 15//4 16//4 
f 17//5 18//5 19//5 20//5 
f 21//6 22//6 23//6 24//6 
f 25//7 26//7 27//7 28//7 
f 29//8 30//8 31//8 32//8 
f 33//9 34//9 35//9 36//9 
f 37//10 38//10 39//10 40//10 
f 41//11 42//11 43//11 44//11 
f 45//12 46//12 47//12 48//12 
f 49//13 50//13 51//13 52//13 
f 53//14 54//14 55//14 56//14 
f 57//15 58//15 59//15 60//15 
f 61//16 62//16 63//16 64//16 
f 65//17 66//17 67//17 68//17 
f 69//18 70//18 71//18 72//18 
f 73//19 74//19 75//19 76//19 
f 77//20 78//20 79//20 80//20 
f 81//21 82//21 83//21 84//21 
f 85//22 86//22 87//22 88//22 
f 89//23 90//23 91//23 92//23 
f 93//24 94//24 95//24 96//24 
f 97//25 98//25 99//25 100//25 
f 101//26 102//26 103//26 104//26 
f 105//27 106//27 107//27 108//27 
f 109//28 110//28 111//28 112//28 
f 113//29 114//29 115//29 116//29 
f 117//30 118//30 119//30 120//30 
f 121//31 122//31 123//31 124//31 
f 125//32 126//32 127//32 128//32 
f 129//33 130//33 131//33 132//33 
f 133//34 134//34 135//34 136//34 
f 137//35 138//35 139//35 140//35 
f 141//36 142//36 143//36 144//36 
f 145//37 146//37 147//37 148//37 
f 149//38 150//38 151//38 152//38 
f 153//39 154//39 155//39 156//39 
f 157//40 158//40 159//40 160//40 
