v 30.1181 -287.391 -46.2244
v 24.4287 -296.596 -92.0044
v 34.1968 -263.754 -75.2557
v 30.1181 -287.391 -46.2244
v 34.1968 -263.754 -75.2557
v 34.1968 -375 -75.2557
v 30.1181 -375 -46.2244
v 34.1968 -263.754 -75.2557
v 24.4287 -296.596 -92.0044
v 20.6185 -302.761 -122.664
v 36.9284 -247.925 -94.6984
v 34.1968 -263.754 -75.2557
v 36.9284 -247.925 -94.6984
v 36.9284 -375 -94.6984
v 34.1968 -375 -75.2557
v 36.9284 -247.925 -94.6984
v 20.6185 -302.761 -122.664
v 16.8082 -308.926 -153.323
v 39.66 -232.095 -114.141
v 36.9284 -247.925 -94.6984
v 39.66 -232.095 -114.141
v 39.66 -375 -114.141
v 36.9284 -375 -94.6984
v 39.66 -232.095 -114.141
v 16.8082 -308.926 -153.323
v 28.8511 -324.628 -195.444
v 53.4901 -219.603 -128.415
v 39.66 -232.095 -114.141
v 53.4901 -219.603 -128.415
v 53.4901 -375 -128.415
v 39.66 -375 -114.141
v 53.4901 -219.603 -128.415
v 28.8511 -324.628 -195.444
v 32.6655 -329.601 -208.785
v 53.1298 -297.968 -215.218
v 67.3202 -207.111 -142.689
v 53.4901 -219.603 -128.415
v 67.3202 -207.111 -142.689
v 67.3202 -375 -142.689
v 53.4901 -375 -128.415
v 67.3202 -207.111 -142.689
v 53.1298 -297.968 -215.218
v 92.563 -268.105 -210.642
v 86.5758 -199.312 -146.457
v 67.3202 -207.111 -142.689
v 86.5758 -199.312 -146.457
v 86.5758 -375 -146.457
v 67.3202 -375 -142.689
v 86.5758 -199.312 -146.457
v 92.563 -268.105 -210.642
v 125.764 -242.961 -206.79
v 105.831 -191.512 -150.224
v 86.5758 -199.312 -146.457
v 105.831 -191.512 -150.224
v 105.831 -375 -150.224
v 86.5758 -375 -146.457
v 105.831 -191.512 -150.224
v 125.764 -242.961 -206.79
v 154.532 -221.272 -203.539
v 125.087 -183.713 -153.992
v 105.831 -191.512 -150.224
v 125.087 -183.713 -153.992
v 125.087 -375 -153.992
v 105.831 -375 -150.224
v 125.087 -183.713 -153.992
v 154.532 -221.272 -203.539
v 171.882 -220.367 -192.319
v 141.796 -183.157 -143.741
v 125.087 -183.713 -153.992
v 141.796 -183.157 -143.741
v 141.796 -375 -143.741
v 125.087 -375 -153.992
v 141.796 -183.157 -143.741
v 171.882 -220.367 -192.319
v 189.106 -219.469 -181.18
v 158.398 -182.605 -133.554
v 141.796 -183.157 -143.741
v 158.398 -182.605 -133.554
v 158.398 -375 -133.554
v 141.796 -375 -143.741
v 158.398 -182.605 -133.554
v 189.106 -219.469 -181.18
v 206.844 -218.557 -169.733
v 175.107 -182.05 -123.303
v 158.398 -182.605 -133.554
v 175.107 -182.05 -123.303
v 175.107 -375 -123.303
v 158.398 -375 -133.554
v 175.107 -182.05 -123.303
v 206.844 -218.557 -169.733
v 228.98 -238.078 -139.103
v 182.643 -187.946 -104.931
v 175.107 -182.05 -123.303
v 182.643 -187.946 -104.931
v 182.643 -375 -104.931
v 175.107 -375 -123.303
v 182.643 -187.946 -104.931
v 228.98 -238.078 -139.103
v 255.919 -261.819 -101.666
v 190.179 -193.843 -86.5586
v 182.643 -187.946 -104.931
v 190.179 -193.843 -86.5586
v 190.179 -375 -86.5586
v 182.643 -375 -104.931
v 190.179 -193.843 -86.5586
v 255.919 -261.819 -101.666
v 266.442 -294.461 -72.1599
v 187.726 -204.351 -66.8575
v 190.179 -193.843 -86.5586
v 187.726 -204.351 -66.8575
v 187.726 -375 -66.8575
v 190.179 -375 -86.5586
v 187.726 -204.351 -66.8575
v 266.442 -294.461 -72.1599
v 275.676 -323.453 -45.7564
v 267.888 -319.194 -38.3998
v 185.272 -214.859 -47.1564
v 187.726 -204.351 -66.8575
v 185.272 -214.859 -47.1564
v 185.272 -375 -47.1564
v 187.726 -375 -66.8575
v 185.272 -214.859 -47.1564
v 267.888 -319.194 -38.3998
v 235.262 -314.496 -30.7086
v 169.194 -231.058 -37.7112
v 185.272 -214.859 -47.1564
v 169.194 -231.058 -37.7112
v 169.194 -375 -37.7112
v 185.272 -375 -47.1564
v 169.194 -231.058 -37.7112
v 235.262 -314.496 -30.7086
v 202.637 -309.798 -23.0173
v 153.116 -247.258 -28.2661
v 169.194 -231.058 -37.7112
v 153.116 -247.258 -28.2661
v 153.116 -375 -28.2661
v 169.194 -375 -37.7112
v 153.116 -247.258 -28.2661
v 202.637 -309.798 -23.0173
v 170.012 -305.1 -15.3261
v 137.038 -263.458 -18.821
v 153.116 -247.258 -28.2661
v 137.038 -263.458 -18.821
v 137.038 -375 -18.821
v 153.116 -375 -28.2661
v 137.038 -263.458 -18.821
v 170.012 -305.1 -15.3261
v 137.593 -300.432 -7.68355
v 121.062 -279.555 -9.43568
v 137.038 -263.458 -18.821
v 121.062 -279.555 -9.43568
v 121.062 -375 -9.43568
v 137.038 -375 -18.821
v 121.062 -279.555 -9.43568
v 137.593 -300.432 -7.68355
v 105 -295.739 0
v 121.062 -279.555 -9.43568
v 105 -295.739 0
v 105 -375 0
v 121.062 -375 -9.43568
vn 0.965306 0.251746 -0.0693433
vn -0.990274 1.13292e-16 -0.139129
vn 0.965306 0.251746 -0.0693433
vn -0.990274 1.19613e-16 -0.139129
vn 0.965306 0.251746 -0.0693433
vn -0.990274 1.3422e-16 -0.139129
vn 0.805936 0.44108 0.39486
vn -0.718184 1.28833e-16 -0.695853
vn 0.805936 0.44108 0.39486
vn -0.718184 0 -0.695853
vn 0.383262 0.612054 0.691737
vn -0.192025 -7.42053e-17 -0.98139
vn 0.383262 0.612054 0.691737
vn -0.192025 3.55255e-17 -0.98139
vn 0.383262 0.612054 0.691737
vn -0.192025 -1.51453e-17 -0.98139
vn -0.265098 0.837701 0.477473
vn 0.52295 -6.04615e-17 -0.852363
vn -0.265098 0.837701 0.477473
vn 0.52295 1.59264e-16 -0.852363
vn -0.265098 0.837701 0.477473
vn 0.52295 0 -0.852363
vn -0.709876 0.701215 0.0661288
vn 0.925194 1.60684e-16 -0.379495
vn -0.709876 0.701215 0.0661288
vn 0.925194 3.16027e-17 -0.379495
vn -0.701324 0.589021 -0.401496
vn 0.992336 5.4529e-17 0.123567
vn -0.701324 0.589021 -0.401496
vn 0.992336 0 0.123567
vn -0.258436 0.282175 -0.923898
vn 0.50652 0 0.862228
vn -0.258436 0.282175 -0.923898
vn 0.50652 -1.19318e-16 0.862228
vn -0.258436 0.282175 -0.923898
vn 0.50652 2.73295e-17 0.862228
vn -0.258436 0.282175 -0.923898
vn 0.50652 0 0.862228
vn -0.258436 0.282175 -0.923898
vn 0.50652 0 0.862228
f 1//1 2//1 3//1 
f 4//2 5//2 6//2 7//2 
f 8//3 9//3 10//3 11//3 
f 12//4 13//4 14//4 15//4 
f 16//5 17//5 18//5 19//5 
f 20//6 21//6 22//6 23//6 
f 24//7 25//7 26//7 27//7 
f 28//8 29//8 30//8 31//8 
f 32//9 33//9 34//9 35//9 36//9 
f 37//10 38//10 39//10 40//10 
f 41//11 42//11 43//11 44//11 
f 45//12 46//12 47//12 48//12 
f 49//13 50//13 51//13 52//13 
f 53//14 54//14 55//14 56//14 
f 57//15 58//15 59//15 60//15 
f 61//16 62//16 63//16 64//16 
f 65//17 66//17 67//17 68//17 
f 69//18 70//18 71//18 72//18 
f 73//19 74//19 75//19 76//19 
f 77//20 78//20 79//20 80//20 
f 81//21 82//21 83//21 84//21 
f 85//22 86//22 87//22 88//22 
f 89//23 90//23 91//23 92//23 
f 93//24 94//24 95//24 96//24 
f 97//25 98//25 99//25 100//25 
f 101//26 102//26 103//26 104//26 
f 105//27 106//27 107//27 108//27 
f 109//28 110//28 111//28 112//28 
f 113//29 114//29 115//29 116//29 117//29 
f 118//30 119//30 120//30 121//30 
f 122//31 123//31 124//31 125//31 
f 126//32 127//32 128//32 129//32 
f 130//33 131//33 132//33 133//33 
f 134//34 135//34 136//34 137//34 
f 138//35 139//35 140//35 141//35 
f 142//36 143//36 144//36 145//36 
f 146//37 147//37 148//37 149//37 
f 150//38 151//38 152//38 153//38 
f 154//39 155//39 156//39 
f 157//40 158//40 159//40 160//40 
