v 30.1181 -287.391 -46.2244
v 30.1181 -115 -46.2244
v 34.1968 -115 -75.2557
v 34.1968 -263.754 -75.2557
v 30.1181 -287.391 -46.2244
v 34.1968 -263.754 -75.2557
v 34.1968 -375 -75.2557
v 30.1181 -375 -46.2244
v 34.1968 -263.754 -75.2557
v 34.1968 -115 -75.2557
v 36.9284 -115 -94.6984
v 36.9284 -247.925 -94.6984
v 34.1968 -263.754 -75.2557
v 36.9284 -247.925 -94.6984
v 36.9284 -375 -94.6984
v 34.1968 -375 -75.2557
v 36.9284 -247.925 -94.6984
v 36.9284 -115 -94.6984
v 39.66 -115 -114.141
v 39.66 -232.095 -114.141
v 36.9284 -247.925 -94.6984
v 39.66 -232.095 -114.141
v 39.66 -375 -114.141
v 36.9284 -375 -94.6984
v 39.66 -232.095 -114.141
v 39.66 -115 -114.141
v 53.4901 -115 -128.415
v 53.4901 -219.603 -128.415
v 39.66 -232.095 -114.141
v 53.4901 -219.603 -128.415
v 53.4901 -375 -128.415
v 39.66 -375 -114.141
v 53.4901 -219.603 -128.415
v 53.4901 -115 -128.415
v 67.3202 -115 -142.689
v 67.3202 -207.111 -142.689
v 53.4901 -219.603 -128.415
v 67.3202 -207.111 -142.689
v 67.3202 -375 -142.689
v 53.4901 -375 -128.415
v 67.3202 -207.111 -142.689
v 67.3202 -115 -142.689
v 86.5758 -115 -146.457
v 86.5758 -199.312 -146.457
v 67.3202 -207.111 -142.689
v 86.5758 -199.312 -146.457
v 86.5758 -375 -146.457
v 67.3202 -375 -142.689
v 86.5758 -199.312 -146.457
v 86.5758 -115 -146.457
v 105.831 -115 -150.224
v 105.831 -191.512 -150.224
v 86.5758 -199.312 -146.457
v 105.831 -191.512 -150.224
v 105.831 -375 -150.224
v 86.5758 -375 -146.457
v 105.831 -191.512 -150.224
v 105.831 -115 -150.224
v 125.087 -115 -153.992
v 125.087 -183.713 -153.992
v 105.831 -191.512 -150.224
v 125.087 -183.713 -153.992
v 125.087 -375 -153.992
v 105.831 -375 -150.224
v 125.087 -183.713 -153.992
v 125.087 -115 -153.992
v 141.796 -115 -143.741
v 141.796 -183.157 -143.741
v 125.087 -183.713 -153.992
v 141.796 -183.157 -143.741
v 141.796 -375 -143.741
v 125.087 -375 -153.992
v 141.796 -183.157 -143.741
v 141.796 -115 -143.741
v 158.398 -115 -133.554
v 158.398 -182.605 -133.554
v 141.796 -183.157 -143.741
v 158.398 -182.605 -133.554
v 158.398 -375 -133.554
v 141.796 -375 -143.741
v 158.398 -182.605 -133.554
v 158.398 -115 -133.554
v 175.107 -115 -123.303
v 175.107 -182.05 -123.303
v 158.398 -182.605 -133.554
v 175.107 -182.05 -123.303
v 175.107 -375 -123.303
v 158.398 -375 -133.554
v 175.107 -182.05 -123.303
v 175.107 -115 -123.303
v 182.643 -115 -104.931
v 182.643 -187.946 -104.931
v 175.107 -182.05 -123.303
v 182.643 -187.946 -104.931
v 182.643 -375 -104.931
v 175.107 -375 -123.303
v 182.643 -187.946 -104.931
v 182.643 -115 -104.931
v 190.179 -115 -86.5586
v 190.179 -193.843 -86.5586
v 182.643 -187.946 -104.931
v 190.179 -193.843 -86.5586
v 190.179 -375 -86.5586
v 182.643 -375 -104.931
v 190.179 -193.843 -86.5586
v 190.179 -115 -86.5586
v 187.726 -115 -66.8575
v 187.726 -204.351 -66.8575
v 190.179 -193.843 -86.5586
v 187.726 -204.351 -66.8575
v 187.726 -375 -66.8575
v 190.179 -375 -86.5586
v 187.726 -204.351 -66.8575
v 187.726 -115 -66.8575
v 185.272 -115 -47.1564
v 185.272 -214.859 -47.1564
v 187.726 -204.351 -66.8575
v 185.272 -214.859 -47.1564
v 185.272 -375 -47.1564
v 187.726 -375 -66.8575
v 185.272 -214.859 -47.1564
v 185.272 -115 -47.1564
v 169.194 -115 -37.7112
v 169.194 -231.058 -37.7112
v 185.272 -214.859 -47.1564
v 169.194 -231.058 -37.7112
v 169.194 -375 -37.7112
v 185.272 -375 -47.1564
v 169.194 -231.058 -37.7112
v 169.194 -115 -37.7112
v 153.116 -115 -28.2661
v 153.116 -247.258 -28.2661
v 169.194 -231.058 -37.7112
v 153.116 -247.258 -28.2661
v 153.116 -375 -28.2661
v 169.194 -375 -37.7112
v 153.116 -247.258 -28.2661
v 153.116 -115 -28.2661
v 137.038 -115 -18.821
v 137.038 -263.458 -18.821
v 153.116 -247.258 -28.2661
v 137.038 -263.458 -18.821
v 137.038 -375 -18.821
v 153.116 -375 -28.2661
v 137.038 -263.458 -18.821
v 137.038 -115 -18.821
v 121.062 -115 -9.43568
v 121.062 -279.555 -9.43568
v 137.038 -263.458 -18.821
v 121.062 -279.555 -9.43568
v 121.062 -375 -9.43568
v 137.038 -375 -18.821
v 121.062 -279.555 -9.43568
v 121.062 -115 -9.43568
v 105 -115 0
v 105 -295.739 0
v 121.062 -279.555 -9.43568
v 105 -295.739 0
v 105 -375 0
v 121.062 -375 -9.43568
vn -0.990274 1.72035e-17 -0.139129
vn -0.990274 1.13292e-16 -0.139129
vn -0.990274 1.36041e-16 -0.139129
vn -0.990274 1.19613e-16 -0.139129
vn -0.990274 1.35618e-16 -0.139129
vn -0.990274 1.3422e-16 -0.139129
vn -0.718184 2.7101e-18 -0.695853
vn -0.718184 1.28833e-16 -0.695853
vn -0.718184 -1.22084e-16 -0.695853
vn -0.718184 0 -0.695853
vn -0.192025 2.96256e-17 -0.98139
vn -0.192025 -7.42053e-17 -0.98139
vn -0.192025 1.68999e-16 -0.98139
vn -0.192025 3.55255e-17 -0.98139
vn -0.192025 -1.06996e-16 -0.98139
vn -0.192025 -1.51453e-17 -0.98139
vn 0.52295 0 -0.852363
vn 0.52295 -6.04615e-17 -0.852363
vn 0.52295 5.66611e-17 -0.852363
vn 0.52295 1.59264e-16 -0.852363
vn 0.52295 -2.19851e-16 -0.852363
vn 0.52295 0 -0.852363
vn 0.925194 0 -0.379495
vn 0.925194 1.60684e-16 -0.379495
vn 0.925194 8.31033e-17 -0.379495
vn 0.925194 3.16027e-17 -0.379495
vn 0.992336 -2.22722e-17 0.123567
vn 0.992336 5.4529e-17 0.123567
vn 0.992336 -1.8445e-17 0.123567
vn 0.992336 0 0.123567
vn 0.50652 0 0.862228
vn 0.50652 0 0.862228
vn 0.50652 -8.10331e-17 0.862228
vn 0.50652 -1.19318e-16 0.862228
vn 0.50652 9.06412e-17 0.862228
vn 0.50652 2.73295e-17 0.862228
vn 0.50652 8.04127e-17 0.862228
vn 0.50652 0 0.862228
vn 0.50652 1.72151e-17 0.862228
vn 0.50652 0 0.862228
f 1//1 2//1 3//1 4//1 
f 5//2 6//2 7//2 8//2 
f 9//3 10//3 11//3 12//3 
f 13//4 14//4 15//4 16//4 
f 17//5 18//5 19//5 20//5 
f 21//6 22//6 23//6 24//6 
f 25//7 26//7 27//7 28//7 
f 29//8 30//8 31//8 32//8 
f 33//9 34//9 35//9 36//9 
f 37//10 38//10 39//10 40//10 
f 41//11 42//11 43//11 44//11 
f 45//12 46//12 47//12 48//12 
f 49//13 50//13 51//13 52//13 
f 53//14 54//14 55//14 56//14 
f 57//15 58//15 59//15 60//15 
f 61//16 62//16 63//16 64//16 
f 65//17 66//17 67//17 68//17 
f 69//18 70//18 71//18 72//18 
f 73//19 74//19 75//19 76//19 
f 77//20 78//20 79//20 80//20 
f 81//21 82//21 83//21 84//21 
f 85//22 86//22 87//22 88//22 
f 89//23 90//23 91//23 92//23 
f 93//24 94//24 95//24 96//24 
f 97//25 98//25 99//25 100//25 
f 101//26 102//26 103//26 104//26 
f 105//27 106//27 107//27 108//27 
f 109//28 110//28 111//28 112//28 
f 113//29 114//29 115//29 116//29 
f 117//30 118//30 119//30 120//30 
f 121//31 122//31 123//31 124//31 
f 125//32 126//32 127//32 128//32 
f 129//33 130//33 131//33 132//33 
f 133//34 134//34 135//34 136//34 
f 137//35 138//35 139//35 140//35 
f 141//36 142//36 143//36 144//36 
f 145//37 146//37 147//37 148//37 
f 149//38 150//38 151//38 152//38 
f 153//39 154//39 155//39 156//39 
f 157//40 158//40 159//40 160//40 
