v 194.182 -211.153 -394.192
v 194.182 -105 -394.192
v 178.169 -105 -379.096
v 178.169 -201.756 -379.096
v 194.182 -211.153 -394.192
v 178.169 -201.756 -379.096
v 178.169 -385 -379.096
v 194.182 -385 -394.192
v 178.169 -201.756 -379.096
v 178.169 -105 -379.096
v 169.101 -105 -370.548
v 169.101 -196.434 -370.548
v 178.169 -201.756 -379.096
v 169.101 -196.434 -370.548
v 169.101 -385 -370.548
v 178.169 -385 -379.096
v 169.101 -196.434 -370.548
v 169.101 -105 -370.548
v 160.033 -105 -361.999
v 160.033 -191.113 -361.999
v 169.101 -196.434 -370.548
v 160.033 -191.113 -361.999
v 160.033 -385 -361.999
v 169.101 -385 -370.548
v 160.033 -191.113 -361.999
v 160.033 -105 -361.999
v 150.966 -105 -353.451
v 150.966 -185.792 -353.451
v 160.033 -191.113 -361.999
v 150.966 -185.792 -353.451
v 150.966 -385 -353.451
v 160.033 -385 -361.999
v 150.966 -185.792 -353.451
v 150.966 -105 -353.451
v 141.898 -105 -344.903
v 141.898 -180.471 -344.903
v 150.966 -185.792 -353.451
v 141.898 -180.471 -344.903
v 141.898 -385 -344.903
v 150.966 -385 -353.451
v 141.898 -180.471 -344.903
v 141.898 -105 -344.903
v 132.83 -105 -336.355
v 132.83 -175.149 -336.355
v 141.898 -180.471 -344.903
v 132.83 -175.149 -336.355
v 132.83 -385 -336.355
v 141.898 -385 -344.903
v 132.83 -175.149 -336.355
v 132.83 -105 -336.355
v 123.763 -105 -327.807
v 123.763 -169.828 -327.807
v 132.83 -175.149 -336.355
v 123.763 -169.828 -327.807
v 123.763 -385 -327.807
v 132.83 -385 -336.355
v 123.763 -169.828 -327.807
v 123.763 -105 -327.807
v 121.079 -105 -315.307
v 121.079 -169.575 -315.307
v 123.763 -169.828 -327.807
v 121.079 -169.575 -315.307
v 121.079 -385 -315.307
v 123.763 -385 -327.807
v 121.079 -169.575 -315.307
v 121.079 -105 -315.307
v 118.395 -105 -302.807
v 118.395 -169.321 -302.807
v 121.079 -169.575 -315.307
v 118.395 -169.321 -302.807
v 118.395 -385 -302.807
v 121.079 -385 -315.307
v 118.395 -169.321 -302.807
v 118.395 -105 -302.807
v 115.712 -105 -290.307
v 115.712 -169.067 -290.307
v 118.395 -169.321 -302.807
v 115.712 -169.067 -290.307
v 115.712 -385 -290.307
v 118.395 -385 -302.807
v 115.712 -169.067 -290.307
v 115.712 -105 -290.307
v 119.355 -105 -278.501
v 119.355 -173.325 -278.501
v 115.712 -169.067 -290.307
v 119.355 -173.325 -278.501
v 119.355 -385 -278.501
v 115.712 -385 -290.307
v 119.355 -173.325 -278.501
v 119.355 -105 -278.501
v 122.999 -105 -266.695
v 122.999 -177.582 -266.695
v 119.355 -173.325 -278.501
v 122.999 -177.582 -266.695
v 122.999 -385 -266.695
v 119.355 -385 -278.501
v 122.999 -177.582 -266.695
v 122.999 -105 -266.695
v 126.643 -105 -254.889
v 126.643 -181.84 -254.889
v 122.999 -177.582 -266.695
v 126.643 -181.84 -254.889
v 126.643 -385 -254.889
v 122.999 -385 -266.695
v 126.643 -181.84 -254.889
v 126.643 -105 -254.889
v 130.24 -105 -243.237
v 130.24 -186.042 -243.237
v 126.643 -181.84 -254.889
v 130.24 -186.042 -243.237
v 130.24 -385 -243.237
v 126.643 -385 -254.889
v 130.24 -186.042 -243.237
v 130.24 -105 -243.237
v 133.884 -105 -231.431
v 133.884 -190.299 -231.431
v 130.24 -186.042 -243.237
v 133.884 -190.299 -231.431
v 133.884 -385 -231.431
v 130.24 -385 -243.237
v 133.884 -190.299 -231.431
v 133.884 -105 -231.431
v 137.528 -105 -219.625
v 137.528 -194.556 -219.625
v 133.884 -190.299 -231.431
v 137.528 -194.556 -219.625
v 137.528 -385 -219.625
v 133.884 -385 -231.431
v 137.528 -194.556 -219.625
v 137.528 -105 -219.625
v 141.171 -105 -207.819
v 141.171 -198.814 -207.819
v 137.528 -194.556 -219.625
v 141.171 -198.814 -207.819
v 141.171 -385 -207.819
v 137.528 -385 -219.625
v 141.171 -198.814 -207.819
v 141.171 -105 -207.819
v 144.815 -105 -196.013
v 144.815 -203.071 -196.013
v 141.171 -198.814 -207.819
v 144.815 -203.071 -196.013
v 144.815 -385 -196.013
v 141.171 -385 -207.819
v 144.815 -203.071 -196.013
v 144.815 -105 -196.013
v 148.459 -105 -184.207
v 148.459 -207.329 -184.207
v 144.815 -203.071 -196.013
v 148.459 -207.329 -184.207
v 148.459 -385 -184.207
v 144.815 -385 -196.013
v 148.459 -207.329 -184.207
v 148.459 -105 -184.207
v 152.103 -105 -172.401
v 152.103 -211.586 -172.401
v 148.459 -207.329 -184.207
v 152.103 -211.586 -172.401
v 152.103 -385 -172.401
v 148.459 -385 -184.207
v 152.103 -211.586 -172.401
v 152.103 -105 -172.401
v 155.747 -105 -160.595
v 155.747 -215.843 -160.595
v 152.103 -211.586 -172.401
v 155.747 -215.843 -160.595
v 155.747 -385 -160.595
v 152.103 -385 -172.401
v 155.747 -215.843 -160.595
v 155.747 -105 -160.595
v 159.391 -105 -148.789
v 159.391 -220.101 -148.789
v 155.747 -215.843 -160.595
v 159.391 -220.101 -148.789
v 159.391 -385 -148.789
v 155.747 -385 -160.595
v 159.391 -220.101 -148.789
v 159.391 -105 -148.789
v 163.035 -105 -136.983
v 163.035 -224.358 -136.983
v 159.391 -220.101 -148.789
v 163.035 -224.358 -136.983
v 163.035 -385 -136.983
v 159.391 -385 -148.789
v 163.035 -224.358 -136.983
v 163.035 -105 -136.983
v 166.679 -105 -125.177
v 166.679 -228.616 -125.177
v 163.035 -224.358 -136.983
v 166.679 -228.616 -125.177
v 166.679 -385 -125.177
v 163.035 -385 -136.983
v 166.679 -228.616 -125.177
v 166.679 -105 -125.177
v 170.322 -105 -113.371
v 170.322 -232.873 -113.371
v 166.679 -228.616 -125.177
v 170.322 -232.873 -113.371
v 170.322 -385 -113.371
v 166.679 -385 -125.177
v 170.322 -232.873 -113.371
v 170.322 -105 -113.371
v 173.966 -105 -101.565
v 173.966 -237.13 -101.565
v 170.322 -232.873 -113.371
v 173.966 -237.13 -101.565
v 173.966 -385 -101.565
v 170.322 -385 -113.371
v 173.966 -237.13 -101.565
v 173.966 -105 -101.565
v 177.563 -105 -89.9121
v 177.563 -241.333 -89.9121
v 173.966 -237.13 -101.565
v 177.563 -241.333 -89.9121
v 177.563 -385 -89.9121
v 173.966 -385 -101.565
v 177.563 -241.333 -89.9121
v 177.563 -105 -89.9121
v 171.7 -105 -78.5929
v 171.7 -239.224 -78.5929
v 177.563 -241.333 -89.9121
v 171.7 -239.224 -78.5929
v 171.7 -385 -78.5929
v 177.563 -385 -89.9121
v 171.7 -239.224 -78.5929
v 171.7 -105 -78.5929
v 165.838 -105 -67.2737
v 165.838 -237.116 -67.2737
v 171.7 -239.224 -78.5929
v 165.838 -237.116 -67.2737
v 165.838 -385 -67.2737
v 171.7 -385 -78.5929
v 165.838 -237.116 -67.2737
v 165.838 -105 -67.2737
v 159.976 -105 -55.9545
v 159.976 -235.008 -55.9545
v 165.838 -237.116 -67.2737
v 159.976 -235.008 -55.9545
v 159.976 -385 -55.9545
v 165.838 -385 -67.2737
v 159.976 -235.008 -55.9545
v 159.976 -105 -55.9545
v 154.113 -105 -44.6353
v 154.113 -232.9 -44.6353
v 159.976 -235.008 -55.9545
v 154.113 -232.9 -44.6353
v 154.113 -385 -44.6353
v 159.976 -385 -55.9545
v 154.113 -232.9 -44.6353
v 154.113 -105 -44.6353
v 142.682 -105 -39.959
v 142.682 -225.446 -39.959
v 154.113 -232.9 -44.6353
v 142.682 -225.446 -39.959
v 142.682 -385 -39.959
v 154.113 -385 -44.6353
v 142.682 -225.446 -39.959
v 142.682 -105 -39.959
v 131.25 -105 -35.2826
v 131.25 -217.993 -35.2826
v 142.682 -225.446 -39.959
v 131.25 -217.993 -35.2826
v 131.25 -385 -35.2826
v 142.682 -385 -39.959
v 131.25 -217.993 -35.2826
v 131.25 -105 -35.2826
v 119.819 -105 -30.6063
v 119.819 -210.539 -30.6063
v 131.25 -217.993 -35.2826
v 119.819 -210.539 -30.6063
v 119.819 -385 -30.6063
v 131.25 -385 -35.2826
v 119.819 -210.539 -30.6063
v 119.819 -105 -30.6063
v 108.387 -105 -25.93
v 108.387 -203.086 -25.93
v 119.819 -210.539 -30.6063
v 108.387 -203.086 -25.93
v 108.387 -385 -25.93
v 119.819 -385 -30.6063
v 108.387 -203.086 -25.93
v 108.387 -105 -25.93
v 96.9556 -105 -21.2536
v 96.9556 -195.632 -21.2536
v 108.387 -203.086 -25.93
v 96.9556 -195.632 -21.2536
v 96.9556 -385 -21.2536
v 108.387 -385 -25.93
v 96.9556 -195.632 -21.2536
v 96.9556 -105 -21.2536
v 85.5241 -105 -16.5773
v 85.5241 -188.178 -16.5773
v 96.9556 -195.632 -21.2536
v 85.5241 -188.178 -16.5773
v 85.5241 -385 -16.5773
v 96.9556 -385 -21.2536
v 85.5241 -188.178 -16.5773
v 85.5241 -105 -16.5773
v 74.0925 -105 -11.901
v 74.0925 -180.725 -11.901
v 85.5241 -188.178 -16.5773
v 74.0925 -180.725 -11.901
v 74.0925 -385 -11.901
v 85.5241 -385 -16.5773
v 74.0925 -180.725 -11.901
v 74.0925 -105 -11.901
v 62.8095 -105 -7.28537
v 62.8095 -173.368 -7.28537
v 74.0925 -180.725 -11.901
v 62.8095 -173.368 -7.28537
v 62.8095 -385 -7.28537
v 74.0925 -385 -11.901
v 62.8095 -173.368 -7.28537
v 62.8095 -105 -7.28537
v 45 -105 0
v 45 -161.756 0
v 62.8095 -173.368 -7.28537
v 45 -161.756 0
v 45 -385 0
v 62.8095 -385 -7.28537
vn 0.685954 0 0.727645
vn 0.685954 3.52392e-17 0.727645
vn 0.685954 -1.73964e-16 0.727645
vn 0.685954 -1.14903e-16 0.727645
vn 0.685954 1.08314e-16 0.727645
vn 0.685954 -2.52907e-16 0.727645
vn 0.685954 1.99078e-16 0.727645
vn 0.685954 1.31662e-16 0.727645
vn 0.685954 2.72464e-16 0.727645
vn 0.685954 2.95503e-16 0.727645
vn 0.685954 9.78746e-17 0.727645
vn 0.685954 5.97756e-17 0.727645
vn 0.685954 -6.59044e-16 0.727645
vn 0.685954 -2.96786e-16 0.727645
vn 0.97772 0 0.209911
vn 0.97772 1.03196e-17 0.209911
vn 0.97772 -8.59983e-17 0.209911
vn 0.97772 -5.15373e-18 0.209911
vn 0.97772 -5.84216e-17 0.209911
vn 0.97772 -6.4346e-17 0.209911
vn 0.955522 0 -0.294919
vn 0.955522 -1.16823e-16 -0.294919
vn 0.955522 -2.54611e-16 -0.294919
vn 0.955522 -3.8816e-17 -0.294919
vn 0.955522 -3.72923e-16 -0.294919
vn 0.955522 -5.66135e-17 -0.294919
vn 0.955522 -1.50868e-16 -0.294919
vn 0.955522 -2.75278e-16 -0.294919
vn 0.955522 -9.19109e-17 -0.294919
vn 0.955522 -2.71737e-16 -0.294919
vn 0.955522 -4.1707e-18 -0.294919
vn 0.955522 -8.75711e-17 -0.294919
vn 0.955522 -3.21613e-16 -0.294919
vn 0.955522 -1.38993e-16 -0.294919
vn 0.955522 -2.31413e-16 -0.294919
vn 0.955522 -1.2328e-16 -0.294919
vn 0.955522 -1.28535e-16 -0.294919
vn 0.955522 -7.12089e-17 -0.294919
vn 0.955522 -1.35786e-16 -0.294919
vn 0.955522 -1.26017e-16 -0.294919
vn 0.955522 -1.42458e-16 -0.294919
vn 0.955522 -1.0879e-16 -0.294919
vn 0.955522 -7.29967e-17 -0.294919
vn 0.955522 -3.48747e-18 -0.294919
vn 0.955522 -2.4462e-16 -0.294919
vn 0.955522 -4.65387e-17 -0.294919
vn 0.955522 -1.59618e-16 -0.294919
vn 0.955522 2.57415e-17 -0.294919
vn 0.955522 -2.32358e-16 -0.294919
vn 0.955522 1.89014e-17 -0.294919
vn 0.955522 -4.47084e-16 -0.294919
vn 0.955522 -9.72278e-17 -0.294919
vn 0.955522 -1.73461e-16 -0.294919
vn 0.955522 -3.04165e-16 -0.294919
vn 0.887974 1.43814e-16 0.459895
vn 0.887974 1.30008e-16 0.459895
vn 0.887974 -5.74044e-17 0.459895
vn 0.887974 -7.53848e-17 0.459895
vn 0.887974 4.3566e-17 0.459895
vn 0.887974 2.97301e-17 0.459895
vn 0.887974 7.24061e-17 0.459895
vn 0.887974 0 0.459895
vn 0.378619 0 0.925553
vn 0.378619 -1.80281e-17 0.925553
vn 0.378619 -3.48445e-17 0.925553
vn 0.378619 -8.95622e-17 0.925553
vn 0.378619 6.8694e-17 0.925553
vn 0.378619 1.31901e-17 0.925553
vn 0.378619 3.39142e-17 0.925553
vn 0.378619 2.84618e-17 0.925553
vn 0.378619 3.65106e-17 0.925553
vn 0.378619 -2.43036e-17 0.925553
vn 0.378619 -7.26152e-17 0.925553
vn 0.378619 -8.76869e-18 0.925553
vn 0.378619 -5.39456e-17 0.925553
vn 0.378619 6.75899e-17 0.925553
vn 0.378619 -8.68605e-17 0.925553
vn 0.378619 -1.10165e-17 0.925553
vn 0.378619 -1.58634e-16 0.925553
vn 0.378619 0 0.925553
f 1//1 2//1 3//1 4//1 
f 5//2 6//2 7//2 8//2 
f 9//3 10//3 11//3 12//3 
f 13//4 14//4 15//4 16//4 
f 17//5 18//5 19//5 20//5 
f 21//6 22//6 23//6 24//6 
f 25//7 26//7 27//7 28//7 
f 29//8 30//8 31//8 32//8 
f 33//9 34//9 35//9 36//9 
f 37//10 38//10 39//10 40//10 
f 41//11 42//11 43//11 44//11 
f 45//12 46//12 47//12 48//12 
f 49//13 50//13 51//13 52//13 
f 53//14 54//14 55//14 56//14 
f 57//15 58//15 59//15 60//15 
f 61//16 62//16 63//16 64//16 
f 65//17 66//17 67//17 68//17 
f 69//18 70//18 71//18 72//18 
f 73//19 74//19 75//19 76//19 
f 77//20 78//20 79//20 80//20 
f 81//21 82//21 83//21 84//21 
f 85//22 86//22 87//22 88//22 
f 89//23 90//23 91//23 92//23 
f 93//24 94//24 95//24 96//24 
f 97//25 98//25 99//25 100//25 
f 101//26 102//26 103//26 104//26 
f 105//27 106//27 107//27 108//27 
f 109//28 110//28 111//28 112//28 
f 113//29 114//29 115//29 116//29 
f 117//30 118//30 119//30 120//30 
f 121//31 122//31 123//31 124//31 
f 125//32 126//32 127//32 128//32 
f 129//33 130//33 131//33 132//33 
f 133//34 134//34 135//34 136//34 
f 137//35 138//35 139//35 140//35 
f 141//36 142//36 143//36 144//36 
f 145//37 146//37 147//37 148//37 
f 149//38 150//38 151//38 152//38 
f 153//39 154//39 155//39 156//39 
f 157//40 158//40 159//40 160//40 
f 161//41 162//41 163//41 164//41 
f 165//42 166//42 167//42 168//42 
f 169//43 170//43 171//43 172//43 
f 173//44 174//44 175//44 176//44 
f 177//45 178//45 179//45 180//45 
f 181//46 182//46 183//46 184//46 
f 185//47 186//47 187//47 188//47 
f 189//48 190//48 191//48 192//48 
f 193//49 194//49 195//49 196//49 
f 197//50 198//50 199//50 200//50 
f 201//51 202//51 203//51 204//51 
f 205//52 206//52 207//52 208//52 
f 209//53 210//53 211//53 212//53 
f 213//54 214//54 215//54 216//54 
f 217//55 218//55 219//55 220//55 
f 221//56 222//56 223//56 224//56 
f 225//57 226//57 227//57 228//57 
f 229//58 230//58 231//58 232//58 
f 233//59 234//59 235//59 236//59 
f 237//60 238//60 239//60 240//60 
f 241//61 242//61 243//61 244//61 
f 245//62 246//62 247//62 248//62 
f 249//63 250//63 251//63 252//63 
f 253//64 254//64 255//64 256//64 
f 257//65 258//65 259//65 260//65 
f 261//66 262//66 263//66 264//66 
f 265//67 266//67 267//67 268//67 
f 269//68 270//68 271//68 272//68 
f 273//69 274//69 275//69 276//69 
f 277//70 278//70 279//70 280//70 
f 281//71 282//71 283//71 284//71 
f 285//72 286//72 287//72 288//72 
f 289//73 290//73 291//73 292//73 
f 293//74 294//74 295//74 296//74 
f 297//75 298//75 299//75 300//75 
f 301//76 302//76 303//76 304//76 
f 305//77 306//77 307//77 308//77 
f 309//78 310//78 311//78 312//78 
f 313//79 314//79 315//79 316//79 
f 317//80 318//80 319//80 320//80 
