v 216.217 -250.366 -235.698
v 216.217 -125 -235.698
v 269.776 -125 -106.395
v 269.776 -203.378 -106.395
v 216.217 -250.366 -235.698
v 269.776 -203.378 -106.395
v 269.776 -375 -106.395
v 216.217 -375 -235.698
v 269.776 -203.378 -106.395
v 269.776 -125 -106.395
v 173.95 -125 -40.523
v 173.95 -233.634 -40.523
v 269.776 -203.378 -106.395
v 173.95 -233.634 -40.523
v 173.95 -375 -40.523
v 269.776 -375 -106.395
v 173.95 -233.634 -40.523
v 173.95 -125 -40.523
v 115 -125 0
v 115 -252.247 0
v 173.95 -233.634 -40.523
v 115 -252.247 0
v 115 -375 0
v 173.95 -375 -40.523
vn 0.92388 0 -0.382683
vn 0.92388 0 -0.382683
vn 0.566481 0 0.824075
vn 0.566481 0 0.824075
vn 0.566481 -6.44917e-17 0.824075
vn 0.566481 0 0.824075
f 1//1 2//1 3//1 4//1 
f 5//2 6//2 7//2 8//2 
f 9//3 10//3 11//3 12//3 
f 13//4 14//4 15//4 16//4 
f 17//5 18//5 19//5 20//5 
f 21//6 22//6 23//6 24//6 
