v 65.2751 -221.533 214.178
v 90.1998 -232.633 225.997
v 87.9045 -207.504 214.389
v 65.2751 -221.533 214.178
v 87.9045 -207.504 214.389
v 87.9045 -365 214.389
v 65.2751 -365 214.178
v 87.9045 -207.504 214.389
v 90.1998 -232.633 225.997
v 104.214 -238.874 232.642
v 100.628 -199.616 214.507
v 87.9045 -207.504 214.389
v 100.628 -199.616 214.507
v 100.628 -365 214.507
v 87.9045 -365 214.389
v 100.628 -199.616 214.507
v 104.214 -238.874 232.642
v 118.228 -245.115 239.287
v 113.351 -191.728 214.625
v 100.628 -199.616 214.507
v 113.351 -191.728 214.625
v 113.351 -365 214.625
v 100.628 -365 214.507
v 113.351 -191.728 214.625
v 118.228 -245.115 239.287
v 132.242 -251.355 245.933
v 126.075 -183.84 214.743
v 113.351 -191.728 214.625
v 126.075 -183.84 214.743
v 126.075 -365 214.743
v 113.351 -365 214.625
v 126.075 -183.84 214.743
v 132.242 -251.355 245.933
v 157.705 -273.083 241.835
v 135.331 -178.71 206.519
v 126.075 -183.84 214.743
v 135.331 -178.71 206.519
v 135.331 -365 206.519
v 126.075 -365 214.743
v 135.331 -178.71 206.519
v 157.705 -273.083 241.835
v 182.209 -293.992 237.893
v 189.177 -283.112 228.073
v 144.587 -173.581 198.295
v 135.331 -178.71 206.519
v 144.587 -173.581 198.295
v 144.587 -365 198.295
v 135.331 -365 206.519
v 144.587 -173.581 198.295
v 189.177 -283.112 228.073
v 206.815 -255.575 203.22
v 153.843 -168.451 190.071
v 144.587 -173.581 198.295
v 153.843 -168.451 190.071
v 153.843 -365 190.071
v 144.587 -365 198.295
v 153.843 -168.451 190.071
v 206.815 -255.575 203.22
v 221.826 -232.138 182.067
v 163.186 -163.274 181.77
v 153.843 -168.451 190.071
v 163.186 -163.274 181.77
v 163.186 -365 181.77
v 153.843 -365 190.071
v 163.186 -163.274 181.77
v 221.826 -232.138 182.067
v 234.536 -212.295 164.158
v 172.442 -158.144 173.546
v 163.186 -163.274 181.77
v 172.442 -158.144 173.546
v 172.442 -365 173.546
v 163.186 -365 181.77
v 172.442 -158.144 173.546
v 234.536 -212.295 164.158
v 245.53 -195.13 148.666
v 181.698 -153.015 165.322
v 172.442 -158.144 173.546
v 181.698 -153.015 165.322
v 181.698 -365 165.322
v 172.442 -365 173.546
v 181.698 -153.015 165.322
v 245.53 -195.13 148.666
v 255.134 -180.136 135.133
v 190.954 -147.885 157.098
v 181.698 -153.015 165.322
v 190.954 -147.885 157.098
v 190.954 -365 157.098
v 181.698 -365 165.322
v 190.954 -147.885 157.098
v 255.134 -180.136 135.133
v 264.986 -165.821 121.801
v 200.21 -142.756 148.874
v 190.954 -147.885 157.098
v 200.21 -142.756 148.874
v 200.21 -365 148.874
v 190.954 -365 157.098
v 200.21 -142.756 148.874
v 264.986 -165.821 121.801
v 265.037 -165.76 120.625
v 201.207 -142.276 136.246
v 200.21 -142.756 148.874
v 201.207 -142.276 136.246
v 201.207 -365 136.246
v 200.21 -365 148.874
v 201.207 -142.276 136.246
v 265.037 -165.76 120.625
v 265.089 -165.697 119.422
v 202.213 -141.791 123.501
v 201.207 -142.276 136.246
v 202.213 -141.791 123.501
v 202.213 -365 123.501
v 201.207 -365 136.246
v 202.213 -141.791 123.501
v 265.089 -165.697 119.422
v 265.141 -165.635 118.215
v 203.209 -141.31 110.873
v 202.213 -141.791 123.501
v 203.209 -141.31 110.873
v 203.209 -365 110.873
v 202.213 -365 123.501
v 203.209 -141.31 110.873
v 265.141 -165.635 118.215
v 265.194 -165.572 116.992
v 204.206 -140.83 98.2455
v 203.209 -141.31 110.873
v 204.206 -140.83 98.2455
v 204.206 -365 98.2455
v 203.209 -365 110.873
v 204.206 -140.83 98.2455
v 265.194 -165.572 116.992
v 264.889 -165.367 115.715
v 205.203 -140.349 85.6179
v 204.206 -140.83 98.2455
v 205.203 -140.349 85.6179
v 205.203 -365 85.6179
v 204.206 -365 98.2455
v 205.203 -140.349 85.6179
v 264.889 -165.367 115.715
v 258.438 -178.05 89.399
v 199.641 -143.789 74.1638
v 205.203 -140.349 85.6179
v 199.641 -143.789 74.1638
v 199.641 -365 74.1638
v 205.203 -365 85.6179
v 199.641 -143.789 74.1638
v 258.438 -178.05 89.399
v 250.814 -193.04 58.299
v 194.08 -147.229 62.7097
v 199.641 -143.789 74.1638
v 194.08 -147.229 62.7097
v 194.08 -365 62.7097
v 199.641 -365 74.1638
v 194.08 -147.229 62.7097
v 250.814 -193.04 58.299
v 241.665 -211.026 20.9796
v 188.518 -150.669 51.2555
v 194.08 -147.229 62.7097
v 188.518 -150.669 51.2555
v 188.518 -365 51.2555
v 194.08 -365 62.7097
v 188.518 -150.669 51.2555
v 241.665 -211.026 20.9796
v 229.947 -233.735 -26.327
v 182.905 -154.142 39.6944
v 188.518 -150.669 51.2555
v 182.905 -154.142 39.6944
v 182.905 -365 39.6944
v 188.518 -365 51.2555
v 182.905 -154.142 39.6944
v 229.947 -233.735 -26.327
v 223.146 -249.787 -37.2553
v 171.346 -162.145 35.4425
v 182.905 -154.142 39.6944
v 171.346 -162.145 35.4425
v 171.346 -365 35.4425
v 182.905 -365 39.6944
v 171.346 -162.145 35.4425
v 223.146 -249.787 -37.2553
v 218.144 -262.031 -45.6182
v 214.168 -262.156 -45.129
v 159.788 -170.148 31.1906
v 171.346 -162.145 35.4425
v 159.788 -170.148 31.1906
v 159.788 -365 31.1906
v 171.346 -365 35.4425
v 159.788 -170.148 31.1906
v 214.168 -262.156 -45.129
v 195.196 -257.617 -38.977
v 148.23 -178.151 26.9387
v 159.788 -170.148 31.1906
v 148.23 -178.151 26.9387
v 148.23 -365 26.9387
v 159.788 -365 31.1906
v 148.23 -178.151 26.9387
v 195.196 -257.617 -38.977
v 176.225 -253.077 -32.825
v 136.671 -186.154 22.6868
v 148.23 -178.151 26.9387
v 136.671 -186.154 22.6868
v 136.671 -365 22.6868
v 148.23 -365 26.9387
v 136.671 -186.154 22.6868
v 176.225 -253.077 -32.825
v 157.254 -248.538 -26.673
v 125.113 -194.157 18.4348
v 136.671 -186.154 22.6868
v 125.113 -194.157 18.4348
v 125.113 -365 18.4348
v 136.671 -365 22.6868
v 125.113 -194.157 18.4348
v 157.254 -248.538 -26.673
v 138.282 -243.998 -20.521
v 113.555 -202.16 14.1829
v 125.113 -194.157 18.4348
v 113.555 -202.16 14.1829
v 113.555 -365 14.1829
v 125.113 -365 18.4348
v 113.555 -202.16 14.1829
v 138.282 -243.998 -20.521
v 119.311 -239.459 -14.369
v 101.996 -210.164 9.93104
v 113.555 -202.16 14.1829
v 101.996 -210.164 9.93104
v 101.996 -365 9.93104
v 113.555 -365 14.1829
v 101.996 -210.164 9.93104
v 119.311 -239.459 -14.369
v 75 -228.856 0
v 101.996 -210.164 9.93104
v 75 -228.856 0
v 75 -365 0
v 101.996 -365 9.93104
vn -0.248435 -0.387434 0.887792
vn 0.00928176 -4.23632e-18 -0.999957
vn -0.248435 -0.387434 0.887792
vn 0.00928176 -4.74828e-18 -0.999957
vn -0.248435 -0.387434 0.887792
vn 0.00928176 -3.82712e-18 -0.999957
vn -0.248435 -0.387434 0.887792
vn 0.00928176 1.59038e-16 -0.999957
vn 0.471582 -0.404951 0.783342
vn -0.664199 -1.72506e-16 -0.747556
vn 0.471582 -0.404951 0.783342
vn -0.664199 -8.99376e-17 -0.747556
vn 0.471582 -0.404951 0.783342
vn -0.664199 1.16787e-17 -0.747556
vn 0.471582 -0.404951 0.783342
vn -0.664199 1.12736e-17 -0.747556
vn 0.471582 -0.404951 0.783342
vn -0.664199 0 -0.747556
vn 0.471582 -0.404951 0.783342
vn -0.664199 0 -0.747556
vn 0.471582 -0.404951 0.783342
vn -0.664199 -1.85018e-16 -0.747556
vn 0.471582 -0.404951 0.783342
vn -0.664199 -8.77919e-17 -0.747556
vn 0.358282 -0.931437 0.0637146
vn -0.9969 8.94089e-17 -0.0786808
vn 0.358282 -0.931437 0.0637146
vn -0.9969 -2.24084e-17 -0.0786808
vn 0.358282 -0.931437 0.0637146
vn -0.9969 3.88692e-17 -0.0786808
vn 0.358282 -0.931437 0.0637146
vn -0.9969 -2.12697e-17 -0.0786808
vn 0.358282 -0.931437 0.0637146
vn -0.9969 0 -0.0786808
vn 0.532143 -0.704286 -0.469898
vn -0.899568 2.01812e-17 0.436781
vn 0.532143 -0.704286 -0.469898
vn -0.899568 1.79375e-17 0.436781
vn 0.532143 -0.704286 -0.469898
vn -0.899568 -3.38471e-17 0.436781
vn 0.532143 -0.704286 -0.469898
vn -0.899568 -1.57319e-17 0.436781
vn -0.116811 -0.592257 -0.797237
vn -0.345246 0 0.938512
vn -0.116811 -0.592257 -0.797237
vn -0.345246 -5.3297e-17 0.938512
vn -0.116811 -0.592257 -0.797237
vn -0.345246 -4.32288e-17 0.938512
vn -0.116811 -0.592257 -0.797237
vn -0.345246 4.51632e-17 0.938512
vn -0.116811 -0.592257 -0.797237
vn -0.345246 -2.70165e-17 0.938512
vn -0.116811 -0.592257 -0.797237
vn -0.345246 2.12582e-17 0.938512
vn -0.116811 -0.592257 -0.797237
vn -0.345246 -3.72617e-17 0.938512
vn -0.116811 -0.592257 -0.797237
vn -0.345246 0 0.938512
f 1//1 2//1 3//1 
f 4//2 5//2 6//2 7//2 
f 8//3 9//3 10//3 11//3 
f 12//4 13//4 14//4 15//4 
f 16//5 17//5 18//5 19//5 
f 20//6 21//6 22//6 23//6 
f 24//7 25//7 26//7 27//7 
f 28//8 29//8 30//8 31//8 
f 32//9 33//9 34//9 35//9 
f 36//10 37//10 38//10 39//10 
f 40//11 41//11 42//11 43//11 44//11 
f 45//12 46//12 47//12 48//12 
f 49//13 50//13 51//13 52//13 
f 53//14 54//14 55//14 56//14 
f 57//15 58//15 59//15 60//15 
f 61//16 62//16 63//16 64//16 
f 65//17 66//17 67//17 68//17 
f 69//18 70//18 71//18 72//18 
f 73//19 74//19 75//19 76//19 
f 77//20 78//20 79//20 80//20 
f 81//21 82//21 83//21 84//21 
f 85//22 86//22 87//22 88//22 
f 89//23 90//23 91//23 92//23 
f 93//24 94//24 95//24 96//24 
f 97//25 98//25 99//25 100//25 
f 101//26 102//26 103//26 104//26 
f 105//27 106//27 107//27 108//27 
f 109//28 110//28 111//28 112//28 
f 113//29 114//29 115//29 116//29 
f 117//30 118//30 119//30 120//30 
f 121//31 122//31 123//31 124//31 
f 125//32 126//32 127//32 128//32 
f 129//33 130//33 131//33 132//33 
f 133//34 134//34 135//34 136//34 
f 137//35 138//35 139//35 140//35 
f 141//36 142//36 143//36 144//36 
f 145//37 146//37 147//37 148//37 
f 149//38 150//38 151//38 152//38 
f 153//39 154//39 155//39 156//39 
f 157//40 158//40 159//40 160//40 
f 161//41 162//41 163//41 164//41 
f 165//42 166//42 167//42 168//42 
f 169//43 170//43 171//43 172//43 
f 173//44 174//44 175//44 176//44 
f 177//45 178//45 179//45 180//45 181//45 
f 182//46 183//46 184//46 185//46 
f 186//47 187//47 188//47 189//47 
f 190//48 191//48 192//48 193//48 
f 194//49 195//49 196//49 197//49 
f 198//50 199//50 200//50 201//50 
f 202//51 203//51 204//51 205//51 
f 206//52 207//52 208//52 209//52 
f 210//53 211//53 212//53 213//53 
f 214//54 215//54 216//54 217//54 
f 218//55 219//55 220//55 221//55 
f 222//56 223//56 224//56 225//56 
f 226//57 227//57 228//57 
f 229//58 230//58 231//58 232//58 
