v 65.2751 -221.533 214.178
v 65.2751 -75 214.178
v 87.9045 -75 214.389
v 87.9045 -207.504 214.389
v 65.2751 -221.533 214.178
v 87.9045 -207.504 214.389
v 87.9045 -365 214.389
v 65.2751 -365 214.178
v 87.9045 -207.504 214.389
v 87.9045 -75 214.389
v 100.628 -75 214.507
v 100.628 -199.616 214.507
v 87.9045 -207.504 214.389
v 100.628 -199.616 214.507
v 100.628 -365 214.507
v 87.9045 -365 214.389
v 100.628 -199.616 214.507
v 100.628 -75 214.507
v 113.351 -75 214.625
v 113.351 -191.728 214.625
v 100.628 -199.616 214.507
v 113.351 -191.728 214.625
v 113.351 -365 214.625
v 100.628 -365 214.507
v 113.351 -191.728 214.625
v 113.351 -75 214.625
v 126.075 -75 214.743
v 126.075 -183.84 214.743
v 113.351 -191.728 214.625
v 126.075 -183.84 214.743
v 126.075 -365 214.743
v 113.351 -365 214.625
v 126.075 -183.84 214.743
v 126.075 -75 214.743
v 135.331 -75 206.519
v 135.331 -178.71 206.519
v 126.075 -183.84 214.743
v 135.331 -178.71 206.519
v 135.331 -365 206.519
v 126.075 -365 214.743
v 135.331 -178.71 206.519
v 135.331 -75 206.519
v 144.587 -75 198.295
v 144.587 -173.581 198.295
v 135.331 -178.71 206.519
v 144.587 -173.581 198.295
v 144.587 -365 198.295
v 135.331 -365 206.519
v 144.587 -173.581 198.295
v 144.587 -75 198.295
v 153.843 -75 190.071
v 153.843 -168.451 190.071
v 144.587 -173.581 198.295
v 153.843 -168.451 190.071
v 153.843 -365 190.071
v 144.587 -365 198.295
v 153.843 -168.451 190.071
v 153.843 -75 190.071
v 163.186 -75 181.77
v 163.186 -163.274 181.77
v 153.843 -168.451 190.071
v 163.186 -163.274 181.77
v 163.186 -365 181.77
v 153.843 -365 190.071
v 163.186 -163.274 181.77
v 163.186 -75 181.77
v 172.442 -75 173.546
v 172.442 -158.144 173.546
v 163.186 -163.274 181.77
v 172.442 -158.144 173.546
v 172.442 -365 173.546
v 163.186 -365 181.77
v 172.442 -158.144 173.546
v 172.442 -75 173.546
v 181.698 -75 165.322
v 181.698 -153.015 165.322
v 172.442 -158.144 173.546
v 181.698 -153.015 165.322
v 181.698 -365 165.322
v 172.442 -365 173.546
v 181.698 -153.015 165.322
v 181.698 -75 165.322
v 190.954 -75 157.098
v 190.954 -147.885 157.098
v 181.698 -153.015 165.322
v 190.954 -147.885 157.098
v 190.954 -365 157.098
v 181.698 -365 165.322
v 190.954 -147.885 157.098
v 190.954 -75 157.098
v 200.21 -75 148.874
v 200.21 -142.756 148.874
v 190.954 -147.885 157.098
v 200.21 -142.756 148.874
v 200.21 -365 148.874
v 190.954 -365 157.098
v 200.21 -142.756 148.874
v 200.21 -75 148.874
v 201.207 -75 136.246
v 201.207 -142.276 136.246
v 200.21 -142.756 148.874
v 201.207 -142.276 136.246
v 201.207 -365 136.246
v 200.21 -365 148.874
v 201.207 -142.276 136.246
v 201.207 -75 136.246
v 202.213 -75 123.501
v 202.213 -141.791 123.501
v 201.207 -142.276 136.246
v 202.213 -141.791 123.501
v 202.213 -365 123.501
v 201.207 -365 136.246
v 202.213 -141.791 123.501
v 202.213 -75 123.501
v 203.209 -75 110.873
v 203.209 -141.31 110.873
v 202.213 -141.791 123.501
v 203.209 -141.31 110.873
v 203.209 -365 110.873
v 202.213 -365 123.501
v 203.209 -141.31 110.873
v 203.209 -75 110.873
v 204.206 -75 98.2455
v 204.206 -140.83 98.2455
v 203.209 -141.31 110.873
v 204.206 -140.83 98.2455
v 204.206 -365 98.2455
v 203.209 -365 110.873
v 204.206 -140.83 98.2455
v 204.206 -75 98.2455
v 205.203 -75 85.6179
v 205.203 -140.349 85.6179
v 204.206 -140.83 98.2455
v 205.203 -140.349 85.6179
v 205.203 -365 85.6179
v 204.206 -365 98.2455
v 205.203 -140.349 85.6179
v 205.203 -75 85.6179
v 199.641 -75 74.1638
v 199.641 -143.789 74.1638
v 205.203 -140.349 85.6179
v 199.641 -143.789 74.1638
v 199.641 -365 74.1638
v 205.203 -365 85.6179
v 199.641 -143.789 74.1638
v 199.641 -75 74.1638
v 194.08 -75 62.7097
v 194.08 -147.229 62.7097
v 199.641 -143.789 74.1638
v 194.08 -147.229 62.7097
v 194.08 -365 62.7097
v 199.641 -365 74.1638
v 194.08 -147.229 62.7097
v 194.08 -75 62.7097
v 188.518 -75 51.2555
v 188.518 -150.669 51.2555
v 194.08 -147.229 62.7097
v 188.518 -150.669 51.2555
v 188.518 -365 51.2555
v 194.08 -365 62.7097
v 188.518 -150.669 51.2555
v 188.518 -75 51.2555
v 182.905 -75 39.6944
v 182.905 -154.142 39.6944
v 188.518 -150.669 51.2555
v 182.905 -154.142 39.6944
v 182.905 -365 39.6944
v 188.518 -365 51.2555
v 182.905 -154.142 39.6944
v 182.905 -75 39.6944
v 171.346 -75 35.4425
v 171.346 -162.145 35.4425
v 182.905 -154.142 39.6944
v 171.346 -162.145 35.4425
v 171.346 -365 35.4425
v 182.905 -365 39.6944
v 171.346 -162.145 35.4425
v 171.346 -75 35.4425
v 159.788 -75 31.1906
v 159.788 -170.148 31.1906
v 171.346 -162.145 35.4425
v 159.788 -170.148 31.1906
v 159.788 -365 31.1906
v 171.346 -365 35.4425
v 159.788 -170.148 31.1906
v 159.788 -75 31.1906
v 148.23 -75 26.9387
v 148.23 -178.151 26.9387
v 159.788 -170.148 31.1906
v 148.23 -178.151 26.9387
v 148.23 -365 26.9387
v 159.788 -365 31.1906
v 148.23 -178.151 26.9387
v 148.23 -75 26.9387
v 136.671 -75 22.6868
v 136.671 -186.154 22.6868
v 148.23 -178.151 26.9387
v 136.671 -186.154 22.6868
v 136.671 -365 22.6868
v 148.23 -365 26.9387
v 136.671 -186.154 22.6868
v 136.671 -75 22.6868
v 125.113 -75 18.4348
v 125.113 -194.157 18.4348
v 136.671 -186.154 22.6868
v 125.113 -194.157 18.4348
v 125.113 -365 18.4348
v 136.671 -365 22.6868
v 125.113 -194.157 18.4348
v 125.113 -75 18.4348
v 113.555 -75 14.1829
v 113.555 -202.16 14.1829
v 125.113 -194.157 18.4348
v 113.555 -202.16 14.1829
v 113.555 -365 14.1829
v 125.113 -365 18.4348
v 113.555 -202.16 14.1829
v 113.555 -75 14.1829
v 101.996 -75 9.93104
v 101.996 -210.164 9.93104
v 113.555 -202.16 14.1829
v 101.996 -210.164 9.93104
v 101.996 -365 9.93104
v 113.555 -365 14.1829
v 101.996 -210.164 9.93104
v 101.996 -75 9.93104
v 75 -75 0
v 75 -228.856 0
v 101.996 -210.164 9.93104
v 75 -228.856 0
v 75 -365 0
v 101.996 -365 9.93104
vn 0.00928176 1.94853e-16 -0.999957
vn 0.00928176 -4.23632e-18 -0.999957
vn 0.00928176 -1.99091e-18 -0.999957
vn 0.00928176 -4.74828e-18 -0.999957
vn 0.00928176 -3.1754e-18 -0.999957
vn 0.00928176 -3.82712e-18 -0.999957
vn 0.00928176 -3.38998e-18 -0.999957
vn 0.00928176 1.59038e-16 -0.999957
vn -0.664199 -1.73445e-16 -0.747556
vn -0.664199 -1.72506e-16 -0.747556
vn -0.664199 -6.85313e-17 -0.747556
vn -0.664199 -8.99376e-17 -0.747556
vn -0.664199 1.4343e-16 -0.747556
vn -0.664199 1.16787e-17 -0.747556
vn -0.664199 -5.07031e-17 -0.747556
vn -0.664199 1.12736e-17 -0.747556
vn -0.664199 1.87015e-16 -0.747556
vn -0.664199 0 -0.747556
vn -0.664199 -2.84942e-17 -0.747556
vn -0.664199 0 -0.747556
vn -0.664199 0 -0.747556
vn -0.664199 -1.85018e-16 -0.747556
vn -0.664199 0 -0.747556
vn -0.664199 -8.77919e-17 -0.747556
vn -0.9969 0 -0.0786808
vn -0.9969 8.94089e-17 -0.0786808
vn -0.9969 -2.80854e-16 -0.0786808
vn -0.9969 -2.24084e-17 -0.0786808
vn -0.9969 7.39e-17 -0.0786808
vn -0.9969 3.88692e-17 -0.0786808
vn -0.9969 -9.84267e-17 -0.0786808
vn -0.9969 -2.12697e-17 -0.0786808
vn -0.9969 1.57139e-16 -0.0786808
vn -0.9969 0 -0.0786808
vn -0.899568 0 0.436781
vn -0.899568 2.01812e-17 0.436781
vn -0.899568 9.02325e-17 0.436781
vn -0.899568 1.79375e-17 0.436781
vn -0.899568 8.59351e-17 0.436781
vn -0.899568 -3.38471e-17 0.436781
vn -0.899568 2.55853e-16 0.436781
vn -0.899568 -1.57319e-17 0.436781
vn -0.345246 0 0.938512
vn -0.345246 0 0.938512
vn -0.345246 6.60858e-17 0.938512
vn -0.345246 -5.3297e-17 0.938512
vn -0.345246 -1.68485e-18 0.938512
vn -0.345246 -4.32288e-17 0.938512
vn -0.345246 6.85123e-17 0.938512
vn -0.345246 4.51632e-17 0.938512
vn -0.345246 -4.79555e-17 0.938512
vn -0.345246 -2.70165e-17 0.938512
vn -0.345246 -1.20622e-17 0.938512
vn -0.345246 2.12582e-17 0.938512
vn -0.345246 -3.31288e-17 0.938512
vn -0.345246 -3.72617e-17 0.938512
vn -0.345246 1.20822e-17 0.938512
vn -0.345246 0 0.938512
f 1//1 2//1 3//1 4//1 
f 5//2 6//2 7//2 8//2 
f 9//3 10//3 11//3 12//3 
f 13//4 14//4 15//4 16//4 
f 17//5 18//5 19//5 20//5 
f 21//6 22//6 23//6 24//6 
f 25//7 26//7 27//7 28//7 
f 29//8 30//8 31//8 32//8 
f 33//9 34//9 35//9 36//9 
f 37//10 38//10 39//10 40//10 
f 41//11 42//11 43//11 44//11 
f 45//12 46//12 47//12 48//12 
f 49//13 50//13 51//13 52//13 
f 53//14 54//14 55//14 56//14 
f 57//15 58//15 59//15 60//15 
f 61//16 62//16 63//16 64//16 
f 65//17 66//17 67//17 68//17 
f 69//18 70//18 71//18 72//18 
f 73//19 74//19 75//19 76//19 
f 77//20 78//20 79//20 80//20 
f 81//21 82//21 83//21 84//21 
f 85//22 86//22 87//22 88//22 
f 89//23 90//23 91//23 92//23 
f 93//24 94//24 95//24 96//24 
f 97//25 98//25 99//25 100//25 
f 101//26 102//26 103//26 104//26 
f 105//27 106//27 107//27 108//27 
f 109//28 110//28 111//28 112//28 
f 113//29 114//29 115//29 116//29 
f 117//30 118//30 119//30 120//30 
f 121//31 122//31 123//31 124//31 
f 125//32 126//32 127//32 128//32 
f 129//33 130//33 131//33 132//33 
f 133//34 134//34 135//34 136//34 
f 137//35 138//35 139//35 140//35 
f 141//36 142//36 143//36 144//36 
f 145//37 146//37 147//37 148//37 
f 149//38 150//38 151//38 152//38 
f 153//39 154//39 155//39 156//39 
f 157//40 158//40 159//40 160//40 
f 161//41 162//41 163//41 164//41 
f 165//42 166//42 167//42 168//42 
f 169//43 170//43 171//43 172//43 
f 173//44 174//44 175//44 176//44 
f 177//45 178//45 179//45 180//45 
f 181//46 182//46 183//46 184//46 
f 185//47 186//47 187//47 188//47 
f 189//48 190//48 191//48 192//48 
f 193//49 194//49 195//49 196//49 
f 197//50 198//50 199//50 200//50 
f 201//51 202//51 203//51 204//51 
f 205//52 206//52 207//52 208//52 
f 209//53 210//53 211//53 212//53 
f 213//54 214//54 215//54 216//54 
f 217//55 218//55 219//55 220//55 
f 221//56 222//56 223//56 224//56 
f 225//57 226//57 227//57 228//57 
f 229//58 230//58 231//58 232//58 
