v 191.344 -220.009 -255.433
v 286.998 -283.545 -249.064
v 305.594 -251.09 -204.577
v 253.249 -184.043 -176.906
v 191.344 -220.009 -255.433
v 253.249 -184.043 -176.906
v 253.249 -365 -176.906
v 191.344 -365 -255.433
v 253.249 -184.043 -176.906
v 305.594 -251.09 -204.577
v 302.725 -223.651 -72.8735
v 258.745 -172.325 -77.0539
v 253.249 -184.043 -176.906
v 258.745 -172.325 -77.0539
v 258.745 -365 -77.0539
v 253.249 -365 -176.906
v 258.745 -172.325 -77.0539
v 302.725 -223.651 -72.8735
v 228.357 -259.381 34.2896
v 195 -187.076 0
v 258.745 -172.325 -77.0539
v 195 -187.076 0
v 195 -365 0
v 258.745 -365 -77.0539
v 195 -187.076 0
v 228.357 -259.381 34.2896
v 182.496 -300.213 43.3589
v 105 -222.804 0
v 195 -187.076 0
v 105 -222.804 0
v 105 -365 0
v 195 -365 0
vn -0.453759 0.618875 0.641168
vn 0.785317 0 -0.619094
vn -0.758831 0.640702 0.116948
vn 0.998489 0 -0.0549502
vn -0.587667 0.551759 -0.591784
vn 0.770513 0 0.637424
vn 0.146113 0.36806 -0.91825
vn 0 0 1
f 1//1 2//1 3//1 4//1 
f 5//2 6//2 7//2 8//2 
f 9//3 10//3 11//3 12//3 
f 13//4 14//4 15//4 16//4 
f 17//5 18//5 19//5 20//5 
f 21//6 22//6 23//6 24//6 
f 25//7 26//7 27//7 28//7 
f 29//8 30//8 31//8 32//8 
