v 191.344 -220.009 -255.433
v 191.344 -105 -255.433
v 253.249 -105 -176.906
v 253.249 -184.043 -176.906
v 191.344 -220.009 -255.433
v 253.249 -184.043 -176.906
v 253.249 -365 -176.906
v 191.344 -365 -255.433
v 253.249 -184.043 -176.906
v 253.249 -105 -176.906
v 258.745 -105 -77.0539
v 258.745 -172.325 -77.0539
v 253.249 -184.043 -176.906
v 258.745 -172.325 -77.0539
v 258.745 -365 -77.0539
v 253.249 -365 -176.906
v 258.745 -172.325 -77.0539
v 258.745 -105 -77.0539
v 195 -105 0
v 195 -187.076 0
v 258.745 -172.325 -77.0539
v 195 -187.076 0
v 195 -365 0
v 258.745 -365 -77.0539
v 195 -187.076 0
v 195 -105 0
v 105 -105 0
v 105 -222.804 0
v 195 -187.076 0
v 105 -222.804 0
v 105 -365 0
v 195 -365 0
vn 0.785317 0 -0.619094
vn 0.785317 0 -0.619094
vn 0.998489 0 -0.0549502
vn 0.998489 0 -0.0549502
vn 0.770513 0 0.637424
vn 0.770513 0 0.637424
vn 0 0 1
vn 0 0 1
f 1//1 2//1 3//1 4//1 
f 5//2 6//2 7//2 8//2 
f 9//3 10//3 11//3 12//3 
f 13//4 14//4 15//4 16//4 
f 17//5 18//5 19//5 20//5 
f 21//6 22//6 23//6 24//6 
f 25//7 26//7 27//7 28//7 
f 29//8 30//8 31//8 32//8 
