v 199.532 -189.356 386.695
v 199.532 -125 386.695
v 177.233 -125 378.269
v 177.233 -177.503 378.269
v 199.532 -189.356 386.695
v 177.233 -177.503 378.269
v 177.233 -315 378.269
v 199.532 -315 386.695
v 177.233 -177.503 378.269
v 177.233 -125 378.269
v 165.004 -125 371.794
v 165.004 -171.723 371.794
v 177.233 -177.503 378.269
v 165.004 -171.723 371.794
v 165.004 -315 371.794
v 177.233 -315 378.269
v 165.004 -171.723 371.794
v 165.004 -125 371.794
v 153.682 -125 363.837
v 153.682 -166.803 363.837
v 165.004 -171.723 371.794
v 153.682 -166.803 363.837
v 153.682 -315 363.837
v 165.004 -315 371.794
v 153.682 -166.803 363.837
v 153.682 -125 363.837
v 143.324 -125 354.412
v 143.324 -162.743 354.412
v 153.682 -166.803 363.837
v 143.324 -162.743 354.412
v 143.324 -315 354.412
v 153.682 -315 363.837
v 143.324 -162.743 354.412
v 143.324 -125 354.412
v 134.336 -125 343.889
v 134.336 -159.679 343.889
v 143.324 -162.743 354.412
v 134.336 -159.679 343.889
v 134.336 -315 343.889
v 143.324 -315 354.412
v 134.336 -159.679 343.889
v 134.336 -125 343.889
v 126.739 -125 332.324
v 126.739 -157.593 332.324
v 134.336 -159.679 343.889
v 126.739 -157.593 332.324
v 126.739 -315 332.324
v 134.336 -315 343.889
v 126.739 -157.593 332.324
v 126.739 -125 332.324
v 120.578 -125 319.747
v 120.578 -156.507 319.747
v 126.739 -157.593 332.324
v 120.578 -156.507 319.747
v 120.578 -315 319.747
v 126.739 -315 332.324
v 120.578 -156.507 319.747
v 120.578 -125 319.747
v 116.095 -125 306.655
v 116.095 -156.464 306.655
v 120.578 -156.507 319.747
v 116.095 -156.464 306.655
v 116.095 -315 306.655
v 120.578 -315 319.747
v 116.095 -156.464 306.655
v 116.095 -125 306.655
v 113.255 -125 292.942
v 113.255 -157.467 292.942
v 116.095 -156.464 306.655
v 113.255 -157.467 292.942
v 113.255 -315 292.942
v 116.095 -315 306.655
v 113.255 -157.467 292.942
v 113.255 -125 292.942
v 112.169 -125 279.146
v 112.169 -159.478 279.146
v 113.255 -157.467 292.942
v 112.169 -159.478 279.146
v 112.169 -315 279.146
v 113.255 -315 292.942
v 112.169 -159.478 279.146
v 112.169 -125 279.146
v 112.821 -125 265.324
v 112.821 -162.465 265.324
v 112.169 -159.478 279.146
v 112.821 -162.465 265.324
v 112.821 -315 265.324
v 112.169 -315 279.146
v 112.821 -162.465 265.324
v 112.821 -125 265.324
v 115.228 -125 251.528
v 115.228 -166.414 251.528
v 112.821 -162.465 265.324
v 115.228 -166.414 251.528
v 115.228 -315 251.528
v 112.821 -315 265.324
v 115.228 -166.414 251.528
v 115.228 -125 251.528
v 119.297 -125 238.301
v 119.297 -171.134 238.301
v 115.228 -166.414 251.528
v 119.297 -171.134 238.301
v 119.297 -315 238.301
v 115.228 -315 251.528
v 119.297 -171.134 238.301
v 119.297 -125 238.301
v 124.992 -125 225.689
v 124.992 -176.538 225.689
v 119.297 -171.134 238.301
v 124.992 -176.538 225.689
v 124.992 -315 225.689
v 119.297 -315 238.301
v 124.992 -176.538 225.689
v 124.992 -125 225.689
v 132.309 -125 213.748
v 132.309 -182.539 213.748
v 124.992 -176.538 225.689
v 132.309 -182.539 213.748
v 132.309 -315 213.748
v 124.992 -315 225.689
v 132.309 -182.539 213.748
v 132.309 -125 213.748
v 140.961 -125 202.949
v 140.961 -188.81 202.949
v 132.309 -182.539 213.748
v 140.961 -188.81 202.949
v 140.961 -315 202.949
v 132.309 -315 213.748
v 140.961 -188.81 202.949
v 140.961 -125 202.949
v 150.898 -125 193.319
v 150.898 -195.216 193.319
v 140.961 -188.81 202.949
v 150.898 -195.216 193.319
v 150.898 -315 193.319
v 140.961 -315 202.949
v 150.898 -195.216 193.319
v 150.898 -125 193.319
v 159.654 -125 182.389
v 159.654 -201.626 182.389
v 150.898 -195.216 193.319
v 159.654 -201.626 182.389
v 159.654 -315 182.389
v 150.898 -315 193.319
v 159.654 -201.626 182.389
v 159.654 -125 182.389
v 166.885 -125 170.59
v 166.885 -207.68 170.59
v 159.654 -201.626 182.389
v 166.885 -207.68 170.59
v 166.885 -315 170.59
v 159.654 -315 182.389
v 166.885 -207.68 170.59
v 166.885 -125 170.59
v 172.579 -125 157.978
v 172.579 -213.272 157.978
v 166.885 -207.68 170.59
v 172.579 -213.272 157.978
v 172.579 -315 157.978
v 166.885 -315 170.59
v 172.579 -213.272 157.978
v 172.579 -125 157.978
v 176.66 -125 144.755
v 176.66 -218.239 144.755
v 172.579 -213.272 157.978
v 176.66 -218.239 144.755
v 176.66 -315 144.755
v 172.579 -315 157.978
v 176.66 -218.239 144.755
v 176.66 -125 144.755
v 179.106 -125 130.966
v 179.106 -222.497 130.966
v 176.66 -218.239 144.755
v 179.106 -222.497 130.966
v 179.106 -315 130.966
v 176.66 -315 144.755
v 179.106 -222.497 130.966
v 179.106 -125 130.966
v 179.834 -125 117.147
v 179.834 -225.843 117.147
v 179.106 -222.497 130.966
v 179.834 -225.843 117.147
v 179.834 -315 117.147
v 179.106 -315 130.966
v 179.834 -225.843 117.147
v 179.834 -125 117.147
v 178.875 -125 103.343
v 178.875 -228.264 103.343
v 179.834 -225.843 117.147
v 178.875 -228.264 103.343
v 178.875 -315 103.343
v 179.834 -315 117.147
v 178.875 -228.264 103.343
v 178.875 -125 103.343
v 176.225 -125 89.5909
v 176.225 -229.729 89.5909
v 178.875 -228.264 103.343
v 176.225 -229.729 89.5909
v 176.225 -315 89.5909
v 178.875 -315 103.343
v 176.225 -229.729 89.5909
v 176.225 -125 89.5909
v 171.998 -125 76.4146
v 171.998 -230.184 76.4146
v 176.225 -229.729 89.5909
v 171.998 -230.184 76.4146
v 171.998 -315 76.4146
v 176.225 -315 89.5909
v 171.998 -230.184 76.4146
v 171.998 -125 76.4146
v 166.233 -125 63.8345
v 166.233 -229.653 63.8345
v 171.998 -230.184 76.4146
v 166.233 -229.653 63.8345
v 166.233 -315 63.8345
v 171.998 -315 76.4146
v 166.233 -229.653 63.8345
v 166.233 -125 63.8345
v 158.937 -125 51.8803
v 158.937 -228.126 51.8803
v 166.233 -229.653 63.8345
v 158.937 -228.126 51.8803
v 158.937 -315 51.8803
v 166.233 -315 63.8345
v 158.937 -228.126 51.8803
v 158.937 -125 51.8803
v 150.395 -125 40.9936
v 150.395 -225.663 40.9936
v 158.937 -228.126 51.8803
v 150.395 -225.663 40.9936
v 150.395 -315 40.9936
v 158.937 -315 51.8803
v 150.395 -225.663 40.9936
v 150.395 -125 40.9936
v 140.529 -125 31.0545
v 140.529 -222.238 31.0545
v 150.395 -225.663 40.9936
v 140.529 -222.238 31.0545
v 140.529 -315 31.0545
v 150.395 -315 40.9936
v 140.529 -222.238 31.0545
v 140.529 -125 31.0545
v 129.713 -125 22.4225
v 129.713 -217.97 22.4225
v 140.529 -222.238 31.0545
v 129.713 -217.97 22.4225
v 129.713 -315 22.4225
v 140.529 -315 31.0545
v 129.713 -217.97 22.4225
v 129.713 -125 22.4225
v 117.981 -125 15.0837
v 117.981 -212.86 15.0837
v 129.713 -217.97 22.4225
v 117.981 -212.86 15.0837
v 117.981 -315 15.0837
v 129.713 -315 22.4225
v 117.981 -212.86 15.0837
v 117.981 -125 15.0837
v 105.493 -125 9.12252
v 105.493 -206.949 9.12252
v 117.981 -212.86 15.0837
v 105.493 -206.949 9.12252
v 105.493 -315 9.12252
v 117.981 -315 15.0837
v 105.493 -206.949 9.12252
v 105.493 -125 9.12252
v 92.2563 -125 4.54958
v 92.2563 -200.193 4.54958
v 105.493 -206.949 9.12252
v 92.2563 -200.193 4.54958
v 92.2563 -315 4.54958
v 105.493 -315 9.12252
v 92.2563 -200.193 4.54958
v 92.2563 -125 4.54958
v 78.7544 -125 1.5185
v 78.7544 -192.791 1.5185
v 92.2563 -200.193 4.54958
v 78.7544 -192.791 1.5185
v 78.7544 -315 1.5185
v 92.2563 -315 4.54958
v 78.7544 -192.791 1.5185
v 78.7544 -125 1.5185
v 65 -125 0
v 65 -184.706 0
v 78.7544 -192.791 1.5185
v 65 -184.706 0
v 65 -315 0
v 78.7544 -315 1.5185
v 65 -184.706 0
v 65 -125 0
v 45 -125 0
v 45 -171.885 0
v 65 -184.706 0
v 45 -171.885 0
v 45 -315 0
v 65 -315 0
vn -0.353464 0 0.935448
vn -0.353464 6.93711e-17 0.935448
vn -0.46792 0 0.883771
vn -0.46792 1.64854e-16 0.883771
vn -0.574996 -3.49775e-16 0.818156
vn -0.574996 1.03944e-16 0.818156
vn -0.673004 0 0.739639
vn -0.673004 1.53284e-16 0.739639
vn -0.760399 0 0.649456
vn -0.760399 1.38848e-16 0.649456
vn -0.835801 0 0.549032
vn -0.835801 7.82901e-17 0.549032
vn -0.898023 0 0.439949
vn -0.898023 7.68278e-17 0.439949
vn -0.946082 0 0.323928
vn -0.946082 8.421e-17 0.323928
vn -0.979221 0 0.202798
vn -0.979221 9.01788e-17 0.202798
vn -0.996916 0 0.0784702
vn -0.996916 9.07947e-17 0.0784702
vn -0.99889 0 -0.0470954
vn -0.99889 9.34142e-17 -0.0470954
vn -0.985111 0 -0.171918
vn -0.985111 1.2634e-16 -0.171918
vn -0.955796 0 -0.29403
vn -0.955796 1.53472e-16 -0.29403
vn -0.911408 0 -0.411504
vn -0.911408 1.78003e-16 -0.411504
vn -0.852646 0 -0.522489
vn -0.852646 1.14909e-16 -0.522489
vn -0.780437 0 -0.625234
vn -0.780437 3.25525e-17 -0.625234
vn -0.695921 3.0997e-16 -0.718119
vn -0.695921 0 -0.718119
vn -0.780437 2.53078e-16 -0.625234
vn -0.780437 0 -0.625234
vn -0.852646 0 -0.522489
vn -0.852646 0 -0.522489
vn -0.911408 0 -0.411504
vn -0.911408 0 -0.411504
vn -0.955525 0 -0.29491
vn -0.955525 0 -0.29491
vn -0.984633 0 -0.174639
vn -0.984633 0 -0.174639
vn -0.998614 0 -0.052624
vn -0.998614 0 -0.052624
vn -0.997598 0 0.0692659
vn -0.997598 0 0.0692659
vn -0.981934 0 0.189223
vn -0.981934 -5.94997e-17 0.189223
vn -0.952185 -8.2914e-17 0.305523
vn -0.952185 0 0.305523
vn -0.909098 -1.89364e-16 0.416583
vn -0.909098 -7.21958e-17 0.416583
vn -0.853589 -1.06109e-16 0.520947
vn -0.853589 0 0.520947
vn -0.78673 -4.25322e-17 0.617298
vn -0.78673 -1.49438e-16 0.617298
vn -0.709698 -5.11945e-17 0.704506
vn -0.709698 0 0.704506
vn -0.623787 -2.85564e-17 0.781594
vn -0.623787 -3.17513e-17 0.781594
vn -0.530346 0 0.847781
vn -0.530346 -7.03802e-17 0.847781
vn -0.430781 2.15531e-17 0.902456
vn -0.430781 -2.8513e-17 0.902456
vn -0.326529 2.5329e-17 0.945187
vn -0.326529 8.83851e-18 0.945187
vn -0.219042 1.36433e-17 0.975715
vn -0.219042 -1.68064e-17 0.975715
vn -0.109734 6.51129e-18 0.993961
vn -0.109734 0 0.993961
vn 0 0 1
vn 0 0 1
f 1//1 2//1 3//1 4//1 
f 5//2 6//2 7//2 8//2 
f 9//3 10//3 11//3 12//3 
f 13//4 14//4 15//4 16//4 
f 17//5 18//5 19//5 20//5 
f 21//6 22//6 23//6 24//6 
f 25//7 26//7 27//7 28//7 
f 29//8 30//8 31//8 32//8 
f 33//9 34//9 35//9 36//9 
f 37//10 38//10 39//10 40//10 
f 41//11 42//11 43//11 44//11 
f 45//12 46//12 47//12 48//12 
f 49//13 50//13 51//13 52//13 
f 53//14 54//14 55//14 56//14 
f 57//15 58//15 59//15 60//15 
f 61//16 62//16 63//16 64//16 
f 65//17 66//17 67//17 68//17 
f 69//18 70//18 71//18 72//18 
f 73//19 74//19 75//19 76//19 
f 77//20 78//20 79//20 80//20 
f 81//21 82//21 83//21 84//21 
f 85//22 86//22 87//22 88//22 
f 89//23 90//23 91//23 92//23 
f 93//24 94//24 95//24 96//24 
f 97//25 98//25 99//25 100//25 
f 101//26 102//26 103//26 104//26 
f 105//27 106//27 107//27 108//27 
f 109//28 110//28 111//28 112//28 
f 113//29 114//29 115//29 116//29 
f 117//30 118//30 119//30 120//30 
f 121//31 122//31 123//31 124//31 
f 125//32 126//32 127//32 128//32 
f 129//33 130//33 131//33 132//33 
f 133//34 134//34 135//34 136//34 
f 137//35 138//35 139//35 140//35 
f 141//36 142//36 143//36 144//36 
f 145//37 146//37 147//37 148//37 
f 149//38 150//38 151//38 152//38 
f 153//39 154//39 155//39 156//39 
f 157//40 158//40 159//40 160//40 
f 161//41 162//41 163//41 164//41 
f 165//42 166//42 167//42 168//42 
f 169//43 170//43 171//43 172//43 
f 173//44 174//44 175//44 176//44 
f 177//45 178//45 179//45 180//45 
f 181//46 182//46 183//46 184//46 
f 185//47 186//47 187//47 188//47 
f 189//48 190//48 191//48 192//48 
f 193//49 194//49 195//49 196//49 
f 197//50 198//50 199//50 200//50 
f 201//51 202//51 203//51 204//51 
f 205//52 206//52 207//52 208//52 
f 209//53 210//53 211//53 212//53 
f 213//54 214//54 215//54 216//54 
f 217//55 218//55 219//55 220//55 
f 221//56 222//56 223//56 224//56 
f 225//57 226//57 227//57 228//57 
f 229//58 230//58 231//58 232//58 
f 233//59 234//59 235//59 236//59 
f 237//60 238//60 239//60 240//60 
f 241//61 242//61 243//61 244//61 
f 245//62 246//62 247//62 248//62 
f 249//63 250//63 251//63 252//63 
f 253//64 254//64 255//64 256//64 
f 257//65 258//65 259//65 260//65 
f 261//66 262//66 263//66 264//66 
f 265//67 266//67 267//67 268//67 
f 269//68 270//68 271//68 272//68 
f 273//69 274//69 275//69 276//69 
f 277//70 278//70 279//70 280//70 
f 281//71 282//71 283//71 284//71 
f 285//72 286//72 287//72 288//72 
f 289//73 290//73 291//73 292//73 
f 293//74 294//74 295//74 296//74 
