v 199.532 -189.356 386.695
v 199.532 -125 386.695
v 179.948 -125 373.836
v 179.948 -180.442 373.836
v 199.532 -189.356 386.695
v 179.948 -180.442 373.836
v 179.948 -315 373.836
v 199.532 -315 386.695
v 179.948 -180.442 373.836
v 179.948 -125 373.836
v 168.579 -125 366.372
v 168.579 -175.267 366.372
v 179.948 -180.442 373.836
v 168.579 -175.267 366.372
v 168.579 -315 366.372
v 179.948 -315 373.836
v 168.579 -175.267 366.372
v 168.579 -125 366.372
v 157.211 -125 358.908
v 157.211 -170.092 358.908
v 168.579 -175.267 366.372
v 157.211 -170.092 358.908
v 157.211 -315 358.908
v 168.579 -315 366.372
v 157.211 -170.092 358.908
v 157.211 -125 358.908
v 145.705 -125 351.354
v 145.705 -164.854 351.354
v 157.211 -170.092 358.908
v 145.705 -164.854 351.354
v 145.705 -315 351.354
v 157.211 -315 358.908
v 145.705 -164.854 351.354
v 145.705 -125 351.354
v 134.336 -125 343.889
v 134.336 -159.679 343.889
v 145.705 -164.854 351.354
v 134.336 -159.679 343.889
v 134.336 -315 343.889
v 145.705 -315 351.354
v 134.336 -159.679 343.889
v 134.336 -125 343.889
v 129.098 -125 331.229
v 129.098 -159.129 331.229
v 134.336 -159.679 343.889
v 129.098 -159.129 331.229
v 129.098 -315 331.229
v 134.336 -315 343.889
v 129.098 -159.129 331.229
v 129.098 -125 331.229
v 123.796 -125 318.416
v 123.796 -158.573 318.416
v 129.098 -159.129 331.229
v 123.796 -158.573 318.416
v 123.796 -315 318.416
v 129.098 -315 331.229
v 123.796 -158.573 318.416
v 123.796 -125 318.416
v 118.557 -125 305.755
v 118.557 -158.024 305.755
v 123.796 -158.573 318.416
v 118.557 -158.024 305.755
v 118.557 -315 305.755
v 123.796 -315 318.416
v 118.557 -158.024 305.755
v 118.557 -125 305.755
v 113.255 -125 292.942
v 113.255 -157.467 292.942
v 118.557 -158.024 305.755
v 113.255 -157.467 292.942
v 113.255 -315 292.942
v 118.557 -315 305.755
v 113.255 -157.467 292.942
v 113.255 -125 292.942
v 113.038 -125 279.133
v 113.038 -159.966 279.133
v 113.255 -157.467 292.942
v 113.038 -159.966 279.133
v 113.038 -315 279.133
v 113.255 -315 292.942
v 113.038 -159.966 279.133
v 113.038 -125 279.133
v 112.821 -125 265.324
v 112.821 -162.465 265.324
v 113.038 -159.966 279.133
v 112.821 -162.465 265.324
v 112.821 -315 265.324
v 113.038 -315 279.133
v 112.821 -162.465 265.324
v 112.821 -125 265.324
v 117.944 -125 252.76
v 117.944 -167.569 252.76
v 112.821 -162.465 265.324
v 117.944 -167.569 252.76
v 117.944 -315 252.76
v 112.821 -315 265.324
v 117.944 -167.569 252.76
v 117.944 -125 252.76
v 123.007 -125 240.346
v 123.007 -172.612 240.346
v 117.944 -167.569 252.76
v 123.007 -172.612 240.346
v 123.007 -315 240.346
v 117.944 -315 252.76
v 123.007 -172.612 240.346
v 123.007 -125 240.346
v 128.069 -125 227.932
v 128.069 -177.654 227.932
v 123.007 -172.612 240.346
v 128.069 -177.654 227.932
v 128.069 -315 227.932
v 123.007 -315 240.346
v 128.069 -177.654 227.932
v 128.069 -125 227.932
v 133.192 -125 215.368
v 133.192 -182.758 215.368
v 128.069 -177.654 227.932
v 133.192 -182.758 215.368
v 133.192 -315 215.368
v 128.069 -315 227.932
v 133.192 -182.758 215.368
v 133.192 -125 215.368
v 138.255 -125 202.954
v 138.255 -187.8 202.954
v 133.192 -182.758 215.368
v 138.255 -187.8 202.954
v 138.255 -315 202.954
v 133.192 -315 215.368
v 138.255 -187.8 202.954
v 138.255 -125 202.954
v 143.317 -125 190.54
v 143.317 -192.843 190.54
v 138.255 -187.8 202.954
v 143.317 -192.843 190.54
v 143.317 -315 190.54
v 138.255 -315 202.954
v 143.317 -192.843 190.54
v 143.317 -125 190.54
v 148.44 -125 177.977
v 148.44 -197.947 177.977
v 143.317 -192.843 190.54
v 148.44 -197.947 177.977
v 148.44 -315 177.977
v 143.317 -315 190.54
v 148.44 -197.947 177.977
v 148.44 -125 177.977
v 153.503 -125 165.562
v 153.503 -202.989 165.562
v 148.44 -197.947 177.977
v 153.503 -202.989 165.562
v 153.503 -315 165.562
v 148.44 -315 177.977
v 153.503 -202.989 165.562
v 153.503 -125 165.562
v 158.565 -125 153.148
v 158.565 -208.032 153.148
v 153.503 -202.989 165.562
v 158.565 -208.032 153.148
v 158.565 -315 153.148
v 153.503 -315 165.562
v 158.565 -208.032 153.148
v 158.565 -125 153.148
v 163.627 -125 140.734
v 163.627 -213.075 140.734
v 158.565 -208.032 153.148
v 163.627 -213.075 140.734
v 163.627 -315 140.734
v 158.565 -315 153.148
v 163.627 -213.075 140.734
v 163.627 -125 140.734
v 168.751 -125 128.171
v 168.751 -218.178 128.171
v 163.627 -213.075 140.734
v 168.751 -218.178 128.171
v 168.751 -315 128.171
v 163.627 -315 140.734
v 168.751 -218.178 128.171
v 168.751 -125 128.171
v 173.813 -125 115.757
v 173.813 -223.221 115.757
v 168.751 -218.178 128.171
v 173.813 -223.221 115.757
v 173.813 -315 115.757
v 168.751 -315 128.171
v 173.813 -223.221 115.757
v 173.813 -125 115.757
v 178.875 -125 103.343
v 178.875 -228.264 103.343
v 173.813 -223.221 115.757
v 178.875 -228.264 103.343
v 178.875 -315 103.343
v 173.813 -315 115.757
v 178.875 -228.264 103.343
v 178.875 -125 103.343
v 173.861 -125 90.3999
v 173.861 -228.229 90.3999
v 178.875 -228.264 103.343
v 173.861 -228.229 90.3999
v 173.861 -315 90.3999
v 178.875 -315 103.343
v 173.861 -228.229 90.3999
v 173.861 -125 90.3999
v 168.906 -125 77.6114
v 168.906 -228.195 77.6114
v 173.861 -228.229 90.3999
v 168.906 -228.195 77.6114
v 168.906 -315 77.6114
v 173.861 -315 90.3999
v 168.906 -228.195 77.6114
v 168.906 -125 77.6114
v 163.952 -125 64.8229
v 163.952 -228.161 64.8229
v 168.906 -228.195 77.6114
v 163.952 -228.161 64.8229
v 163.952 -315 64.8229
v 168.906 -315 77.6114
v 163.952 -228.161 64.8229
v 163.952 -125 64.8229
v 158.937 -125 51.8803
v 158.937 -228.126 51.8803
v 163.952 -228.161 64.8229
v 158.937 -228.126 51.8803
v 158.937 -315 51.8803
v 163.952 -315 64.8229
v 158.937 -228.126 51.8803
v 158.937 -125 51.8803
v 149.235 -125 42.1003
v 149.235 -224.754 42.1003
v 158.937 -228.126 51.8803
v 149.235 -224.754 42.1003
v 149.235 -315 42.1003
v 158.937 -315 51.8803
v 149.235 -224.754 42.1003
v 149.235 -125 42.1003
v 139.415 -125 32.2025
v 139.415 -221.341 32.2025
v 149.235 -224.754 42.1003
v 139.415 -221.341 32.2025
v 139.415 -315 32.2025
v 149.235 -315 42.1003
v 139.415 -221.341 32.2025
v 139.415 -125 32.2025
v 129.713 -125 22.4225
v 129.713 -217.97 22.4225
v 139.415 -221.341 32.2025
v 129.713 -217.97 22.4225
v 129.713 -315 22.4225
v 139.415 -315 32.2025
v 129.713 -217.97 22.4225
v 129.713 -125 22.4225
v 116.594 -125 18.9501
v 116.594 -210.833 18.9501
v 129.713 -217.97 22.4225
v 116.594 -210.833 18.9501
v 116.594 -315 18.9501
v 129.713 -315 22.4225
v 116.594 -210.833 18.9501
v 116.594 -125 18.9501
v 103.475 -125 15.4777
v 103.475 -203.696 15.4777
v 116.594 -210.833 18.9501
v 103.475 -203.696 15.4777
v 103.475 -315 15.4777
v 116.594 -315 18.9501
v 103.475 -203.696 15.4777
v 103.475 -125 15.4777
v 90.1984 -125 11.9635
v 90.1984 -196.473 11.9635
v 103.475 -203.696 15.4777
v 90.1984 -196.473 11.9635
v 90.1984 -315 11.9635
v 103.475 -315 15.4777
v 90.1984 -196.473 11.9635
v 90.1984 -125 11.9635
v 77.0795 -125 8.49108
v 77.0795 -189.337 8.49108
v 90.1984 -196.473 11.9635
v 77.0795 -189.337 8.49108
v 77.0795 -315 8.49108
v 90.1984 -315 11.9635
v 77.0795 -189.337 8.49108
v 77.0795 -125 8.49108
v 63.9607 -125 5.01867
v 63.9607 -182.2 5.01867
v 77.0795 -189.337 8.49108
v 63.9607 -182.2 5.01867
v 63.9607 -315 5.01867
v 77.0795 -315 8.49108
v 63.9607 -182.2 5.01867
v 63.9607 -125 5.01867
v 45 -125 0
v 45 -171.885 0
v 63.9607 -182.2 5.01867
v 45 -171.885 0
v 45 -315 0
v 63.9607 -315 5.01867
vn -0.54884 0 0.835928
vn -0.54884 5.04881e-16 0.835928
vn -0.54884 -5.49729e-16 0.835928
vn -0.54884 1.57036e-16 0.835928
vn -0.54884 -6.06324e-16 0.835928
vn -0.54884 3.60542e-17 0.835928
vn -0.54884 1.59695e-17 0.835928
vn -0.54884 -2.75058e-16 0.835928
vn -0.54884 8.0087e-16 0.835928
vn -0.54884 1.00912e-16 0.835928
vn -0.924019 0 0.382346
vn -0.924019 -1.33079e-17 0.382346
vn -0.924019 1.71879e-16 0.382346
vn -0.924019 -1.31027e-16 0.382346
vn -0.924019 5.97524e-16 0.382346
vn -0.924019 -1.98213e-17 0.382346
vn -0.924019 2.28297e-16 0.382346
vn -0.924019 8.45699e-17 0.382346
vn -0.999876 0 0.0157184
vn -0.999876 -1.94966e-17 0.0157184
vn -0.999876 -1.20646e-16 0.0157184
vn -0.999876 9.31773e-17 0.0157184
vn -0.925968 0 -0.377601
vn -0.925968 -6.39372e-17 -0.377601
vn -0.925968 -1.61977e-16 -0.377601
vn -0.925968 -7.81657e-17 -0.377601
vn -0.925968 5.62929e-17 -0.377601
vn -0.925968 2.70119e-17 -0.377601
vn -0.925968 -3.7871e-16 -0.377601
vn -0.925968 -1.10881e-16 -0.377601
vn -0.925968 3.34158e-16 -0.377601
vn -0.925968 -2.49999e-17 -0.377601
vn -0.925968 -1.3016e-16 -0.377601
vn -0.925968 -9.54502e-17 -0.377601
vn -0.925968 2.06538e-17 -0.377601
vn -0.925968 -8.05303e-17 -0.377601
vn -0.925968 -9.7875e-17 -0.377601
vn -0.925968 -7.09748e-17 -0.377601
vn -0.925968 3.12311e-17 -0.377601
vn -0.925968 7.92755e-17 -0.377601
vn -0.925968 3.3236e-16 -0.377601
vn -0.925968 1.55996e-16 -0.377601
vn -0.925968 5.64939e-17 -0.377601
vn -0.925968 2.16351e-17 -0.377601
vn -0.925968 -9.03496e-17 -0.377601
vn -0.925968 5.6592e-16 -0.377601
vn -0.925968 -2.06752e-16 -0.377601
vn -0.925968 0 -0.377601
vn -0.932463 0 0.361267
vn -0.932463 -1.7699e-16 0.361267
vn -0.932463 -1.56915e-17 0.361267
vn -0.932463 -2.08893e-16 0.361267
vn -0.932463 2.05563e-16 0.361267
vn -0.932463 -3.51995e-16 0.361267
vn -0.932463 1.78134e-16 0.361267
vn -0.932463 0 0.361267
vn -0.709916 -4.85257e-17 0.704287
vn -0.709916 2.28608e-17 0.704287
vn -0.709916 -1.45241e-16 0.704287
vn -0.709916 5.4414e-17 0.704287
vn -0.709916 8.22968e-17 0.704287
vn -0.709916 -2.12624e-17 0.704287
vn -0.255877 0 0.966709
vn -0.255877 1.50793e-17 0.966709
vn -0.255877 -8.15825e-17 0.966709
vn -0.255877 -1.88165e-17 0.966709
vn -0.255877 -4.08348e-17 0.966709
vn -0.255877 8.72977e-18 0.966709
vn -0.255877 -2.58856e-17 0.966709
vn -0.255877 -6.24989e-17 0.966709
vn -0.255877 5.369e-17 0.966709
vn -0.255877 -2.36561e-17 0.966709
vn -0.255877 -2.34783e-17 0.966709
vn -0.255877 0 0.966709
f 1//1 2//1 3//1 4//1 
f 5//2 6//2 7//2 8//2 
f 9//3 10//3 11//3 12//3 
f 13//4 14//4 15//4 16//4 
f 17//5 18//5 19//5 20//5 
f 21//6 22//6 23//6 24//6 
f 25//7 26//7 27//7 28//7 
f 29//8 30//8 31//8 32//8 
f 33//9 34//9 35//9 36//9 
f 37//10 38//10 39//10 40//10 
f 41//11 42//11 43//11 44//11 
f 45//12 46//12 47//12 48//12 
f 49//13 50//13 51//13 52//13 
f 53//14 54//14 55//14 56//14 
f 57//15 58//15 59//15 60//15 
f 61//16 62//16 63//16 64//16 
f 65//17 66//17 67//17 68//17 
f 69//18 70//18 71//18 72//18 
f 73//19 74//19 75//19 76//19 
f 77//20 78//20 79//20 80//20 
f 81//21 82//21 83//21 84//21 
f 85//22 86//22 87//22 88//22 
f 89//23 90//23 91//23 92//23 
f 93//24 94//24 95//24 96//24 
f 97//25 98//25 99//25 100//25 
f 101//26 102//26 103//26 104//26 
f 105//27 106//27 107//27 108//27 
f 109//28 110//28 111//28 112//28 
f 113//29 114//29 115//29 116//29 
f 117//30 118//30 119//30 120//30 
f 121//31 122//31 123//31 124//31 
f 125//32 126//32 127//32 128//32 
f 129//33 130//33 131//33 132//33 
f 133//34 134//34 135//34 136//34 
f 137//35 138//35 139//35 140//35 
f 141//36 142//36 143//36 144//36 
f 145//37 146//37 147//37 148//37 
f 149//38 150//38 151//38 152//38 
f 153//39 154//39 155//39 156//39 
f 157//40 158//40 159//40 160//40 
f 161//41 162//41 163//41 164//41 
f 165//42 166//42 167//42 168//42 
f 169//43 170//43 171//43 172//43 
f 173//44 174//44 175//44 176//44 
f 177//45 178//45 179//45 180//45 
f 181//46 182//46 183//46 184//46 
f 185//47 186//47 187//47 188//47 
f 189//48 190//48 191//48 192//48 
f 193//49 194//49 195//49 196//49 
f 197//50 198//50 199//50 200//50 
f 201//51 202//51 203//51 204//51 
f 205//52 206//52 207//52 208//52 
f 209//53 210//53 211//53 212//53 
f 213//54 214//54 215//54 216//54 
f 217//55 218//55 219//55 220//55 
f 221//56 222//56 223//56 224//56 
f 225//57 226//57 227//57 228//57 
f 229//58 230//58 231//58 232//58 
f 233//59 234//59 235//59 236//59 
f 237//60 238//60 239//60 240//60 
f 241//61 242//61 243//61 244//61 
f 245//62 246//62 247//62 248//62 
f 249//63 250//63 251//63 252//63 
f 253//64 254//64 255//64 256//64 
f 257//65 258//65 259//65 260//65 
f 261//66 262//66 263//66 264//66 
f 265//67 266//67 267//67 268//67 
f 269//68 270//68 271//68 272//68 
f 273//69 274//69 275//69 276//69 
f 277//70 278//70 279//70 280//70 
f 281//71 282//71 283//71 284//71 
f 285//72 286//72 287//72 288//72 
f 289//73 290//73 291//73 292//73 
f 293//74 294//74 295//74 296//74 
