v 114.947 -160.976 -85.7749
v 105 -246.617 0
v 291.665 -195.004 -4.7368e-15
v 175.323 -155.923 -73.7286
v 337.389 -164.095 188.325
v 175.323 -155.923 -73.7286
v 291.665 -195.004 -4.7368e-15
v 421.603 -223.541 134.389
v 413.217 -314.406 155.496
v 421.603 -223.541 134.389
v 291.665 -195.004 -4.7368e-15
v 245 -335 0
v 105 -335 0
v 245 -335 0
v 291.665 -195.004 -4.7368e-15
v 105 -246.617 0
vn -0.195011 0.705286 0.681574
vn -0.446712 -0.859192 0.249474
vn -0.676068 0.225356 0.701531
vn 0 3.38354e-17 1
f 1//1 2//1 3//1 4//1 
f 5//2 6//2 7//2 8//2 
f 9//3 10//3 11//3 12//3 
f 13//4 14//4 15//4 16//4 
