v 105 -85 0
v 105 -228.91 0
v 115 -235.464 0
v 115 -85 0
v 161.642 -85 -295.863
v 141.356 -85 -284.917
v 141.356 -201.499 -284.917
v 161.642 -217.266 -295.863
v 161.642 -365 -295.863
v 161.642 -217.266 -295.863
v 141.356 -201.499 -284.917
v 141.356 -365 -284.917
v 105 -365 0
v 115 -365 0
v 115 -235.464 0
v 105 -228.91 0
v 115 -365 0
v 127.874 -365 -2.14281
v 127.874 -242.914 -2.14281
v 115 -235.464 0
v 115 -85 0
v 115 -235.464 0
v 127.874 -242.914 -2.14281
v 127.874 -85 -2.14281
v 127.874 -365 -2.14281
v 140.221 -365 -6.37026
v 140.221 -249.089 -6.37026
v 127.874 -242.914 -2.14281
v 127.874 -85 -2.14281
v 127.874 -242.914 -2.14281
v 140.221 -249.089 -6.37026
v 140.221 -85 -6.37026
v 140.221 -365 -6.37026
v 151.819 -365 -12.6278
v 151.819 -254.009 -12.6278
v 140.221 -249.089 -6.37026
v 140.221 -85 -6.37026
v 140.221 -249.089 -6.37026
v 151.819 -254.009 -12.6278
v 151.819 -85 -12.6278
v 151.819 -365 -12.6278
v 162.131 -365 -20.6268
v 162.131 -257.567 -20.6268
v 151.819 -254.009 -12.6278
v 151.819 -85 -12.6278
v 151.819 -254.009 -12.6278
v 162.131 -257.567 -20.6268
v 162.131 -85 -20.6268
v 162.131 -365 -20.6268
v 171.076 -365 -30.3035
v 171.076 -259.829 -30.3035
v 162.131 -257.567 -20.6268
v 162.131 -85 -20.6268
v 162.131 -257.567 -20.6268
v 171.076 -259.829 -30.3035
v 171.076 -85 -30.3035
v 171.076 -365 -30.3035
v 178.241 -365 -41.2117
v 178.241 -260.762 -41.2117
v 171.076 -259.829 -30.3035
v 171.076 -85 -30.3035
v 171.076 -259.829 -30.3035
v 178.241 -260.762 -41.2117
v 178.241 -85 -41.2117
v 178.241 -365 -41.2117
v 183.57 -365 -53.2641
v 183.57 -260.411 -53.2641
v 178.241 -260.762 -41.2117
v 178.241 -85 -41.2117
v 178.241 -260.762 -41.2117
v 183.57 -260.411 -53.2641
v 183.57 -85 -53.2641
v 183.57 -365 -53.2641
v 186.815 -365 -65.9051
v 186.815 -258.828 -65.9051
v 183.57 -260.411 -53.2641
v 183.57 -85 -53.2641
v 183.57 -260.411 -53.2641
v 186.815 -258.828 -65.9051
v 186.815 -85 -65.9051
v 186.815 -365 -65.9051
v 187.952 -365 -79.0337
v 187.952 -256.05 -79.0337
v 186.815 -258.828 -65.9051
v 186.815 -85 -65.9051
v 186.815 -258.828 -65.9051
v 187.952 -256.05 -79.0337
v 187.952 -85 -79.0337
v 187.952 -365 -79.0337
v 186.928 -365 -92.0445
v 186.928 -252.22 -92.0445
v 187.952 -256.05 -79.0337
v 187.952 -85 -79.0337
v 187.952 -256.05 -79.0337
v 186.928 -252.22 -92.0445
v 186.928 -85 -92.0445
v 186.928 -365 -92.0445
v 183.782 -365 -104.711
v 183.782 -247.432 -104.711
v 186.928 -252.22 -92.0445
v 186.928 -85 -92.0445
v 186.928 -252.22 -92.0445
v 183.782 -247.432 -104.711
v 183.782 -85 -104.711
v 183.782 -365 -104.711
v 178.548 -365 -116.804
v 178.548 -241.771 -116.804
v 183.782 -247.432 -104.711
v 183.782 -85 -104.711
v 183.782 -247.432 -104.711
v 178.548 -241.771 -116.804
v 178.548 -85 -116.804
v 178.548 -365 -116.804
v 171.469 -365 -127.769
v 171.469 -235.514 -127.769
v 178.548 -241.771 -116.804
v 178.548 -85 -116.804
v 178.548 -241.771 -116.804
v 171.469 -235.514 -127.769
v 171.469 -85 -127.769
v 171.469 -365 -127.769
v 162.6 -365 -137.515
v 162.6 -228.734 -137.515
v 171.469 -235.514 -127.769
v 171.469 -85 -127.769
v 171.469 -235.514 -127.769
v 162.6 -228.734 -137.515
v 162.6 -85 -137.515
v 162.6 -365 -137.515
v 152.351 -365 -145.595
v 152.351 -221.773 -145.595
v 162.6 -228.734 -137.515
v 162.6 -85 -137.515
v 162.6 -228.734 -137.515
v 152.351 -221.773 -145.595
v 152.351 -85 -145.595
v 152.351 -365 -145.595
v 140.803 -365 -151.943
v 140.803 -214.727 -151.943
v 152.351 -221.773 -145.595
v 152.351 -85 -145.595
v 152.351 -221.773 -145.595
v 140.803 -214.727 -151.943
v 140.803 -85 -151.943
v 140.803 -365 -151.943
v 130.554 -365 -160.023
v 130.554 -207.964 -160.023
v 140.803 -214.727 -151.943
v 140.803 -85 -151.943
v 140.803 -214.727 -151.943
v 130.554 -207.964 -160.023
v 130.554 -85 -160.023
v 130.554 -365 -160.023
v 121.685 -365 -169.77
v 121.685 -201.588 -169.77
v 130.554 -207.964 -160.023
v 130.554 -85 -160.023
v 130.554 -207.964 -160.023
v 121.685 -201.588 -169.77
v 121.685 -85 -169.77
v 121.685 -365 -169.77
v 114.606 -365 -180.734
v 114.606 -195.947 -180.734
v 121.685 -201.588 -169.77
v 121.685 -85 -169.77
v 121.685 -201.588 -169.77
v 114.606 -195.947 -180.734
v 114.606 -85 -180.734
v 114.606 -365 -180.734
v 109.423 -365 -192.712
v 109.423 -191.183 -192.712
v 114.606 -195.947 -180.734
v 114.606 -85 -180.734
v 114.606 -195.947 -180.734
v 109.423 -191.183 -192.712
v 109.423 -85 -192.712
v 109.423 -365 -192.712
v 106.246 -365 -205.501
v 106.246 -187.451 -205.501
v 109.423 -191.183 -192.712
v 109.423 -85 -192.712
v 109.423 -191.183 -192.712
v 106.246 -187.451 -205.501
v 106.246 -85 -205.501
v 106.246 -365 -205.501
v 105.222 -365 -218.511
v 105.222 -184.984 -218.511
v 106.246 -187.451 -205.501
v 106.246 -85 -205.501
v 106.246 -187.451 -205.501
v 105.222 -184.984 -218.511
v 105.222 -85 -218.511
v 105.222 -365 -218.511
v 106.359 -365 -231.64
v 106.359 -183.868 -231.64
v 105.222 -184.984 -218.511
v 105.222 -85 -218.511
v 105.222 -184.984 -218.511
v 106.359 -183.868 -231.64
v 106.359 -85 -231.64
v 106.359 -365 -231.64
v 109.605 -365 -244.281
v 109.605 -184.226 -244.281
v 106.359 -183.868 -231.64
v 106.359 -85 -231.64
v 106.359 -183.868 -231.64
v 109.605 -184.226 -244.281
v 109.605 -85 -244.281
v 109.605 -365 -244.281
v 114.933 -365 -256.333
v 114.933 -186.142 -256.333
v 109.605 -184.226 -244.281
v 109.605 -85 -244.281
v 109.605 -184.226 -244.281
v 114.933 -186.142 -256.333
v 114.933 -85 -256.333
v 114.933 -365 -256.333
v 122.098 -365 -267.242
v 122.098 -189.629 -267.242
v 114.933 -186.142 -256.333
v 114.933 -85 -256.333
v 114.933 -186.142 -256.333
v 122.098 -189.629 -267.242
v 122.098 -85 -267.242
v 122.098 -365 -267.242
v 131.043 -365 -276.918
v 131.043 -194.778 -276.918
v 122.098 -189.629 -267.242
v 122.098 -85 -267.242
v 122.098 -189.629 -267.242
v 131.043 -194.778 -276.918
v 131.043 -85 -276.918
v 131.043 -365 -276.918
v 141.356 -365 -284.917
v 141.356 -201.499 -284.917
v 131.043 -194.778 -276.918
v 131.043 -85 -276.918
v 131.043 -194.778 -276.918
v 141.356 -201.499 -284.917
v 141.356 -85 -284.917
vn 0 0 1
vn 0.474856 1.16421e-16 0.880063
vn 0.474856 -3.65419e-16 0.880063
vn 0 0 1
vn 0.164187 -3.79051e-17 0.986429
vn 0.164187 1.55069e-17 0.986429
vn 0.323917 -4.697e-18 0.946085
vn 0.323917 1.59636e-17 0.946085
vn 0.474856 -3.88644e-17 0.880063
vn 0.474856 1.13368e-16 0.880063
vn 0.612907 -8.10826e-17 0.790155
vn 0.612907 3.81121e-17 0.790155
vn 0.734323 -6.15226e-17 0.678801
vn 0.734323 1.58037e-16 0.678801
vn 0.835807 4.1784e-17 0.549023
vn 0.835807 5.57837e-17 0.549023
vn 0.914607 6.18651e-17 0.404344
vn 0.914607 -7.81696e-19 0.404344
vn 0.968583 1.02557e-16 0.24869
vn 0.968583 -1.42624e-16 0.24869
vn 0.99627 -1.11353e-17 0.0862864
vn 0.99627 -4.93788e-17 0.0862864
vn 0.996917 -1.82234e-16 -0.0784591
vn 0.996917 -1.95552e-17 -0.0784591
vn 0.970506 2.77849e-17 -0.241075
vn 0.970506 -1.02437e-16 -0.241075
vn 0.917755 2.01278e-16 -0.397148
vn 0.917755 -3.47456e-17 -0.397148
vn 0.840094 3.61594e-16 -0.542442
vn 0.840094 -2.41062e-16 -0.542442
vn 0.739631 2.92815e-16 -0.673013
vn 0.739631 -2.03208e-16 -0.673013
vn 0.619094 2.8129e-16 -0.785317
vn 0.619094 -2.77706e-16 -0.785317
vn 0.481754 3.37285e-16 -0.876307
vn 0.481754 -2.82207e-16 -0.876307
vn 0.619094 3.67495e-16 -0.785317
vn 0.619094 -2.08472e-16 -0.785317
vn 0.739631 3.76158e-16 -0.673013
vn 0.739631 -1.40161e-16 -0.673013
vn 0.840094 3.22049e-16 -0.542442
vn 0.840094 -1.02399e-16 -0.542442
vn 0.917755 2.59975e-16 -0.397148
vn 0.917755 -1.17553e-16 -0.397148
vn 0.970506 1.54882e-16 -0.241075
vn 0.970506 8.30605e-19 -0.241075
vn 0.996917 1.03585e-16 -0.0784591
vn 0.996917 9.47493e-17 -0.0784591
vn 0.99627 1.04933e-16 0.0862864
vn 0.99627 1.90657e-16 0.0862864
vn 0.968583 1.53596e-16 0.24869
vn 0.968583 1.39221e-16 0.24869
vn 0.914607 1.62793e-16 0.404344
vn 0.914607 3.03391e-17 0.404344
vn 0.835807 4.96715e-17 0.549023
vn 0.835807 1.17434e-16 0.549023
vn 0.734323 1.90058e-17 0.678801
vn 0.734323 2.69047e-16 0.678801
vn 0.612907 -2.73048e-16 0.790155
vn 0.612907 2.50461e-16 0.790155
f 1//1 2//1 3//1 4//1 
f 5//2 6//2 7//2 8//2 
f 9//3 10//3 11//3 12//3 
f 13//4 14//4 15//4 16//4 
f 17//5 18//5 19//5 20//5 
f 21//6 22//6 23//6 24//6 
f 25//7 26//7 27//7 28//7 
f 29//8 30//8 31//8 32//8 
f 33//9 34//9 35//9 36//9 
f 37//10 38//10 39//10 40//10 
f 41//11 42//11 43//11 44//11 
f 45//12 46//12 47//12 48//12 
f 49//13 50//13 51//13 52//13 
f 53//14 54//14 55//14 56//14 
f 57//15 58//15 59//15 60//15 
f 61//16 62//16 63//16 64//16 
f 65//17 66//17 67//17 68//17 
f 69//18 70//18 71//18 72//18 
f 73//19 74//19 75//19 76//19 
f 77//20 78//20 79//20 80//20 
f 81//21 82//21 83//21 84//21 
f 85//22 86//22 87//22 88//22 
f 89//23 90//23 91//23 92//23 
f 93//24 94//24 95//24 96//24 
f 97//25 98//25 99//25 100//25 
f 101//26 102//26 103//26 104//26 
f 105//27 106//27 107//27 108//27 
f 109//28 110//28 111//28 112//28 
f 113//29 114//29 115//29 116//29 
f 117//30 118//30 119//30 120//30 
f 121//31 122//31 123//31 124//31 
f 125//32 126//32 127//32 128//32 
f 129//33 130//33 131//33 132//33 
f 133//34 134//34 135//34 136//34 
f 137//35 138//35 139//35 140//35 
f 141//36 142//36 143//36 144//36 
f 145//37 146//37 147//37 148//37 
f 149//38 150//38 151//38 152//38 
f 153//39 154//39 155//39 156//39 
f 157//40 158//40 159//40 160//40 
f 161//41 162//41 163//41 164//41 
f 165//42 166//42 167//42 168//42 
f 169//43 170//43 171//43 172//43 
f 173//44 174//44 175//44 176//44 
f 177//45 178//45 179//45 180//45 
f 181//46 182//46 183//46 184//46 
f 185//47 186//47 187//47 188//47 
f 189//48 190//48 191//48 192//48 
f 193//49 194//49 195//49 196//49 
f 197//50 198//50 199//50 200//50 
f 201//51 202//51 203//51 204//51 
f 205//52 206//52 207//52 208//52 
f 209//53 210//53 211//53 212//53 
f 213//54 214//54 215//54 216//54 
f 217//55 218//55 219//55 220//55 
f 221//56 222//56 223//56 224//56 
f 225//57 226//57 227//57 228//57 
f 229//58 230//58 231//58 232//58 
f 233//59 234//59 235//59 236//59 
f 237//60 238//60 239//60 240//60 
