v 75 -115 1.13781e-06
v 75 -214.754 6.83805e-07
v 117.914 -247.275 -6.95101
v 117.914 -115 -6.95101
v 16.5833 -115 -244.143
v -9.88104 -115 -222.902
v -9.88104 -219.8 -222.902
v 16.5832 -245.031 -244.143
v 16.5832 -365 -244.143
v 16.5832 -245.031 -244.143
v -9.88104 -219.8 -222.902
v -9.88104 -365 -222.902
v 75 -365 0
v 117.914 -365 -6.95101
v 117.914 -247.275 -6.95101
v 75 -214.754 6.83805e-07
v 117.914 -365 -6.95101
v 136.425 -365 -22.1419
v 136.425 -259.556 -22.1419
v 117.914 -247.275 -6.95101
v 117.914 -115 -6.95101
v 117.914 -247.275 -6.95101
v 136.425 -259.556 -22.1419
v 136.425 -115 -22.1419
v 136.425 -365 -22.1419
v 147.788 -365 -43.3736
v 147.788 -267.384 -43.3736
v 136.425 -259.556 -22.1419
v 136.425 -115 -22.1419
v 136.425 -259.556 -22.1419
v 147.788 -267.384 -43.3736
v 147.788 -115 -43.3736
v 147.788 -365 -43.3736
v 147.762 -365 -79.1374
v 147.762 -270.182 -79.1374
v 147.788 -267.384 -43.3736
v 147.788 -115 -43.3736
v 147.788 -267.384 -43.3736
v 147.762 -270.182 -79.1374
v 147.762 -115 -79.1374
v 147.762 -365 -79.1374
v 143.158 -365 -90.2523
v 143.158 -268.741 -90.2523
v 147.762 -270.182 -79.1374
v 147.762 -115 -79.1374
v 147.762 -270.182 -79.1374
v 143.158 -268.741 -90.2523
v 143.158 -115 -90.2523
v 143.158 -365 -90.2523
v 106.735 -365 -120.126
v 106.735 -252.49 -120.126
v 143.158 -268.741 -90.2523
v 143.158 -115 -90.2523
v 143.158 -268.741 -90.2523
v 106.735 -252.49 -120.126
v 106.735 -115 -120.126
v 106.735 -365 -120.126
v 23.981 -365 -116.035
v 23.981 -207.875 -116.035
v 106.735 -252.49 -120.126
v 106.735 -115 -120.126
v 106.735 -252.49 -120.126
v 23.981 -207.875 -116.035
v 23.981 -115 -116.035
v 23.981 -365 -116.035
v 2.29218 -365 -126.541
v 2.29218 -199.386 -126.541
v 23.981 -207.875 -116.035
v 23.981 -115 -116.035
v 23.981 -207.875 -116.035
v 2.29218 -199.386 -126.541
v 2.29218 -115 -126.541
v 2.29218 -365 -126.541
v -14.1803 -365 -143.945
v -14.1803 -195.274 -143.945
v 2.29218 -199.386 -126.541
v 2.29218 -115 -126.541
v 2.29218 -199.386 -126.541
v -14.1803 -195.274 -143.945
v -14.1803 -115 -143.945
v -14.1803 -365 -143.945
v -25.0093 -365 -178.104
v -25.0093 -198.343 -178.104
v -14.1803 -195.274 -143.945
v -14.1803 -115 -143.945
v -14.1803 -195.274 -143.945
v -25.0093 -198.343 -178.104
v -25.0093 -115 -178.104
v -25.0093 -365 -178.104
v -24.3482 -365 -190.117
v -24.3482 -201.88 -190.117
v -25.0093 -198.343 -178.104
v -25.0093 -115 -178.104
v -25.0093 -198.343 -178.104
v -24.3482 -201.88 -190.117
v -24.3482 -115 -190.117
v -24.3482 -365 -190.117
v -9.88104 -365 -222.902
v -9.88104 -219.8 -222.902
v -24.3482 -201.88 -190.117
v -24.3482 -115 -190.117
v -24.3482 -201.88 -190.117
v -9.88104 -219.8 -222.902
v -9.88104 -115 -222.902
vn 0.15989 -4.49268e-09 0.987135
vn 0.625949 -8.94249e-09 0.779864
vn 0.625949 -7.63234e-09 0.779864
vn 0.15989 -3.36584e-10 0.987135
vn 0.634393 -1.7424e-09 0.77301
vn 0.634393 -8.8639e-09 0.77301
vn 0.881659 -4.12982e-09 0.471887
vn 0.881659 -5.41101e-09 0.471887
vn 1 -7.94204e-09 -0.000745761
vn 1 8.55114e-12 -0.000745751
vn 0.92388 -8.14978e-09 -0.382683
vn 0.92388 4.38813e-09 -0.382683
vn 0.634173 -7.38323e-09 -0.773191
vn 0.634173 8.86597e-09 -0.773191
vn -0.049381 -2.2762e-09 -0.99878
vn -0.049381 1.14527e-08 -0.99878
vn 0.435949 -6.00501e-09 -0.899971
vn 0.435949 1.03197e-08 -0.899971
vn 0.726275 -8.41847e-09 -0.687404
vn 0.726275 7.88228e-09 -0.687404
vn 0.953247 -1.10899e-08 -0.302191
vn 0.953247 3.46515e-09 -0.302191
vn 0.998489 -1.08037e-08 0.0549502
vn 0.998489 -6.30099e-10 0.0549502
vn 0.914884 -1.09417e-08 0.403717
vn 0.914884 -4.62931e-09 0.403717
f 1//1 2//1 3//1 4//1 
f 5//2 6//2 7//2 8//2 
f 9//3 10//3 11//3 12//3 
f 13//4 14//4 15//4 16//4 
f 17//5 18//5 19//5 20//5 
f 21//6 22//6 23//6 24//6 
f 25//7 26//7 27//7 28//7 
f 29//8 30//8 31//8 32//8 
f 33//9 34//9 35//9 36//9 
f 37//10 38//10 39//10 40//10 
f 41//11 42//11 43//11 44//11 
f 45//12 46//12 47//12 48//12 
f 49//13 50//13 51//13 52//13 
f 53//14 54//14 55//14 56//14 
f 57//15 58//15 59//15 60//15 
f 61//16 62//16 63//16 64//16 
f 65//17 66//17 67//17 68//17 
f 69//18 70//18 71//18 72//18 
f 73//19 74//19 75//19 76//19 
f 77//20 78//20 79//20 80//20 
f 81//21 82//21 83//21 84//21 
f 85//22 86//22 87//22 88//22 
f 89//23 90//23 91//23 92//23 
f 93//24 94//24 95//24 96//24 
f 97//25 98//25 99//25 100//25 
f 101//26 102//26 103//26 104//26 
