v 84.8558 -105.036 -1.88793
v 85 -154.848 -1.77636e-15
v 107.778 -246.131 -1.00477e-15
v 124.772 -234.704 -3.04981
v 101.001 -105.083 -4.36724
v 122.913 -128.516 -285.885
v 163.956 -127.943 -275.499
v 144.071 -268.015 -270.669
v 122.355 -280.745 -275.288
v 121.963 -387.886 -267.83
v 122.355 -280.745 -275.288
v 144.071 -268.015 -270.669
v 127.065 -387.815 -266.539
v 85 -365 0
v 137.439 -365 0
v 107.778 -246.131 -1.00477e-15
v 85 -262.313 -8.67989e-16
v 85 -154.848 -1.77636e-15
v 85 -262.313 -8.67989e-16
v 107.778 -246.131 -1.00477e-15
v 137.439 -365 0
v 148.673 -365.033 -1.72518
v 124.772 -234.704 -3.04981
v 107.778 -246.131 -1.00477e-15
v 148.673 -365.033 -1.72518
v 161.36 -365.177 -5.7348
v 142.769 -223.171 -9.53895
v 124.772 -234.704 -3.04981
v 101.001 -105.083 -4.36724
v 124.772 -234.704 -3.04981
v 142.769 -223.171 -9.53895
v 127.349 -105.382 -12.6943
v 161.36 -365.177 -5.7348
v 174.804 -365.511 -12.405
v 160.93 -212.203 -19.6
v 142.769 -223.171 -9.53895
v 127.349 -105.382 -12.6943
v 142.769 -223.171 -9.53895
v 160.93 -212.203 -19.6
v 151.317 -105.977 -24.5854
v 174.804 -365.511 -12.405
v 188.305 -366.1 -21.9448
v 178.434 -202.475 -33.137
v 160.93 -212.203 -19.6
v 151.317 -105.977 -24.5854
v 160.93 -212.203 -19.6
v 178.434 -202.475 -33.137
v 172.67 -106.909 -39.6739
v 188.305 -366.1 -21.9448
v 201.136 -366.989 -34.3798
v 194.457 -194.647 -49.8037
v 178.434 -202.475 -33.137
v 172.67 -106.909 -39.6739
v 178.434 -202.475 -33.137
v 194.457 -194.647 -49.8037
v 191.107 -108.187 -57.5414
v 201.136 -366.989 -34.3798
v 212.596 -368.195 -49.5583
v 208.251 -189.265 -69.0405
v 194.457 -194.647 -49.8037
v 191.107 -108.187 -57.5414
v 194.457 -194.647 -49.8037
v 208.251 -189.265 -69.0405
v 206.321 -109.787 -77.6941
v 212.596 -368.195 -49.5583
v 222.045 -369.705 -67.1694
v 219.213 -186.654 -90.145
v 208.251 -189.265 -69.0405
v 206.321 -109.787 -77.6941
v 208.251 -189.265 -69.0405
v 219.213 -186.654 -90.145
v 218.052 -111.663 -99.5575
v 222.045 -369.705 -67.1694
v 228.945 -371.482 -86.7682
v 226.925 -186.867 -112.353
v 219.213 -186.654 -90.145
v 218.052 -111.663 -99.5575
v 219.213 -186.654 -90.145
v 226.925 -186.867 -112.353
v 226.125 -113.742 -122.488
v 228.945 -371.482 -86.7682
v 232.877 -373.465 -107.808
v 231.167 -189.702 -134.913
v 226.925 -186.867 -112.353
v 226.125 -113.742 -122.488
v 226.925 -186.867 -112.353
v 231.167 -189.702 -134.913
v 230.48 -115.938 -145.793
v 232.877 -373.465 -107.808
v 233.564 -375.575 -129.678
v 231.905 -194.776 -157.128
v 231.167 -189.702 -134.913
v 230.48 -115.938 -145.793
v 231.167 -189.702 -134.913
v 231.905 -194.776 -157.128
v 231.202 -118.154 -168.761
v 233.564 -375.575 -129.678
v 230.869 -377.727 -151.736
v 229.263 -201.617 -178.387
v 231.905 -194.776 -157.128
v 231.202 -118.154 -168.761
v 231.905 -194.776 -157.128
v 229.263 -201.617 -178.387
v 228.522 -120.294 -190.694
v 230.869 -377.727 -151.736
v 224.792 -379.83 -173.353
v 223.496 -209.75 -198.175
v 229.263 -201.617 -178.387
v 228.522 -120.294 -190.694
v 229.263 -201.617 -178.387
v 223.496 -209.75 -198.175
v 222.83 -122.264 -210.943
v 224.792 -379.83 -173.353
v 215.453 -381.801 -193.939
v 214.953 -218.745 -216.078
v 223.496 -209.75 -198.175
v 222.83 -122.264 -210.943
v 223.496 -209.75 -198.175
v 214.953 -218.745 -216.078
v 214.663 -123.987 -228.944
v 215.453 -381.801 -193.939
v 203.056 -383.568 -212.978
v 204.042 -228.248 -231.795
v 214.953 -218.745 -216.078
v 214.663 -123.987 -228.944
v 214.953 -218.745 -216.078
v 204.042 -228.248 -231.795
v 204.695 -125.408 -244.253
v 203.056 -383.568 -212.978
v 187.851 -385.075 -230.044
v 191.188 -238.001 -245.134
v 204.042 -228.248 -231.795
v 204.695 -125.408 -244.253
v 204.042 -228.248 -231.795
v 191.188 -238.001 -245.134
v 193.717 -126.496 -256.575
v 187.851 -385.075 -230.044
v 170.069 -386.289 -244.811
v 176.775 -247.857 -256.024
v 191.188 -238.001 -245.134
v 193.717 -126.496 -256.575
v 191.188 -238.001 -245.134
v 176.775 -247.857 -256.024
v 182.617 -127.254 -265.793
v 170.069 -386.289 -244.811
v 149.838 -387.199 -257.04
v 161.067 -257.802 -264.498
v 176.775 -247.857 -256.024
v 182.617 -127.254 -265.793
v 176.775 -247.857 -256.024
v 161.067 -257.802 -264.498
v 172.356 -127.715 -271.995
v 149.838 -387.199 -257.04
v 127.065 -387.815 -266.539
v 144.071 -268.015 -270.669
v 161.067 -257.802 -264.498
v 172.356 -127.715 -271.995
v 161.067 -257.802 -264.498
v 144.071 -268.015 -270.669
v 163.956 -127.943 -275.499
vn 0.151781 0.0378735 0.987688
vn 0.245652 -0.0682117 -0.966955
vn 0.245652 -0.0682117 -0.966955
vn 0 8.45274e-18 1
vn 1.03128e-32 8.45274e-18 1
vn 0.151781 0.0378735 0.987688
vn 0.301393 0.0649407 0.951286
vn 0.301393 0.0649407 0.951286
vn 0.444568 0.0820958 0.891975
vn 0.444568 0.0820958 0.891975
vn 0.577353 0.0903352 0.811482
vn 0.577353 0.0903352 0.811482
vn 0.696296 0.0907057 0.712
vn 0.696296 0.0907057 0.712
vn 0.798458 0.0842941 0.59612
vn 0.798458 0.0842941 0.59612
vn 0.881435 0.072223 0.466751
vn 0.881435 0.072223 0.466751
vn 0.943367 0.055647 0.327051
vn 0.943367 0.055647 0.327051
vn 0.982953 0.0357489 0.180348
vn 0.982953 0.0357489 0.180348
vn 0.999454 0.0137353 0.0300584
vn 0.999454 0.0137353 0.0300584
vn 0.992685 -0.00916792 -0.120386
vn 0.992685 -0.00916792 -0.120386
vn 0.963004 -0.0317186 -0.267615
vn 0.963004 -0.0317186 -0.267615
vn 0.911287 -0.0526579 -0.408391
vn 0.911287 -0.0526579 -0.408391
vn 0.838901 -0.0707048 -0.539672
vn 0.838901 -0.0707048 -0.539672
vn 0.747671 -0.0845416 -0.658666
vn 0.747671 -0.0845416 -0.658666
vn 0.639851 -0.0927879 -0.762877
vn 0.639851 -0.0927879 -0.762877
vn 0.518105 -0.0939587 -0.850141
vn 0.518105 -0.0939587 -0.850141
vn 0.385517 -0.0864011 -0.918646
vn 0.385517 -0.0864011 -0.918646
f 1//1 2//1 3//1 4//1 5//1 
f 6//2 7//2 8//2 9//2 
f 10//3 11//3 12//3 13//3 
f 14//4 15//4 16//4 17//4 
f 18//5 19//5 20//5 
f 21//6 22//6 23//6 24//6 
f 25//7 26//7 27//7 28//7 
f 29//8 30//8 31//8 32//8 
f 33//9 34//9 35//9 36//9 
f 37//10 38//10 39//10 40//10 
f 41//11 42//11 43//11 44//11 
f 45//12 46//12 47//12 48//12 
f 49//13 50//13 51//13 52//13 
f 53//14 54//14 55//14 56//14 
f 57//15 58//15 59//15 60//15 
f 61//16 62//16 63//16 64//16 
f 65//17 66//17 67//17 68//17 
f 69//18 70//18 71//18 72//18 
f 73//19 74//19 75//19 76//19 
f 77//20 78//20 79//20 80//20 
f 81//21 82//21 83//21 84//21 
f 85//22 86//22 87//22 88//22 
f 89//23 90//23 91//23 92//23 
f 93//24 94//24 95//24 96//24 
f 97//25 98//25 99//25 100//25 
f 101//26 102//26 103//26 104//26 
f 105//27 106//27 107//27 108//27 
f 109//28 110//28 111//28 112//28 
f 113//29 114//29 115//29 116//29 
f 117//30 118//30 119//30 120//30 
f 121//31 122//31 123//31 124//31 
f 125//32 126//32 127//32 128//32 
f 129//33 130//33 131//33 132//33 
f 133//34 134//34 135//34 136//34 
f 137//35 138//35 139//35 140//35 
f 141//36 142//36 143//36 144//36 
f 145//37 146//37 147//37 148//37 
f 149//38 150//38 151//38 152//38 
f 153//39 154//39 155//39 156//39 
f 157//40 158//40 159//40 160//40 
