# Rhino

mtllib test.mtl
usemtl diffuse_0
v -24.666467666625977 0 13.902503967285156
v -24.666467666625977 27.724910736083984 13.902503967285156
v -23.113822937011719 0 12.467612266540527
v -23.113822937011719 27.724910736083984 12.467612266540527
v -21.501775741577148 0 11.135146141052246
v -21.501775741577148 27.724910736083984 11.135146141052246
v -18.126430511474609 0 8.7892322540283203
v -18.126430511474609 27.724910736083984 8.7892322540283203
v -16.376611709594727 0 7.7816543579101563
v -16.376611709594727 27.724910736083984 7.7816543579101563
v -14.594347953796387 0 6.8882441520690918
v -14.594347953796387 27.724910736083984 6.8882441520690918
v -12.786376953125 0 6.111936092376709
v -12.786376953125 27.724910736083984 6.111936092376709
v -10.959439277648926 0 5.4556655883789063
v -10.959439277648926 27.724910736083984 5.4556655883789063
v -9.1202735900878906 0 4.922368049621582
v -9.1202735900878906 27.724910736083984 4.922368049621582
v -7.2756195068359375 0 4.514979362487793
v -7.2756195068359375 27.724910736083984 4.514979362487793
v -5.432215690612793 0 4.2364344596862793
v -5.432215690612793 27.724910736083984 4.2364344596862793
v -3.5968019962310791 0 4.0896682739257813
v -3.5968019962310791 27.724910736083984 4.0896682739257813
v -1.776117205619812 0 4.0776171684265137
v -1.776117205619812 27.724910736083984 4.0776171684265137
v 0.023099508136510849 0 4.2032160758972168
v 0.023099508136510849 27.724910736083984 4.2032160758972168
v 1.7941087484359741 0 4.4693999290466309
v 1.7941087484359741 27.724910736083984 4.4693999290466309
v 3.5301713943481445 0 4.8791046142578125
v 3.5301713943481445 27.724910736083984 4.8791046142578125
v 5.22454833984375 0 5.4352655410766602
v 5.22454833984375 27.724910736083984 5.4352655410766602
v 6.8705000877380371 0 6.1408176422119141
v 6.8705000877380371 27.724910736083984 6.1408176422119141
v 8.4612884521484375 0 6.9986968040466309
v 8.4612884521484375 27.724910736083984 6.9986968040466309
v 9.9901723861694336 0 8.0118379592895508
v 9.9901723861694336 27.724910736083984 8.0118379592895508
v 11.450413703918457 0 9.1831769943237305
v 11.450413703918457 27.724910736083984 9.1831769943237305
v 12.835273742675781 0 10.51564884185791
v 12.835273742675781 27.724910736083984 10.51564884185791
v 14.138012886047363 0 12.012188911437988
v 14.138012886047363 27.724910736083984 12.012188911437988
v 15.35189151763916 0 13.675732612609863
v 15.35189151763916 27.724910736083984 13.675732612609863
v 16.470170974731445 0 15.50921630859375
v 16.470170974731445 27.724910736083984 15.50921630859375
v 17.486110687255859 0 17.515573501586914
v 17.486110687255859 27.724910736083984 17.515573501586914
v 18.392974853515625 0 19.69774055480957
v 18.392974853515625 27.724910736083984 19.69774055480957
v 19.184019088745117 0 22.058652877807617
v 19.184019088745117 27.724910736083984 22.058652877807617
v 19.852510452270508 0 24.601245880126953
v 19.852510452270508 27.724910736083984 24.601245880126953
v 20.391704559326172 0 27.328454971313477
v 20.391704559326172 27.724910736083984 27.328454971313477
v 20.794862747192383 0 30.243215560913086
v 20.794862747192383 27.724910736083984 30.243215560913086
v 21.055248260498047 0 33.348461151123047
v 21.055248260498047 27.724910736083984 33.348461151123047
vt 0 0
vt 0 1
vt 0.03125 0
vt 0.03125 1
vt 0.0625 0
vt 0.0625 1
vt 0.125 0
vt 0.125 1
vt 0.15625 0
vt 0.15625 1
vt 0.1875 0
vt 0.1875 1
vt 0.21875 0
vt 0.21875 1
vt 0.25 0
vt 0.25 1
vt 0.28125 0
vt 0.28125 1
vt 0.3125 0
vt 0.3125 1
vt 0.34375 0
vt 0.34375 1
vt 0.375 0
vt 0.375 1
vt 0.40625 0
vt 0.40625 1
vt 0.4375 0
vt 0.4375 1
vt 0.46875 0
vt 0.46875 1
vt 0.5 0
vt 0.5 1
vt 0.53125 0
vt 0.53125 1
vt 0.5625 0
vt 0.5625 1
vt 0.59375 0
vt 0.59375 1
vt 0.625 0
vt 0.625 1
vt 0.65625 0
vt 0.65625 1
vt 0.6875 0
vt 0.6875 1
vt 0.71875 0
vt 0.71875 1
vt 0.75 0
vt 0.75 1
vt 0.78125 0
vt 0.78125 1
vt 0.8125 0
vt 0.8125 1
vt 0.84375 0
vt 0.84375 1
vt 0.875 0
vt 0.875 1
vt 0.90625 0
vt 0.90625 1
vt 0.9375 0
vt 0.9375 1
vt 0.96875 0
vt 0.96875 1
vt 1 0
vt 1 1
vn 0.69868975877761841 0 0.71542483568191528
vn 0.69868975877761841 0 0.71542483568191528
vn 0.65813618898391724 0 0.7528989315032959
vn 0.65813618898391724 0 0.7528989315032959
vn 0.61546903848648071 0 0.78816109895706177
vn 0.61546903848648071 0 0.78816109895706177
vn 0.5234677791595459 0 0.85204547643661499
vn 0.5234677791595459 0 0.85204547643661499
vn 0.47388070821762085 0 0.8805890679359436
vn 0.47388070821762085 0 0.8805890679359436
vn 0.4216841459274292 0 0.90674281120300293
vn 0.4216841459274292 0 0.90674281120300293
vn 0.36668801307678223 0 0.93034398555755615
vn 0.36668801307678223 0 0.93034398555755615
vn 0.30869501829147339 0 0.95116108655929565
vn 0.30869501829147339 0 0.95116108655929565
vn 0.24751684069633484 0 0.96888357400894165
vn 0.24751684069633484 0 0.96888357400894165
vn 0.18299652636051178 0 0.98311358690261841
vn 0.18299652636051178 0 0.98311358690261841
vn 0.11503719538450241 0 0.99336117506027222
vn 0.11503719538450241 0 0.99336117506027222
vn 0.043638125061988831 0 0.99904739856719971
vn 0.043638125061988831 0 0.99904739856719971
vn -0.031062973663210869 0 0.99951744079589844
vn -0.031062973663210869 0 0.99951744079589844
vn -0.10874450206756592 0 0.99406975507736206
vn -0.10874450206756592 0 0.99406975507736206
vn -0.18885856866836548 0 0.98200428485870361
vn -0.18885856866836548 0 0.98200428485870361
vn -0.27060112357139587 0 0.9626915454864502
vn -0.27060112357139587 0 0.9626915454864502
vn -0.35290667414665222 0 0.93565851449966431
vn -0.35290667414665222 0 0.93565851449966431
vn -0.43447944521903992 0 0.90068173408508301
vn -0.43447944521903992 0 0.90068173408508301
vn -0.51386743783950806 0 0.85786962509155273
vn -0.51386743783950806 0 0.85786962509155273
vn -0.58957624435424805 0 0.80771273374557495
vn -0.58957624435424805 0 0.80771273374557495
vn -0.66020649671554565 0 0.75108414888381958
vn -0.66020649671554565 0 0.75108414888381958
vn -0.72458821535110474 0 0.6891821026802063
vn -0.72458821535110474 0 0.6891821026802063
vn -0.78188443183898926 0 0.62342345714569092
vn -0.78188443183898926 0 0.62342345714569092
vn -0.83164328336715698 0 0.55531024932861328
vn -0.83164328336715698 0 0.55531024932861328
vn -0.87379318475723267 0 0.48629769682884216
vn -0.87379318475723267 0 0.48629769682884216
vn -0.90859103202819824 0 0.41768687963485718
vn -0.90859103202819824 0 0.41768687963485718
vn -0.93654137849807739 0 0.35055702924728394
vn -0.93654137849807739 0 0.35055702924728394
vn -0.95830786228179932 0 0.28573772311210632
vn -0.95830786228179932 0 0.28573772311210632
vn -0.9746319055557251 0 0.22381399571895599
vn -0.9746319055557251 0 0.22381399571895599
vn -0.98626792430877686 0 0.1651533842086792
vn -0.98626792430877686 0 0.1651533842086792
vn -0.99393779039382935 0 0.10994388163089752
vn -0.99393779039382935 0 0.10994388163089752
vn -0.99830293655395508 0 0.058234337717294693
vn -0.99830293655395508 0 0.058234337717294693
f 1/1/1 3/3/3 4/4/4
f 3/3/3 5/5/5 6/6/6
f 5/5/5 7/7/7 8/8/8
f 7/7/7 9/9/9 10/10/10
f 9/9/9 11/11/11 12/12/12
f 11/11/11 13/13/13 14/14/14
f 13/13/13 15/15/15 16/16/16
f 15/15/15 17/17/17 18/18/18
f 17/17/17 19/19/19 20/20/20
f 19/19/19 21/21/21 22/22/22
f 21/21/21 23/23/23 24/24/24
f 23/23/23 25/25/25 26/26/26
f 25/25/25 27/27/27 28/28/28
f 27/27/27 29/29/29 30/30/30
f 29/29/29 31/31/31 32/32/32
f 31/31/31 33/33/33 34/34/34
f 33/33/33 35/35/35 36/36/36
f 35/35/35 37/37/37 38/38/38
f 37/37/37 39/39/39 40/40/40
f 39/39/39 41/41/41 42/42/42
f 41/41/41 43/43/43 44/44/44
f 43/43/43 45/45/45 46/46/46
f 45/45/45 47/47/47 48/48/48
f 47/47/47 49/49/49 50/50/50
f 49/49/49 51/51/51 52/52/52
f 51/51/51 53/53/53 54/54/54
f 53/53/53 55/55/55 56/56/56
f 55/55/55 57/57/57 58/58/58
f 57/57/57 59/59/59 60/60/60
f 59/59/59 61/61/61 62/62/62
f 61/61/61 63/63/63 64/64/64
f 1/1/1 4/4/4 2/2/2
f 3/3/3 6/6/6 4/4/4
f 5/5/5 8/8/8 6/6/6
f 7/7/7 10/10/10 8/8/8
f 9/9/9 12/12/12 10/10/10
f 11/11/11 14/14/14 12/12/12
f 13/13/13 16/16/16 14/14/14
f 15/15/15 18/18/18 16/16/16
f 17/17/17 20/20/20 18/18/18
f 19/19/19 22/22/22 20/20/20
f 21/21/21 24/24/24 22/22/22
f 23/23/23 26/26/26 24/24/24
f 25/25/25 28/28/28 26/26/26
f 27/27/27 30/30/30 28/28/28
f 29/29/29 32/32/32 30/30/30
f 31/31/31 34/34/34 32/32/32
f 33/33/33 36/36/36 34/34/34
f 35/35/35 38/38/38 36/36/36
f 37/37/37 40/40/40 38/38/38
f 39/39/39 42/42/42 40/40/40
f 41/41/41 44/44/44 42/42/42
f 43/43/43 46/46/46 44/44/44
f 45/45/45 48/48/48 46/46/46
f 47/47/47 50/50/50 48/48/48
f 49/49/49 52/52/52 50/50/50
f 51/51/51 54/54/54 52/52/52
f 53/53/53 56/56/56 54/54/54
f 55/55/55 58/58/58 56/56/56
f 57/57/57 60/60/60 58/58/58
f 59/59/59 62/62/62 60/60/60
f 61/61/61 64/64/64 62/62/62
