v 22.289 -125.929 -10.5565
v 42.5409 -135.21 4.01766
v 71.8424 -157.729 -3.35017
v 87.7113 -170.747 -9.91289
v 242.449 -306.975 -102.99
v 74.988 -285 -173.899
v 74.988 -206.959 -173.899
v 90.648 -212.023 -166.455
v 90.648 -285 -166.455
v 242.449 -306.975 -102.99
v 87.7113 -170.747 -9.91289
v 102.144 -182.454 -19.5218
v 47.9902 -142.406 20.1276
v 70.1732 -157.065 40.9831
v 124.041 -201.212 -45.9865
v 130.746 -208.186 -61.7959
v 205.162 -321.603 -358.675
v -66.0297 -285 -262.068
v -66.0297 -164.741 -262.068
v -64.1005 -162.498 -244.836
v -64.1005 -285 -244.836
v 205.162 -321.603 -358.675
v 130.746 -208.186 -61.7959
v 134.329 -213.58 -78.7609
v 111.206 -179.371 55.0411
v 166.998 -208.613 50.8961
v 131.559 -219.32 -113.002
v 125.39 -219.725 -129.028
v -43.1557 -214.24 -424.912
v -72.0865 -179.542 -339.432
v -66.0297 -164.741 -262.068
v -64.4709 -168.782 -279.169
v -105.252 -125.554 -126.36
v -22.0683 -143.019 42.4422
v -64.1005 -162.498 -244.836
v -66.0297 -164.741 -262.068
v -72.0865 -179.542 -339.432
v -111.224 -160.45 -330.288
v -58.8084 -162.048 -228.499
v -64.1005 -162.498 -244.836
v -22.0683 -143.019 42.4422
v -153.523 -146.614 -310.469
v -167.382 -125.052 -236.014
v -9.86019 -175.424 -182.297
v -25.2748 -170.212 -189.865
v 258.924 -273.021 4.33447
v 281.533 -275.785 -41.5717
v 90.648 -212.023 -166.455
v 74.988 -206.959 -173.899
v -161.794 -132.402 -252.551
v -151.645 -125.881 -169.167
v 24.0538 -187.998 -176.891
v 6.74539 -181.44 -177.921
v 308.751 -304.732 -123.685
v 312.255 -301.602 -132.534
v 58.3719 -201.097 -178.234
v 41.0628 -194.624 -179.254
v -149.739 -126.947 -170.284
v -130.339 -124.289 -217.285
v -51.2529 -182.393 -310.855
v -33.7126 -198.137 -331.608
v -45.7947 -192.153 -335.97
v -59.448 -174.709 -295.765
v -51.2529 -182.393 -310.855
v -130.339 -124.289 -217.285
v -105.252 -125.554 -126.36
v -64.4709 -168.782 -279.169
v -59.448 -174.709 -295.765
v -45.7947 -192.153 -335.97
v -43.1557 -214.24 -424.912
v 125.39 -219.725 -129.028
v 116.294 -218.573 -143.594
v 228.174 -242.261 19.9525
v 258.924 -273.021 4.33447
v -25.2748 -170.212 -189.865
v -39.0173 -166.058 -200.438
v -155.001 -137.863 -299.596
v -33.7126 -285 -331.608
v 83.4955 -280.581 -459.599
v 134.598 -217.267 -95.9312
v 131.559 -219.32 -113.002
v 166.998 -208.613 50.8961
v 228.174 -242.261 19.9525
v 116.294 -218.573 -143.594
v 104.496 -215.938 -156.299
v -137.215 -160.026 -352.736
v -155.001 -137.863 -299.596
v -39.0173 -166.058 -200.438
v -50.2763 -163.289 -213.405
v 153.196 -214.221 114.55
v 111.206 -179.371 55.0411
v 134.329 -213.58 -78.7609
v 134.598 -217.267 -95.9312
v 83.4955 -280.581 -459.599
v -33.7126 -198.137 -331.608
v -51.2529 -182.393 -310.855
v -51.2529 -285 -310.855
v 45 -285 0
v 55 -285 0
v 55 -143.358 0
v 45 -134.392 -1.32349e-23
v 47.9902 -142.406 20.1276
v 102.144 -182.454 -19.5218
v 114.328 -192.563 -31.6237
v 237.356 -310.031 -198.364
v 24.0538 -285 -176.891
v 24.0538 -187.998 -176.891
v 41.0628 -194.624 -179.254
v 41.0628 -285 -179.254
v 237.356 -310.031 -198.364
v 114.328 -192.563 -31.6237
v 124.041 -201.212 -45.9865
v 70.1732 -157.065 40.9831
v 153.196 -214.221 114.55
v -50.2763 -163.289 -213.405
v -58.8084 -162.048 -228.499
v -111.224 -160.45 -330.288
v -137.215 -160.026 -352.736
v 104.496 -215.938 -156.299
v 90.648 -212.023 -166.455
v 281.533 -275.785 -41.5717
v 308.751 -304.732 -123.685
v 6.74539 -181.44 -177.921
v -9.86019 -175.424 -182.297
v -167.382 -125.052 -236.014
v -161.794 -132.402 -252.551
v 74.988 -206.959 -173.899
v 58.3719 -201.097 -178.234
v 312.255 -301.602 -132.534
v 229.617 -308.84 -24.5084
v 104.496 -285 -156.299
v 104.496 -215.938 -156.299
v 116.294 -218.573 -143.594
v 116.294 -285 -143.594
v 229.617 -308.84 -24.5084
v 55 -143.358 0
v 71.8424 -157.729 -3.35017
v 42.5409 -135.21 4.01766
v 45 -134.392 -1.32349e-23
v 55 -143.358 0
v 55 -285 0
v 71.8424 -285 -3.35017
v 71.8424 -157.729 -3.35017
v 55 -143.358 0
v 71.8424 -285 -3.35017
v 87.7113 -285 -9.91289
v 87.7113 -170.747 -9.91289
v 71.8424 -157.729 -3.35017
v 87.7113 -285 -9.91289
v 102.144 -285 -19.5218
v 102.144 -182.454 -19.5218
v 87.7113 -170.747 -9.91289
v 102.144 -285 -19.5218
v 114.328 -285 -31.6237
v 114.328 -192.563 -31.6237
v 102.144 -182.454 -19.5218
v 114.328 -285 -31.6237
v 124.041 -285 -45.9865
v 124.041 -201.212 -45.9865
v 114.328 -192.563 -31.6237
v 124.041 -285 -45.9865
v 130.746 -285 -61.7959
v 130.746 -208.186 -61.7959
v 124.041 -201.212 -45.9865
v 130.746 -285 -61.7959
v 134.329 -285 -78.7609
v 134.329 -213.58 -78.7609
v 130.746 -208.186 -61.7959
v 134.329 -285 -78.7609
v 134.598 -285 -95.9312
v 134.598 -217.267 -95.9312
v 134.329 -213.58 -78.7609
v 134.598 -285 -95.9312
v 131.559 -285 -113.002
v 131.559 -219.32 -113.002
v 134.598 -217.267 -95.9312
v 131.559 -285 -113.002
v 125.39 -285 -129.028
v 125.39 -219.725 -129.028
v 131.559 -219.32 -113.002
v 125.39 -285 -129.028
v 116.294 -285 -143.594
v 116.294 -218.573 -143.594
v 125.39 -219.725 -129.028
v 104.496 -285 -156.299
v 90.648 -285 -166.455
v 90.648 -212.023 -166.455
v 104.496 -215.938 -156.299
v 74.988 -285 -173.899
v 58.3719 -285 -178.234
v 58.3719 -201.097 -178.234
v 74.988 -206.959 -173.899
v 58.3719 -285 -178.234
v 41.0628 -285 -179.254
v 41.0628 -194.624 -179.254
v 58.3719 -201.097 -178.234
v -149.739 -126.947 -170.284
v 41.0628 -194.624 -179.254
v 24.0538 -187.998 -176.891
v -151.645 -125.881 -169.167
v 24.0538 -285 -176.891
v 6.74539 -285 -177.921
v 6.74539 -181.44 -177.921
v 24.0538 -187.998 -176.891
v 6.74539 -285 -177.921
v -9.86019 -285 -182.297
v -9.86019 -175.424 -182.297
v 6.74539 -181.44 -177.921
v -9.86019 -285 -182.297
v -25.2748 -285 -189.865
v -25.2748 -170.212 -189.865
v -9.86019 -175.424 -182.297
v -25.2748 -285 -189.865
v -39.0173 -285 -200.438
v -39.0173 -166.058 -200.438
v -25.2748 -170.212 -189.865
v -39.0173 -285 -200.438
v -50.2763 -285 -213.405
v -50.2763 -163.289 -213.405
v -39.0173 -166.058 -200.438
v -50.2763 -285 -213.405
v -58.8084 -285 -228.499
v -58.8084 -162.048 -228.499
v -50.2763 -163.289 -213.405
v -58.8084 -285 -228.499
v -64.1005 -285 -244.836
v -64.1005 -162.498 -244.836
v -58.8084 -162.048 -228.499
v -66.0297 -285 -262.068
v -64.4709 -285 -279.169
v -64.4709 -168.782 -279.169
v -66.0297 -164.741 -262.068
v -64.4709 -285 -279.169
v -59.448 -285 -295.765
v -59.448 -174.709 -295.765
v -64.4709 -168.782 -279.169
v -59.448 -285 -295.765
v -51.2529 -285 -310.855
v -51.2529 -182.393 -310.855
v -59.448 -174.709 -295.765
vn 0.548247 0.796644 -0.254525
vn 0.359013 0.912229 -0.197354
vn 0.191799 -0.971091 0.142113
vn 0 0 1
vn 0.725219 -1.94465e-08 -0.688518
vn 0.19509 -1.13619e-10 0.980785
vn 0.382167 -5.04205e-10 0.924093
vn 0.554176 -1.3357e-09 0.8324
vn 0.704729 -2.73847e-09 0.709477
vn 0.828347 -4.82342e-09 0.560216
vn 0.920632 -7.54222e-09 0.390432
vn 0.978422 -1.0763e-08 0.206615
vn 0.999877 -1.40813e-08 0.015691
vn 0.984522 -1.70668e-08 -0.175262
vn 0.933239 -1.91601e-08 -0.359257
vn 0.848203 -2.00318e-08 -0.529671
vn 0.591391 -1.79181e-08 -0.806385
vn 0.252465 -1.23355e-08 -0.967606
vn 0.0588437 -8.97488e-09 -0.998267
vn -0.300375 -0.891719 0.338543
vn 0.0594441 -9.71552e-09 -0.998232
vn 0.254804 -1.30505e-08 -0.966993
vn 0.44073 -1.58265e-08 -0.89764
vn 0.609778 -1.81328e-08 -0.792572
vn 0.755067 -2.00031e-08 -0.655648
vn 0.870557 -2.14554e-08 -0.492067
vn 0.951328 -2.24294e-08 -0.308179
vn 0.995871 -2.26489e-08 0.0907758
vn 0.957123 -2.16296e-08 0.289683
vn 0.878779 -1.95545e-08 0.477228
f 1//1 2//1 3//1 4//1 5//1 6//1 7//1 8//1 9//1 10//1 11//1 12//1 13//1 14//1 15//1 16//1 17//1 18//1 19//1 20//1 21//1 22//1 23//1 24//1 25//1 26//1 27//1 28//1 29//1 30//1 31//1 32//1 33//1 34//1 35//1 36//1 37//1 38//1 39//1 40//1 41//1 
f 42//2 43//2 44//2 45//2 46//2 47//2 48//2 49//2 50//2 51//2 52//2 53//2 54//2 55//2 56//2 57//2 58//2 59//2 60//2 61//2 62//2 63//2 64//2 65//2 66//2 67//2 68//2 69//2 70//2 71//2 72//2 73//2 74//2 75//2 76//2 77//2 
f 78//3 79//3 80//3 81//3 82//3 83//3 84//3 85//3 86//3 87//3 88//3 89//3 90//3 91//3 92//3 93//3 94//3 95//3 96//3 97//3 
f 98//4 99//4 100//4 101//4 102//4 103//4 104//4 105//4 106//4 107//4 108//4 109//4 110//4 111//4 112//4 113//4 114//4 115//4 116//4 117//4 118//4 119//4 120//4 121//4 122//4 123//4 124//4 125//4 126//4 127//4 128//4 129//4 
f 130//5 131//5 132//5 133//5 134//5 135//5 136//5 137//5 138//5 139//5 140//5 
f 141//6 142//6 143//6 144//6 
f 145//7 146//7 147//7 148//7 
f 149//8 150//8 151//8 152//8 
f 153//9 154//9 155//9 156//9 
f 157//10 158//10 159//10 160//10 
f 161//11 162//11 163//11 164//11 
f 165//12 166//12 167//12 168//12 
f 169//13 170//13 171//13 172//13 
f 173//14 174//14 175//14 176//14 
f 177//15 178//15 179//15 180//15 
f 181//16 182//16 183//16 184//16 
f 185//17 186//17 187//17 188//17 
f 189//18 190//18 191//18 192//18 
f 193//19 194//19 195//19 196//19 
f 197//20 198//20 199//20 200//20 
f 201//21 202//21 203//21 204//21 
f 205//22 206//22 207//22 208//22 
f 209//23 210//23 211//23 212//23 
f 213//24 214//24 215//24 216//24 
f 217//25 218//25 219//25 220//25 
f 221//26 222//26 223//26 224//26 
f 225//27 226//27 227//27 228//27 
f 229//28 230//28 231//28 232//28 
f 233//29 234//29 235//29 236//29 
f 237//30 238//30 239//30 240//30 
