v 52.5581 -135.878 -0.938
v 65 -129.167 0
v 82.6999 -139.634 -7.2345
v 67.7986 -163.47 -15.1226
v -94.5917 -215.615 -212.689
v -91.9459 -204.534 -201.992
v -48.4722 -174.087 -229.784
v -43.7725 -186.654 -254.077
v -43.7725 -245 -254.077
v -43.7725 -186.654 -254.077
v -48.4722 -174.087 -229.784
v -48.4722 -245 -229.784
v 65 -245 0
v 82.6999 -245 -7.2345
v 82.6999 -139.634 -7.2345
v 65 -129.167 0
v 82.6999 -245 -7.2345
v 96.3776 -245 -12.825
v 96.3776 -147.722 -12.825
v 82.6999 -139.634 -7.2345
v 67.7986 -163.47 -15.1226
v 82.6999 -139.634 -7.2345
v 96.3776 -147.722 -12.825
v 76.5837 -179.385 -23.303
v 96.3776 -245 -12.825
v 110.055 -245 -18.4155
v 110.055 -155.811 -18.4155
v 96.3776 -147.722 -12.825
v 76.5837 -179.385 -23.303
v 96.3776 -147.722 -12.825
v 110.055 -155.811 -18.4155
v 85.3688 -195.3 -31.4835
v 110.055 -245 -18.4155
v 123.866 -245 -24.0603
v 123.866 -163.977 -24.0603
v 110.055 -155.811 -18.4155
v 85.3688 -195.3 -31.4835
v 110.055 -155.811 -18.4155
v 123.866 -163.977 -24.0603
v 94.2391 -211.369 -39.7434
v 123.866 -245 -24.0603
v 137.544 -245 -29.6508
v 137.544 -172.066 -29.6508
v 123.866 -163.977 -24.0603
v 94.2391 -211.369 -39.7434
v 123.866 -163.977 -24.0603
v 137.544 -172.066 -29.6508
v 103.024 -227.283 -47.9239
v 137.544 -245 -29.6508
v 144.057 -245 -43.737
v 144.057 -176.808 -43.737
v 137.544 -172.066 -29.6508
v 103.024 -227.283 -47.9239
v 137.544 -172.066 -29.6508
v 144.057 -176.808 -43.737
v 106.512 -236.1 -62.7269
v 144.057 -245 -43.737
v 150.507 -245 -57.6877
v 150.507 -181.505 -57.6877
v 144.057 -176.808 -43.737
v 106.512 -236.1 -62.7269
v 144.057 -176.808 -43.737
v 150.507 -181.505 -57.6877
v 109.895 -244.752 -77.2012
v 150.507 -245 -57.6877
v 147.441 -245 -72.5369
v 147.441 -183.02 -72.5369
v 150.507 -181.505 -57.6877
v 109.895 -244.752 -77.2012
v 150.507 -181.505 -57.6877
v 147.441 -183.02 -72.5369
v 109.29 -245.229 -79.3987
v 147.441 -245 -72.5369
v 144.404 -245 -87.2433
v 144.404 -184.521 -87.2433
v 147.441 -183.02 -72.5369
v 109.29 -245.229 -79.3987
v 147.441 -183.02 -72.5369
v 144.404 -184.521 -87.2433
v 108.13 -246.089 -83.8435
v 144.404 -245 -87.2433
v 141.337 -245 -102.093
v 141.337 -186.036 -102.093
v 144.404 -184.521 -87.2433
v 108.13 -246.089 -83.8435
v 144.404 -184.521 -87.2433
v 141.337 -186.036 -102.093
v 106.993 -246.931 -88.197
v 141.337 -245 -102.093
v 138.3 -245 -116.799
v 138.3 -187.537 -116.799
v 141.337 -186.036 -102.093
v 106.993 -246.931 -88.197
v 141.337 -186.036 -102.093
v 138.3 -187.537 -116.799
v 105.901 -247.74 -92.3814
v 138.3 -245 -116.799
v 124.152 -245 -119.281
v 124.152 -184.096 -119.281
v 138.3 -187.537 -116.799
v 105.901 -247.74 -92.3814
v 138.3 -187.537 -116.799
v 124.152 -184.096 -119.281
v 86.5716 -238.075 -97.9673
v 124.152 -245 -119.281
v 109.866 -245 -121.788
v 109.866 -180.621 -121.788
v 124.152 -184.096 -119.281
v 86.5716 -238.075 -97.9673
v 124.152 -184.096 -119.281
v 109.866 -180.621 -121.788
v 71.4267 -230.512 -102.34
v 109.866 -245 -121.788
v 95.7179 -245 -124.27
v 95.7179 -177.179 -124.27
v 109.866 -180.621 -121.788
v 71.4267 -230.512 -102.34
v 109.866 -180.621 -121.788
v 95.7179 -177.179 -124.27
v 56.7741 -223.195 -106.57
v 95.7179 -245 -124.27
v 81.4323 -245 -126.777
v 81.4323 -173.704 -126.777
v 95.7179 -177.179 -124.27
v 56.7741 -223.195 -106.57
v 95.7179 -177.179 -124.27
v 81.4323 -173.704 -126.777
v 42.3171 -215.976 -110.743
v 81.4323 -245 -126.777
v 67.2841 -245 -129.259
v 67.2841 -170.262 -129.259
v 81.4323 -173.704 -126.777
v 42.3171 -215.976 -110.743
v 81.4323 -173.704 -126.777
v 67.2841 -170.262 -129.259
v 28.3226 -208.988 -114.783
v 67.2841 -245 -129.259
v 52.9984 -245 -131.766
v 52.9984 -166.787 -131.766
v 67.2841 -170.262 -129.259
v 28.3226 -208.988 -114.783
v 67.2841 -170.262 -129.259
v 52.9984 -166.787 -131.766
v 14.5078 -202.089 -118.771
v 52.9984 -245 -131.766
v 38.8502 -245 -134.248
v 38.8502 -163.346 -134.248
v 52.9984 -166.787 -131.766
v 14.5078 -202.089 -118.771
v 52.9984 -166.787 -131.766
v 38.8502 -163.346 -134.248
v 1.1281 -195.408 -122.634
v 38.8502 -245 -134.248
v 24.5645 -245 -136.755
v 24.5645 -159.871 -136.755
v 38.8502 -163.346 -134.248
v 1.1281 -195.408 -122.634
v 38.8502 -163.346 -134.248
v 24.5645 -159.871 -136.755
v -12.0864 -188.809 -126.449
v 24.5645 -245 -136.755
v 10.4163 -245 -139.237
v 10.4163 -156.429 -139.237
v 24.5645 -159.871 -136.755
v -12.0864 -188.809 -126.449
v 24.5645 -159.871 -136.755
v 10.4163 -156.429 -139.237
v -24.891 -182.415 -130.146
v 10.4163 -245 -139.237
v -3.73197 -245 -141.72
v -3.73197 -152.987 -141.72
v 10.4163 -156.429 -139.237
v -24.891 -182.415 -130.146
v 10.4163 -156.429 -139.237
v -3.73197 -152.987 -141.72
v -37.4232 -176.157 -133.763
v -3.73197 -245 -141.72
v -18.0176 -245 -144.226
v -18.0176 -149.512 -144.226
v -3.73197 -152.987 -141.72
v -37.4232 -176.157 -133.763
v -3.73197 -152.987 -141.72
v -18.0176 -149.512 -144.226
v -49.8093 -169.972 -137.339
v -18.0176 -245 -144.226
v -32.1658 -245 -146.709
v -32.1658 -146.071 -146.709
v -18.0176 -149.512 -144.226
v -49.8093 -169.972 -137.339
v -18.0176 -149.512 -144.226
v -32.1658 -146.071 -146.709
v -61.8195 -163.974 -140.806
v -32.1658 -245 -146.709
v -40.4907 -245 -159.644
v -40.4907 -147.76 -159.644
v -32.1658 -146.071 -146.709
v -61.8195 -163.974 -140.806
v -32.1658 -146.071 -146.709
v -40.4907 -147.76 -159.644
v -69.3435 -165.979 -150.41
v -40.4907 -245 -159.644
v -48.7354 -245 -172.456
v -48.7354 -149.433 -172.456
v -40.4907 -147.76 -159.644
v -69.3435 -165.979 -150.41
v -40.4907 -147.76 -159.644
v -48.7354 -149.433 -172.456
v -76.5343 -167.905 -159.54
v -48.7354 -245 -172.456
v -57.0602 -245 -185.392
v -57.0602 -151.122 -185.392
v -48.7354 -149.433 -172.456
v -76.5343 -167.905 -159.54
v -48.7354 -149.433 -172.456
v -57.0602 -151.122 -185.392
v -83.6128 -169.801 -168.528
v -57.0602 -245 -185.392
v -54.2068 -245 -200.141
v -54.2068 -158.752 -200.141
v -57.0602 -151.122 -185.392
v -83.6128 -169.801 -168.528
v -57.0602 -151.122 -185.392
v -54.2068 -158.752 -200.141
v -86.3979 -181.298 -179.562
v -54.2068 -245 -200.141
v -51.3256 -245 -215.034
v -51.3256 -166.457 -215.034
v -54.2068 -158.752 -200.141
v -86.3979 -181.298 -179.562
v -54.2068 -158.752 -200.141
v -51.3256 -166.457 -215.034
v -89.1853 -192.972 -190.832
v -51.3256 -245 -215.034
v -48.4722 -245 -229.784
v -48.4722 -174.087 -229.784
v -51.3256 -166.457 -215.034
v -89.1853 -192.972 -190.832
v -51.3256 -166.457 -215.034
v -48.4722 -174.087 -229.784
v -91.9459 -204.534 -201.992
vn -0.141544 0.389639 -0.910026
vn -0.686279 0.583287 -0.434509
vn 0.981796 2.76137e-15 0.189936
vn 0.378348 -1.41069e-17 0.925663
vn 0.378348 5.93195e-17 0.925663
vn -0.141544 0.389639 -0.910026
vn 0.378348 6.4699e-17 0.925663
vn -0.141544 0.389639 -0.910026
vn 0.378348 8.22916e-17 0.925663
vn -0.141544 0.389639 -0.910026
vn 0.378348 7.91186e-17 0.925663
vn -0.141544 0.389639 -0.910026
vn 0.907667 -4.16277e-16 0.41969
vn -0.653683 0.572451 -0.494973
vn 0.907667 -2.32985e-16 0.41969
vn -0.653683 0.572451 -0.494973
vn 0.979335 5.36815e-16 -0.202246
vn -0.851922 0.508774 0.124008
vn 0.979335 1.06402e-15 -0.202246
vn -0.851922 0.508774 0.124008
vn 0.979335 7.55019e-16 -0.202246
vn -0.851922 0.508774 0.124008
vn 0.979335 7.65794e-16 -0.202246
vn -0.851922 0.508774 0.124008
vn 0.172818 -1.2264e-15 -0.984954
vn -0.0619871 0.403597 0.912835
vn 0.172818 -1.22514e-15 -0.984954
vn -0.0619871 0.403597 0.912835
vn 0.172818 -9.18988e-16 -0.984954
vn -0.0619871 0.403597 0.912835
vn 0.172818 -1.10629e-15 -0.984954
vn -0.0619871 0.403597 0.912835
vn 0.172818 -1.20458e-15 -0.984954
vn -0.0619871 0.403597 0.912835
vn 0.172818 -1.03977e-15 -0.984954
vn -0.0619871 0.403597 0.912835
vn 0.172818 -8.66283e-16 -0.984954
vn -0.0619871 0.403597 0.912835
vn 0.172818 -9.55291e-16 -0.984954
vn -0.0619871 0.403597 0.912835
vn 0.172818 -1.13931e-15 -0.984954
vn -0.0619871 0.403597 0.912835
vn 0.172818 -1.0053e-15 -0.984954
vn -0.0619871 0.403597 0.912835
vn 0.172818 -1.18514e-15 -0.984954
vn -0.0619871 0.403597 0.912835
vn 0.172818 -1.03502e-15 -0.984954
vn -0.0619871 0.403597 0.912835
vn 0.840913 -4.75012e-16 -0.54117
vn -0.478002 0.856256 0.195804
vn 0.840913 -5.56342e-16 -0.54117
vn -0.478002 0.856256 0.195804
vn 0.840913 -4.133e-16 -0.54117
vn -0.478002 0.856256 0.195804
vn 0.981796 2.78029e-15 0.189936
vn -0.686279 0.583287 -0.434509
vn 0.981796 2.86263e-15 0.189936
vn -0.686279 0.583287 -0.434509
vn 0.981796 2.74789e-15 0.189936
vn -0.686279 0.583287 -0.434509
f 1//1 2//1 3//1 4//1 
f 5//2 6//2 7//2 8//2 
f 9//3 10//3 11//3 12//3 
f 13//4 14//4 15//4 16//4 
f 17//5 18//5 19//5 20//5 
f 21//6 22//6 23//6 24//6 
f 25//7 26//7 27//7 28//7 
f 29//8 30//8 31//8 32//8 
f 33//9 34//9 35//9 36//9 
f 37//10 38//10 39//10 40//10 
f 41//11 42//11 43//11 44//11 
f 45//12 46//12 47//12 48//12 
f 49//13 50//13 51//13 52//13 
f 53//14 54//14 55//14 56//14 
f 57//15 58//15 59//15 60//15 
f 61//16 62//16 63//16 64//16 
f 65//17 66//17 67//17 68//17 
f 69//18 70//18 71//18 72//18 
f 73//19 74//19 75//19 76//19 
f 77//20 78//20 79//20 80//20 
f 81//21 82//21 83//21 84//21 
f 85//22 86//22 87//22 88//22 
f 89//23 90//23 91//23 92//23 
f 93//24 94//24 95//24 96//24 
f 97//25 98//25 99//25 100//25 
f 101//26 102//26 103//26 104//26 
f 105//27 106//27 107//27 108//27 
f 109//28 110//28 111//28 112//28 
f 113//29 114//29 115//29 116//29 
f 117//30 118//30 119//30 120//30 
f 121//31 122//31 123//31 124//31 
f 125//32 126//32 127//32 128//32 
f 129//33 130//33 131//33 132//33 
f 133//34 134//34 135//34 136//34 
f 137//35 138//35 139//35 140//35 
f 141//36 142//36 143//36 144//36 
f 145//37 146//37 147//37 148//37 
f 149//38 150//38 151//38 152//38 
f 153//39 154//39 155//39 156//39 
f 157//40 158//40 159//40 160//40 
f 161//41 162//41 163//41 164//41 
f 165//42 166//42 167//42 168//42 
f 169//43 170//43 171//43 172//43 
f 173//44 174//44 175//44 176//44 
f 177//45 178//45 179//45 180//45 
f 181//46 182//46 183//46 184//46 
f 185//47 186//47 187//47 188//47 
f 189//48 190//48 191//48 192//48 
f 193//49 194//49 195//49 196//49 
f 197//50 198//50 199//50 200//50 
f 201//51 202//51 203//51 204//51 
f 205//52 206//52 207//52 208//52 
f 209//53 210//53 211//53 212//53 
f 213//54 214//54 215//54 216//54 
f 217//55 218//55 219//55 220//55 
f 221//56 222//56 223//56 224//56 
f 225//57 226//57 227//57 228//57 
f 229//58 230//58 231//58 232//58 
f 233//59 234//59 235//59 236//59 
f 237//60 238//60 239//60 240//60 
