v 85 -105 5.6002e-05
v 85 -136.468 0
v 105 -146.867 0
v 104.999 -105 7.4507e-05
v 116.276 -105 -267.438
v 144.779 -105 -258.424
v 144.778 -151.617 -258.424
v 116.276 -136.857 -267.438
v 116.276 -335 -267.438
v 116.276 -136.857 -267.438
v 144.778 -151.617 -258.424
v 144.778 -335 -258.424
v 85 -335 0
v 105 -335 0
v 105 -146.867 0
v 85 -136.468 0
v 105 -335 0
v 124.672 -335 -2.95758
v 124.672 -156.153 -2.95758
v 105 -146.867 0
v 104.999 -105 7.4507e-05
v 105 -146.867 0
v 124.672 -156.153 -2.95758
v 124.673 -105 -2.95786
v 124.672 -335 -2.95758
v 143.807 -335 -8.84427
v 143.807 -164.433 -8.84427
v 124.672 -156.153 -2.95758
v 124.673 -105 -2.95786
v 124.672 -156.153 -2.95758
v 143.807 -164.433 -8.84427
v 143.806 -105 -8.84376
v 143.807 -335 -8.84427
v 161.854 -335 -17.5104
v 161.854 -171.644 -17.5104
v 143.807 -164.433 -8.84427
v 143.806 -105 -8.84376
v 143.807 -164.433 -8.84427
v 161.854 -171.644 -17.5104
v 161.856 -105 -17.5112
v 161.854 -335 -17.5104
v 178.412 -335 -28.7633
v 178.412 -177.787 -28.7633
v 161.854 -171.644 -17.5104
v 161.856 -105 -17.5112
v 161.854 -171.644 -17.5104
v 178.412 -177.787 -28.7633
v 178.411 -105 -28.7622
v 178.412 -335 -28.7633
v 193.114 -335 -42.3529
v 193.114 -182.861 -42.3529
v 178.412 -177.787 -28.7633
v 178.411 -105 -28.7622
v 178.412 -177.787 -28.7633
v 193.114 -182.861 -42.3529
v 193.115 -105 -42.3543
v 193.114 -335 -42.3529
v 205.631 -335 -57.9771
v 205.631 -186.866 -57.9771
v 193.114 -182.861 -42.3529
v 193.115 -105 -42.3543
v 193.114 -182.861 -42.3529
v 205.631 -186.866 -57.9771
v 205.63 -105 -57.9755
v 205.631 -335 -57.9771
v 215.686 -335 -75.2887
v 215.686 -189.802 -75.2887
v 205.631 -186.866 -57.9771
v 205.63 -105 -57.9755
v 205.631 -186.866 -57.9771
v 215.686 -189.802 -75.2887
v 215.687 -105 -75.2905
v 215.686 -335 -75.2887
v 223.056 -335 -93.9028
v 223.056 -191.669 -93.9028
v 215.686 -189.802 -75.2887
v 215.687 -105 -75.2905
v 215.686 -189.802 -75.2887
v 223.056 -191.669 -93.9028
v 223.056 -105 -93.9008
v 223.056 -335 -93.9028
v 227.577 -335 -113.406
v 227.577 -192.467 -113.406
v 223.056 -191.669 -93.9028
v 223.056 -105 -93.9008
v 223.056 -191.669 -93.9028
v 227.577 -192.467 -113.406
v 227.577 -105 -113.408
v 227.577 -335 -113.406
v 229.138 -335 -133.238
v 229.138 -192.202 -133.238
v 227.577 -192.467 -113.406
v 227.577 -105 -113.408
v 227.577 -192.467 -113.406
v 229.138 -192.202 -133.238
v 229.138 -105 -133.236
v 229.138 -335 -133.238
v 227.724 -335 -153.208
v 227.724 -190.87 -153.208
v 229.138 -192.202 -133.238
v 229.138 -105 -133.236
v 229.138 -192.202 -133.238
v 227.724 -190.87 -153.208
v 227.723 -105 -153.21
v 227.724 -335 -153.208
v 223.356 -335 -172.746
v 223.356 -188.469 -172.746
v 227.724 -190.87 -153.208
v 227.723 -105 -153.21
v 227.724 -190.87 -153.208
v 223.356 -188.469 -172.746
v 223.357 -105 -172.744
v 223.356 -335 -172.746
v 216.133 -335 -191.417
v 216.133 -184.999 -191.417
v 223.356 -188.469 -172.746
v 223.357 -105 -172.744
v 223.356 -188.469 -172.746
v 216.133 -184.999 -191.417
v 216.132 -105 -191.419
v 216.133 -335 -191.417
v 206.214 -335 -208.807
v 206.214 -180.46 -208.807
v 216.133 -184.999 -191.417
v 216.132 -105 -191.419
v 216.133 -184.999 -191.417
v 206.214 -180.46 -208.807
v 206.215 -105 -208.806
v 206.214 -335 -208.807
v 193.82 -335 -224.529
v 193.82 -174.852 -224.529
v 206.214 -180.46 -208.807
v 206.215 -105 -208.806
v 206.214 -180.46 -208.807
v 193.82 -174.852 -224.529
v 193.818 -105 -224.53
v 193.82 -335 -224.529
v 179.226 -335 -238.234
v 179.226 -168.176 -238.234
v 193.82 -174.852 -224.529
v 193.818 -105 -224.53
v 193.82 -174.852 -224.529
v 179.226 -168.176 -238.234
v 179.227 -105 -238.233
v 179.226 -335 -238.234
v 162.756 -335 -249.616
v 162.756 -160.431 -249.616
v 179.226 -168.176 -238.234
v 179.227 -105 -238.233
v 179.226 -168.176 -238.234
v 162.756 -160.431 -249.616
v 162.755 -105 -249.617
v 162.756 -335 -249.616
v 144.778 -335 -258.424
v 144.778 -151.617 -258.424
v 162.756 -160.431 -249.616
v 162.755 -105 -249.617
v 162.756 -160.431 -249.616
v 144.778 -151.617 -258.424
v 144.779 -105 -258.424
vn -9.25295e-07 -1.77965e-06 1
vn 0.301539 1.77965e-06 -0.953454
vn 0.301538 -4.32527e-17 -0.953454
vn 0 0 1
vn 0.148672 -1.19827e-17 0.988886
vn 0.148673 1.77965e-06 0.988886
vn 0.29404 4.16161e-17 0.955793
vn 0.29404 -1.77965e-06 0.955793
vn 0.432873 0 0.901455
vn 0.432873 1.77965e-06 0.901455
vn 0.562083 1.80604e-17 0.827081
vn 0.562083 -1.77965e-06 0.827081
vn 0.678801 -5.59881e-17 0.734323
vn 0.678801 1.77965e-06 0.734322
vn 0.78043 -9.58362e-17 0.625243
vn 0.78043 -1.77965e-06 0.625243
vn 0.864713 0 0.502266
vn 0.864714 1.77965e-06 0.502265
vn 0.929776 0 0.368125
vn 0.929776 -1.77965e-06 0.368125
vn 0.974173 0 0.225801
vn 0.974173 1.77965e-06 0.225801
vn 0.996917 0 0.0784591
vn 0.996917 -1.77965e-06 0.0784591
vn 0.997503 0 -0.070627
vn 0.997503 1.77965e-06 -0.0706269
vn 0.975917 0 -0.218143
vn 0.975917 -1.77965e-06 -0.218143
vn 0.932639 0 -0.360811
vn 0.932639 1.77965e-06 -0.360811
vn 0.868632 7.34911e-17 -0.495459
vn 0.868631 -1.77965e-06 -0.495459
vn 0.785317 2.65942e-17 -0.619094
vn 0.785317 1.77965e-06 -0.619094
vn 0.684547 -8.50996e-18 -0.728969
vn 0.684547 -1.77965e-06 -0.728969
vn 0.568562 -5.69268e-17 -0.822641
vn 0.568562 1.77965e-06 -0.82264
vn 0.439939 -6.96737e-17 -0.898028
vn 0.439938 -1.77965e-06 -0.898028
f 1//1 2//1 3//1 4//1 
f 5//2 6//2 7//2 8//2 
f 9//3 10//3 11//3 12//3 
f 13//4 14//4 15//4 16//4 
f 17//5 18//5 19//5 20//5 
f 21//6 22//6 23//6 24//6 
f 25//7 26//7 27//7 28//7 
f 29//8 30//8 31//8 32//8 
f 33//9 34//9 35//9 36//9 
f 37//10 38//10 39//10 40//10 
f 41//11 42//11 43//11 44//11 
f 45//12 46//12 47//12 48//12 
f 49//13 50//13 51//13 52//13 
f 53//14 54//14 55//14 56//14 
f 57//15 58//15 59//15 60//15 
f 61//16 62//16 63//16 64//16 
f 65//17 66//17 67//17 68//17 
f 69//18 70//18 71//18 72//18 
f 73//19 74//19 75//19 76//19 
f 77//20 78//20 79//20 80//20 
f 81//21 82//21 83//21 84//21 
f 85//22 86//22 87//22 88//22 
f 89//23 90//23 91//23 92//23 
f 93//24 94//24 95//24 96//24 
f 97//25 98//25 99//25 100//25 
f 101//26 102//26 103//26 104//26 
f 105//27 106//27 107//27 108//27 
f 109//28 110//28 111//28 112//28 
f 113//29 114//29 115//29 116//29 
f 117//30 118//30 119//30 120//30 
f 121//31 122//31 123//31 124//31 
f 125//32 126//32 127//32 128//32 
f 129//33 130//33 131//33 132//33 
f 133//34 134//34 135//34 136//34 
f 137//35 138//35 139//35 140//35 
f 141//36 142//36 143//36 144//36 
f 145//37 146//37 147//37 148//37 
f 149//38 150//38 151//38 152//38 
f 153//39 154//39 155//39 156//39 
f 157//40 158//40 159//40 160//40 
