v -37.6515 -220.81 -250.162
v -106.108 -252.994 -245.153
v -113.475 -236.417 -239.327
v -62.5187 -204.621 -240.988
v -37.6515 -220.81 -250.162
v -62.5187 -204.621 -240.988
v -62.5187 -255 -240.988
v -37.6515 -255 -250.162
v -62.5187 -204.621 -240.988
v -113.475 -236.417 -239.327
v -114.987 -231.907 -233.42
v -71.4631 -198.087 -227.682
v -62.5187 -204.621 -240.988
v -71.4631 -198.087 -227.682
v -71.4631 -255 -227.682
v -62.5187 -255 -240.988
v -71.4631 -198.087 -227.682
v -114.987 -231.907 -233.42
v -116.719 -226.742 -226.656
v -80.4074 -191.552 -214.377
v -71.4631 -198.087 -227.682
v -80.4074 -191.552 -214.377
v -80.4074 -255 -214.377
v -71.4631 -255 -227.682
v -80.4074 -191.552 -214.377
v -116.719 -226.742 -226.656
v -118.722 -220.769 -218.832
v -89.3517 -185.018 -201.071
v -80.4074 -191.552 -214.377
v -89.3517 -185.018 -201.071
v -89.3517 -255 -201.071
v -80.4074 -255 -214.377
v -89.3517 -185.018 -201.071
v -118.722 -220.769 -218.832
v -120.34 -214.495 -210.954
v -98.296 -178.484 -187.765
v -89.3517 -185.018 -201.071
v -98.296 -178.484 -187.765
v -98.296 -255 -187.765
v -89.3517 -255 -201.071
v -98.296 -178.484 -187.765
v -120.34 -214.495 -210.954
v -108.943 -207.536 -175.862
v -93.8842 -176.874 -172.032
v -98.296 -178.484 -187.765
v -93.8842 -176.874 -172.032
v -93.8842 -255 -172.032
v -98.296 -255 -187.765
v -93.8842 -176.874 -172.032
v -108.943 -207.536 -175.862
v -98.7284 -201.299 -144.409
v -89.4724 -175.264 -156.299
v -93.8842 -176.874 -172.032
v -89.4724 -175.264 -156.299
v -89.4724 -255 -156.299
v -93.8842 -255 -172.032
v -89.4724 -175.264 -156.299
v -98.7284 -201.299 -144.409
v -89.303 -195.802 -114.876
v -85.0605 -173.655 -140.566
v -89.4724 -175.264 -156.299
v -85.0605 -173.655 -140.566
v -85.0605 -255 -140.566
v -89.4724 -255 -156.299
v -85.0605 -173.655 -140.566
v -89.303 -195.802 -114.876
v -88.2393 -196.074 -113.846
v -72.2731 -175.462 -130.06
v -85.0605 -173.655 -140.566
v -72.2731 -175.462 -130.06
v -72.2731 -255 -130.06
v -85.0605 -255 -140.566
v -72.2731 -175.462 -130.06
v -88.2393 -196.074 -113.846
v -87.3697 -196.274 -113.032
v -59.4857 -177.269 -119.554
v -72.2731 -175.462 -130.06
v -59.4857 -177.269 -119.554
v -59.4857 -255 -119.554
v -72.2731 -255 -130.06
v -59.4857 -177.269 -119.554
v -87.3697 -196.274 -113.032
v -75.288 -204.402 -111.546
v -44.1431 -182.025 -119.133
v -59.4857 -177.269 -119.554
v -44.1431 -182.025 -119.133
v -44.1431 -255 -119.133
v -59.4857 -255 -119.554
v -44.1431 -182.025 -119.133
v -75.288 -204.402 -111.546
v -62.9696 -212.689 -110.03
v -28.8005 -186.781 -118.713
v -44.1431 -182.025 -119.133
v -28.8005 -186.781 -118.713
v -28.8005 -255 -118.713
v -44.1431 -255 -119.133
v -28.8005 -186.781 -118.713
v -62.9696 -212.689 -110.03
v -50.4074 -221.14 -108.485
v -13.4579 -191.537 -118.292
v -28.8005 -186.781 -118.713
v -13.4579 -191.537 -118.292
v -13.4579 -255 -118.292
v -28.8005 -255 -118.713
v -13.4579 -191.537 -118.292
v -50.4074 -221.14 -108.485
v -37.5941 -229.76 -106.909
v 1.88465 -196.293 -117.872
v -13.4579 -191.537 -118.292
v 1.88465 -196.293 -117.872
v 1.88465 -255 -117.872
v -13.4579 -255 -118.292
v 1.88465 -196.293 -117.872
v -37.5941 -229.76 -106.909
v -24.522 -238.554 -105.302
v 17.2272 -201.049 -117.452
v 1.88465 -196.293 -117.872
v 17.2272 -201.049 -117.452
v 17.2272 -255 -117.452
v 1.88465 -255 -117.872
v 17.2272 -201.049 -117.452
v -24.522 -238.554 -105.302
v -11.1833 -247.528 -103.661
v 32.5698 -205.805 -117.031
v 17.2272 -201.049 -117.452
v 32.5698 -205.805 -117.031
v 32.5698 -255 -117.031
v 17.2272 -255 -117.452
v 32.5698 -205.805 -117.031
v -11.1833 -247.528 -103.661
v 2.4302 -256.686 -101.987
v 47.9124 -210.56 -116.611
v 32.5698 -205.805 -117.031
v 47.9124 -210.56 -116.611
v 47.9124 -255 -116.611
v 32.5698 -255 -117.031
v 47.9124 -210.56 -116.611
v 2.4302 -256.686 -101.987
v 16.3272 -266.035 -100.277
v 63.255 -215.316 -116.19
v 47.9124 -210.56 -116.611
v 63.255 -215.316 -116.19
v 63.255 -255 -116.19
v 47.9124 -255 -116.611
v 63.255 -215.316 -116.19
v 16.3272 -266.035 -100.277
v 30.5166 -275.58 -98.532
v 78.5976 -220.072 -115.77
v 63.255 -215.316 -116.19
v 78.5976 -220.072 -115.77
v 78.5976 -255 -115.77
v 63.255 -255 -116.19
v 78.5976 -220.072 -115.77
v 30.5166 -275.58 -98.532
v 45.0077 -285.329 -96.7496
v 93.9402 -224.828 -115.35
v 78.5976 -220.072 -115.77
v 93.9402 -224.828 -115.35
v 93.9402 -255 -115.35
v 78.5976 -255 -115.77
v 93.9402 -224.828 -115.35
v 45.0077 -285.329 -96.7496
v 63.6565 -297.807 -94.4738
v 109.283 -229.584 -114.929
v 93.9402 -224.828 -115.35
v 109.283 -229.584 -114.929
v 109.283 -255 -114.929
v 93.9402 -255 -115.35
v 109.283 -229.584 -114.929
v 63.6565 -297.807 -94.4738
v 67.6352 -297.599 -83.61
v 114.821 -229.421 -99.5281
v 109.283 -229.584 -114.929
v 114.821 -229.421 -99.5281
v 114.821 -255 -99.5281
v 109.283 -255 -114.929
v 114.821 -229.421 -99.5281
v 67.6352 -297.599 -83.61
v 71.6184 -297.391 -72.7338
v 120.359 -229.258 -84.127
v 114.821 -229.421 -99.5281
v 120.359 -229.258 -84.127
v 120.359 -255 -84.127
v 114.821 -255 -99.5281
v 120.359 -229.258 -84.127
v 71.6184 -297.391 -72.7338
v 74.8392 -297.244 -63.8926
v 125.898 -229.096 -68.726
v 120.359 -229.258 -84.127
v 125.898 -229.096 -68.726
v 125.898 -255 -68.726
v 120.359 -255 -84.127
v 125.898 -229.096 -68.726
v 74.8392 -297.244 -63.8926
v 74.4473 -296.008 -60.7168
v 121.871 -225.687 -52.6688
v 125.898 -229.096 -68.726
v 121.871 -225.687 -52.6688
v 121.871 -255 -52.6688
v 125.898 -255 -68.726
v 121.871 -225.687 -52.6688
v 74.4473 -296.008 -60.7168
v 74.0938 -294.747 -57.5892
v 117.844 -222.278 -36.6116
v 121.871 -225.687 -52.6688
v 117.844 -222.278 -36.6116
v 117.844 -255 -36.6116
v 121.871 -255 -52.6688
v 117.844 -222.278 -36.6116
v 74.0938 -294.747 -57.5892
v 69.8227 -288.265 -49.7045
v 106.884 -216.331 -24.2079
v 117.844 -222.278 -36.6116
v 106.884 -216.331 -24.2079
v 106.884 -255 -24.2079
v 117.844 -255 -36.6116
v 106.884 -216.331 -24.2079
v 69.8227 -288.265 -49.7045
v 65.3367 -281.34 -41.3375
v 95.9236 -210.384 -11.8042
v 106.884 -216.331 -24.2079
v 95.9236 -210.384 -11.8042
v 95.9236 -255 -11.8042
v 106.884 -255 -24.2079
v 95.9236 -210.384 -11.8042
v 65.3367 -281.34 -41.3375
v 53.6477 -263.279 -32.8846
v 80.1825 -201.722 -7.26374
v 95.9236 -210.384 -11.8042
v 80.1825 -201.722 -7.26374
v 80.1825 -255 -7.26374
v 95.9236 -255 -11.8042
v 80.1825 -201.722 -7.26374
v 53.6477 -263.279 -32.8846
v 41.9586 -245.217 -24.4317
v 64.4415 -193.061 -2.72334
v 80.1825 -201.722 -7.26374
v 64.4415 -193.061 -2.72334
v 64.4415 -255 -2.72334
v 80.1825 -255 -7.26374
v 64.4415 -193.061 -2.72334
v 41.9586 -245.217 -24.4317
v 18.2099 -208.617 -7.3
v 55 -187.865 0
v 64.4415 -193.061 -2.72334
v 55 -187.865 0
v 55 -255 0
v 64.4415 -255 -2.72334
vn -0.187295 -0.250552 -0.949813
vn 0.346117 4.89547e-16 0.938191
vn -0.431936 -0.660129 -0.614541
vn 0.829918 3.7378e-16 0.557885
vn -0.431936 -0.660129 -0.614541
vn 0.829918 5.16897e-16 0.557885
vn -0.431936 -0.660129 -0.614541
vn 0.829918 4.81299e-16 0.557885
vn -0.431936 -0.660129 -0.614541
vn 0.829918 4.63365e-17 0.557885
vn -0.888122 -0.410321 0.207066
vn 0.962859 1.33585e-16 -0.270004
vn -0.888122 -0.410321 0.207066
vn 0.962859 2.39961e-16 -0.270004
vn -0.888122 -0.410321 0.207066
vn 0.962859 -2.1383e-17 -0.270004
vn -0.36634 -0.733817 0.572108
vn 0.634827 -5.61373e-16 -0.772654
vn -0.36634 -0.733817 0.572108
vn 0.634827 -4.86053e-16 -0.772654
vn 0.0524213 -0.254475 0.965658
vn 0.027391 -4.21869e-16 -0.999625
vn 0.0524213 -0.254475 0.965658
vn 0.027391 -4.83513e-16 -0.999625
vn 0.0524213 -0.254475 0.965658
vn 0.027391 -3.93002e-16 -0.999625
vn 0.0524213 -0.254475 0.965658
vn 0.027391 -4.87924e-16 -0.999625
vn 0.0524213 -0.254475 0.965658
vn 0.027391 -3.36795e-16 -0.999625
vn 0.0524213 -0.254475 0.965658
vn 0.027391 -4.56399e-16 -0.999625
vn 0.0524213 -0.254475 0.965658
vn 0.027391 -2.91686e-16 -0.999625
vn 0.0524213 -0.254475 0.965658
vn 0.027391 -4.05388e-16 -0.999625
vn 0.0524213 -0.254475 0.965658
vn 0.027391 -6.16324e-16 -0.999625
vn 0.0524213 -0.254475 0.965658
vn 0.027391 -8.1704e-16 -0.999625
vn 0.0524213 -0.254475 0.965658
vn 0.027391 0 -0.999625
vn -0.761871 -0.589802 0.267742
vn 0.941006 0 -0.338389
vn -0.761871 -0.589802 0.267742
vn 0.941006 -2.69847e-16 -0.338389
vn -0.761871 -0.589802 0.267742
vn 0.941006 0 -0.338389
vn -0.770995 -0.555569 -0.311304
vn 0.969963 -5.85696e-17 0.243252
vn -0.770995 -0.555569 -0.311304
vn 0.969963 5.24678e-17 0.243252
vn -0.509563 -0.50854 -0.69407
vn 0.749369 -1.33215e-16 0.662153
vn -0.509563 -0.50854 -0.69407
vn 0.749369 7.69724e-17 0.662153
vn -0.0439612 -0.399985 -0.915467
vn 0.277145 3.25625e-17 0.960828
vn -0.0439612 -0.399985 -0.915467
vn 0.277145 -4.20132e-17 0.960828
vn -0.0439612 -0.399985 -0.915467
vn 0.277145 0 0.960828
f 1//1 2//1 3//1 4//1 
f 5//2 6//2 7//2 8//2 
f 9//3 10//3 11//3 12//3 
f 13//4 14//4 15//4 16//4 
f 17//5 18//5 19//5 20//5 
f 21//6 22//6 23//6 24//6 
f 25//7 26//7 27//7 28//7 
f 29//8 30//8 31//8 32//8 
f 33//9 34//9 35//9 36//9 
f 37//10 38//10 39//10 40//10 
f 41//11 42//11 43//11 44//11 
f 45//12 46//12 47//12 48//12 
f 49//13 50//13 51//13 52//13 
f 53//14 54//14 55//14 56//14 
f 57//15 58//15 59//15 60//15 
f 61//16 62//16 63//16 64//16 
f 65//17 66//17 67//17 68//17 
f 69//18 70//18 71//18 72//18 
f 73//19 74//19 75//19 76//19 
f 77//20 78//20 79//20 80//20 
f 81//21 82//21 83//21 84//21 
f 85//22 86//22 87//22 88//22 
f 89//23 90//23 91//23 92//23 
f 93//24 94//24 95//24 96//24 
f 97//25 98//25 99//25 100//25 
f 101//26 102//26 103//26 104//26 
f 105//27 106//27 107//27 108//27 
f 109//28 110//28 111//28 112//28 
f 113//29 114//29 115//29 116//29 
f 117//30 118//30 119//30 120//30 
f 121//31 122//31 123//31 124//31 
f 125//32 126//32 127//32 128//32 
f 129//33 130//33 131//33 132//33 
f 133//34 134//34 135//34 136//34 
f 137//35 138//35 139//35 140//35 
f 141//36 142//36 143//36 144//36 
f 145//37 146//37 147//37 148//37 
f 149//38 150//38 151//38 152//38 
f 153//39 154//39 155//39 156//39 
f 157//40 158//40 159//40 160//40 
f 161//41 162//41 163//41 164//41 
f 165//42 166//42 167//42 168//42 
f 169//43 170//43 171//43 172//43 
f 173//44 174//44 175//44 176//44 
f 177//45 178//45 179//45 180//45 
f 181//46 182//46 183//46 184//46 
f 185//47 186//47 187//47 188//47 
f 189//48 190//48 191//48 192//48 
f 193//49 194//49 195//49 196//49 
f 197//50 198//50 199//50 200//50 
f 201//51 202//51 203//51 204//51 
f 205//52 206//52 207//52 208//52 
f 209//53 210//53 211//53 212//53 
f 213//54 214//54 215//54 216//54 
f 217//55 218//55 219//55 220//55 
f 221//56 222//56 223//56 224//56 
f 225//57 226//57 227//57 228//57 
f 229//58 230//58 231//58 232//58 
f 233//59 234//59 235//59 236//59 
f 237//60 238//60 239//60 240//60 
f 241//61 242//61 243//61 244//61 
f 245//62 246//62 247//62 248//62 
