v 186.72 -201.615 253.689
v 225.239 -223.961 256.821
v 204.591 -192.394 243.11
v 186.72 -201.615 253.689
v 204.591 -192.394 243.11
v 212.608 -317.613 257.719
v 189.902 -316.677 269.267
v 204.591 -192.394 243.11
v 225.239 -223.961 256.821
v 283.573 -261.177 257.819
v 286.304 -257.011 253.575
v 220.286 -184.687 230.509
v 204.591 -192.394 243.11
v 220.286 -184.687 230.509
v 225.257 -318.489 248.718
v 212.608 -317.613 257.719
v 220.286 -184.687 230.509
v 286.304 -257.011 253.575
v 295.098 -243.572 235.842
v 234.212 -178.167 215.739
v 220.286 -184.687 230.509
v 234.212 -178.167 215.739
v 236.567 -319.671 237.84
v 225.257 -318.489 248.718
v 234.212 -178.167 215.739
v 295.098 -243.572 235.842
v 302.337 -232.236 216.463
v 246.018 -172.911 199.205
v 234.212 -178.167 215.739
v 246.018 -172.911 199.205
v 246.362 -321.152 225.165
v 236.567 -319.671 237.84
v 246.018 -172.911 199.205
v 302.337 -232.236 216.463
v 307.052 -224.369 198.726
v 255.418 -168.958 181.377
v 246.018 -172.911 199.205
v 255.418 -168.958 181.377
v 254.422 -322.912 210.8
v 246.362 -321.152 225.165
v 255.418 -168.958 181.377
v 307.052 -224.369 198.726
v 310.379 -217.924 178.814
v 262.212 -166.296 162.762
v 255.418 -168.958 181.377
v 262.212 -166.296 162.762
v 260.504 -324.916 194.899
v 254.422 -322.912 210.8
v 262.212 -166.296 162.762
v 310.379 -217.924 178.814
v 311.756 -213.742 159.568
v 266.307 -164.867 143.864
v 262.212 -166.296 162.762
v 266.307 -164.867 143.864
v 264.354 -327.117 177.673
v 260.504 -324.916 194.899
v 266.307 -164.867 143.864
v 311.756 -213.742 159.568
v 311.22 -211.123 137.657
v 267.705 -164.566 125.153
v 266.307 -164.867 143.864
v 267.705 -164.566 125.153
v 265.73 -329.451 159.393
v 264.354 -327.117 177.673
v 267.705 -164.566 125.153
v 311.22 -211.123 137.657
v 308.544 -210.575 116.286
v 266.496 -165.27 107.035
v 267.705 -164.566 125.153
v 266.496 -165.27 107.035
v 264.419 -331.847 140.387
v 265.73 -329.451 159.393
v 266.496 -165.27 107.035
v 308.544 -210.575 116.286
v 303.089 -212.161 92.9589
v 262.824 -166.844 89.8307
v 266.496 -165.27 107.035
v 262.824 -166.844 89.8307
v 260.254 -334.223 121.028
v 264.419 -331.847 140.387
v 262.824 -166.844 89.8307
v 303.089 -212.161 92.9589
v 295.194 -215.856 70.6615
v 256.858 -169.173 73.7803
v 262.824 -166.844 89.8307
v 256.858 -169.173 73.7803
v 253.123 -336.5 101.725
v 260.254 -334.223 121.028
v 256.858 -169.173 73.7803
v 295.194 -215.856 70.6615
v 283.568 -222.34 46.9042
v 248.757 -172.171 59.0438
v 256.858 -169.173 73.7803
v 248.757 -172.171 59.0438
v 242.967 -338.598 82.903
v 253.123 -336.5 101.725
v 248.757 -172.171 59.0438
v 283.568 -222.34 46.9042
v 268.785 -231.442 23.9234
v 238.639 -175.802 45.7205
v 248.757 -172.171 59.0438
v 238.639 -175.802 45.7205
v 229.784 -340.451 64.9929
v 242.967 -338.598 82.903
v 238.639 -175.802 45.7205
v 268.785 -231.442 23.9234
v 247.965 -245.262 -1.4727
v 226.553 -180.086 33.8717
v 238.639 -175.802 45.7205
v 226.553 -180.086 33.8717
v 213.618 -342.005 48.4221
v 229.784 -340.451 64.9929
v 226.553 -180.086 33.8717
v 247.965 -245.262 -1.4727
v 220.623 -264.724 -28.2846
v 212.454 -185.123 23.5488
v 226.553 -180.086 33.8717
v 212.454 -185.123 23.5488
v 194.551 -343.226 33.608
v 213.618 -342.005 48.4221
v 212.454 -185.123 23.5488
v 220.623 -264.724 -28.2846
v 181.262 -294.832 -60.0306
v 178.695 -292.427 -59.1282
v 196.184 -191.105 14.8244
v 212.454 -185.123 23.5488
v 196.184 -191.105 14.8244
v 172.693 -344.104 20.9576
v 194.551 -343.226 33.608
v 196.184 -191.105 14.8244
v 178.695 -292.427 -59.1282
v 146.967 -266.613 -43.8172
v 177.452 -198.358 7.82501
v 196.184 -191.105 14.8244
v 177.452 -198.358 7.82501
v 148.176 -344.655 10.8703
v 172.693 -344.104 20.9576
v 177.452 -198.358 7.82501
v 146.967 -266.613 -43.8172
v 124.482 -251.18 -29.1864
v 155.8 -207.388 2.76471
v 177.452 -198.358 7.82501
v 155.8 -207.388 2.76471
v 121.15 -344.926 3.74307
v 148.176 -344.655 10.8703
v 155.8 -207.388 2.76471
v 124.482 -251.18 -29.1864
v 102.426 -239.094 -10.1176
v 130.732 -218.886 0
v 155.8 -207.388 2.76471
v 130.732 -218.886 0
v 95 -335.154 0
v 94.9754 -344.992 0.385051
v 121.15 -344.926 3.74307
v 130.732 -218.886 0
v 102.426 -239.094 -10.1176
v 95 -237.471 0
v 130.732 -218.886 0
v 95 -237.471 0
v 95 -335.154 0
vn 0.228168 -0.509602 0.829605
vn -0.453682 0.131874 -0.881352
vn 0.339612 -0.552714 0.761033
vn -0.580795 0.130924 -0.803453
vn 0.428425 -0.605088 0.671059
vn -0.694613 0.122287 -0.708914
vn 0.507765 -0.647388 0.568386
vn -0.792759 0.106923 -0.600084
vn 0.576252 -0.679264 0.45446
vn -0.873309 0.0859959 -0.479516
vn 0.636109 -0.696628 0.331774
vn -0.934811 0.0608264 -0.349899
vn 0.684228 -0.700944 0.201271
vn -0.976283 0.0328446 -0.213994
vn 0.720274 -0.690647 0.0649047
vn -0.997209 0.00354294 -0.0745829
vn 0.738503 -0.670035 -0.0752826
vn -0.99752 -0.0255663 0.0655781
vn 0.737265 -0.640163 -0.215943
vn -0.977577 -0.0529924 0.203799
vn 0.711478 -0.607814 -0.352647
vn -0.93815 -0.0773056 0.33749
vn 0.661612 -0.575425 -0.480786
vn -0.88039 -0.097176 0.464189
vn 0.585808 -0.550429 -0.594858
vn -0.805812 -0.111413 0.581596
vn 0.487382 -0.534548 -0.690447
vn -0.716267 -0.119006 0.687604
vn 0.367118 -0.533736 -0.761807
vn -0.613906 -0.119162 0.780333
vn 0.230102 -0.547503 -0.804545
vn -0.501142 -0.111346 0.858172
vn 0.0791897 -0.578743 -0.811656
vn -0.380595 -0.0953082 0.919817
vn -0.0782249 -0.623507 -0.777895
vn -0.255023 -0.0711063 0.964317
vn -0.233254 -0.676483 -0.698544
vn -0.127248 -0.0391069 0.9911
vn -0.415825 -0.7995 -0.433461
vn 0 0 1
f 1//1 2//1 3//1 
f 4//2 5//2 6//2 7//2 
f 8//3 9//3 10//3 11//3 12//3 
f 13//4 14//4 15//4 16//4 
f 17//5 18//5 19//5 20//5 
f 21//6 22//6 23//6 24//6 
f 25//7 26//7 27//7 28//7 
f 29//8 30//8 31//8 32//8 
f 33//9 34//9 35//9 36//9 
f 37//10 38//10 39//10 40//10 
f 41//11 42//11 43//11 44//11 
f 45//12 46//12 47//12 48//12 
f 49//13 50//13 51//13 52//13 
f 53//14 54//14 55//14 56//14 
f 57//15 58//15 59//15 60//15 
f 61//16 62//16 63//16 64//16 
f 65//17 66//17 67//17 68//17 
f 69//18 70//18 71//18 72//18 
f 73//19 74//19 75//19 76//19 
f 77//20 78//20 79//20 80//20 
f 81//21 82//21 83//21 84//21 
f 85//22 86//22 87//22 88//22 
f 89//23 90//23 91//23 92//23 
f 93//24 94//24 95//24 96//24 
f 97//25 98//25 99//25 100//25 
f 101//26 102//26 103//26 104//26 
f 105//27 106//27 107//27 108//27 
f 109//28 110//28 111//28 112//28 
f 113//29 114//29 115//29 116//29 
f 117//30 118//30 119//30 120//30 
f 121//31 122//31 123//31 124//31 125//31 
f 126//32 127//32 128//32 129//32 
f 130//33 131//33 132//33 133//33 
f 134//34 135//34 136//34 137//34 
f 138//35 139//35 140//35 141//35 
f 142//36 143//36 144//36 145//36 
f 146//37 147//37 148//37 149//37 
f 150//38 151//38 152//38 153//38 154//38 
f 155//39 156//39 157//39 
f 158//40 159//40 160//40 
