v 186.72 -201.615 253.689
v 183.6 -88.8423 238.421
v 197.999 -89.4355 231.098
v 204.591 -192.394 243.11
v 186.72 -201.615 253.689
v 204.591 -192.394 243.11
v 212.608 -317.613 257.719
v 189.902 -316.677 269.267
v 204.591 -192.394 243.11
v 197.999 -89.4355 231.098
v 216.795 -90.7369 217.723
v 220.286 -184.687 230.509
v 204.591 -192.394 243.11
v 220.286 -184.687 230.509
v 225.257 -318.489 248.718
v 212.608 -317.613 257.719
v 220.286 -184.687 230.509
v 216.795 -90.7369 217.723
v 232.784 -92.4086 202.344
v 234.212 -178.167 215.739
v 220.286 -184.687 230.509
v 234.212 -178.167 215.739
v 236.567 -319.671 237.84
v 225.257 -318.489 248.718
v 234.212 -178.167 215.739
v 232.784 -92.4086 202.344
v 245.836 -94.3824 185.453
v 246.018 -172.911 199.205
v 234.212 -178.167 215.739
v 246.018 -172.911 199.205
v 246.362 -321.152 225.165
v 236.567 -319.671 237.84
v 246.018 -172.911 199.205
v 245.836 -94.3824 185.453
v 255.886 -96.5763 167.544
v 255.418 -168.958 181.377
v 246.018 -172.911 199.205
v 255.418 -168.958 181.377
v 254.422 -322.912 210.8
v 246.362 -321.152 225.165
v 255.418 -168.958 181.377
v 255.886 -96.5763 167.544
v 262.938 -98.9005 149.107
v 262.212 -166.296 162.762
v 255.418 -168.958 181.377
v 262.212 -166.296 162.762
v 260.504 -324.916 194.899
v 254.422 -322.912 210.8
v 262.212 -166.296 162.762
v 262.938 -98.9005 149.107
v 267.072 -101.263 130.611
v 266.307 -164.867 143.864
v 262.212 -166.296 162.762
v 266.307 -164.867 143.864
v 264.354 -327.117 177.673
v 260.504 -324.916 194.899
v 266.307 -164.867 143.864
v 267.072 -101.263 130.611
v 268.435 -103.578 112.489
v 267.705 -164.566 125.153
v 266.307 -164.867 143.864
v 267.705 -164.566 125.153
v 265.73 -329.451 159.393
v 264.354 -327.117 177.673
v 267.705 -164.566 125.153
v 268.435 -103.578 112.489
v 267.238 -105.767 95.1208
v 266.496 -165.27 107.035
v 267.705 -164.566 125.153
v 266.496 -165.27 107.035
v 264.419 -331.847 140.387
v 265.73 -329.451 159.393
v 266.496 -165.27 107.035
v 267.238 -105.767 95.1208
v 263.731 -107.768 78.8196
v 262.824 -166.844 89.8307
v 266.496 -165.27 107.035
v 262.824 -166.844 89.8307
v 260.254 -334.223 121.028
v 264.419 -331.847 140.387
v 262.824 -166.844 89.8307
v 263.731 -107.768 78.8196
v 258.189 -109.536 63.8205
v 256.858 -169.173 73.7803
v 262.824 -166.844 89.8307
v 256.858 -169.173 73.7803
v 253.123 -336.5 101.725
v 260.254 -334.223 121.028
v 256.858 -169.173 73.7803
v 258.189 -109.536 63.8205
v 250.884 -111.046 50.2807
v 248.757 -172.171 59.0438
v 256.858 -169.173 73.7803
v 248.757 -172.171 59.0438
v 242.967 -338.598 82.903
v 253.123 -336.5 101.725
v 248.757 -172.171 59.0438
v 250.884 -111.046 50.2807
v 242.055 -112.287 38.286
v 238.639 -175.802 45.7205
v 248.757 -172.171 59.0438
v 238.639 -175.802 45.7205
v 229.784 -340.451 64.9929
v 242.967 -338.598 82.903
v 238.639 -175.802 45.7205
v 242.055 -112.287 38.286
v 231.89 -113.264 27.8669
v 226.553 -180.086 33.8717
v 238.639 -175.802 45.7205
v 226.553 -180.086 33.8717
v 213.618 -342.005 48.4221
v 229.784 -340.451 64.9929
v 226.553 -180.086 33.8717
v 231.89 -113.264 27.8669
v 220.508 -113.993 19.0233
v 212.454 -185.123 23.5488
v 226.553 -180.086 33.8717
v 212.454 -185.123 23.5488
v 194.551 -343.226 33.608
v 213.618 -342.005 48.4221
v 212.454 -185.123 23.5488
v 220.508 -113.993 19.0233
v 207.947 -114.498 11.7535
v 196.184 -191.105 14.8244
v 212.454 -185.123 23.5488
v 196.184 -191.105 14.8244
v 172.693 -344.104 20.9576
v 194.551 -343.226 33.608
v 196.184 -191.105 14.8244
v 207.947 -114.498 11.7535
v 194.171 -114.807 6.0858
v 177.452 -198.358 7.82501
v 196.184 -191.105 14.8244
v 177.452 -198.358 7.82501
v 148.176 -344.655 10.8703
v 172.693 -344.104 20.9576
v 177.452 -198.358 7.82501
v 194.171 -114.807 6.0858
v 179.085 -114.959 2.10723
v 155.8 -207.388 2.76471
v 177.452 -198.358 7.82501
v 155.8 -207.388 2.76471
v 121.15 -344.926 3.74307
v 148.176 -344.655 10.8703
v 155.8 -207.388 2.76471
v 179.085 -114.959 2.10723
v 162.66 -115 0
v 130.732 -218.886 0
v 155.8 -207.388 2.76471
v 130.732 -218.886 0
v 95 -335.154 0
v 94.9754 -344.992 0.385051
v 121.15 -344.926 3.74307
v 130.732 -218.886 0
v 162.66 -115 0
v 95 -115 0
v 95 -237.471 0
v 130.732 -218.886 0
v 95 -237.471 0
v 95 -335.154 0
vn -0.453682 0.131874 -0.881352
vn -0.453682 0.131874 -0.881352
vn -0.580795 0.130924 -0.803453
vn -0.580795 0.130924 -0.803453
vn -0.694613 0.122287 -0.708914
vn -0.694613 0.122287 -0.708914
vn -0.792759 0.106923 -0.600084
vn -0.792759 0.106923 -0.600084
vn -0.873309 0.0859959 -0.479516
vn -0.873309 0.0859959 -0.479516
vn -0.934811 0.0608264 -0.349899
vn -0.934811 0.0608264 -0.349899
vn -0.976283 0.0328446 -0.213994
vn -0.976283 0.0328446 -0.213994
vn -0.997209 0.00354294 -0.0745829
vn -0.997209 0.00354294 -0.0745829
vn -0.99752 -0.0255663 0.0655781
vn -0.99752 -0.0255663 0.0655781
vn -0.977577 -0.0529924 0.203799
vn -0.977577 -0.0529924 0.203799
vn -0.93815 -0.0773056 0.33749
vn -0.93815 -0.0773056 0.33749
vn -0.88039 -0.097176 0.464189
vn -0.88039 -0.097176 0.464189
vn -0.805812 -0.111413 0.581596
vn -0.805812 -0.111413 0.581596
vn -0.716267 -0.119006 0.687604
vn -0.716267 -0.119006 0.687604
vn -0.613906 -0.119162 0.780333
vn -0.613906 -0.119162 0.780333
vn -0.501142 -0.111346 0.858172
vn -0.501142 -0.111346 0.858172
vn -0.380595 -0.0953082 0.919817
vn -0.380595 -0.0953082 0.919817
vn -0.255023 -0.0711063 0.964317
vn -0.255023 -0.0711063 0.964317
vn -0.127248 -0.0391069 0.9911
vn -0.127248 -0.0391069 0.9911
vn 0 0 1
vn 0 0 1
f 1//1 2//1 3//1 4//1 
f 5//2 6//2 7//2 8//2 
f 9//3 10//3 11//3 12//3 
f 13//4 14//4 15//4 16//4 
f 17//5 18//5 19//5 20//5 
f 21//6 22//6 23//6 24//6 
f 25//7 26//7 27//7 28//7 
f 29//8 30//8 31//8 32//8 
f 33//9 34//9 35//9 36//9 
f 37//10 38//10 39//10 40//10 
f 41//11 42//11 43//11 44//11 
f 45//12 46//12 47//12 48//12 
f 49//13 50//13 51//13 52//13 
f 53//14 54//14 55//14 56//14 
f 57//15 58//15 59//15 60//15 
f 61//16 62//16 63//16 64//16 
f 65//17 66//17 67//17 68//17 
f 69//18 70//18 71//18 72//18 
f 73//19 74//19 75//19 76//19 
f 77//20 78//20 79//20 80//20 
f 81//21 82//21 83//21 84//21 
f 85//22 86//22 87//22 88//22 
f 89//23 90//23 91//23 92//23 
f 93//24 94//24 95//24 96//24 
f 97//25 98//25 99//25 100//25 
f 101//26 102//26 103//26 104//26 
f 105//27 106//27 107//27 108//27 
f 109//28 110//28 111//28 112//28 
f 113//29 114//29 115//29 116//29 
f 117//30 118//30 119//30 120//30 
f 121//31 122//31 123//31 124//31 
f 125//32 126//32 127//32 128//32 
f 129//33 130//33 131//33 132//33 
f 133//34 134//34 135//34 136//34 
f 137//35 138//35 139//35 140//35 
f 141//36 142//36 143//36 144//36 
f 145//37 146//37 147//37 148//37 
f 149//38 150//38 151//38 152//38 153//38 
f 154//39 155//39 156//39 157//39 
f 158//40 159//40 160//40 
