v 95 -114.803 4.44089e-16
v 95 -355 0
v 138.594 -355 0
v 116.688 -105.005 -1.08884
v 94.9981 -105 -0.0824598
v 95 -114.803 4.44089e-16
v 138.594 -355 0
v 150.208 -355.002 -0.538856
v 139.407 -105.025 -3.42632
v 116.688 -105.005 -1.08884
v 150.208 -355.002 -0.538856
v 162.714 -355.013 -1.82559
v 161.292 -105.072 -7.15168
v 139.407 -105.025 -3.42632
v 162.714 -355.013 -1.82559
v 175.999 -355.042 -4.08704
v 182.318 -105.158 -12.4006
v 161.292 -105.072 -7.15168
v 175.999 -355.042 -4.08704
v 189.951 -355.099 -7.56994
v 202.382 -105.291 -19.2873
v 182.318 -105.158 -12.4006
v 189.951 -355.099 -7.56994
v 204.388 -355.195 -12.5252
v 221.307 -105.478 -27.8909
v 202.382 -105.291 -19.2873
v 204.388 -355.195 -12.5252
v 219.054 -355.34 -19.1929
v 238.855 -105.719 -38.2402
v 221.307 -105.478 -27.8909
v 219.054 -355.34 -19.1929
v 233.621 -355.54 -27.7842
v 254.74 -106.009 -50.2977
v 238.855 -105.719 -38.2402
v 233.621 -355.54 -27.7842
v 247.688 -355.797 -38.4612
v 268.647 -106.335 -63.9443
v 254.74 -106.009 -50.2977
v 247.688 -355.797 -38.4612
v 260.788 -356.103 -51.3152
v 284.11 -106.597 -74.9602
v 268.647 -106.335 -63.9443
v 260.788 -356.103 -51.3152
v 276.257 -356.366 -62.3353
v 300.745 -106.764 -82.9129
v 284.11 -106.597 -74.9602
v 276.257 -356.366 -62.3353
v 293.926 -356.543 -70.7823
v 317.998 -106.803 -87.4424
v 300.745 -106.764 -82.9129
v 293.926 -356.543 -70.7823
v 313.401 -356.587 -75.8955
v 335.158 -106.69 -88.325
v 317.998 -106.803 -87.4424
v 313.401 -356.587 -75.8955
v 334.033 -356.452 -76.9566
v 351.396 -106.415 -85.5356
v 335.158 -106.69 -88.325
v 334.033 -356.452 -76.9566
v 354.896 -356.098 -73.3728
v 365.833 -105.994 -79.2998
v 351.396 -106.415 -85.5356
v 354.896 -356.098 -73.3728
v 374.808 -355.517 -64.7723
v 377.629 -105.473 -70.1203
v 365.833 -105.994 -79.2998
v 374.808 -355.517 -64.7723
v 392.368 -354.742 -51.1065
v 386.085 -104.938 -58.7677
v 377.629 -105.473 -70.1203
v 392.368 -354.742 -51.1065
v 406.043 -353.876 -32.7479
v 390.748 -104.51 -46.2275
v 386.085 -104.938 -58.7677
v 406.043 -353.876 -32.7479
v 410.442 -353.472 -20.9175
v 406.562 -271.512 -22.275
v 406.562 -271.512 -22.275
v 391.594 -104.249 -23.6421
v 390.748 -104.51 -46.2275
vn 0 1.84885e-18 1
vn 0.0463493 -0.00841207 0.99889
vn 0.102344 -0.0159105 0.994622
vn 0.167817 -0.0219568 0.985574
vn 0.242221 -0.0261419 0.969869
vn 0.32469 -0.0281875 0.9454
vn 0.41393 -0.0279427 0.90988
vn 0.5081 -0.0253896 0.860924
vn 0.604702 -0.0206564 0.796184
vn 0.700486 -0.0140356 0.713528
vn 0.580328 -0.0229 0.814061
vn 0.431353 -0.03201 0.901615
vn 0.253815 -0.0400047 0.966425
vn 0.0510159 -0.0451813 0.997675
vn -0.169868 -0.0455728 0.984412
vn -0.397179 -0.039098 0.916908
vn -0.614639 -0.0237976 0.788449
vn -0.801924 0.00184778 0.597423
vn -0.936174 0.0385328 0.34942
vn -0.995316 0.0887524 0.0383255
f 1//1 2//1 3//1 
f 4//2 5//2 6//2 7//2 8//2 
f 9//3 10//3 11//3 12//3 
f 13//4 14//4 15//4 16//4 
f 17//5 18//5 19//5 20//5 
f 21//6 22//6 23//6 24//6 
f 25//7 26//7 27//7 28//7 
f 29//8 30//8 31//8 32//8 
f 33//9 34//9 35//9 36//9 
f 37//10 38//10 39//10 40//10 
f 41//11 42//11 43//11 44//11 
f 45//12 46//12 47//12 48//12 
f 49//13 50//13 51//13 52//13 
f 53//14 54//14 55//14 56//14 
f 57//15 58//15 59//15 60//15 
f 61//16 62//16 63//16 64//16 
f 65//17 66//17 67//17 68//17 
f 69//18 70//18 71//18 72//18 
f 73//19 74//19 75//19 76//19 77//19 
f 78//20 79//20 80//20 
