v 202.749 -222.341 264.586
v 208.136 -144.22 265.763
v 220.895 -213.07 249.831
v 202.749 -222.341 264.586
v 220.895 -213.07 249.831
v 241.575 -324.659 224.009
v 195.869 -322.096 263.082
v 220.895 -213.07 249.831
v 208.136 -144.22 265.763
v 209.105 -122.562 265.536
v 221.17 -123.234 252.824
v 231.729 -207.371 238.648
v 220.895 -213.07 249.831
v 231.729 -207.371 238.648
v 246.481 -324.933 218.84
v 241.575 -324.659 224.009
v 231.729 -207.371 238.648
v 221.17 -123.234 252.824
v 235.21 -124.089 234.379
v 241.603 -201.913 225.698
v 231.729 -207.371 238.648
v 241.603 -201.913 225.698
v 251.734 -325.253 211.939
v 246.481 -324.933 218.84
v 241.603 -201.913 225.698
v 235.21 -124.089 234.379
v 246.54 -124.918 215.412
v 250.283 -196.842 211.017
v 241.603 -201.913 225.698
v 250.283 -196.842 211.017
v 256.986 -325.637 203.147
v 251.734 -325.253 211.939
v 250.283 -196.842 211.017
v 246.54 -124.918 215.412
v 255.325 -125.765 195.917
v 257.485 -192.338 194.752
v 250.283 -196.842 211.017
v 257.485 -192.338 194.752
v 261.823 -326.103 192.412
v 256.986 -325.637 203.147
v 257.485 -192.338 194.752
v 255.325 -125.765 195.917
v 261.62 -126.651 175.982
v 262.917 -188.593 177.162
v 257.485 -192.338 194.752
v 262.917 -188.593 177.162
v 265.808 -326.664 179.793
v 261.823 -326.103 192.412
v 262.917 -188.593 177.162
v 261.62 -126.651 175.982
v 265.422 -127.585 155.779
v 266.321 -185.782 158.597
v 262.917 -188.593 177.162
v 266.321 -185.782 158.597
v 268.507 -327.327 165.45
v 265.808 -326.664 179.793
v 266.321 -185.782 158.597
v 265.422 -127.585 155.779
v 266.718 -128.558 135.552
v 267.497 -184.045 139.47
v 266.321 -185.782 158.597
v 267.497 -184.045 139.47
v 269.52 -328.088 149.641
v 268.507 -327.327 165.45
v 267.497 -184.045 139.47
v 266.718 -128.558 135.552
v 265.515 -129.553 115.606
v 266.322 -183.467 120.23
v 267.497 -184.045 139.47
v 266.322 -183.467 120.23
v 268.499 -328.932 132.705
v 269.52 -328.088 149.641
v 266.322 -183.467 120.23
v 265.515 -129.553 115.606
v 261.868 -130.542 96.2846
v 262.754 -184.077 101.324
v 266.322 -183.467 120.23
v 262.754 -184.077 101.324
v 265.165 -329.836 115.045
v 268.499 -328.932 132.705
v 262.754 -184.077 101.324
v 261.868 -130.542 96.2846
v 255.891 -131.494 77.9534
v 256.826 -185.851 83.1793
v 262.754 -184.077 101.324
v 256.826 -185.851 83.1793
v 259.319 -330.768 97.1118
v 265.165 -329.836 115.045
v 256.826 -185.851 83.1793
v 255.891 -131.494 77.9534
v 247.773 -132.375 60.9754
v 248.641 -188.723 66.1803
v 256.826 -185.851 83.1793
v 248.641 -188.723 66.1803
v 250.843 -331.687 79.386
v 259.319 -330.768 97.1118
v 248.641 -188.723 66.1803
v 247.773 -132.375 60.9754
v 237.777 -133.152 45.6873
v 238.353 -192.605 50.6573
v 248.641 -188.723 66.1803
v 238.353 -192.605 50.6573
v 239.708 -332.553 62.3562
v 250.843 -331.687 79.386
v 238.353 -192.605 50.6573
v 237.777 -133.152 45.6873
v 226.232 -133.801 32.3774
v 226.145 -197.404 36.8805
v 238.353 -192.605 50.6573
v 226.145 -197.404 36.8805
v 225.958 -333.326 46.5038
v 239.708 -332.553 62.3562
v 226.145 -197.404 36.8805
v 226.232 -133.801 32.3774
v 213.526 -134.304 21.2639
v 212.211 -203.044 25.0593
v 226.145 -197.404 36.8805
v 212.211 -203.044 25.0593
v 209.706 -333.969 32.2884
v 225.958 -333.326 46.5038
v 212.211 -203.044 25.0593
v 213.526 -134.304 21.2639
v 200.08 -134.657 12.4791
v 196.721 -209.486 15.3479
v 212.211 -203.044 25.0593
v 196.721 -209.486 15.3479
v 191.11 -334.459 20.1391
v 209.706 -333.969 32.2884
v 196.721 -209.486 15.3479
v 200.08 -134.657 12.4791
v 186.323 -134.873 6.05921
v 179.782 -216.761 7.85926
v 196.721 -209.486 15.3479
v 179.782 -216.761 7.85926
v 170.355 -334.783 10.4536
v 191.11 -334.459 20.1391
v 179.782 -216.761 7.85926
v 186.323 -134.873 6.05921
v 172.66 -134.974 1.94395
v 161.389 -225.002 2.6928
v 179.782 -216.761 7.85926
v 161.389 -225.002 2.6928
v 147.624 -334.952 3.60735
v 170.355 -334.783 10.4536
v 161.389 -225.002 2.6928
v 172.66 -134.974 1.94395
v 159.514 -135 -8.88178e-16
v 141.473 -234.442 -4.46567e-16
v 161.389 -225.002 2.6928
v 141.473 -234.442 -4.46567e-16
v 123.229 -335 0
v 147.624 -334.952 3.60735
v 141.473 -234.442 -4.46567e-16
v 159.514 -135 -8.88178e-16
v 115 -135 0
v 115 -248.066 0
v 141.473 -234.442 -4.46567e-16
v 115 -248.066 0
v 115 -335 0
v 123.229 -335 0
vn -0.646956 -0.0560798 -0.760462
vn -0.646956 -0.0560798 -0.760462
vn -0.724422 -0.0251641 -0.688898
vn -0.724422 -0.0251641 -0.688898
vn -0.795652 -0.00221619 -0.60575
vn -0.795652 -0.00221619 -0.60575
vn -0.858686 0.013383 -0.512328
vn -0.858686 0.013383 -0.512328
vn -0.911835 0.0224048 -0.409944
vn -0.911835 0.0224048 -0.409944
vn -0.953606 0.0256834 -0.29996
vn -0.953606 0.0256834 -0.29996
vn -0.982666 0.0240792 -0.183813
vn -0.982666 0.0240792 -0.183813
vn -0.99784 0.0184667 -0.063048
vn -0.99784 0.0184667 -0.063048
vn -0.998112 0.00973641 0.0606502
vn -0.998112 0.00973641 0.0606502
vn -0.982655 -0.00119688 0.185441
vn -0.982655 -0.00119688 0.185441
vn -0.950864 -0.0133839 0.309321
vn -0.950864 -0.0133839 0.309321
vn -0.9024 -0.0258317 0.430125
vn -0.9024 -0.0258317 0.430125
vn -0.837239 -0.0374972 0.54555
vn -0.837239 -0.0374972 0.54555
vn -0.755724 -0.047284 0.653181
vn -0.755724 -0.047284 0.653181
vn -0.658609 -0.0540437 0.750542
vn -0.658609 -0.0540437 0.750542
vn -0.547115 -0.0565815 0.835143
vn -0.547115 -0.0565815 0.835143
vn -0.422961 -0.0536686 0.904557
vn -0.422961 -0.0536686 0.904557
vn -0.288409 -0.0440626 0.956493
vn -0.288409 -0.0440626 0.956493
vn -0.146285 -0.0265392 0.988886
vn -0.146285 -0.0265392 0.988886
vn 1.99529e-17 -8.2101e-19 1
vn 1.68689e-17 0 1
f 1//1 2//1 3//1 
f 4//2 5//2 6//2 7//2 
f 8//3 9//3 10//3 11//3 12//3 
f 13//4 14//4 15//4 16//4 
f 17//5 18//5 19//5 20//5 
f 21//6 22//6 23//6 24//6 
f 25//7 26//7 27//7 28//7 
f 29//8 30//8 31//8 32//8 
f 33//9 34//9 35//9 36//9 
f 37//10 38//10 39//10 40//10 
f 41//11 42//11 43//11 44//11 
f 45//12 46//12 47//12 48//12 
f 49//13 50//13 51//13 52//13 
f 53//14 54//14 55//14 56//14 
f 57//15 58//15 59//15 60//15 
f 61//16 62//16 63//16 64//16 
f 65//17 66//17 67//17 68//17 
f 69//18 70//18 71//18 72//18 
f 73//19 74//19 75//19 76//19 
f 77//20 78//20 79//20 80//20 
f 81//21 82//21 83//21 84//21 
f 85//22 86//22 87//22 88//22 
f 89//23 90//23 91//23 92//23 
f 93//24 94//24 95//24 96//24 
f 97//25 98//25 99//25 100//25 
f 101//26 102//26 103//26 104//26 
f 105//27 106//27 107//27 108//27 
f 109//28 110//28 111//28 112//28 
f 113//29 114//29 115//29 116//29 
f 117//30 118//30 119//30 120//30 
f 121//31 122//31 123//31 124//31 
f 125//32 126//32 127//32 128//32 
f 129//33 130//33 131//33 132//33 
f 133//34 134//34 135//34 136//34 
f 137//35 138//35 139//35 140//35 
f 141//36 142//36 143//36 144//36 
f 145//37 146//37 147//37 148//37 
f 149//38 150//38 151//38 152//38 
f 153//39 154//39 155//39 156//39 
f 157//40 158//40 159//40 160//40 
